<svg width="183" height="166" viewBox="0 0 183 166" fill="none" xmlns="http://www.w3.org/2000/svg">
<g id="SVG">
<path id="Vector" d="M175.873 94.2046L110.916 10.0724C106.395 4.2333 99.556 0.484508 92.1952 0.280157C84.4025 0.0528128 77.1779 3.48358 72.4519 9.61808L7.13125 94.1823C-2.36563 106.497 -2.38853 123.696 7.13125 135.987L30.1016 165.727C29.4653 163.342 29.9197 160.751 31.4872 158.707L55.5027 127.603L50.2541 120.492C47.8007 117.311 47.8007 112.881 50.2541 109.7L91.5592 53.6723L135 109.7C137.476 112.881 137.476 117.311 135 120.492L128.479 128.898L151.495 158.707C153.063 160.752 153.54 163.342 152.904 165.727L175.874 135.987C185.371 123.696 185.371 106.496 175.874 94.2055" fill="#23B643"/>
</g>
</svg>
