<svg width="32" height="28" viewBox="0 0 32 28" fill="none" xmlns="http://www.w3.org/2000/svg">
<path fill-rule="evenodd" clip-rule="evenodd" d="M0 26C0 25.6022 0.153247 25.2206 0.426027 24.9393C0.698807 24.658 1.06878 24.5 1.45455 24.5H30.5455C30.9312 24.5 31.3012 24.658 31.574 24.9393C31.8468 25.2206 32 25.6022 32 26C32 26.3978 31.8468 26.7794 31.574 27.0607C31.3012 27.342 30.9312 27.5 30.5455 27.5H1.45455C1.06878 27.5 0.698807 27.342 0.426027 27.0607C0.153247 26.7794 0 26.3978 0 26ZM0 14C0 13.6022 0.153247 13.2206 0.426027 12.9393C0.698807 12.658 1.06878 12.5 1.45455 12.5H30.5455C30.9312 12.5 31.3012 12.658 31.574 12.9393C31.8468 13.2206 32 13.6022 32 14C32 14.3978 31.8468 14.7794 31.574 15.0607C31.3012 15.342 30.9312 15.5 30.5455 15.5H1.45455C1.06878 15.5 0.698807 15.342 0.426027 15.0607C0.153247 14.7794 0 14.3978 0 14ZM0 2C0 1.60218 0.153247 1.22064 0.426027 0.93934C0.698807 0.658036 1.06878 0.5 1.45455 0.5H30.5455C30.9312 0.5 31.3012 0.658036 31.574 0.93934C31.8468 1.22064 32 1.60218 32 2C32 2.39782 31.8468 2.77936 31.574 3.06066C31.3012 3.34196 30.9312 3.5 30.5455 3.5H1.45455C1.06878 3.5 0.698807 3.34196 0.426027 3.06066C0.153247 2.77936 0 2.39782 0 2Z" fill="#151515"/>
</svg>
