<svg width="32" height="33" viewBox="0 0 32 33" fill="none" xmlns="http://www.w3.org/2000/svg">
<g id="CalendarEvent" clip-path="url(#clip0_352_11968)">
<path id="Vector" d="M22 13.793C22 13.5278 22.1054 13.2734 22.2929 13.0859C22.4804 12.8983 22.7348 12.793 23 12.793H25C25.2652 12.793 25.5196 12.8983 25.7071 13.0859C25.8946 13.2734 26 13.5278 26 13.793V15.793C26 16.0582 25.8946 16.3125 25.7071 16.5001C25.5196 16.6876 25.2652 16.793 25 16.793H23C22.7348 16.793 22.4804 16.6876 22.2929 16.5001C22.1054 16.3125 22 16.0582 22 15.793V13.793Z" fill="#23B643"/>
<path id="Vector_2" d="M7 0.792969C7.26522 0.792969 7.51957 0.898326 7.70711 1.08586C7.89464 1.2734 8 1.52775 8 1.79297V2.79297H24V1.79297C24 1.52775 24.1054 1.2734 24.2929 1.08586C24.4804 0.898326 24.7348 0.792969 25 0.792969C25.2652 0.792969 25.5196 0.898326 25.7071 1.08586C25.8946 1.2734 26 1.52775 26 1.79297V2.79297H28C29.0609 2.79297 30.0783 3.2144 30.8284 3.96454C31.5786 4.71469 32 5.7321 32 6.79297V28.793C32 29.8538 31.5786 30.8713 30.8284 31.6214C30.0783 32.3715 29.0609 32.793 28 32.793H4C2.93913 32.793 1.92172 32.3715 1.17157 31.6214C0.421427 30.8713 0 29.8538 0 28.793V6.79297C0 5.7321 0.421427 4.71469 1.17157 3.96454C1.92172 3.2144 2.93913 2.79297 4 2.79297H6V1.79297C6 1.52775 6.10536 1.2734 6.29289 1.08586C6.48043 0.898326 6.73478 0.792969 7 0.792969ZM2 8.79297V28.793C2 29.3234 2.21071 29.8321 2.58579 30.2072C2.96086 30.5823 3.46957 30.793 4 30.793H28C28.5304 30.793 29.0391 30.5823 29.4142 30.2072C29.7893 29.8321 30 29.3234 30 28.793V8.79297H2Z" fill="#23B643"/>
</g>
<defs>
<clipPath id="clip0_352_11968">
<rect width="32" height="32" fill="white" transform="translate(0 0.792969)"/>
</clipPath>
</defs>
</svg>
