<svg width="24" height="24" viewBox="0 0 24 24" fill="none" xmlns="http://www.w3.org/2000/svg">
<g id="ChatLeftText">
<path id="Vector" d="M19.4444 2.97194C19.8128 2.97194 20.1661 3.11963 20.4265 3.38254C20.687 3.64544 20.8333 4.00201 20.8333 4.37381V15.5888C20.8333 15.9606 20.687 16.3171 20.4265 16.58C20.1661 16.8429 19.8128 16.9906 19.4444 16.9906H6.13056C5.3939 16.9908 4.68748 17.2863 4.16667 17.8121L1.38889 20.6159V4.37381C1.38889 4.00201 1.53522 3.64544 1.79568 3.38254C2.05615 3.11963 2.40942 2.97194 2.77778 2.97194H19.4444ZM2.77778 1.57007C2.04107 1.57007 1.33453 1.86546 0.813592 2.39126C0.292658 2.91707 0 3.63021 0 4.37381L0 22.3079C2.91873e-05 22.4466 0.040823 22.5822 0.117218 22.6975C0.193614 22.8127 0.302176 22.9026 0.429166 22.9555C0.556155 23.0085 0.695862 23.0223 0.830606 22.9951C0.965349 22.9679 1.08907 22.901 1.18611 22.8028L5.14861 18.8032C5.40902 18.5403 5.76223 18.3926 6.13056 18.3925H19.4444C20.1812 18.3925 20.8877 18.0971 21.4086 17.5713C21.9296 17.0455 22.2222 16.3324 22.2222 15.5888V4.37381C22.2222 3.63021 21.9296 2.91707 21.4086 2.39126C20.8877 1.86546 20.1812 1.57007 19.4444 1.57007H2.77778Z" fill="white"/>
<path id="Vector_2" d="M4.16699 6.47657C4.16699 6.29067 4.24016 6.11238 4.37039 5.98093C4.50062 5.84948 4.67726 5.77563 4.86144 5.77563H17.3614C17.5456 5.77563 17.7223 5.84948 17.8525 5.98093C17.9827 6.11238 18.0559 6.29067 18.0559 6.47657C18.0559 6.66247 17.9827 6.84075 17.8525 6.9722C17.7223 7.10366 17.5456 7.1775 17.3614 7.1775H4.86144C4.67726 7.1775 4.50062 7.10366 4.37039 6.9722C4.24016 6.84075 4.16699 6.66247 4.16699 6.47657ZM4.16699 9.98124C4.16699 9.79534 4.24016 9.61706 4.37039 9.48561C4.50062 9.35416 4.67726 9.28031 4.86144 9.28031H17.3614C17.5456 9.28031 17.7223 9.35416 17.8525 9.48561C17.9827 9.61706 18.0559 9.79534 18.0559 9.98124C18.0559 10.1671 17.9827 10.3454 17.8525 10.4769C17.7223 10.6083 17.5456 10.6822 17.3614 10.6822H4.86144C4.67726 10.6822 4.50062 10.6083 4.37039 10.4769C4.24016 10.3454 4.16699 10.1671 4.16699 9.98124ZM4.16699 13.4859C4.16699 13.3 4.24016 13.1217 4.37039 12.9903C4.50062 12.8588 4.67726 12.785 4.86144 12.785H11.8059C11.9901 12.785 12.1667 12.8588 12.2969 12.9903C12.4272 13.1217 12.5003 13.3 12.5003 13.4859C12.5003 13.6718 12.4272 13.8501 12.2969 13.9816C12.1667 14.113 11.9901 14.1869 11.8059 14.1869H4.86144C4.67726 14.1869 4.50062 14.113 4.37039 13.9816C4.24016 13.8501 4.16699 13.6718 4.16699 13.4859Z" fill="white"/>
</g>
</svg>
