<svg width="48" height="48" viewBox="0 0 48 48" fill="none" xmlns="http://www.w3.org/2000/svg">
<g id="wrapper">
<path id="Union" fill-rule="evenodd" clip-rule="evenodd" d="M33.5809 3.95193C33.4482 3.80867 33.2906 3.69502 33.1171 3.61747C32.9436 3.53992 32.7576 3.5 32.5697 3.5C32.3819 3.5 32.1959 3.53992 32.0223 3.61747C31.8488 3.69502 31.6912 3.80867 31.5586 3.95193L14.4201 22.4113C14.2871 22.5542 14.1815 22.7239 14.1096 22.9108C14.0375 23.0977 14.0005 23.2981 14.0005 23.5004C14.0005 23.7027 14.0375 23.9031 14.1096 24.09C14.1815 24.2769 14.2871 24.4466 14.4201 24.5895L31.5586 43.0489C31.8267 43.3377 32.1905 43.5 32.5697 43.5C32.949 43.5 33.3127 43.3377 33.5809 43.0489C33.8491 42.76 33.9997 42.3683 33.9997 41.9598C33.9997 41.5513 33.8491 41.1595 33.5809 40.8707L17.4507 23.5004L33.5809 6.13013C33.7139 5.98724 33.8194 5.81749 33.8914 5.6306C33.9634 5.44372 34.0005 5.24337 34.0005 5.04103C34.0005 4.83869 33.9634 4.63834 33.8914 4.45146C33.8194 4.26457 33.7139 4.09482 33.5809 3.95193Z" fill="#151515"/>
</g>
</svg>
