<svg width="42" height="42" viewBox="0 0 42 42" fill="none" xmlns="http://www.w3.org/2000/svg">
<path id="Vector" d="M12.8475 1.65598C12.8475 1.65598 13.4965 1.37998 14.7946 0.827988C16.0927 0.275997 18.1612 0 21 0C23.8388 0 26.5563 0.551991 29.1525 1.65598C31.7487 2.75996 33.987 4.25217 35.8674 6.13258C37.7478 8.013 39.24 10.2513 40.344 12.8475C41.448 15.4437 42 18.1612 42 21C42 23.8388 41.448 26.5563 40.344 29.1525C39.24 31.7487 37.7478 33.987 35.8674 35.8674C33.987 37.7478 31.7487 39.24 29.1525 40.344C26.5563 41.448 23.8388 42 21 42C18.1612 42 15.4437 41.448 12.8475 40.344C10.2513 39.24 8.013 37.7478 6.13258 35.8674C4.25217 33.987 2.75997 31.7487 1.65598 29.1525C0.551993 26.5563 0 23.8388 0 21C0 18.1612 0.551993 15.4437 1.65598 12.8475C2.75997 10.2513 4.25217 8.013 6.13258 6.13258C8.013 4.25217 10.2513 2.75996 12.8475 1.65598ZM28.8068 7.53379C28.8068 7.53379 28.2093 7.18804 27.0143 6.49654C25.8193 5.80503 23.8146 5.45927 21 5.45927C18.1854 5.45927 15.5832 6.15078 13.1932 7.53379C10.8033 8.91681 8.91681 10.8033 7.5338 13.1932C6.15078 15.5832 5.45927 18.1854 5.45927 21C5.45927 23.8146 6.15078 26.4168 7.5338 28.8068C8.91681 31.1967 10.8033 33.0832 13.1932 34.4662C15.5832 35.8492 18.1854 36.5407 21 36.5407C23.8146 36.5407 26.4168 35.8492 28.8068 34.4662C31.1967 33.0832 33.0832 31.1967 34.4662 28.8068C35.8492 26.4168 36.5407 23.8146 36.5407 21C36.5407 18.1854 35.8492 15.5832 34.4662 13.1932C33.0832 10.8033 31.1967 8.91681 28.8068 7.53379ZM18.2704 10.0815H20.0901C20.3328 10.0815 20.5451 10.1724 20.727 10.3544C20.909 10.5364 21 10.7487 21 10.9913V21H27.3692C27.6118 21 27.8241 21.091 28.0061 21.273C28.188 21.4549 28.279 21.6672 28.279 21.9099V23.7296C28.279 23.9723 28.188 24.1846 28.0061 24.3666C27.8241 24.5485 27.6118 24.6395 27.3692 24.6395H18.2704C18.0277 24.6395 17.8154 24.5485 17.6334 24.3666C17.4515 24.1846 17.3605 23.9723 17.3605 23.7296V10.9913C17.3605 10.7487 17.4515 10.5364 17.6334 10.3544C17.8154 10.1724 18.0277 10.0815 18.2704 10.0815Z" fill="#23B643"/>
</svg>
