<svg width="42" height="42" viewBox="0 0 42 42" fill="none" xmlns="http://www.w3.org/2000/svg">
<path id="Vector" d="M21 -3.43323e-05C21.8049 -3.43323e-05 22.7073 0.0609398 23.7073 0.182888L25.0976 5.74387L25.2805 5.78045C26.4756 6.12191 27.622 6.59753 28.7195 7.20728L28.9024 7.28045L33.8049 4.35362C35.2927 5.52435 36.561 6.80484 37.6098 8.19508L34.6829 13.0975L34.7927 13.2805C35.4024 14.3536 35.8781 15.4878 36.2195 16.6829L36.2561 16.9024L41.8171 18.2926C41.939 19.3414 42 20.2317 42 20.9634C42 21.7926 41.939 22.6951 41.8171 23.6707L36.2561 25.0609L36.2195 25.2805C35.8537 26.4756 35.3781 27.6097 34.7927 28.6829L34.6829 28.8658L37.6098 33.7683C36.439 35.2561 35.1707 36.5365 33.8049 37.6097L28.9024 34.6463L28.7195 34.7561C27.6463 35.3658 26.5 35.8414 25.2805 36.1829L25.0976 36.2561L23.7073 41.7805C22.6585 41.9024 21.7561 41.9634 21 41.9634C20.1951 41.9634 19.2927 41.9024 18.2927 41.7805L16.9024 36.2561L16.7195 36.1829C15.5244 35.8414 14.378 35.3658 13.2805 34.7561L13.0976 34.6463L8.19512 37.6097C6.73171 36.439 5.46341 35.1585 4.39024 33.7683L7.31707 28.8658L7.20732 28.6829C6.59756 27.5853 6.13415 26.4512 5.81707 25.2805L5.7439 25.0609L0.219512 23.6707C0.0731707 22.6463 0 21.7439 0 20.9634C0 20.1585 0.0731707 19.2683 0.219512 18.2926L5.7439 16.9024L5.81707 16.6829C6.13415 15.5122 6.59756 14.378 7.20732 13.2805L7.31707 13.0975L4.39024 8.19508C5.53659 6.70728 6.81707 5.42679 8.23171 4.35362L13.0976 7.28045L13.2805 7.20728C14.378 6.59753 15.5244 6.12191 16.7195 5.78045L16.9024 5.74387L18.2927 0.182888C19.3415 0.0609398 20.2439 -3.43323e-05 21 -3.43323e-05ZM26.561 15.439C26.561 15.439 26.1768 15.0548 25.4085 14.2865C24.6402 13.5183 23.1707 13.1341 21 13.1341C18.8293 13.1341 16.9756 13.9024 15.439 15.439C13.9024 16.9756 13.1341 18.8231 13.1341 20.9817C13.1341 23.1402 13.9024 24.9878 15.439 26.5244C16.9756 28.0609 18.8293 28.8292 21 28.8292C23.1707 28.8292 25.0244 28.0609 26.561 26.5244C28.0976 24.9878 28.8659 23.1402 28.8659 20.9817C28.8659 18.8231 28.0976 16.9756 26.561 15.439Z" fill="#23B643"/>
</svg>
