<svg width="32" height="32" viewBox="0 0 32 32" fill="none" xmlns="http://www.w3.org/2000/svg">
<g id="Download">
<path id="Vector" d="M19.7998 31C19.7998 30.7348 19.9052 30.4804 20.0927 30.2929C20.2802 30.1054 20.5346 30 20.7998 30H25.7998C26.3302 30 26.8389 29.7893 27.214 29.4142C27.5891 29.0391 27.7998 28.5304 27.7998 28L27.7998 4C27.7998 3.46957 27.5891 2.96086 27.214 2.58579C26.8389 2.21071 26.3302 2 25.7998 2H20.7998C20.5346 2 20.2802 1.89464 20.0927 1.70711C19.9052 1.51957 19.7998 1.26522 19.7998 1C19.7998 0.734783 19.9052 0.480429 20.0927 0.292892C20.2802 0.105356 20.5346 0 20.7998 0H25.7998C26.8607 0 27.8781 0.421429 28.6282 1.17157C29.3784 1.92172 29.7998 2.93913 29.7998 4L29.7998 28C29.7998 29.0609 29.3784 30.0783 28.6282 30.8284C27.8781 31.5786 26.8607 32 25.7998 32H20.7998C20.5346 32 20.2802 31.8946 20.0927 31.7071C19.9052 31.5196 19.7998 31.2652 19.7998 31Z" fill="#DC3545"/>
<path id="Vector_2" d="M23.708 16.7082C23.8011 16.6153 23.875 16.505 23.9254 16.3835C23.9758 16.262 24.0018 16.1317 24.0018 16.0002C24.0018 15.8687 23.9758 15.7384 23.9254 15.6169C23.875 15.4954 23.8011 15.3851 23.708 15.2922L17.708 9.2922C17.5202 9.10443 17.2656 8.99894 17 8.99894C16.7344 8.99894 16.4798 9.10443 16.292 9.2922C16.1042 9.47997 15.9987 9.73465 15.9987 10.0002C15.9987 10.2658 16.1042 10.5204 16.292 10.7082L20.586 15.0002L3 15.0002C2.73478 15.0002 2.48043 15.1056 2.29289 15.2931C2.10536 15.4806 2 15.735 2 16.0002C2 16.2654 2.10536 16.5198 2.29289 16.7073C2.48043 16.8948 2.73478 17.0002 3 17.0002H20.586L16.292 21.2922C16.1042 21.48 15.9987 21.7346 15.9987 22.0002C15.9987 22.2658 16.1042 22.5204 16.292 22.7082C16.4798 22.896 16.7344 23.0015 17 23.0015C17.2656 23.0015 17.5202 22.896 17.708 22.7082L23.708 16.7082Z" fill="#DC3545"/>
</g>
</svg>
