<svg width="24" height="24" viewBox="0 0 24 24" fill="none" xmlns="http://www.w3.org/2000/svg">
<g id="Fan" clip-path="url(#clip0_737_2672)">
<path id="Vector" d="M14.9999 4.5C14.9999 6.4695 14.5439 8.262 13.7999 9.6C13.4845 9.36338 13.1256 9.19124 12.7437 9.09343C12.3617 8.99563 11.9642 8.97407 11.5739 9.03C11.1539 7.557 10.2089 5.97 8.81693 4.5765C8.58102 4.33934 8.33531 4.11214 8.08043 3.8955C9.30268 3.30527 10.6426 2.99913 11.9999 3C13.0364 3 14.0324 3.1755 14.9594 3.498C14.9864 3.827 14.9999 4.161 14.9999 4.5ZM14.9999 12C14.9999 12.11 14.9939 12.2185 14.9819 12.3255C16.5089 12.297 18.2819 11.796 19.9784 10.8165C20.2709 10.6481 20.5562 10.4674 20.8334 10.275C20.3773 7.93654 19.0126 5.87433 17.0384 4.5405C16.9776 4.86304 16.9051 5.18325 16.8209 5.5005C16.3109 7.404 15.4049 9.0195 14.3369 10.119C14.7524 10.6335 14.9999 11.289 14.9999 12ZM14.7944 13.092C14.6502 13.4616 14.4341 13.799 14.1586 14.0845C13.8831 14.3701 13.5537 14.5981 13.1894 14.7555C13.9769 16.0605 15.2969 17.343 16.9919 18.321C17.2919 18.495 17.5944 18.6535 17.8994 18.7965C18.7927 18.0214 19.5245 17.0778 20.0529 16.0197C20.5813 14.9616 20.896 13.8098 20.9789 12.63C20.6679 12.74 20.3474 12.8395 20.0174 12.9285C18.1214 13.437 16.2779 13.4625 14.7944 13.0935V13.092ZM11.9999 15C11.3249 15 10.7009 14.7765 10.1999 14.4C9.45893 15.735 9.00593 17.523 9.00593 19.4865C9.00593 19.8325 9.01943 20.1715 9.04643 20.5035C9.99629 20.8328 10.9946 21.0006 11.9999 21C13.4099 21 14.7449 20.676 15.9344 20.097C15.6764 19.8786 15.4276 19.6494 15.1889 19.41C13.8014 18.021 12.8564 16.4385 12.4349 14.97C12.2939 14.99 12.1489 15 11.9999 15ZM8.99993 12C8.99993 11.88 9.00693 11.7605 9.02093 11.6415C7.49093 11.667 5.71343 12.168 4.01093 13.152C3.71951 13.3195 3.43526 13.4991 3.15893 13.6905C3.38093 14.8521 3.8297 15.9586 4.47959 16.9467C5.12947 17.9348 5.96772 18.7851 6.94643 19.449C7.00672 19.1195 7.08079 18.7928 7.16843 18.4695C7.67843 16.569 8.57843 14.9565 9.64343 13.857C9.2265 13.3278 8.99983 12.6737 8.99993 12ZM3.97943 11.052C5.87993 10.542 7.72643 10.5195 9.21143 10.8915C9.50543 10.1505 10.0859 9.5565 10.8164 9.2415C10.0304 7.9305 8.70743 6.642 7.00493 5.6595C6.7146 5.49111 6.41734 5.33497 6.11393 5.1915C5.21957 5.96482 4.48634 6.90678 3.95615 7.96357C3.42595 9.02035 3.10918 10.1713 3.02393 11.3505C3.33293 11.2405 3.65143 11.141 3.97943 11.052ZM11.9999 13.5C12.3978 13.5 12.7793 13.342 13.0606 13.0607C13.3419 12.7794 13.4999 12.3978 13.4999 12C13.4999 11.6022 13.3419 11.2206 13.0606 10.9393C12.7793 10.658 12.3978 10.5 11.9999 10.5C11.6021 10.5 11.2206 10.658 10.9393 10.9393C10.658 11.2206 10.4999 11.6022 10.4999 12C10.4999 12.3978 10.658 12.7794 10.9393 13.0607C11.2206 13.342 11.6021 13.5 11.9999 13.5Z" fill="#151515"/>
<path id="Vector_2" d="M12 22.5C9.21523 22.5 6.54451 21.3938 4.57538 19.4246C2.60625 17.4555 1.5 14.7848 1.5 12C1.5 9.21523 2.60625 6.54451 4.57538 4.57538C6.54451 2.60625 9.21523 1.5 12 1.5C14.7848 1.5 17.4555 2.60625 19.4246 4.57538C21.3938 6.54451 22.5 9.21523 22.5 12C22.5 14.7848 21.3938 17.4555 19.4246 19.4246C17.4555 21.3938 14.7848 22.5 12 22.5ZM12 24C15.1826 24 18.2348 22.7357 20.4853 20.4853C22.7357 18.2348 24 15.1826 24 12C24 8.8174 22.7357 5.76516 20.4853 3.51472C18.2348 1.26428 15.1826 0 12 0C8.8174 0 5.76516 1.26428 3.51472 3.51472C1.26428 5.76516 0 8.8174 0 12C0 15.1826 1.26428 18.2348 3.51472 20.4853C5.76516 22.7357 8.8174 24 12 24Z" fill="#151515"/>
</g>
<defs>
<clipPath id="clip0_737_2672">
<rect width="24" height="24" fill="white"/>
</clipPath>
</defs>
</svg>
