<svg width="10" height="10" viewBox="0 0 10 10" fill="none" xmlns="http://www.w3.org/2000/svg">
<g id="icon-wrapper">
<g id="Union">
<path fill-rule="evenodd" clip-rule="evenodd" d="M8.65845 1.34034C8.68756 1.36937 8.71065 1.40386 8.7264 1.44182C8.74215 1.47979 8.75026 1.52049 8.75026 1.56159C8.75026 1.6027 8.74215 1.6434 8.7264 1.68136C8.71065 1.71933 8.68756 1.75382 8.65845 1.78284L1.78345 8.65784C1.72478 8.71652 1.64519 8.74949 1.5622 8.74949C1.47922 8.74949 1.39963 8.71652 1.34095 8.65784C1.28227 8.59916 1.24931 8.51958 1.24931 8.43659C1.24931 8.35361 1.28227 8.27402 1.34095 8.21534L8.21595 1.34034C8.24498 1.31124 8.27947 1.28815 8.31743 1.2724C8.3554 1.25664 8.3961 1.24854 8.4372 1.24854C8.47831 1.24854 8.51901 1.25664 8.55697 1.2724C8.59494 1.28815 8.62943 1.31124 8.65845 1.34034Z" fill="#6C757D"/>
<path fill-rule="evenodd" clip-rule="evenodd" d="M1.34095 1.34034C1.31185 1.36937 1.28876 1.40386 1.27301 1.44182C1.25725 1.47979 1.24915 1.52049 1.24915 1.56159C1.24915 1.6027 1.25725 1.6434 1.27301 1.68136C1.28876 1.71933 1.31185 1.75382 1.34095 1.78284L8.21595 8.65784C8.27463 8.71652 8.35422 8.74949 8.4372 8.74949C8.52019 8.74949 8.59978 8.71652 8.65845 8.65784C8.71713 8.59916 8.7501 8.51958 8.7501 8.43659C8.7501 8.35361 8.71713 8.27402 8.65845 8.21534L1.78345 1.34034C1.75443 1.31124 1.71994 1.28815 1.68198 1.2724C1.64401 1.25664 1.60331 1.24854 1.5622 1.24854C1.5211 1.24854 1.4804 1.25664 1.44243 1.2724C1.40447 1.28815 1.36998 1.31124 1.34095 1.34034Z" fill="#6C757D"/>
</g>
</g>
</svg>
