<svg width="14" height="14" viewBox="0 0 14 14" fill="none" xmlns="http://www.w3.org/2000/svg">
<g id="icon-wrapper">
<path id="Union" d="M7.30975 1.00207C7.26911 0.961324 7.22083 0.928999 7.16768 0.906944C7.11453 0.884888 7.05755 0.873535 7 0.873535C6.94245 0.873535 6.88547 0.884888 6.83232 0.906944C6.77917 0.928999 6.73089 0.961324 6.69025 1.00207L1.44025 6.25207C1.39965 6.29277 1.36747 6.34108 1.34555 6.39423C1.32363 6.44738 1.3124 6.50433 1.3125 6.56182V12.6868C1.3125 12.8028 1.35859 12.9141 1.44064 12.9962C1.52269 13.0782 1.63397 13.1243 1.75 13.1243H5.6875C5.80353 13.1243 5.91481 13.0782 5.99686 12.9962C6.07891 12.9141 6.125 12.8028 6.125 12.6868V9.18682H7.875V12.6868C7.875 12.8028 7.92109 12.9141 8.00314 12.9962C8.08519 13.0782 8.19647 13.1243 8.3125 13.1243H12.25C12.366 13.1243 12.4773 13.0782 12.5594 12.9962C12.6414 12.9141 12.6875 12.8028 12.6875 12.6868V6.56182C12.6876 6.50433 12.6764 6.44738 12.6545 6.39423C12.6325 6.34108 12.6004 6.29277 12.5598 6.25207L11.375 5.06819V2.18682C11.375 2.07079 11.3289 1.95951 11.2469 1.87746C11.1648 1.79541 11.0535 1.74932 10.9375 1.74932H10.0625C9.94647 1.74932 9.83519 1.79541 9.75314 1.87746C9.67109 1.95951 9.625 2.07079 9.625 2.18682V3.31819L7.30975 1.00207ZM2.1875 12.2493V6.74294L7 1.93044L11.8125 6.74294V12.2493H8.75V8.74932C8.75 8.63329 8.70391 8.522 8.62186 8.43996C8.53981 8.35791 8.42853 8.31182 8.3125 8.31182H5.6875C5.57147 8.31182 5.46019 8.35791 5.37814 8.43996C5.29609 8.522 5.25 8.63329 5.25 8.74932V12.2493H2.1875Z" fill="#23B643"/>
</g>
</svg>
