<svg width="25" height="24" viewBox="0 0 25 24" fill="none" xmlns="http://www.w3.org/2000/svg">
<path d="M0.75 2.57143C0.75 1.88944 1.02092 1.23539 1.50315 0.753154C1.98539 0.270918 2.63944 0 3.32143 0H8.46429C9.14627 0 9.80032 0.270918 10.2826 0.753154C10.7648 1.23539 11.0357 1.88944 11.0357 2.57143V7.71429C11.0357 8.39627 10.7648 9.05032 10.2826 9.53256C9.80032 10.0148 9.14627 10.2857 8.46429 10.2857H3.32143C2.63944 10.2857 1.98539 10.0148 1.50315 9.53256C1.02092 9.05032 0.75 8.39627 0.75 7.71429V2.57143ZM3.32143 1.71429C3.0941 1.71429 2.87608 1.80459 2.71534 1.96534C2.55459 2.12608 2.46429 2.3441 2.46429 2.57143V7.71429C2.46429 7.94161 2.55459 8.15963 2.71534 8.32038C2.87608 8.48112 3.0941 8.57143 3.32143 8.57143H8.46429C8.69161 8.57143 8.90963 8.48112 9.07038 8.32038C9.23112 8.15963 9.32143 7.94161 9.32143 7.71429V2.57143C9.32143 2.3441 9.23112 2.12608 9.07038 1.96534C8.90963 1.80459 8.69161 1.71429 8.46429 1.71429H3.32143ZM14.4643 2.57143C14.4643 1.88944 14.7352 1.23539 15.2174 0.753154C15.6997 0.270918 16.3537 0 17.0357 0H22.1786C22.8606 0 23.5146 0.270918 23.9968 0.753154C24.4791 1.23539 24.75 1.88944 24.75 2.57143V7.71429C24.75 8.39627 24.4791 9.05032 23.9968 9.53256C23.5146 10.0148 22.8606 10.2857 22.1786 10.2857H17.0357C16.3537 10.2857 15.6997 10.0148 15.2174 9.53256C14.7352 9.05032 14.4643 8.39627 14.4643 7.71429V2.57143ZM17.0357 1.71429C16.8084 1.71429 16.5904 1.80459 16.4296 1.96534C16.2689 2.12608 16.1786 2.3441 16.1786 2.57143V7.71429C16.1786 7.94161 16.2689 8.15963 16.4296 8.32038C16.5904 8.48112 16.8084 8.57143 17.0357 8.57143H22.1786C22.4059 8.57143 22.6239 8.48112 22.7847 8.32038C22.9454 8.15963 23.0357 7.94161 23.0357 7.71429V2.57143C23.0357 2.3441 22.9454 2.12608 22.7847 1.96534C22.6239 1.80459 22.4059 1.71429 22.1786 1.71429H17.0357ZM0.75 16.2857C0.75 15.6037 1.02092 14.9497 1.50315 14.4674C1.98539 13.9852 2.63944 13.7143 3.32143 13.7143H8.46429C9.14627 13.7143 9.80032 13.9852 10.2826 14.4674C10.7648 14.9497 11.0357 15.6037 11.0357 16.2857V21.4286C11.0357 22.1106 10.7648 22.7646 10.2826 23.2468C9.80032 23.7291 9.14627 24 8.46429 24H3.32143C2.63944 24 1.98539 23.7291 1.50315 23.2468C1.02092 22.7646 0.75 22.1106 0.75 21.4286V16.2857ZM3.32143 15.4286C3.0941 15.4286 2.87608 15.5189 2.71534 15.6796C2.55459 15.8404 2.46429 16.0584 2.46429 16.2857V21.4286C2.46429 21.6559 2.55459 21.8739 2.71534 22.0347C2.87608 22.1954 3.0941 22.2857 3.32143 22.2857H8.46429C8.69161 22.2857 8.90963 22.1954 9.07038 22.0347C9.23112 21.8739 9.32143 21.6559 9.32143 21.4286V16.2857C9.32143 16.0584 9.23112 15.8404 9.07038 15.6796C8.90963 15.5189 8.69161 15.4286 8.46429 15.4286H3.32143ZM14.4643 16.2857C14.4643 15.6037 14.7352 14.9497 15.2174 14.4674C15.6997 13.9852 16.3537 13.7143 17.0357 13.7143H22.1786C22.8606 13.7143 23.5146 13.9852 23.9968 14.4674C24.4791 14.9497 24.75 15.6037 24.75 16.2857V21.4286C24.75 22.1106 24.4791 22.7646 23.9968 23.2468C23.5146 23.7291 22.8606 24 22.1786 24H17.0357C16.3537 24 15.6997 23.7291 15.2174 23.2468C14.7352 22.7646 14.4643 22.1106 14.4643 21.4286V16.2857ZM17.0357 15.4286C16.8084 15.4286 16.5904 15.5189 16.4296 15.6796C16.2689 15.8404 16.1786 16.0584 16.1786 16.2857V21.4286C16.1786 21.6559 16.2689 21.8739 16.4296 22.0347C16.5904 22.1954 16.8084 22.2857 17.0357 22.2857H22.1786C22.4059 22.2857 22.6239 22.1954 22.7847 22.0347C22.9454 21.8739 23.0357 21.6559 23.0357 21.4286V16.2857C23.0357 16.0584 22.9454 15.8404 22.7847 15.6796C22.6239 15.5189 22.4059 15.4286 22.1786 15.4286H17.0357Z" fill="white"/>
</svg>
