<svg width="24" height="24" viewBox="0 0 24 24" fill="none" xmlns="http://www.w3.org/2000/svg">
<g id="Grid3x3Gap">
<path id="Vector" d="M6.28571 3.42857V6.28571H3.42857V3.42857H6.28571ZM7.71429 20.5714V17.7143C7.71429 17.3354 7.56378 16.972 7.29587 16.7041C7.02796 16.4362 6.6646 16.2857 6.28571 16.2857H3.42857C3.04969 16.2857 2.68633 16.4362 2.41842 16.7041C2.15051 16.972 2 17.3354 2 17.7143V20.5714C2 20.9503 2.15051 21.3137 2.41842 21.5816C2.68633 21.8495 3.04969 22 3.42857 22H6.28571C6.6646 22 7.02796 21.8495 7.29587 21.5816C7.56378 21.3137 7.71429 20.9503 7.71429 20.5714ZM7.71429 13.4286V10.5714C7.71429 10.1925 7.56378 9.82919 7.29587 9.56128C7.02796 9.29337 6.6646 9.14286 6.28571 9.14286H3.42857C3.04969 9.14286 2.68633 9.29337 2.41842 9.56128C2.15051 9.82919 2 10.1925 2 10.5714V13.4286C2 13.8075 2.15051 14.1708 2.41842 14.4387C2.68633 14.7066 3.04969 14.8571 3.42857 14.8571H6.28571C6.6646 14.8571 7.02796 14.7066 7.29587 14.4387C7.56378 14.1708 7.71429 13.8075 7.71429 13.4286ZM7.71429 6.28571V3.42857C7.71429 3.04969 7.56378 2.68633 7.29587 2.41842C7.02796 2.15051 6.6646 2 6.28571 2H3.42857C3.04969 2 2.68633 2.15051 2.41842 2.41842C2.15051 2.68633 2 3.04969 2 3.42857V6.28571C2 6.6646 2.15051 7.02796 2.41842 7.29587C2.68633 7.56378 3.04969 7.71429 3.42857 7.71429H6.28571C6.6646 7.71429 7.02796 7.56378 7.29587 7.29587C7.56378 7.02796 7.71429 6.6646 7.71429 6.28571ZM14.8571 20.5714V17.7143C14.8571 17.3354 14.7066 16.972 14.4387 16.7041C14.1708 16.4362 13.8075 16.2857 13.4286 16.2857H10.5714C10.1925 16.2857 9.82919 16.4362 9.56128 16.7041C9.29337 16.972 9.14286 17.3354 9.14286 17.7143V20.5714C9.14286 20.9503 9.29337 21.3137 9.56128 21.5816C9.82919 21.8495 10.1925 22 10.5714 22H13.4286C13.8075 22 14.1708 21.8495 14.4387 21.5816C14.7066 21.3137 14.8571 20.9503 14.8571 20.5714ZM14.8571 13.4286V10.5714C14.8571 10.1925 14.7066 9.82919 14.4387 9.56128C14.1708 9.29337 13.8075 9.14286 13.4286 9.14286H10.5714C10.1925 9.14286 9.82919 9.29337 9.56128 9.56128C9.29337 9.82919 9.14286 10.1925 9.14286 10.5714V13.4286C9.14286 13.8075 9.29337 14.1708 9.56128 14.4387C9.82919 14.7066 10.1925 14.8571 10.5714 14.8571H13.4286C13.8075 14.8571 14.1708 14.7066 14.4387 14.4387C14.7066 14.1708 14.8571 13.8075 14.8571 13.4286ZM14.8571 6.28571V3.42857C14.8571 3.04969 14.7066 2.68633 14.4387 2.41842C14.1708 2.15051 13.8075 2 13.4286 2H10.5714C10.1925 2 9.82919 2.15051 9.56128 2.41842C9.29337 2.68633 9.14286 3.04969 9.14286 3.42857V6.28571C9.14286 6.6646 9.29337 7.02796 9.56128 7.29587C9.82919 7.56378 10.1925 7.71429 10.5714 7.71429H13.4286C13.8075 7.71429 14.1708 7.56378 14.4387 7.29587C14.7066 7.02796 14.8571 6.6646 14.8571 6.28571ZM13.4286 3.42857V6.28571H10.5714V3.42857H13.4286ZM20.5714 3.42857V6.28571H17.7143V3.42857H20.5714ZM6.28571 10.5714V13.4286H3.42857V10.5714H6.28571ZM13.4286 10.5714V13.4286H10.5714V10.5714H13.4286ZM20.5714 10.5714H17.7143V13.4286H20.5714V10.5714ZM6.28571 17.7143V20.5714H3.42857V17.7143H6.28571ZM13.4286 17.7143V20.5714H10.5714V17.7143H13.4286ZM20.5714 17.7143V20.5714H17.7143V17.7143H20.5714ZM17.7143 2C17.3354 2 16.972 2.15051 16.7041 2.41842C16.4362 2.68633 16.2857 3.04969 16.2857 3.42857V6.28571C16.2857 6.6646 16.4362 7.02796 16.7041 7.29587C16.972 7.56378 17.3354 7.71429 17.7143 7.71429H20.5714C20.9503 7.71429 21.3137 7.56378 21.5816 7.29587C21.8495 7.02796 22 6.6646 22 6.28571V3.42857C22 3.04969 21.8495 2.68633 21.5816 2.41842C21.3137 2.15051 20.9503 2 20.5714 2H17.7143ZM16.2857 10.5714C16.2857 10.1925 16.4362 9.82919 16.7041 9.56128C16.972 9.29337 17.3354 9.14286 17.7143 9.14286H20.5714C20.9503 9.14286 21.3137 9.29337 21.5816 9.56128C21.8495 9.82919 22 10.1925 22 10.5714V13.4286C22 13.8075 21.8495 14.1708 21.5816 14.4387C21.3137 14.7066 20.9503 14.8571 20.5714 14.8571H17.7143C17.3354 14.8571 16.972 14.7066 16.7041 14.4387C16.4362 14.1708 16.2857 13.8075 16.2857 13.4286V10.5714ZM17.7143 16.2857C17.3354 16.2857 16.972 16.4362 16.7041 16.7041C16.4362 16.972 16.2857 17.3354 16.2857 17.7143V20.5714C16.2857 20.9503 16.4362 21.3137 16.7041 21.5816C16.972 21.8495 17.3354 22 17.7143 22H20.5714C20.9503 22 21.3137 21.8495 21.5816 21.5816C21.8495 21.3137 22 20.9503 22 20.5714V17.7143C22 17.3354 21.8495 16.972 21.5816 16.7041C21.3137 16.4362 20.9503 16.2857 20.5714 16.2857H17.7143Z" fill="black"/>
</g>
</svg>
