<svg width="14" height="14" viewBox="0 0 14 14" fill="none" xmlns="http://www.w3.org/2000/svg">
<g id="icon-wrapper">
<path id="Union" d="M7.30938 1.00207C7.26874 0.961324 7.22047 0.928999 7.16731 0.906944C7.11416 0.884888 7.05718 0.873535 6.99963 0.873535C6.94209 0.873535 6.88511 0.884888 6.83195 0.906944C6.7788 0.928999 6.73052 0.961324 6.68988 1.00207L1.43988 6.25207C1.39928 6.29277 1.3671 6.34108 1.34518 6.39423C1.32326 6.44738 1.31203 6.50433 1.31213 6.56182V12.6868C1.31213 12.8028 1.35823 12.9141 1.44028 12.9962C1.52232 13.0782 1.6336 13.1243 1.74963 13.1243H5.68713C5.80317 13.1243 5.91445 13.0782 5.99649 12.9962C6.07854 12.9141 6.12463 12.8028 6.12463 12.6868V9.18682H7.87463V12.6868C7.87463 12.8028 7.92073 12.9141 8.00278 12.9962C8.08482 13.0782 8.1961 13.1243 8.31213 13.1243H12.2496C12.3657 13.1243 12.4769 13.0782 12.559 12.9962C12.641 12.9141 12.6871 12.8028 12.6871 12.6868V6.56182C12.6872 6.50433 12.676 6.44738 12.6541 6.39423C12.6322 6.34108 12.6 6.29277 12.5594 6.25207L11.3746 5.06819V2.18682C11.3746 2.07079 11.3285 1.95951 11.2465 1.87746C11.1644 1.79541 11.0532 1.74932 10.9371 1.74932H10.0621C9.9461 1.74932 9.83482 1.79541 9.75278 1.87746C9.67073 1.95951 9.62463 2.07079 9.62463 2.18682V3.31819L7.30938 1.00207ZM2.18713 12.2493V6.74294L6.99963 1.93044L11.8121 6.74294V12.2493H8.74963V8.74932C8.74963 8.63329 8.70354 8.522 8.62149 8.43996C8.53945 8.35791 8.42817 8.31182 8.31213 8.31182H5.68713C5.5711 8.31182 5.45982 8.35791 5.37778 8.43996C5.29573 8.522 5.24963 8.63329 5.24963 8.74932V12.2493H2.18713Z" fill="#0D6EFD"/>
</g>
</svg>
