<svg width="16" height="24" viewBox="0 0 16 24" fill="none" xmlns="http://www.w3.org/2000/svg">
<path d="M4.53044 0.5385C4.57615 0.382993 4.671 0.246478 4.8008 0.1494C4.9306 0.0523218 5.08835 -9.47797e-05 5.25044 1.28657e-07H11.2504C11.3692 9.02905e-05 11.4863 0.028389 11.592 0.0825666C11.6977 0.136744 11.789 0.215251 11.8584 0.311625C11.9278 0.407999 11.9734 0.519484 11.9913 0.636901C12.0092 0.754318 11.999 0.874311 11.9614 0.987L9.29144 9H15.0004C15.1409 8.9999 15.2785 9.03924 15.3977 9.11355C15.5169 9.18785 15.6128 9.29413 15.6746 9.42028C15.7363 9.54643 15.7614 9.68738 15.747 9.82709C15.7326 9.96679 15.6792 10.0996 15.5929 10.2105L5.09294 23.7105C4.98537 23.8495 4.83243 23.9462 4.66079 23.984C4.48915 24.0217 4.30972 23.9979 4.15381 23.9168C3.99791 23.8357 3.87542 23.7025 3.80773 23.5403C3.74004 23.3782 3.73144 23.1974 3.78344 23.0295L6.48494 14.25H1.50044C1.38384 14.2501 1.26882 14.2229 1.16453 14.1708C1.06025 14.1186 0.969555 14.0429 0.899663 13.9496C0.829771 13.8562 0.782604 13.7479 0.761908 13.6331C0.741212 13.5184 0.747557 13.4004 0.780439 13.2885L4.53044 0.5385ZM5.81144 1.5L2.50244 12.75H7.50044C7.61781 12.75 7.73355 12.7775 7.83835 12.8304C7.94314 12.8832 8.03407 12.9599 8.10381 13.0543C8.17356 13.1487 8.22017 13.2582 8.23991 13.3739C8.25964 13.4896 8.25195 13.6083 8.21744 13.7205L6.42044 19.56L13.4674 10.5H8.25044C8.13166 10.4999 8.01461 10.4716 7.90891 10.4174C7.80321 10.3633 7.71189 10.2847 7.64246 10.1884C7.57304 10.092 7.5275 9.98052 7.50959 9.8631C7.49167 9.74568 7.50191 9.62569 7.53944 9.513L10.2094 1.5H5.81144Z" fill="white"/>
</svg>
