<svg width="24" height="25" viewBox="0 0 24 25" fill="none" xmlns="http://www.w3.org/2000/svg">
<g id="GeoAlt" clip-path="url(#clip0_216_12097)">
<path id="Vector" d="M18.249 14.203C17.463 15.796 16.398 17.383 15.309 18.808C14.2748 20.1505 13.1703 21.4373 12 22.663C10.8297 21.4373 9.72518 20.1505 8.691 18.808C7.602 17.383 6.537 15.796 5.751 14.203C4.956 12.5935 4.5 11.086 4.5 9.79297C4.5 7.80384 5.29018 5.89619 6.6967 4.48967C8.10322 3.08315 10.0109 2.29297 12 2.29297C13.9891 2.29297 15.8968 3.08315 17.3033 4.48967C18.7098 5.89619 19.5 7.80384 19.5 9.79297C19.5 11.086 19.0425 12.5935 18.249 14.203ZM12 24.793C12 24.793 21 16.264 21 9.79297C21 7.40602 20.0518 5.11684 18.364 3.42901C16.6761 1.74118 14.3869 0.792969 12 0.792969C9.61305 0.792969 7.32387 1.74118 5.63604 3.42901C3.94821 5.11684 3 7.40602 3 9.79297C3 16.264 12 24.793 12 24.793Z" fill="#151515"/>
<path id="Vector_2" d="M12 12.793C11.2044 12.793 10.4413 12.4769 9.87868 11.9143C9.31607 11.3517 9 10.5886 9 9.79297C9 8.99732 9.31607 8.23426 9.87868 7.67165C10.4413 7.10904 11.2044 6.79297 12 6.79297C12.7956 6.79297 13.5587 7.10904 14.1213 7.67165C14.6839 8.23426 15 8.99732 15 9.79297C15 10.5886 14.6839 11.3517 14.1213 11.9143C13.5587 12.4769 12.7956 12.793 12 12.793ZM12 14.293C13.1935 14.293 14.3381 13.8189 15.182 12.9749C16.0259 12.131 16.5 10.9864 16.5 9.79297C16.5 8.59949 16.0259 7.4549 15.182 6.61099C14.3381 5.76707 13.1935 5.29297 12 5.29297C10.8065 5.29297 9.66193 5.76707 8.81802 6.61099C7.97411 7.4549 7.5 8.59949 7.5 9.79297C7.5 10.9864 7.97411 12.131 8.81802 12.9749C9.66193 13.8189 10.8065 14.293 12 14.293Z" fill="#151515"/>
</g>
<defs>
<clipPath id="clip0_216_12097">
<rect width="24" height="24" fill="white" transform="translate(0 0.792969)"/>
</clipPath>
</defs>
</svg>
