<svg width="14" height="14" viewBox="0 0 14 14" fill="none" xmlns="http://www.w3.org/2000/svg">
<g id="icon-wrapper">
<path id="Union" fill-rule="evenodd" clip-rule="evenodd" d="M6.99951 1.74902C7.11554 1.74902 7.22682 1.79512 7.30887 1.87716C7.39092 1.95921 7.43701 2.07049 7.43701 2.18652V6.56152H11.812C11.928 6.56152 12.0393 6.60762 12.1214 6.68966C12.2034 6.77171 12.2495 6.88299 12.2495 6.99902C12.2495 7.11506 12.2034 7.22634 12.1214 7.30838C12.0393 7.39043 11.928 7.43652 11.812 7.43652H7.43701V11.8115C7.43701 11.9276 7.39092 12.0388 7.30887 12.1209C7.22682 12.2029 7.11554 12.249 6.99951 12.249C6.88348 12.249 6.7722 12.2029 6.69015 12.1209C6.60811 12.0388 6.56201 11.9276 6.56201 11.8115V7.43652H2.18701C2.07098 7.43652 1.9597 7.39043 1.87765 7.30838C1.79561 7.22634 1.74951 7.11506 1.74951 6.99902C1.74951 6.88299 1.79561 6.77171 1.87765 6.68966C1.9597 6.60762 2.07098 6.56152 2.18701 6.56152H6.56201V2.18652C6.56201 2.07049 6.60811 1.95921 6.69015 1.87716C6.7722 1.79512 6.88348 1.74902 6.99951 1.74902Z" fill="#212529"/>
</g>
</svg>
