<svg width="160" height="28" viewBox="0 0 160 28" fill="none" xmlns="http://www.w3.org/2000/svg">
<path d="M38 0.388889H44.3733C46.524 0.388889 48.137 0.959259 49.2124 2.1C50.2877 3.24074 50.8254 4.91296 50.8254 7.11667V9.8C50.8254 12.0037 50.2877 13.6759 49.2124 14.8167C48.137 15.9574 46.524 16.5278 44.3733 16.5278H42.3276V27.6111H38V0.388889ZM44.3733 12.6389C45.0815 12.6389 45.6061 12.4444 45.947 12.0556C46.3142 11.6667 46.4978 11.0056 46.4978 10.0722V6.84444C46.4978 5.91111 46.3142 5.25 45.947 4.86111C45.6061 4.47222 45.0815 4.27778 44.3733 4.27778H42.3276V12.6389H44.3733Z" fill="#23B643"/>
<path d="M59.4311 28C57.3066 28 55.6805 27.4037 54.5527 26.2111C53.4249 25.0185 52.861 23.3333 52.861 21.1556V6.84444C52.861 4.66667 53.4249 2.98148 54.5527 1.78889C55.6805 0.596296 57.3066 0 59.4311 0C61.5555 0 63.1816 0.596296 64.3094 1.78889C65.4372 2.98148 66.0011 4.66667 66.0011 6.84444V21.1556C66.0011 23.3333 65.4372 25.0185 64.3094 26.2111C63.1816 27.4037 61.5555 28 59.4311 28ZM59.4311 24.1111C60.926 24.1111 61.6735 23.2167 61.6735 21.4278V6.57222C61.6735 4.78333 60.926 3.88889 59.4311 3.88889C57.9361 3.88889 57.1886 4.78333 57.1886 6.57222V21.4278C57.1886 23.2167 57.9361 24.1111 59.4311 24.1111Z" fill="#23B643"/>
<path d="M68.9278 0.388889H75.5372C77.6878 0.388889 79.3008 0.959259 80.3762 2.1C81.4515 3.24074 81.9892 4.91296 81.9892 7.11667V20.8833C81.9892 23.087 81.4515 24.7593 80.3762 25.9C79.3008 27.0407 77.6878 27.6111 75.5372 27.6111H68.9278V0.388889ZM75.4585 23.7222C76.1666 23.7222 76.7043 23.5148 77.0715 23.1C77.4649 22.6852 77.6616 22.0111 77.6616 21.0778V6.92222C77.6616 5.98889 77.4649 5.31482 77.0715 4.9C76.7043 4.48519 76.1666 4.27778 75.4585 4.27778H73.2553V23.7222H75.4585Z" fill="#23B643"/>
<path d="M84.9103 0.388889H89.2379V11.8611L94.7457 0.388889H99.0733L93.9195 10.3833L99.152 27.6111H94.6277L90.9689 15.4778L89.2379 18.9389V27.6111H84.9103V0.388889Z" fill="#23B643"/>
<path d="M104.544 0.388889H110.406L114.891 27.6111H110.564L109.777 22.2056V22.2833H104.859L104.072 27.6111H100.059L104.544 0.388889ZM109.265 18.5889L107.338 5.13333H107.259L105.37 18.5889H109.265Z" fill="#23B643"/>
<path d="M116.991 0.388889H123.364C125.515 0.388889 127.128 0.959259 128.203 2.1C129.278 3.24074 129.816 4.91296 129.816 7.11667V9.8C129.816 12.0037 129.278 13.6759 128.203 14.8167C127.128 15.9574 125.515 16.5278 123.364 16.5278H121.318V27.6111H116.991V0.388889ZM123.364 12.6389C124.072 12.6389 124.597 12.4444 124.938 12.0556C125.305 11.6667 125.488 11.0056 125.488 10.0722V6.84444C125.488 5.91111 125.305 5.25 124.938 4.86111C124.597 4.47222 124.072 4.27778 123.364 4.27778H121.318V12.6389H123.364Z" fill="#23B643"/>
<path d="M138.422 28C136.297 28 134.671 27.4037 133.543 26.2111C132.416 25.0185 131.852 23.3333 131.852 21.1556V6.84444C131.852 4.66667 132.416 2.98148 133.543 1.78889C134.671 0.596296 136.297 0 138.422 0C140.546 0 142.172 0.596296 143.3 1.78889C144.428 2.98148 144.992 4.66667 144.992 6.84444V21.1556C144.992 23.3333 144.428 25.0185 143.3 26.2111C142.172 27.4037 140.546 28 138.422 28ZM138.422 24.1111C139.917 24.1111 140.664 23.2167 140.664 21.4278V6.57222C140.664 4.78333 139.917 3.88889 138.422 3.88889C136.927 3.88889 136.179 4.78333 136.179 6.57222V21.4278C136.179 23.2167 136.927 24.1111 138.422 24.1111Z" fill="#23B643"/>
<path d="M151.148 4.27778H146.624V0.388889H160V4.27778H155.476V27.6111H151.148V4.27778Z" fill="#23B643"/>
<path d="M27.0759 1.88473C27.856 1.10563 29.12 1.10645 29.8991 1.88657C30.6782 2.66669 30.6774 3.93068 29.8973 4.70979L15.8675 18.7213C15.0874 19.5004 13.8234 19.4996 13.0443 18.7195C12.2652 17.9394 12.266 16.6754 13.0462 15.8962L27.0759 1.88473Z" fill="#23B643"/>
<path d="M6.88076 12.5314C6.10383 11.7491 6.10818 10.4851 6.89047 9.70815C7.67276 8.93122 8.93675 8.93557 9.71367 9.71786L15.8609 15.9075C16.6378 16.6898 16.6335 17.9538 15.8512 18.7307C15.0689 19.5076 13.8049 19.5033 13.028 18.721L6.88076 12.5314Z" fill="#23B643"/>
<path d="M21.6053 4.68933C22.2964 3.84329 22.1764 2.58331 21.2415 2.01826C19.0196 0.675429 16.4557 -0.0301355 13.8339 0.000987058C10.5491 0.0399787 7.38265 1.2328 4.88858 3.37072C2.39451 5.50865 0.731647 8.45553 0.190964 11.6957C-0.349718 14.9359 0.266212 18.263 1.93098 21.0949C3.59575 23.9268 6.20333 26.0832 9.29745 27.1866C12.3916 28.29 15.7752 28.2702 18.8562 27.1308C21.9372 25.9913 24.5195 23.8047 26.1511 20.9536C27.4534 18.6778 28.0839 16.0944 27.9911 13.4999C27.9521 12.4082 26.9095 11.6906 25.8342 11.883C24.7588 12.0754 24.0638 13.1079 24.0421 14.2001C24.0087 15.8716 23.5583 17.5195 22.7175 18.9887C21.547 21.0342 19.6944 22.6029 17.484 23.4204C15.2736 24.2379 12.8461 24.2521 10.6263 23.4604C8.40645 22.6688 6.5357 21.1218 5.34134 19.0901C4.14699 17.0584 3.7051 14.6714 4.093 12.3468C4.48091 10.0222 5.67389 7.90806 7.46321 6.37425C9.25253 4.84044 11.5242 3.98467 13.8808 3.9567C15.5734 3.93661 17.2324 4.34447 18.7091 5.12832C19.674 5.64048 20.9142 5.53538 21.6053 4.68933Z" fill="#151515"/>
</svg>
