<svg width="22" height="38" viewBox="0 0 22 38" fill="none" xmlns="http://www.w3.org/2000/svg">
<g id="Icon" clip-path="url(#clip0_127_37413)">
<path id="Vector" d="M14.8492 25.8834V30.7068C14.8492 30.9212 14.7688 31.1088 14.608 31.2696C14.4473 31.4304 14.2597 31.5107 14.0453 31.5107H9.22188C9.0075 31.5107 8.81992 31.4304 8.65914 31.2696C8.49836 31.1088 8.41797 30.9212 8.41797 30.7068V25.8834C8.41797 25.669 8.49836 25.4814 8.65914 25.3207C8.81992 25.1599 9.0075 25.0795 9.22188 25.0795H14.0453C14.2597 25.0795 14.4473 25.1599 14.608 25.3207C14.7688 25.4814 14.8492 25.669 14.8492 25.8834ZM21.2001 13.8248C21.2001 14.5483 21.0962 15.2249 20.8886 15.8547C20.6809 16.4844 20.4464 16.9969 20.1851 17.3921C19.9239 17.7874 19.5554 18.186 19.0798 18.5879C18.6041 18.9899 18.2189 19.2813 17.9242 19.4622C17.6294 19.6431 17.2207 19.8809 16.6982 20.1757C16.1489 20.4838 15.69 20.9193 15.3215 21.482C14.9531 22.0447 14.7688 22.4936 14.7688 22.8286C14.7688 23.0563 14.6884 23.2741 14.5277 23.4817C14.3669 23.6894 14.1793 23.7932 13.9649 23.7932H9.14148C8.94051 23.7932 8.76968 23.6693 8.62899 23.4214C8.48831 23.1736 8.41797 22.9223 8.41797 22.6678V21.7634C8.41797 20.6513 8.85342 19.6029 9.72432 18.6181C10.5952 17.6333 11.5532 16.9064 12.5983 16.4375C13.3888 16.0757 13.9515 15.7006 14.2865 15.312C14.6214 14.9235 14.7889 14.4143 14.7889 13.7846C14.7889 13.2219 14.4774 12.7261 13.8544 12.2974C13.2314 11.8686 12.5112 11.6543 11.6939 11.6543C10.823 11.6543 10.0995 11.8485 9.52334 12.2371C9.05439 12.5721 8.33758 13.3425 7.37289 14.5483C7.19871 14.7627 6.99104 14.8699 6.74986 14.8699C6.58908 14.8699 6.4216 14.8163 6.24742 14.7091L2.95141 12.1969C2.77723 12.0629 2.67339 11.8954 2.63989 11.6945C2.6064 11.4935 2.64324 11.3059 2.75043 11.1317C4.89418 7.56773 8.00262 5.78574 12.0757 5.78574C13.1476 5.78574 14.2262 5.99342 15.3115 6.40877C16.3967 6.82412 17.3748 7.38016 18.2457 8.07688C19.1166 8.77359 19.8267 9.62774 20.3761 10.6393C20.9254 11.6509 21.2001 12.7127 21.2001 13.8248Z" fill="#23B643"/>
</g>
<defs>
<clipPath id="clip0_127_37413">
<rect width="20.58" height="37" fill="white" transform="matrix(1 0 0 -1 0.700195 37.5)"/>
</clipPath>
</defs>
</svg>
