<svg width="42" height="42" viewBox="0 0 42 42" fill="none" xmlns="http://www.w3.org/2000/svg">
<path id="Vector" d="M12.8475 1.65598C12.8475 1.65598 13.4965 1.37998 14.7946 0.827988C16.0927 0.275997 18.1612 0 21 0C23.8388 0 26.5563 0.551994 29.1525 1.65598C31.7487 2.75996 33.987 4.25217 35.8674 6.13258C37.7478 8.013 39.24 10.2513 40.344 12.8475C41.448 15.4437 42 18.1612 42 21C42 23.8388 41.448 26.5563 40.344 29.1525C39.24 31.7487 37.7478 33.987 35.8674 35.8674C33.987 37.7478 31.7487 39.24 29.1525 40.344C26.5563 41.448 23.8388 42 21 42C18.1612 42 15.4437 41.448 12.8475 40.344C10.2513 39.24 8.013 37.7478 6.13258 35.8674C4.25217 33.987 2.75997 31.7487 1.65598 29.1525C0.551993 26.5563 0 23.8388 0 21C0 18.1612 0.551993 15.4437 1.65598 12.8475C2.75997 10.2513 4.25217 8.013 6.13258 6.13258C8.013 4.25217 10.2513 2.75996 12.8475 1.65598ZM28.8068 7.53379C28.8068 7.53379 28.2093 7.18804 27.0143 6.49653C25.8193 5.80503 23.8146 5.45927 21 5.45927C18.1854 5.45927 15.5832 6.15078 13.1932 7.53379C10.8033 8.91681 8.91681 10.8033 7.5338 13.1932C6.15078 15.5832 5.45927 18.1854 5.45927 21C5.45927 23.8146 6.15078 26.4168 7.5338 28.8068C8.91681 31.1967 10.8033 33.0832 13.1932 34.4662C15.5832 35.8492 18.1854 36.5407 21 36.5407C23.8146 36.5407 26.4168 35.8492 28.8068 34.4662C31.1967 33.0832 33.0832 31.1967 34.4662 28.8068C35.8492 26.4168 36.5407 23.8146 36.5407 21C36.5407 18.1854 35.8492 15.5832 34.4662 13.1932C33.0832 10.8033 31.1967 8.91681 28.8068 7.53379ZM27.6239 14.1577L31.4818 18.0156C31.6516 18.1854 31.7366 18.3977 31.7366 18.6525C31.7366 18.9073 31.6516 19.1196 31.4818 19.2894L19.8354 30.9723C19.6412 31.1421 19.4229 31.227 19.1802 31.227C18.9376 31.227 18.7192 31.1421 18.5251 30.9723L11.1733 23.5841C10.9792 23.4142 10.8821 23.2019 10.8821 22.9471C10.8821 22.6924 10.9792 22.4801 11.1733 22.3102L15.0312 18.4523C15.201 18.2582 15.4133 18.1612 15.6681 18.1612C15.9229 18.1612 16.1352 18.2582 16.305 18.4523L19.1802 21.3276L26.3501 14.1577C26.5199 13.9879 26.7322 13.9029 26.987 13.9029C27.2418 13.9029 27.4541 13.9879 27.6239 14.1577Z" fill="#23B643"/>
</svg>
