<svg width="20" height="20" viewBox="0 0 20 20" fill="none" xmlns="http://www.w3.org/2000/svg">
<path id="Vector" fill-rule="evenodd" clip-rule="evenodd" d="M0 19C0 18.7348 0.0877975 18.4804 0.244078 18.2929C0.400358 18.1054 0.61232 18 0.833333 18H19.1667C19.3877 18 19.5996 18.1054 19.7559 18.2929C19.9122 18.4804 20 18.7348 20 19C20 19.2652 19.9122 19.5196 19.7559 19.7071C19.5996 19.8946 19.3877 20 19.1667 20H0.833333C0.61232 20 0.400358 19.8946 0.244078 19.7071C0.0877975 19.5196 0 19.2652 0 19ZM0 13C0 12.7348 0.0877975 12.4804 0.244078 12.2929C0.400358 12.1054 0.61232 12 0.833333 12H19.1667C19.3877 12 19.5996 12.1054 19.7559 12.2929C19.9122 12.4804 20 12.7348 20 13C20 13.2652 19.9122 13.5196 19.7559 13.7071C19.5996 13.8946 19.3877 14 19.1667 14H0.833333C0.61232 14 0.400358 13.8946 0.244078 13.7071C0.0877975 13.5196 0 13.2652 0 13ZM0 7C0 6.73478 0.0877975 6.48043 0.244078 6.29289C0.400358 6.10536 0.61232 6 0.833333 6H19.1667C19.3877 6 19.5996 6.10536 19.7559 6.29289C19.9122 6.48043 20 6.73478 20 7C20 7.26522 19.9122 7.51957 19.7559 7.70711C19.5996 7.89464 19.3877 8 19.1667 8H0.833333C0.61232 8 0.400358 7.89464 0.244078 7.70711C0.0877975 7.51957 0 7.26522 0 7ZM0 1C0 0.734784 0.0877975 0.48043 0.244078 0.292893C0.400358 0.105357 0.61232 0 0.833333 0H19.1667C19.3877 0 19.5996 0.105357 19.7559 0.292893C19.9122 0.48043 20 0.734784 20 1C20 1.26522 19.9122 1.51957 19.7559 1.70711C19.5996 1.89464 19.3877 2 19.1667 2H0.833333C0.61232 2 0.400358 1.89464 0.244078 1.70711C0.0877975 1.51957 0 1.26522 0 1Z" fill="black"/>
</svg>
