<svg width="42" height="47" viewBox="0 0 42 47" fill="none" xmlns="http://www.w3.org/2000/svg">
<path id="Vector" d="M2.1 0.00018692H39.9C40.488 0.00018692 40.985 0.203186 41.391 0.609184C41.797 1.01519 42 1.51219 42 2.10019V23.1002C42 23.6882 41.797 24.1852 41.391 24.5912C40.985 24.9972 40.488 25.2002 39.9 25.2002H2.1C1.512 25.2002 1.015 24.9972 0.609 24.5912C0.203 24.1852 0 23.6882 0 23.1002V2.10019C0 1.51219 0.203 1.01519 0.609 0.609184C1.015 0.203186 1.512 0.00018692 2.1 0.00018692ZM1.05 29.4002H40.95C41.23 29.4002 41.475 29.5052 41.685 29.7152C41.895 29.9252 42 30.1702 42 30.4502V32.5502C42 32.8302 41.895 33.0752 41.685 33.2852C41.475 33.4952 41.23 33.6002 40.95 33.6002H29.064L38.472 43.0082C38.836 43.3722 39.018 43.8132 39.018 44.3312C39.018 44.8492 38.836 45.2972 38.472 45.6752C38.108 46.0532 37.667 46.2422 37.149 46.2422C36.631 46.2422 36.19 46.0602 35.826 45.6962L32.13 42.0002H10.122L6.468 45.6962C6.104 46.0602 5.656 46.2422 5.124 46.2422C4.592 46.2422 4.144 46.0532 3.78 45.6752C3.416 45.2972 3.234 44.8492 3.234 44.3312C3.234 43.8132 3.416 43.3722 3.78 43.0082L13.188 33.6002H1.05C0.77 33.6002 0.525 33.4952 0.315 33.2852C0.105 33.0752 0 32.8302 0 32.5502V30.4502C0 30.1702 0.105 29.9252 0.315 29.7152C0.525 29.5052 0.77 29.4002 1.05 29.4002ZM18.522 33.6002L14.322 37.8002H27.93L23.73 33.6002H18.522Z" fill="#23B643"/>
</svg>
