<svg width="17" height="16" viewBox="0 0 17 16" fill="none" xmlns="http://www.w3.org/2000/svg">
<g clip-path="url(#clip0_422_7975)">
<path d="M12.2414 10.3431C13.2097 9.02181 13.6434 7.38361 13.4557 5.75627C13.2681 4.12893 12.4728 2.63246 11.2292 1.56625C9.98555 0.500045 8.38518 -0.0572725 6.74827 0.00580065C5.11136 0.0688738 3.55862 0.747686 2.4007 1.90643C1.24278 3.06518 0.565084 4.6184 0.503182 6.25536C0.44128 7.89231 0.999742 9.49228 2.06684 10.7352C3.13394 11.9781 4.63098 12.7722 6.25845 12.9587C7.88593 13.1452 9.52381 12.7104 10.8444 11.7411H10.8434C10.8734 11.7811 10.9054 11.8191 10.9414 11.8561L14.7914 15.7061C14.9789 15.8938 15.2333 15.9992 15.4986 15.9993C15.7638 15.9994 16.0183 15.8941 16.2059 15.7066C16.3936 15.5191 16.499 15.2647 16.4991 14.9995C16.4992 14.7342 16.3939 14.4798 16.2064 14.2921L12.3564 10.4421C12.3207 10.4059 12.2822 10.3725 12.2414 10.3421V10.3431ZM12.4994 6.49912C12.4994 7.22139 12.3572 7.93659 12.0808 8.60388C11.8044 9.27117 11.3992 9.87749 10.8885 10.3882C10.3778 10.8989 9.77148 11.3041 9.10419 11.5805C8.4369 11.8569 7.7217 11.9991 6.99943 11.9991C6.27716 11.9991 5.56196 11.8569 4.89467 11.5805C4.22738 11.3041 3.62107 10.8989 3.11035 10.3882C2.59962 9.87749 2.1945 9.27117 1.9181 8.60388C1.64169 7.93659 1.49943 7.22139 1.49943 6.49912C1.49943 5.04043 2.0789 3.64149 3.11035 2.61004C4.1418 1.57859 5.54074 0.999124 6.99943 0.999124C8.45812 0.999124 9.85707 1.57859 10.8885 2.61004C11.92 3.64149 12.4994 5.04043 12.4994 6.49912Z" fill="white"/>
</g>
<defs>
<clipPath id="clip0_422_7975">
<rect width="16" height="16" fill="white" transform="translate(0.5)"/>
</clipPath>
</defs>
</svg>
