<svg width="31" height="30" viewBox="0 0 31 30" fill="none" xmlns="http://www.w3.org/2000/svg">
<g id="Translate" clip-path="url(#clip0_1203_15960)">
<path id="Vector" d="M9.02188 12.5888L8.20625 15H6.125L9.61625 5.625H12.0237L15.5 15H13.3119L12.4962 12.5888H9.02188ZM12.0856 11.2088L10.8125 7.4175H10.7206L9.4475 11.2088H12.0856Z" fill="#23B643"/>
<path id="Vector_2" d="M0.5 3.75C0.5 2.75544 0.895088 1.80161 1.59835 1.09835C2.30161 0.395088 3.25544 0 4.25 0L17.375 0C18.3696 0 19.3234 0.395088 20.0266 1.09835C20.7299 1.80161 21.125 2.75544 21.125 3.75V9.375H26.75C27.7446 9.375 28.6984 9.77009 29.4016 10.4733C30.1049 11.1766 30.5 12.1304 30.5 13.125V26.25C30.5 27.2446 30.1049 28.1984 29.4016 28.9016C28.6984 29.6049 27.7446 30 26.75 30H13.625C12.6304 30 11.6766 29.6049 10.9733 28.9016C10.2701 28.1984 9.875 27.2446 9.875 26.25V20.625H4.25C3.25544 20.625 2.30161 20.2299 1.59835 19.5266C0.895088 18.8234 0.5 17.8696 0.5 16.875V3.75ZM4.25 1.875C3.75272 1.875 3.27581 2.07254 2.92417 2.42417C2.57254 2.77581 2.375 3.25272 2.375 3.75V16.875C2.375 17.3723 2.57254 17.8492 2.92417 18.2008C3.27581 18.5525 3.75272 18.75 4.25 18.75H17.375C17.8723 18.75 18.3492 18.5525 18.7008 18.2008C19.0525 17.8492 19.25 17.3723 19.25 16.875V3.75C19.25 3.25272 19.0525 2.77581 18.7008 2.42417C18.3492 2.07254 17.8723 1.875 17.375 1.875H4.25ZM17.6337 20.6156C17.995 21.1794 18.3888 21.7081 18.815 22.2019C17.4125 23.28 15.6781 24.0788 13.625 24.6244C13.9587 25.0312 14.4706 25.815 14.6656 26.25C16.775 25.5769 18.5656 24.6675 20.0769 23.4487C21.5338 24.6956 23.3375 25.6331 25.5706 26.2087C25.82 25.7325 26.3469 24.9469 26.75 24.54C24.6406 24.0656 22.8931 23.2388 21.4625 22.1325C22.7394 20.7319 23.7537 19.0369 24.5019 16.9631H26.75V15H21.125V16.9631H22.5594C21.9631 18.5456 21.1719 19.8619 20.1744 20.9569C19.8987 20.6635 19.6389 20.3556 19.3962 20.0344C18.8667 20.3727 18.2607 20.5726 17.6337 20.6156Z" fill="#23B643"/>
</g>
<defs>
<clipPath id="clip0_1203_15960">
<rect width="30" height="30" fill="white" transform="translate(0.5)"/>
</clipPath>
</defs>
</svg>
