<svg width="31" height="30" viewBox="0 0 31 30" fill="none" xmlns="http://www.w3.org/2000/svg">
<g id="services-9.svg" clip-path="url(#clip0_361_12185)">
<g id="Clip path group">
<mask id="mask0_361_12185" style="mask-type:luminance" maskUnits="userSpaceOnUse" x="0" y="0" width="31" height="30">
<g id="a">
<path id="&#208;&#159;&#209;&#128;&#209;&#143;&#208;&#188;&#208;&#190;&#209;&#131;&#208;&#179;&#208;&#190;&#208;&#187;&#209;&#140;&#208;&#189;&#208;&#184;&#208;&#186; 228" d="M30.497 0H0.501953V30H30.497V0Z" fill="white"/>
</g>
</mask>
<g mask="url(#mask0_361_12185)">
<g id="&#208;&#161;&#208;&#179;&#209;&#128;&#209;&#131;&#208;&#191;&#208;&#191;&#208;&#184;&#209;&#128;&#208;&#190;&#208;&#178;&#208;&#176;&#209;&#130;&#209;&#140; 308">
<path id="&#208;&#154;&#208;&#190;&#208;&#189;&#209;&#130;&#209;&#131;&#209;&#128; 492" d="M30.4684 19.859C30.4285 18.7989 30.0219 17.7855 29.3181 16.9917C28.6142 16.198 27.6567 15.6731 26.609 15.5067C25.9502 15.4326 25.2873 15.3992 24.6244 15.4067H24.0634C23.6935 15.4067 23.3246 15.4067 22.9546 15.3937C22.8408 15.3812 22.7262 15.3762 22.6117 15.3787C21.7669 15.3465 20.9283 15.5339 20.1775 15.9226C19.4268 16.3113 18.7897 16.888 18.3284 17.5964L18.0674 17.9803L17.7125 17.6654C16.3369 16.3178 14.5164 15.5192 12.5934 15.4197C11.8265 15.3787 11.0606 15.3647 10.3217 15.3647C9.58286 15.3647 8.86998 15.3777 8.1591 15.4197C6.55021 15.5194 5.00679 16.0929 3.72326 17.0681C2.43973 18.0433 1.47351 19.3765 0.946303 20.8998C0.552159 22.282 0.404262 23.7227 0.509376 25.1561V25.3201C0.52299 26.5454 1.0139 27.7171 1.87777 28.5862C2.74164 29.4553 3.91038 29.9533 5.1356 29.9743C6.88731 29.9873 8.63502 30.0013 10.3907 30.0013C12.1464 30.0013 13.8672 29.9883 15.6059 29.9743C16.3745 29.9701 17.1297 29.7723 17.8018 29.3992C18.4739 29.0262 19.0411 28.4898 19.4512 27.8397C19.949 27.0623 20.2237 26.163 20.2451 25.2401L20.2731 24.8402H21.3269L23.1336 24.8532H24.9253C25.7752 24.8532 26.61 24.8532 27.4579 24.8402C28.1644 24.8608 28.8539 24.6214 29.3957 24.1675C29.9375 23.7136 30.2939 23.0767 30.3974 22.3776C30.5033 21.542 30.5261 20.698 30.4654 19.858M15.3589 27.3737H5.48955C5.16384 27.3952 4.83716 27.3504 4.52922 27.2422C4.22129 27.1339 3.93847 26.9644 3.69784 26.7438C3.48251 26.5041 3.31997 26.2218 3.22076 25.9152C3.12155 25.6086 3.08788 25.2846 3.12194 24.9641L3.13494 24.4722C3.1152 23.5782 3.21234 22.6855 3.42389 21.8167C3.74825 20.7245 4.41595 19.766 5.32798 19.0833C6.24 18.4005 7.34778 18.0299 8.48705 18.0263C9.11694 17.9983 9.7465 17.9846 10.3757 17.9853C10.9916 17.9853 11.6075 17.9983 12.2104 18.0123C13.6389 18.0393 15.0006 18.6217 16.0067 19.636C17.0128 20.6504 17.5842 22.0168 17.5995 23.4454C17.6275 24.0063 17.6125 24.5542 17.6125 25.1151C17.6332 25.417 17.589 25.7198 17.4829 26.0031C17.3768 26.2865 17.2112 26.5438 16.9973 26.7578C16.7834 26.9718 16.5261 27.1375 16.2428 27.2437C15.9595 27.35 15.6568 27.3943 15.3549 27.3737M27.8678 21.5157C27.8392 21.6939 27.7551 21.8586 27.6274 21.9862C27.4998 22.1138 27.3351 22.198 27.1569 22.2266C25.7202 22.2416 24.2964 22.2416 22.8447 22.2416H20.2311V21.8307C20.2311 21.6247 20.2181 21.4307 20.2181 21.2418C20.2181 20.8048 20.2031 20.4069 20.2311 19.996C20.2481 19.4869 20.4562 19.0029 20.814 18.6403C21.1718 18.2777 21.653 18.0631 22.1618 18.0393C22.7907 18.0113 23.4336 17.9983 24.0615 17.9983C24.6893 17.9983 25.3072 18.0113 25.9221 18.0393C26.431 18.0533 26.9154 18.2608 27.2765 18.6195C27.6377 18.9782 27.8484 19.4612 27.8658 19.97C27.8937 20.4848 27.8937 21.0009 27.8658 21.5157" fill="#23B643"/>
<path id="&#208;&#154;&#208;&#190;&#208;&#189;&#209;&#130;&#209;&#131;&#209;&#128; 493" d="M10.3223 -0.000910796H10.2123C8.52608 0.0500221 6.92729 0.761222 5.76032 1.97951C4.59334 3.1978 3.95155 4.8257 3.97319 6.51258C3.99482 8.19947 4.67814 9.81038 5.87597 10.9983C7.0738 12.1863 8.6903 12.8563 10.3773 12.8639C11.2362 12.8641 12.0862 12.6909 12.8765 12.3547C13.6668 12.0184 14.3811 11.5261 14.9765 10.9073C15.5661 10.3177 16.031 9.61549 16.3436 8.84255C16.6562 8.0696 16.8101 7.24167 16.7962 6.40802C16.7867 4.69993 16.0995 3.06548 14.8856 1.86377C13.6717 0.662055 12.0304 -0.00862201 10.3223 -0.000910796ZM13.0729 9.14257C12.7218 9.49718 12.304 9.77886 11.8436 9.97139C11.3832 10.1639 10.8893 10.2635 10.3903 10.2644H10.3763C9.3616 10.2628 8.38849 9.8609 7.66846 9.14592C6.94842 8.43094 6.53964 7.46069 6.53095 6.44601C6.52959 5.81568 6.68378 5.19474 6.97983 4.63826C7.27589 4.08177 7.70467 3.60692 8.22817 3.25581C8.75166 2.9047 9.3537 2.68818 9.98091 2.62543C10.6081 2.56268 11.2411 2.65565 11.8238 2.89609C12.4065 3.13654 12.9208 3.51703 13.3213 4.00384C13.7217 4.49065 13.9958 5.06873 14.1194 5.68684C14.2429 6.30496 14.212 6.944 14.0295 7.54733C13.8469 8.15065 13.5184 8.69962 13.0729 9.14557" fill="#23B643"/>
<path id="&#208;&#154;&#208;&#190;&#208;&#189;&#209;&#130;&#209;&#131;&#209;&#128; 494" d="M24.0913 3.42188H24.0503C23.1175 3.42189 22.2055 3.69818 21.4296 4.21588C20.6536 4.73357 20.0483 5.4695 19.6901 6.3308C19.332 7.1921 19.2369 8.14019 19.4169 9.05546C19.5969 9.97074 20.044 10.8122 20.7017 11.4737C21.3594 12.1351 22.1983 12.587 23.1126 12.7722C24.0268 12.9575 24.9754 12.8678 25.8387 12.5145C26.7021 12.1613 27.4414 11.5602 27.9635 10.7872C28.4857 10.0142 28.7671 9.10388 28.7725 8.17108C28.7729 6.9233 28.2821 5.72551 27.4062 4.83676C26.5304 3.94801 25.3399 3.43974 24.0923 3.42188M24.0663 10.2657H24.0533C23.7734 10.2638 23.4967 10.2066 23.2389 10.0975C22.9812 9.98833 22.7476 9.82941 22.5514 9.62979C22.3552 9.43018 22.2004 9.1938 22.0957 8.93422C21.9911 8.67464 21.9387 8.39696 21.9416 8.11709C21.9483 7.70079 22.0778 7.29574 22.3137 6.9527C22.5497 6.60966 22.8816 6.34391 23.268 6.18877C23.6544 6.03362 24.0779 5.99598 24.4856 6.08056C24.8933 6.16515 25.2669 6.3682 25.5596 6.66425C25.8524 6.9603 26.0512 7.33619 26.1312 7.74478C26.2112 8.15338 26.1688 8.57649 26.0094 8.96109C25.8499 9.34569 25.5804 9.67465 25.2348 9.90674C24.8891 10.1388 24.4826 10.2637 24.0663 10.2657Z" fill="#23B643"/>
</g>
</g>
</g>
</g>
<defs>
<clipPath id="clip0_361_12185">
<rect width="29.995" height="30" fill="white" transform="translate(0.501953)"/>
</clipPath>
</defs>
</svg>
