<svg width="31" height="30" viewBox="0 0 31 30" fill="none" xmlns="http://www.w3.org/2000/svg">
<g id="services-8.svg" clip-path="url(#clip0_361_12172)">
<g id="Clip path group">
<mask id="mask0_361_12172" style="mask-type:luminance" maskUnits="userSpaceOnUse" x="0" y="0" width="31" height="30">
<g id="a">
<path id="&#208;&#159;&#209;&#128;&#209;&#143;&#208;&#188;&#208;&#190;&#209;&#131;&#208;&#179;&#208;&#190;&#208;&#187;&#209;&#140;&#208;&#189;&#208;&#184;&#208;&#186; 230" d="M30.5 0.00195312H0.5V29.998H30.5V0.00195312Z" fill="white"/>
</g>
</mask>
<g mask="url(#mask0_361_12172)">
<g id="&#208;&#161;&#208;&#179;&#209;&#128;&#209;&#131;&#208;&#191;&#208;&#191;&#208;&#184;&#209;&#128;&#208;&#190;&#208;&#178;&#208;&#176;&#209;&#130;&#209;&#140; 312">
<path id="&#208;&#154;&#208;&#190;&#208;&#189;&#209;&#130;&#209;&#131;&#209;&#128; 499" d="M15.5005 29.9969H5.37955C4.73103 30.0246 4.08384 29.9171 3.47905 29.6814C2.87426 29.4457 2.32506 29.0868 1.86631 28.6276C1.40756 28.1684 1.04926 27.6188 0.814146 27.0138C0.579035 26.4087 0.472245 25.7614 0.500549 25.1129C0.500549 24.2269 0.500549 23.3429 0.500549 22.4579C0.490071 22.2677 0.518528 22.0774 0.584177 21.8985C0.649827 21.7197 0.751288 21.5561 0.882349 21.4178C1.01341 21.2796 1.17131 21.1695 1.34639 21.0944C1.52147 21.0193 1.71004 20.9807 1.90055 20.9809C2.0912 20.9795 2.28014 21.017 2.45578 21.0911C2.63142 21.1653 2.79007 21.2745 2.922 21.4121C3.05393 21.5498 3.15635 21.7129 3.22299 21.8915C3.28963 22.0702 3.31909 22.2605 3.30955 22.4509C3.30955 23.3779 3.30955 24.3049 3.30955 25.2309C3.29914 25.4898 3.34241 25.7479 3.43665 25.9892C3.53088 26.2305 3.67404 26.4497 3.85711 26.6329C4.04018 26.8162 4.2592 26.9596 4.50039 27.0541C4.74158 27.1485 4.99971 27.1921 5.25855 27.1819C12.0792 27.1819 18.8999 27.1819 25.7205 27.1819C25.9794 27.1935 26.2379 27.1512 26.4795 27.0577C26.7212 26.9643 26.9409 26.8217 27.1246 26.6389C27.3084 26.4562 27.4522 26.2374 27.547 25.9962C27.6419 25.7551 27.6856 25.4969 27.6755 25.2379C27.6755 18.4079 27.6755 11.5776 27.6755 4.74694C27.6841 4.49059 27.6398 4.23522 27.5453 3.99676C27.4508 3.7583 27.3082 3.54187 27.1263 3.36097C26.9445 3.18007 26.7273 3.03858 26.4884 2.94532C26.2495 2.85207 25.9939 2.80904 25.7375 2.81894C18.9062 2.81894 12.0749 2.81894 5.24355 2.81894C4.988 2.81127 4.73358 2.85609 4.49603 2.95062C4.25848 3.04515 4.04284 3.1874 3.86243 3.36856C3.68202 3.54971 3.54068 3.76594 3.44713 4.00389C3.35358 4.24183 3.30982 4.49642 3.31855 4.75194C3.31355 5.67894 3.31855 6.60594 3.31855 7.53194C3.33076 7.72518 3.30275 7.91886 3.23629 8.10072C3.16984 8.28259 3.06638 8.44869 2.93246 8.58853C2.79854 8.72837 2.63706 8.83892 2.45824 8.91317C2.27942 8.98743 2.08714 9.02378 1.89355 9.01994C1.70237 9.01939 1.51334 8.97969 1.33809 8.90329C1.16284 8.82689 1.0051 8.7154 0.87459 8.57571C0.744077 8.43601 0.643558 8.27107 0.579228 8.09104C0.514898 7.91101 0.488122 7.71971 0.500549 7.52894C0.500549 6.58094 0.500549 5.63327 0.500549 4.68594C0.500287 4.07188 0.620975 3.46378 0.855723 2.89636C1.09047 2.32894 1.43468 1.81332 1.8687 1.37892C2.30272 0.944532 2.81806 0.59988 3.38527 0.364646C3.95249 0.129412 4.56049 0.00820399 5.17455 0.00794141C12.0585 0.000608073 18.9415 0.000608073 25.8235 0.00794141C26.4375 0.00701817 27.0457 0.12734 27.6131 0.362003C28.1805 0.596666 28.6959 0.941052 29.1299 1.3754C29.5639 1.80975 29.9078 2.32552 30.142 2.89311C30.3762 3.4607 30.496 4.06894 30.4945 4.68294C30.5025 11.5543 30.5025 18.4263 30.4945 25.2989C30.4984 25.9187 30.3789 26.533 30.1431 27.1061C29.9072 27.6792 29.5596 28.1996 29.1206 28.637C28.6816 29.0745 28.1599 29.4201 27.5859 29.654C27.012 29.8878 26.3973 30.0051 25.7775 29.9989C22.3526 30.0059 18.9265 29.9989 15.5005 29.9989" fill="#23B643"/>
<path id="&#208;&#154;&#208;&#190;&#208;&#189;&#209;&#130;&#209;&#131;&#209;&#128; 500" d="M13.8928 16.407H2.06576C1.73563 16.4406 1.4042 16.3571 1.12932 16.1712C0.854435 15.9854 0.653561 15.7089 0.561761 15.39C0.505586 15.1972 0.491538 14.9946 0.520569 14.7959C0.549601 14.5972 0.621033 14.4071 0.730018 14.2385C0.839003 14.0698 0.982991 13.9266 1.15221 13.8185C1.32143 13.7104 1.51192 13.64 1.71076 13.612C1.86581 13.595 2.02184 13.5887 2.17776 13.593C5.93576 13.593 9.69409 13.593 13.4528 13.593H13.8858C13.7618 13.456 13.6978 13.38 13.6288 13.309C12.7608 12.439 11.8888 11.575 11.0288 10.7C10.8168 10.4963 10.6756 10.2302 10.6257 9.9405C10.5759 9.6508 10.62 9.35276 10.7518 9.08998C10.8718 8.82667 11.0744 8.60965 11.3288 8.47179C11.5832 8.33393 11.8756 8.28274 12.1618 8.32598C12.477 8.37776 12.7709 8.51864 13.0088 8.73198C14.7854 10.474 16.5471 12.2303 18.2938 14.001C18.4295 14.1284 18.5379 14.2821 18.6122 14.4528C18.6865 14.6235 18.7252 14.8076 18.726 14.9938C18.7267 15.1799 18.6895 15.3643 18.6165 15.5356C18.5436 15.7069 18.4365 15.8615 18.3018 15.99C16.5411 17.764 14.7744 19.5306 13.0018 21.29C12.7391 21.5527 12.3828 21.7003 12.0113 21.7003C11.6398 21.7003 11.2835 21.5527 11.0208 21.29C10.7581 21.0273 10.6105 20.671 10.6105 20.2995C10.6105 20.1155 10.6467 19.9334 10.7171 19.7634C10.7875 19.5935 10.8907 19.4391 11.0208 19.309C11.8788 18.43 12.7548 17.569 13.6208 16.699C13.6918 16.628 13.7588 16.553 13.8928 16.409" fill="#23B643"/>
</g>
</g>
</g>
</g>
<defs>
<clipPath id="clip0_361_12172">
<rect width="30" height="29.996" fill="white" transform="translate(0.5 0.00195312)"/>
</clipPath>
</defs>
</svg>
