<svg width="31" height="30" viewBox="0 0 31 30" fill="none" xmlns="http://www.w3.org/2000/svg">
<g id="services-1.svg" clip-path="url(#clip0_361_12099)">
<path id="&#208;&#154;&#208;&#190;&#208;&#189;&#209;&#130;&#209;&#131;&#209;&#128; 470" d="M27.8157 14.6159C26.8624 15.4987 25.7381 16.1765 24.5123 16.6073C23.2865 17.0381 21.9853 17.2127 20.6893 17.1204C20.4326 17.1214 20.1761 17.1071 19.921 17.0775C19.5695 17.0315 19.2483 16.8541 19.0222 16.581C18.7961 16.3079 18.6818 15.9593 18.7023 15.6053C18.7227 15.2514 18.8765 14.9183 19.1326 14.6731C19.3887 14.4278 19.7282 14.2887 20.0827 14.2836C20.9604 14.2991 21.8379 14.2481 22.7079 14.1309C23.7456 13.9862 24.7246 13.5624 25.5403 12.9048C26.3561 12.2472 26.978 11.3805 27.3397 10.3972C27.5869 9.66226 27.6822 8.8848 27.6197 8.11197C27.5573 7.33914 27.3384 6.58705 26.9765 5.90138C26.6145 5.2157 26.117 4.61074 25.5141 4.12321C24.9112 3.63568 24.2155 3.27576 23.4692 3.06529C22.1888 2.68377 20.8129 2.78481 19.6019 3.3493C18.3909 3.91379 17.4288 4.90257 16.8977 6.12855C16.2438 7.50949 16.015 9.05356 16.2401 10.5648C16.4796 12.3918 16.8209 14.2068 17.1332 16.0258C17.4787 17.691 17.6397 19.3892 17.6131 21.0896C17.5982 22.5584 17.2329 24.0025 16.5476 25.3016C15.8623 26.6008 14.8767 27.7176 13.6728 28.5592C12.7682 29.2065 11.7343 29.6505 10.6421 29.8608C9.54979 30.0711 8.42496 30.0427 7.34471 29.7775C5.47338 29.3844 3.78719 28.3769 2.55418 26.9154C1.32116 25.4538 0.612088 23.6221 0.539678 21.7113C0.46849 20.4402 0.706232 19.1707 1.23257 18.0115C1.75891 16.8523 2.55818 15.8379 3.56203 15.0549C4.59849 14.2197 5.79101 13.5993 7.06992 13.2301C8.34883 12.8609 9.68849 12.7503 11.0106 12.9046C11.3809 12.9267 11.7272 13.0948 11.9736 13.3721C12.2199 13.6493 12.3461 14.0131 12.3244 14.3833C12.3027 14.7536 12.1349 15.1001 11.8579 15.3467C11.5809 15.5933 11.2173 15.7198 10.847 15.6985C9.78451 15.6098 8.71468 15.7077 7.68596 15.9879C6.60999 16.2337 5.63064 16.7919 4.87089 17.5925C4.11114 18.3931 3.60487 19.4003 3.41565 20.4876C3.22643 21.575 3.3627 22.694 3.80734 23.7042C4.25198 24.7143 4.98518 25.5706 5.91485 26.1655C6.80934 26.8 7.87514 27.1485 8.9717 27.1651C10.0683 27.1816 11.1441 26.8655 12.0573 26.2583C12.8451 25.7124 13.4989 24.995 13.9695 24.1601C14.4401 23.3252 14.7153 22.3945 14.7744 21.4379C14.8548 19.6777 14.698 17.9148 14.3084 16.1964C13.9921 14.3175 13.6349 12.4417 13.4303 10.5498C13.1767 8.56856 13.5243 6.55679 14.4281 4.77553C14.9375 3.68356 15.6793 2.71604 16.6015 1.94063C17.5238 1.16522 18.6043 0.600639 19.7676 0.28636C20.9308 -0.0279191 22.1486 -0.0843058 23.3359 0.121143C24.5232 0.326591 25.6513 0.788916 26.6413 1.47579C28.2437 2.53162 29.4428 4.09763 30.044 5.92006C30.6453 7.74249 30.6136 9.71456 29.954 11.5167C29.4785 12.6948 28.7487 13.7534 27.8167 14.6169" fill="#23B643"/>
</g>
<defs>
<clipPath id="clip0_361_12099">
<rect width="29.9451" height="30" fill="white" transform="translate(0.527344)"/>
</clipPath>
</defs>
</svg>
