<svg width="31" height="30" viewBox="0 0 31 30" fill="none" xmlns="http://www.w3.org/2000/svg">
<g id="services-2.svg" clip-path="url(#clip0_361_12107)">
<path id="Vector" d="M3.60541 0.0175954C3.19559 0.00535006 2.7876 0.0772409 2.40665 0.228829C2.02569 0.380418 1.67986 0.608485 1.39049 0.898952C1.10112 1.18942 0.874358 1.53612 0.724211 1.91764C0.574065 2.29917 0.503717 2.70742 0.517512 3.1172V6.3379C0.504167 6.75151 0.576029 7.16346 0.728632 7.54813C0.881235 7.93279 1.11132 8.28197 1.40458 8.57395C1.69785 8.86593 2.04803 9.09448 2.43337 9.24539C2.8187 9.3963 3.23096 9.46636 3.64451 9.4512H10.2558C10.6649 9.46624 11.0727 9.39742 11.4542 9.24895C11.8356 9.10049 12.1827 8.87553 12.4739 8.58792C12.7652 8.30031 12.9945 7.95614 13.1478 7.57658C13.3011 7.19702 13.3751 6.79011 13.3652 6.3809C13.3932 5.1579 13.3932 4.0746 13.3652 3.0606H13.3672C13.3741 2.65443 13.2982 2.25112 13.1443 1.87519C12.9904 1.49927 12.7615 1.1586 12.4717 0.873933C12.1819 0.589261 11.8373 0.366538 11.4587 0.219319C11.08 0.0721009 10.6754 0.00346706 10.2695 0.0175954H3.60541ZM22.5214 0.0175954C21.872 -0.0121139 21.2235 0.0935182 20.617 0.327786C20.0106 0.562055 19.4595 0.919842 18.9987 1.37844C18.5379 1.83703 18.1775 2.38642 17.9403 2.99172C17.7031 3.59703 17.5944 4.24503 17.621 4.8946V8.5762L17.6366 8.99222C17.6366 9.46422 17.635 9.93819 17.621 10.4102C17.621 11.4382 17.6083 12.5089 17.6503 13.5489C17.6937 14.7053 18.1702 15.8031 18.9854 16.6244C19.8005 17.4457 20.8947 17.9305 22.0507 17.9825C22.7174 18.0105 23.384 18.0235 24.0507 18.0235C24.7177 18.0235 25.3984 18.0105 26.0644 17.9825C27.2272 17.9227 28.325 17.4281 29.1401 16.5967C29.9552 15.7653 30.428 14.6579 30.4648 13.4942C30.5068 10.5772 30.5068 7.56352 30.4648 4.52152L30.4687 4.51761C30.4426 3.45107 30.0429 2.42753 29.3394 1.62549C28.6359 0.823455 27.6732 0.293807 26.6191 0.128909C25.8349 0.0458771 25.0464 0.00870384 24.2578 0.0175792L22.5214 0.0175954ZM24.0761 2.6035C24.6031 2.6035 25.1321 2.60317 25.6601 2.61717C25.9544 2.59935 26.2491 2.64369 26.5251 2.74731C26.8012 2.85093 27.0523 3.01151 27.2621 3.21859C27.472 3.42568 27.6358 3.67462 27.7431 3.94924C27.8504 4.22385 27.8986 4.51797 27.8847 4.81247C27.8987 7.79947 27.8971 10.5504 27.8691 13.2324L27.8632 13.2304C27.8787 13.5257 27.831 13.8209 27.7233 14.0963C27.6157 14.3716 27.4505 14.6209 27.2388 14.8274C27.0272 15.0338 26.7739 15.1928 26.496 15.2936C26.218 15.3944 25.9217 15.4348 25.6269 15.412C25.0709 15.426 24.5276 15.4257 23.9746 15.4257C23.4606 15.4257 22.9456 15.426 22.4316 15.412C22.1324 15.4304 21.8328 15.3844 21.5528 15.2773C21.2729 15.1702 21.0191 15.0045 20.8085 14.7911C20.598 14.5778 20.4355 14.3218 20.3321 14.0405C20.2287 13.7592 20.1867 13.4589 20.2089 13.16V4.89441C20.1822 4.59032 20.2221 4.28405 20.3258 3.99695C20.4296 3.70985 20.5946 3.44881 20.8096 3.23203C21.0245 3.01524 21.2841 2.84793 21.5703 2.74173C21.8565 2.63553 22.1624 2.593 22.4667 2.61711C23.0087 2.60311 23.5491 2.6035 24.0761 2.6035ZM8.29911 2.61521H10.7581L10.7562 6.79681L10.3655 6.82611L10.2132 6.83978C10.1029 6.85124 9.99202 6.85581 9.88117 6.85346H6.84017C5.89517 6.85346 4.96457 6.85313 4.03357 6.86713H4.0199C3.89401 6.87729 3.76737 6.86157 3.64778 6.82092C3.5282 6.78028 3.41821 6.71557 3.32459 6.6308C3.24186 6.53096 3.1799 6.41562 3.14234 6.29153C3.10478 6.16743 3.09237 6.03709 3.10584 5.90814C3.12084 5.49114 3.11951 5.06147 3.11951 4.64444C3.11951 4.22741 3.12113 3.81011 3.13513 3.40814C3.13513 3.10214 3.42419 2.62884 3.79919 2.62884C5.29919 2.61484 6.78711 2.61521 8.29911 2.61521ZM6.95341 11.9785C6.28641 11.9785 5.60671 11.9915 4.93971 12.0195C3.77728 12.0793 2.67974 12.5736 1.86468 13.4046C1.04963 14.2356 0.576577 15.3425 0.539313 16.5058C0.497313 19.4368 0.497313 22.4524 0.539313 25.4804C0.562597 26.5466 0.960274 27.5705 1.66268 28.3729C2.36508 29.1753 3.32742 29.705 4.38111 29.8691C5.16996 29.9522 5.96296 29.9893 6.75611 29.9805H8.46511C9.11438 30.0099 9.76267 29.904 10.3689 29.6696C10.9751 29.4352 11.5259 29.0774 11.9865 28.6189C12.4471 28.1603 12.8073 27.611 13.0444 27.0058C13.2814 26.4007 13.3901 25.7528 13.3635 25.1035C13.3785 24.1725 13.3791 23.2562 13.3791 22.3262L13.3635 21.4785L13.3537 21.0683C13.3537 20.5823 13.3674 20.0964 13.3674 19.6093C13.3824 18.5533 13.3957 17.4711 13.3537 16.4101C13.2898 15.2648 12.8053 14.1834 11.9933 13.3732C11.1813 12.563 10.0988 12.081 8.95335 12.0195C8.28668 11.9915 7.62011 11.9785 6.95341 11.9785ZM7.2288 14.5762C7.6598 14.5762 8.09077 14.5899 8.5218 14.5899C8.82117 14.568 9.12176 14.6102 9.40355 14.7136C9.68534 14.817 9.94187 14.9793 10.1561 15.1896C10.3702 15.3999 10.5371 15.6534 10.6457 15.9332C10.7542 16.2131 10.8019 16.5129 10.7855 16.8126L10.7835 25.1798C10.7978 25.4667 10.7531 25.7535 10.6523 26.0225C10.5515 26.2915 10.3967 26.537 10.1975 26.744C9.99821 26.9509 9.75871 27.1149 9.4937 27.2258C9.2287 27.3367 8.9438 27.3921 8.65655 27.3888C8.10055 27.4028 7.53415 27.4044 6.96515 27.4044C6.39615 27.4044 5.82615 27.4028 5.25615 27.3888C4.96609 27.3958 4.67774 27.3425 4.40939 27.2321C4.14104 27.1218 3.89854 26.9569 3.69728 26.748C3.49601 26.539 3.34037 26.2904 3.24023 26.0181C3.14009 25.7458 3.09763 25.4557 3.11555 25.1661C3.10055 24.1941 3.10055 23.2207 3.11555 22.2657V16.9512C3.07925 16.6309 3.11591 16.3066 3.22277 16.0025C3.32963 15.6984 3.50393 15.4224 3.7326 15.1953C3.96127 14.9681 4.23838 14.7957 4.54317 14.6908C4.84796 14.586 5.17253 14.5515 5.49255 14.5899H6.01989L7.2288 14.5762ZM20.7168 20.5508C20.3114 20.5358 19.9073 20.6039 19.5292 20.7509C19.1511 20.8979 18.807 21.1206 18.5182 21.4054C18.2294 21.6902 18.0018 22.0311 17.8495 22.4071C17.6973 22.7831 17.6235 23.1863 17.6328 23.5918C17.6048 24.6478 17.6048 25.7731 17.6328 26.9121C17.6229 27.3215 17.697 27.7286 17.8503 28.1083C18.0037 28.488 18.2332 28.8322 18.5247 29.1199C18.8162 29.4075 19.1635 29.6324 19.5452 29.7808C19.9269 29.9291 20.3349 29.9977 20.7441 29.9824H27.4121C27.8168 29.9902 28.2189 29.9159 28.5941 29.7642C28.9694 29.6125 29.31 29.3864 29.5956 29.0995C29.8812 28.8127 30.1057 28.471 30.2558 28.0951C30.4058 27.7192 30.4783 27.3168 30.4687 26.9121C30.4827 25.8121 30.4827 24.7308 30.4687 23.6328C30.4834 23.224 30.4137 22.8165 30.2639 22.4357C30.1141 22.055 29.8874 21.7093 29.598 21.4201C29.3086 21.1309 28.9627 20.9044 28.5819 20.7549C28.2011 20.6053 27.7936 20.5358 27.3847 20.5508H20.7168ZM26.9219 23.1348H26.9356C27.2025 23.1138 27.467 23.1987 27.6719 23.3711C27.8411 23.5825 27.921 23.8517 27.8946 24.1211C27.8666 24.7881 27.8669 25.4814 27.8809 26.1484L27.8848 26.1504V26.5508C27.904 26.7808 27.8341 27.0095 27.6895 27.1895C27.6133 27.2608 27.5236 27.3161 27.4256 27.352C27.3276 27.3879 27.2234 27.4037 27.1192 27.3984C25.7302 27.3844 24.3416 27.3828 22.9376 27.3828H20.8673C20.7826 27.3795 20.6986 27.3657 20.6173 27.3418L20.2989 27.2734L20.2286 26.9258V23.1914L20.629 23.1621H20.7813C20.9014 23.1506 21.0221 23.146 21.1427 23.1484H24.1993C25.0993 23.1484 26.0189 23.1488 26.9219 23.1348Z" fill="#23B643"/>
</g>
<defs>
<clipPath id="clip0_361_12107">
<rect width="30" height="29.965" fill="white" transform="translate(0.5 0.0175781)"/>
</clipPath>
</defs>
</svg>
