<svg width="31" height="30" viewBox="0 0 31 30" fill="none" xmlns="http://www.w3.org/2000/svg">
<g id="Bell" clip-path="url(#clip0_1203_15967)">
<path id="Vector" d="M15.5 30.0002C16.4946 30.0002 17.4484 29.6051 18.1516 28.9018C18.8549 28.1986 19.25 27.2447 19.25 26.2502H11.75C11.75 27.2447 12.1451 28.1986 12.8483 28.9018C13.5516 29.6051 14.5054 30.0002 15.5 30.0002ZM15.5 3.59643L14.0056 3.8983C12.3102 4.24302 10.7861 5.16328 9.69163 6.50315C8.59711 7.84302 7.99948 9.52009 8 11.2502C8 12.4277 7.74875 15.3695 7.13937 18.2664C6.83938 19.7045 6.43437 21.2027 5.89625 22.5002H25.1038C24.5656 21.2027 24.1625 19.7064 23.8606 18.2664C23.2512 15.3695 23 12.4277 23 11.2502C23.0001 9.52041 22.4023 7.84378 21.3078 6.5043C20.2133 5.16482 18.6895 4.24483 16.9944 3.90018L15.5 3.59643ZM27.1625 22.5002C27.5806 23.3383 28.0644 24.002 28.625 24.3752H2.375C2.93563 24.002 3.41937 23.3383 3.8375 22.5002C5.525 19.1252 6.125 12.9002 6.125 11.2502C6.125 6.71268 9.35 2.92518 13.6344 2.0608C13.6082 1.80009 13.637 1.53679 13.7188 1.28788C13.8007 1.03896 13.9338 0.809969 14.1095 0.615659C14.2853 0.42135 14.4999 0.26604 14.7394 0.159747C14.9789 0.0534529 15.238 -0.00146484 15.5 -0.00146484C15.762 -0.00146484 16.0211 0.0534529 16.2606 0.159747C16.5001 0.26604 16.7147 0.42135 16.8905 0.615659C17.0662 0.809969 17.1993 1.03896 17.2812 1.28788C17.363 1.53679 17.3918 1.80009 17.3656 2.0608C19.4852 2.49121 21.3908 3.64126 22.7594 5.31605C24.128 6.99083 24.8754 9.08731 24.875 11.2502C24.875 12.9002 25.475 19.1252 27.1625 22.5002Z" fill="#23B643"/>
</g>
<defs>
<clipPath id="clip0_1203_15967">
<rect width="30" height="30" fill="white" transform="translate(0.5)"/>
</clipPath>
</defs>
</svg>
