<svg width="31" height="30" viewBox="0 0 31 30" fill="none" xmlns="http://www.w3.org/2000/svg">
<g id="BagCheck">
<path id="Vector" fill-rule="evenodd" clip-rule="evenodd" d="M20.8505 15.274C20.9378 15.361 21.0071 15.4645 21.0543 15.5784C21.1016 15.6923 21.1259 15.8144 21.1259 15.9377C21.1259 16.061 21.1016 16.1831 21.0543 16.297C21.0071 16.4109 20.9378 16.5144 20.8505 16.6015L15.2255 22.2265C15.1384 22.3138 15.0349 22.383 14.921 22.4303C14.8071 22.4776 14.685 22.5019 14.5617 22.5019C14.4384 22.5019 14.3163 22.4776 14.2024 22.4303C14.0885 22.383 13.9851 22.3138 13.898 22.2265L11.0855 19.414C10.9983 19.3268 10.9292 19.2233 10.882 19.1094C10.8348 18.9955 10.8105 18.8735 10.8105 18.7502C10.8105 18.6269 10.8348 18.5049 10.882 18.391C10.9292 18.2771 10.9983 18.1736 11.0855 18.0865C11.2615 17.9104 11.5003 17.8115 11.7492 17.8115C11.8725 17.8115 11.9946 17.8358 12.1085 17.883C12.2223 17.9302 12.3258 17.9993 12.413 18.0865L14.5617 20.2371L19.523 15.274C19.6101 15.1867 19.7135 15.1174 19.8274 15.0701C19.9413 15.0229 20.0634 14.9985 20.1867 14.9985C20.31 14.9985 20.4321 15.0229 20.546 15.0701C20.6599 15.1174 20.7634 15.1867 20.8505 15.274Z" fill="#23B643"/>
<path id="Vector_2" d="M15.5 1.875C16.7432 1.875 17.9355 2.36886 18.8146 3.24794C19.6936 4.12701 20.1875 5.3193 20.1875 6.5625V7.5H10.8125V6.5625C10.8125 5.3193 11.3064 4.12701 12.1854 3.24794C13.0645 2.36886 14.2568 1.875 15.5 1.875ZM22.0625 7.5V6.5625C22.0625 4.82202 21.3711 3.15282 20.1404 1.92211C18.9097 0.691404 17.2405 0 15.5 0C13.7595 0 12.0903 0.691404 10.8596 1.92211C9.6289 3.15282 8.9375 4.82202 8.9375 6.5625V7.5H2.375V26.25C2.375 27.2446 2.77009 28.1984 3.47335 28.9016C4.17661 29.6049 5.13044 30 6.125 30H24.875C25.8696 30 26.8234 29.6049 27.5266 28.9016C28.2299 28.1984 28.625 27.2446 28.625 26.25V7.5H22.0625ZM4.25 9.375H26.75V26.25C26.75 26.7473 26.5525 27.2242 26.2008 27.5758C25.8492 27.9275 25.3723 28.125 24.875 28.125H6.125C5.62772 28.125 5.15081 27.9275 4.79917 27.5758C4.44754 27.2242 4.25 26.7473 4.25 26.25V9.375Z" fill="#23B643"/>
</g>
</svg>
