<svg width="31" height="30" viewBox="0 0 31 30" fill="none" xmlns="http://www.w3.org/2000/svg">
<g id="services-3.svg" clip-path="url(#clip0_361_12115)">
<path id="Vector" d="M5.38852 -7.83114e-05C4.74108 -0.0205662 4.09634 0.0923474 3.4944 0.331643C2.89245 0.570938 2.34617 0.931499 1.8895 1.39091C1.43284 1.85032 1.07556 2.39876 0.839881 3.00213C0.6042 3.60549 0.495155 4.25089 0.519525 4.8982L0.505859 10.4837L0.519525 12.805L0.505859 16.5143C0.505859 19.4357 0.510862 22.361 0.519525 25.2898C0.509466 26.4868 0.964052 27.6412 1.78766 28.5099C2.61127 29.3787 3.73971 29.8942 4.93561 29.9479C6.04313 29.9879 7.23392 30.0007 8.67029 30.0007C9.68286 30.0007 10.7024 29.987 11.712 29.987C12.4327 29.974 13.1392 29.9733 13.8459 29.9733C14.1086 29.9665 14.3627 29.878 14.573 29.7203C14.7832 29.5625 14.9391 29.3432 15.0191 29.0928C15.092 28.9023 15.1166 28.6967 15.0907 28.4944C15.0648 28.292 14.9892 28.0992 14.8708 27.9331C14.7379 27.7512 14.5631 27.604 14.3612 27.5041C14.1593 27.4041 13.9363 27.3544 13.7111 27.3592H5.46854C5.1539 27.3918 4.83596 27.3538 4.53786 27.2479C4.23976 27.1421 3.96902 26.9712 3.74534 26.7475C3.52167 26.5238 3.3507 26.2531 3.24488 25.955C3.13906 25.6569 3.10107 25.3389 3.13365 25.0243V21.7972C3.13365 19.1316 3.12865 16.463 3.11999 13.7929C3.1094 13.6679 3.12418 13.5421 3.16343 13.423C3.20268 13.3039 3.2656 13.194 3.34841 13.0998C3.44274 13.0173 3.55274 12.9548 3.67184 12.9159C3.79093 12.8769 3.91665 12.8625 4.04147 12.8733C9.044 12.8867 14.0368 12.8897 19.021 12.885H27.732L27.812 13.1916L27.8511 13.3516C27.8781 13.4446 27.8924 13.5398 27.9194 13.6328C27.9637 13.8052 28.045 13.9659 28.1576 14.1038C28.2702 14.2417 28.4114 14.3534 28.5715 14.4313C28.7728 14.5423 29.0002 14.5975 29.23 14.5909C29.4599 14.5844 29.6838 14.5164 29.8784 14.394C30.0731 14.2717 30.2315 14.0995 30.3371 13.8952C30.4426 13.691 30.4916 13.4622 30.4788 13.2326C30.4918 10.9256 30.4925 8.61778 30.4925 6.30978V4.89829C30.513 4.25082 30.4008 3.606 30.1629 3.00347C29.925 2.40095 29.5663 1.85346 29.109 1.39467C28.6517 0.935882 28.1053 0.575486 27.5036 0.335644C26.9018 0.0958018 26.2574 -0.0184169 25.6098 1.06499e-05L5.38852 -7.83114e-05ZM25.7547 2.60039C26.0607 2.60353 26.3625 2.67185 26.64 2.8008C26.9174 2.92975 27.1643 3.11637 27.364 3.34821C27.5637 3.58006 27.7116 3.85181 27.7981 4.14535C27.8845 4.43889 27.9073 4.74747 27.8651 5.05053V10.2182H3.14679V9.81798L3.13312 8.28344C3.13312 7.05597 3.13346 5.78452 3.16045 4.53507C3.18549 4.04697 3.38768 3.58476 3.72911 3.23506C4.07055 2.88537 4.52779 2.67219 5.01515 2.63549C5.13455 2.62431 5.25447 2.61975 5.37437 2.62182H25.4247C25.5339 2.60622 25.6443 2.59909 25.7547 2.60039ZM6.94884 5.1345C6.77733 5.13292 6.6073 5.16639 6.44918 5.23286C6.29106 5.29933 6.14819 5.3974 6.02932 5.52105C5.90645 5.64092 5.80892 5.78426 5.74252 5.94256C5.67612 6.10085 5.64219 6.27087 5.64277 6.44253C5.63946 6.61685 5.67106 6.79008 5.7357 6.95201C5.80034 7.11393 5.89671 7.2613 6.01915 7.38543C6.14159 7.50956 6.28762 7.60795 6.44865 7.6748C6.60967 7.74165 6.78245 7.77562 6.9568 7.77471C7.13115 7.7738 7.30356 7.73803 7.46388 7.66949C7.6242 7.60096 7.76919 7.50105 7.89033 7.37565C8.01146 7.25025 8.10629 7.10188 8.16923 6.93928C8.23217 6.77669 8.26196 6.60314 8.25683 6.42886C8.25364 6.0842 8.11437 5.75476 7.86937 5.51232C7.62436 5.26988 7.29352 5.13406 6.94884 5.1345ZM12.0853 5.13645C11.7389 5.13682 11.4067 5.27447 11.1615 5.51926C10.9163 5.76406 10.7782 6.09603 10.7773 6.44248C10.7778 6.78666 10.9123 7.11712 11.1521 7.36396C11.335 7.54787 11.5684 7.6734 11.8227 7.72468C12.0769 7.77596 12.3407 7.75068 12.5806 7.65204C12.8205 7.55341 13.0258 7.38584 13.1704 7.17054C13.3151 6.95524 13.3927 6.70187 13.3933 6.44248C13.3949 6.27097 13.3615 6.10094 13.295 5.94282C13.2285 5.78471 13.1304 5.64183 13.0068 5.52296C12.8869 5.40009 12.7436 5.30257 12.5853 5.23616C12.427 5.16976 12.257 5.13588 12.0853 5.13645ZM17.2061 5.13645C16.8618 5.13654 16.5314 5.27257 16.2868 5.51495C16.0422 5.75733 15.9032 6.08647 15.9001 6.43079C15.8984 6.60434 15.9317 6.77645 15.9982 6.93681C16.0646 7.09716 16.1627 7.24245 16.2866 7.36397C16.5304 7.60863 16.8607 7.7475 17.2061 7.75053C17.3785 7.75262 17.5495 7.72021 17.7092 7.65522C17.8688 7.59023 18.0138 7.49396 18.1357 7.37207C18.2576 7.25019 18.3539 7.10516 18.4189 6.94552C18.4839 6.78588 18.5163 6.61485 18.5142 6.44249C18.515 6.27057 18.4818 6.10018 18.4163 5.9412C18.3509 5.78222 18.2545 5.6378 18.1329 5.51632C18.0112 5.39485 17.8667 5.29872 17.7076 5.23351C17.5485 5.16831 17.378 5.13531 17.2061 5.13645ZM22.2644 15.394C20.5861 15.4142 18.982 16.0888 17.7936 17.2741C16.8918 18.1723 16.2771 19.3183 16.0277 20.5665C15.7783 21.8146 15.9053 23.1088 16.3927 24.2846C16.8801 25.4605 17.7059 26.465 18.7652 27.1707C19.8245 27.8765 21.0696 28.2515 22.3425 28.2483C23.509 28.2443 24.6542 27.9361 25.6652 27.3542L25.9717 27.1824L26.1845 27.4498L26.2646 27.5689C26.3187 27.6386 26.3767 27.7051 26.4383 27.7681L26.8112 28.1429C27.291 28.6367 27.7719 29.1306 28.2657 29.5974C28.493 29.8346 28.8041 29.9734 29.1325 29.9839C29.2825 29.9832 29.4312 29.9561 29.5718 29.9039C29.802 29.8402 30.0085 29.7102 30.1654 29.53C30.3223 29.3498 30.4228 29.1275 30.4542 28.8906C30.5002 28.6613 30.4836 28.4239 30.4059 28.2033C30.3282 27.9827 30.1925 27.7871 30.013 27.6373V27.6392L28.5585 26.2003L27.9592 25.6127L27.7307 25.398L27.8908 25.1325C28.7064 23.7244 28.9657 22.0621 28.6178 20.4726C28.2699 18.883 27.3399 17.481 26.0107 16.5424C24.9115 15.7799 23.6021 15.3782 22.2644 15.394ZM23.8223 18.297C24.6356 18.6399 25.3051 19.2538 25.717 20.0344C26.1289 20.815 26.2578 21.7141 26.0819 22.579C25.9059 23.4439 25.4359 24.2211 24.7517 24.7787C24.0676 25.3363 23.2115 25.6398 22.3289 25.6377H22.2898C21.7887 25.637 21.2929 25.535 20.8323 25.3377C20.3716 25.1405 19.9556 24.852 19.6094 24.4898C18.9926 23.8592 18.613 23.0346 18.535 22.1559C18.4571 21.2773 18.6856 20.3988 19.1818 19.6694C19.6779 18.9401 20.4112 18.405 21.2571 18.1548C22.103 17.9047 23.0093 17.9549 23.8223 18.297Z" fill="#23B643"/>
</g>
<defs>
<clipPath id="clip0_361_12115">
<rect width="29.987" height="30" fill="white" transform="translate(0.505859)"/>
</clipPath>
</defs>
</svg>
