<svg width="31" height="30" viewBox="0 0 31 30" fill="none" xmlns="http://www.w3.org/2000/svg">
<g id="CreditCard2Back" clip-path="url(#clip0_1202_15957)">
<path id="Vector" d="M21.125 10.3125C21.125 10.0639 21.2238 9.8254 21.3996 9.64959C21.5754 9.47377 21.8139 9.375 22.0625 9.375H25.8125C26.0611 9.375 26.2996 9.47377 26.4754 9.64959C26.6512 9.8254 26.75 10.0639 26.75 10.3125V12.1875C26.75 12.4361 26.6512 12.6746 26.4754 12.8504C26.2996 13.0262 26.0611 13.125 25.8125 13.125H22.0625C21.8139 13.125 21.5754 13.0262 21.3996 12.8504C21.2238 12.6746 21.125 12.4361 21.125 12.1875V10.3125Z" fill="#23B643"/>
<path id="Vector_2" d="M4.25 3.75C3.25544 3.75 2.30161 4.14509 1.59835 4.84835C0.895088 5.55161 0.5 6.50544 0.5 7.5L0.5 22.5C0.5 23.4946 0.895088 24.4484 1.59835 25.1516C2.30161 25.8549 3.25544 26.25 4.25 26.25H26.75C27.7446 26.25 28.6984 25.8549 29.4016 25.1516C30.1049 24.4484 30.5 23.4946 30.5 22.5V7.5C30.5 6.50544 30.1049 5.55161 29.4016 4.84835C28.6984 4.14509 27.7446 3.75 26.75 3.75H4.25ZM28.625 7.5V16.875H2.375V7.5C2.375 7.00272 2.57254 6.52581 2.92417 6.17417C3.27581 5.82254 3.75272 5.625 4.25 5.625H26.75C27.2473 5.625 27.7242 5.82254 28.0758 6.17417C28.4275 6.52581 28.625 7.00272 28.625 7.5ZM26.75 24.375H4.25C3.75272 24.375 3.27581 24.1775 2.92417 23.8258C2.57254 23.4742 2.375 22.9973 2.375 22.5V20.625H28.625V22.5C28.625 22.9973 28.4275 23.4742 28.0758 23.8258C27.7242 24.1775 27.2473 24.375 26.75 24.375Z" fill="#23B643"/>
</g>
<defs>
<clipPath id="clip0_1202_15957">
<rect width="30" height="30" fill="white" transform="translate(0.5)"/>
</clipPath>
</defs>
</svg>
