<svg width="29" height="30" viewBox="0 0 29 30" fill="none" xmlns="http://www.w3.org/2000/svg">
<g id="services-4.svg" clip-path="url(#clip0_361_12123)">
<path id="Vector" d="M23.0731 -4.65623e-05C22.9906 -0.00206295 22.9081 0.00282657 22.8264 0.0145708C22.6405 0.04689 22.463 0.116705 22.3049 0.219766C22.1468 0.322828 22.0114 0.45698 21.9068 0.614061C21.8022 0.771141 21.7306 0.947863 21.6965 1.13347C21.6623 1.31908 21.6663 1.5097 21.7082 1.69372L21.8726 2.6457L21.9658 3.15L22.0754 3.80412L21.4761 3.50447L21.2989 3.42407L21.0687 3.30165C19.0856 2.26432 16.8823 1.71851 14.6443 1.71016C13.3986 1.71451 12.1586 1.87971 10.9552 2.20167C7.68797 3.06853 4.83956 5.0776 2.92657 7.86451C1.01358 10.6514 0.162691 14.0316 0.528226 17.3921C0.893761 20.7526 2.45151 23.8708 4.91896 26.1812C7.38641 28.4917 10.6002 29.8413 13.9774 29.9854C14.1711 29.9854 14.3615 30.0001 14.5383 30.0001C16.4641 30.0226 18.3733 29.6419 20.143 28.8822C21.9127 28.1226 23.5039 27.0009 24.814 25.5893C26.7775 23.5549 28.0658 20.9644 28.5031 18.171H28.5049C28.5596 17.9818 28.5728 17.783 28.5439 17.5882C28.515 17.3934 28.4445 17.2071 28.3372 17.042C28.2299 16.8768 28.0884 16.7367 27.9222 16.631C27.756 16.5254 27.569 16.4567 27.3739 16.4297C27.2928 16.4181 27.2109 16.4132 27.1291 16.4151C26.7915 16.4297 26.4713 16.5682 26.2295 16.8042C25.9878 17.0402 25.8416 17.3571 25.819 17.6941C25.3925 20.375 24.0195 22.8143 21.949 24.5699C19.8785 26.3255 17.2475 27.2811 14.5329 27.2635C14.0016 27.2658 13.4707 27.2347 12.9433 27.1703C10.0953 26.7533 7.50973 25.2762 5.70422 23.0344C3.89872 20.7927 3.00644 17.9517 3.20599 15.0802C3.40554 12.2087 4.68219 9.51854 6.78042 7.54807C8.87865 5.5776 11.6436 4.47225 14.522 4.45325C15.549 4.45104 16.5713 4.59312 17.5588 4.87533C18.1576 5.04946 18.7442 5.26309 19.3147 5.51483L20.0894 5.84007L20.3891 5.94971L20.2959 6.24936L20.2539 6.38457L20.2009 6.58921L19.9963 6.62941L19.3293 6.73721C18.8401 6.82234 18.3505 6.90094 17.8603 7.00946C17.6874 7.04029 17.5223 7.10499 17.3745 7.19985C17.2268 7.29471 17.0992 7.41786 16.9992 7.5622C16.8992 7.70654 16.8287 7.86924 16.7917 8.04093C16.7548 8.21261 16.7522 8.3899 16.7841 8.5626C16.8361 8.88123 17.0009 9.17056 17.2484 9.37783C17.4959 9.5851 17.8097 9.69652 18.1325 9.69176C18.2186 9.69424 18.3048 9.68996 18.3902 9.67897L24.2024 8.68499C24.3952 8.66387 24.5813 8.60204 24.7485 8.5036C24.9156 8.40515 25.0599 8.27233 25.1718 8.11393C25.2837 7.95553 25.3608 7.77516 25.3977 7.58476C25.4347 7.39436 25.4309 7.19828 25.3864 7.00949C25.0599 5.07672 24.7329 3.13001 24.3924 1.19725C24.3523 0.872838 24.197 0.573614 23.9549 0.353984C23.7128 0.134353 23.3998 0.00841153 23.0731 -4.65623e-05ZM18.1835 12.7023C17.8197 12.7138 17.4751 12.8681 17.2242 13.1317L13.453 16.8939L12.1429 15.5619L11.7629 15.2111C11.6163 15.0551 11.4337 14.9373 11.2312 14.8682C11.0286 14.7991 10.8121 14.7807 10.6008 14.8146C10.3854 14.8388 10.1801 14.919 10.0054 15.0472C9.83067 15.1755 9.69259 15.3472 9.60491 15.5455C9.48865 15.8006 9.45312 16.0852 9.50308 16.3612C9.55304 16.6371 9.68611 16.8912 9.88447 17.0894L12.448 19.6529C12.5819 19.7935 12.7429 19.9055 12.9212 19.9821C13.0996 20.0587 13.2917 20.0984 13.4858 20.0987C13.8463 20.0847 14.1872 19.9307 14.4359 19.6694L19.1975 14.9078L19.3144 14.7598H19.3126C19.4369 14.5516 19.507 14.3156 19.5166 14.0734C19.5261 13.8311 19.4749 13.5903 19.3674 13.373C19.2476 13.1659 19.0748 12.9946 18.8666 12.8767C18.6585 12.7588 18.4227 12.6986 18.1835 12.7023Z" fill="#23B643"/>
</g>
<defs>
<clipPath id="clip0_361_12123">
<rect width="28.0654" height="30" fill="white" transform="translate(0.466797)"/>
</clipPath>
</defs>
</svg>
