<svg width="31" height="30" viewBox="0 0 31 30" fill="none" xmlns="http://www.w3.org/2000/svg">
<g id="services-7.svg" clip-path="url(#clip0_361_12156)">
<g id="Clip path group">
<mask id="mask0_361_12156" style="mask-type:luminance" maskUnits="userSpaceOnUse" x="0" y="0" width="31" height="30">
<g id="a">
<path id="&#208;&#159;&#209;&#128;&#209;&#143;&#208;&#188;&#208;&#190;&#209;&#131;&#208;&#179;&#208;&#190;&#208;&#187;&#209;&#140;&#208;&#189;&#208;&#184;&#208;&#186; 226" d="M30.5 0.00341797H0.5V29.9964H30.5V0.00341797Z" fill="white"/>
</g>
</mask>
<g mask="url(#mask0_361_12156)">
<g id="&#208;&#161;&#208;&#179;&#209;&#128;&#209;&#131;&#208;&#191;&#208;&#191;&#208;&#184;&#209;&#128;&#208;&#190;&#208;&#178;&#208;&#176;&#209;&#130;&#209;&#140; 303">
<path id="&#208;&#154;&#208;&#190;&#208;&#189;&#209;&#130;&#209;&#131;&#209;&#128; 483" d="M25.601 0.00310057H5.43195C4.7778 -0.0272361 4.1245 0.0792598 3.51385 0.31578C2.90319 0.552299 2.3486 0.913639 1.88555 1.3767C1.42249 1.83975 1.06115 2.39434 0.824632 3.00499C0.588112 3.61565 0.481616 4.26894 0.511953 4.9231C0.49862 11.6364 0.49862 18.3541 0.511953 25.0761C0.480531 25.7305 0.586282 26.3843 0.822418 26.9954C1.05855 27.6066 1.41986 28.1616 1.88314 28.6249C2.34643 29.0882 2.90146 29.4495 3.51261 29.6856C4.12375 29.9218 4.77752 30.0275 5.43195 29.9961H25.585C26.2362 30.0269 26.8868 29.9216 27.4951 29.6868C28.1033 29.4519 28.6559 29.0928 29.1175 28.6323C29.5791 28.1718 29.9396 27.6201 30.1759 27.0124C30.4122 26.4048 30.5192 25.7545 30.49 25.1031C30.5046 18.3758 30.5046 11.6441 30.49 4.9081C30.5208 4.25716 30.4155 3.60696 30.1809 2.99898C29.9463 2.391 29.5876 1.83861 29.1275 1.37707C28.6675 0.915517 28.1163 0.554951 27.5091 0.31838C26.9018 0.08181 26.252 -0.0255678 25.601 0.00310057ZM27.901 25.0211C27.9386 25.3442 27.9026 25.6716 27.7958 25.9788C27.6889 26.286 27.514 26.5651 27.284 26.7951C27.054 27.0251 26.7749 27.2001 26.4677 27.3069C26.1605 27.4138 25.833 27.4497 25.51 27.4121H5.48695C5.16426 27.4489 4.83741 27.4124 4.53083 27.3051C4.22424 27.1979 3.94584 27.0228 3.71642 26.7929C3.487 26.563 3.31248 26.2843 3.20591 25.9775C3.09934 25.6706 3.06346 25.3437 3.10095 25.0211V4.9941C3.06346 4.67148 3.09934 4.34456 3.20591 4.03775C3.31248 3.73094 3.487 3.45218 3.71642 3.22228C3.94584 2.99237 4.22424 2.81728 4.53083 2.71006C4.83741 2.60284 5.16426 2.56628 5.48695 2.6031H25.514C25.8367 2.56612 26.1637 2.60256 26.4704 2.7097C26.7771 2.81684 27.0556 2.99192 27.2852 3.22184C27.5147 3.45176 27.6893 3.73059 27.796 4.03748C27.9026 4.34437 27.9385 4.67139 27.901 4.9941V25.0211Z" fill="#23B643"/>
<path id="&#208;&#154;&#208;&#190;&#208;&#189;&#209;&#130;&#209;&#131;&#209;&#128; 484" d="M22.4285 11.5403C22.435 11.7115 22.4073 11.8823 22.3469 12.0427C22.2865 12.203 22.1947 12.3496 22.0769 12.474C21.959 12.5984 21.8175 12.6979 21.6607 12.7669C21.5038 12.8358 21.3348 12.8726 21.1635 12.8753C20.5925 12.8753 18.0095 12.8893 17.4405 12.8893C16.8715 12.8893 16.2715 12.8753 15.6895 12.8753C15.3426 12.8686 15.0125 12.7248 14.7715 12.4753C14.6535 12.3517 14.5619 12.2052 14.5024 12.045C14.4429 11.8847 14.4167 11.714 14.4255 11.5433C14.4341 11.2047 14.5762 10.8832 14.8209 10.6489C15.0655 10.4146 15.3928 10.2864 15.7315 10.2923C15.9395 10.2923 16.1615 10.2783 16.3695 10.2783L16.8845 10.2923H17.9545L20.4965 10.2783C20.7045 10.2783 20.9135 10.2783 21.1345 10.2923C21.4708 10.2888 21.795 10.4177 22.0372 10.6512C22.2793 10.8847 22.4198 11.2041 22.4285 11.5403Z" fill="#23B643"/>
<path id="&#208;&#154;&#208;&#190;&#208;&#189;&#209;&#130;&#209;&#131;&#209;&#128; 485" d="M22.4281 18.447C22.4253 18.6212 22.3876 18.793 22.3171 18.9524C22.2466 19.1117 22.1448 19.2552 22.0178 19.3744C21.8907 19.4937 21.741 19.5861 21.5775 19.6463C21.414 19.7065 21.2401 19.7333 21.0661 19.725H15.7581C15.5864 19.7295 15.4154 19.6999 15.2552 19.638C15.095 19.576 14.9486 19.483 14.8246 19.3641C14.7005 19.2453 14.6013 19.1031 14.5325 18.9456C14.4638 18.7882 14.4269 18.6187 14.4241 18.447C14.4206 18.2733 14.4525 18.1008 14.5178 17.9398C14.5831 17.7789 14.6804 17.6329 14.8039 17.5107C14.9273 17.3886 15.0743 17.2928 15.236 17.2292C15.3976 17.1657 15.5705 17.1356 15.7441 17.141C16.3001 17.127 16.8561 17.127 17.4121 17.127C17.9681 17.127 20.5371 17.127 21.1121 17.141C21.2859 17.1346 21.4593 17.164 21.6214 17.2272C21.7834 17.2904 21.9309 17.3861 22.0545 17.5085C22.1782 17.6308 22.2755 17.7772 22.3405 17.9386C22.4054 18.1 22.4366 18.273 22.4321 18.447" fill="#23B643"/>
<path id="&#208;&#154;&#208;&#190;&#208;&#189;&#209;&#130;&#209;&#131;&#209;&#128; 486" d="M11.1592 11.6091C11.1501 11.952 11.0058 12.2773 10.7578 12.5143C10.5098 12.7512 10.1782 12.8805 9.83524 12.8741C9.49758 12.8683 9.17581 12.7296 8.93975 12.4881C8.70368 12.2466 8.57235 11.9218 8.57424 11.5841V11.5541C8.57898 11.2157 8.71721 10.8929 8.95881 10.656C9.20042 10.4191 9.52585 10.2872 9.86424 10.2891H9.89224C10.0621 10.2925 10.2296 10.3293 10.3852 10.3975C10.5408 10.4657 10.6814 10.5639 10.799 10.6865C10.9166 10.8091 11.0089 10.9537 11.0705 11.112C11.1321 11.2703 11.163 11.4392 11.1592 11.6091Z" fill="#23B643"/>
<path id="&#208;&#154;&#208;&#190;&#208;&#189;&#209;&#130;&#209;&#131;&#209;&#128; 487" d="M11.1597 18.4462C11.1511 18.7905 11.0074 19.1176 10.7597 19.3569C10.512 19.5962 10.1801 19.7285 9.83571 19.7252C9.49292 19.7216 9.16559 19.582 8.92573 19.3371C8.68587 19.0922 8.55313 18.762 8.55671 18.4192C8.56029 18.0764 8.6999 17.7491 8.94482 17.5092C9.18974 17.2694 9.51992 17.1366 9.86271 17.1402H9.87871C10.0488 17.1407 10.217 17.175 10.3737 17.2412C10.5303 17.3074 10.6723 17.404 10.7912 17.5256C10.9102 17.6471 11.0037 17.7911 11.0665 17.9492C11.1292 18.1072 11.1599 18.2762 11.1567 18.4462" fill="#23B643"/>
</g>
</g>
</g>
</g>
<defs>
<clipPath id="clip0_361_12156">
<rect width="30" height="29.993" fill="white" transform="translate(0.5 0.00341797)"/>
</clipPath>
</defs>
</svg>
