<svg width="31" height="30" viewBox="0 0 31 30" fill="none" xmlns="http://www.w3.org/2000/svg">
<g id="services-6.svg" clip-path="url(#clip0_361_12143)">
<g id="Clip path group">
<mask id="mask0_361_12143" style="mask-type:luminance" maskUnits="userSpaceOnUse" x="0" y="0" width="31" height="30">
<g id="a">
<path id="&#208;&#159;&#209;&#128;&#209;&#143;&#208;&#188;&#208;&#190;&#209;&#131;&#208;&#179;&#208;&#190;&#208;&#187;&#209;&#140;&#208;&#189;&#208;&#184;&#208;&#186; 225" d="M30.4816 0H0.519531V30H30.4816V0Z" fill="white"/>
</g>
</mask>
<g mask="url(#mask0_361_12143)">
<g id="&#208;&#161;&#208;&#179;&#209;&#128;&#209;&#131;&#208;&#191;&#208;&#191;&#208;&#184;&#209;&#128;&#208;&#190;&#208;&#178;&#208;&#176;&#209;&#130;&#209;&#140; 301">
<path id="&#208;&#154;&#208;&#190;&#208;&#189;&#209;&#130;&#209;&#131;&#209;&#128; 481" d="M29.768 18.2189C29.5852 16.4212 29.4174 14.6145 29.2207 12.8327L29.1647 12.3134C29.1311 11.4793 28.9849 10.6535 28.7303 9.85851C28.4349 8.9942 27.877 8.24368 27.1345 7.71173C26.392 7.17978 25.5019 6.89295 24.5885 6.89127C24.3182 6.86796 24.0469 6.85863 23.7756 6.86331C23.5508 6.86331 23.3131 6.86331 23.0884 6.87729H21.9848L21.9569 6.48479C21.9349 4.7726 21.2453 3.13666 20.035 1.9254C18.8247 0.714135 17.1892 0.023287 15.4771 0L15.4631 0C13.7601 0.037655 12.1373 0.730961 10.9328 1.93547C9.72824 3.13998 9.03494 4.76279 8.99728 6.46581L8.9833 6.85831H7.74887C7.54912 6.8723 7.37034 6.8723 7.17359 6.8723H7.01979C6.58229 6.85577 6.14424 6.88388 5.71244 6.95619C3.41535 7.4186 2.06606 9.04554 1.82737 11.6403C1.62762 13.7436 1.42088 15.8479 1.21015 17.9373C1.05634 19.5353 0.887556 21.1332 0.733751 22.7202C0.719769 22.9869 0.677822 23.2396 0.649857 23.4912C0.527111 24.2561 0.493595 25.0327 0.549984 25.8053C0.65799 26.9892 1.21832 28.086 2.11439 28.8673C3.01047 29.6486 4.17328 30.0543 5.36089 30H21.4375C22.8677 30 24.3129 30 25.7431 29.986C26.4126 29.9811 27.0735 29.8349 27.6825 29.5569C28.2916 29.279 28.8352 28.8755 29.2776 28.3731C29.7118 27.8973 30.0411 27.3355 30.2442 26.7241C30.4472 26.1128 30.5194 25.4656 30.4561 24.8246C30.2034 22.6273 29.9937 20.4211 29.769 18.2189M11.6479 6.40988C11.6356 5.78075 11.7867 5.15918 12.0866 4.60597C12.3865 4.05277 12.8248 3.58688 13.3588 3.25388C13.9687 2.82312 14.6954 2.58837 15.4421 2.58088C16.1887 2.57338 16.92 2.7935 17.5385 3.21193C18.0841 3.54361 18.5348 4.01068 18.8468 4.56784C19.1588 5.125 19.3216 5.75334 19.3192 6.3919L19.3332 6.82635H11.6429L11.6479 6.40988ZM27.342 26.7182C27.1317 26.941 26.8771 27.1173 26.5944 27.2357C26.3118 27.354 26.0075 27.4118 25.7011 27.4053C25.1958 27.4053 24.6914 27.4193 24.1721 27.4193L23.0904 27.4053H5.44878C5.09327 27.4444 4.73367 27.3914 4.40452 27.2515C4.07536 27.1116 3.7877 26.8894 3.56916 26.6063C3.27587 26.1666 3.12426 25.6476 3.13471 25.1192C3.33446 22.8471 3.55518 20.547 3.77989 18.3168L3.91972 16.8866C4.10248 15.0769 4.28425 13.2822 4.481 11.4725C4.48901 11.1928 4.55329 10.9175 4.67 10.6632C4.78671 10.4089 4.95346 10.1806 5.1603 9.99217C5.36714 9.80369 5.60982 9.65881 5.87388 9.56618C6.13793 9.47355 6.41794 9.43507 6.6972 9.45303H24.257C24.5357 9.43523 24.8152 9.47328 25.079 9.56495C25.3428 9.65663 25.5857 9.80008 25.7934 9.98689C26.001 10.1737 26.1692 10.4001 26.2882 10.6528C26.4072 10.9055 26.4745 11.1794 26.4861 11.4585L27.3281 19.8738L27.6087 22.6513L27.6786 23.2506C27.7345 23.8398 27.7905 24.4151 27.8474 24.9893C27.8826 25.296 27.8561 25.6067 27.7693 25.9029C27.6825 26.1991 27.5372 26.475 27.342 26.7142" fill="#23B643"/>
<path id="&#208;&#154;&#208;&#190;&#208;&#189;&#209;&#130;&#209;&#131;&#209;&#128; 482" d="M21.9148 14.1381L21.9008 14.5306C21.995 15.662 21.7814 16.7977 21.2826 17.8175C20.7838 18.8373 20.0183 19.7032 19.0674 20.3233C18.0246 21.0497 16.7896 21.4502 15.5189 21.4738C14.4763 21.4556 13.4528 21.1914 12.5317 20.7028C11.5031 20.2023 10.6341 19.4255 10.0219 18.4593C9.40968 17.493 9.07838 16.3755 9.06507 15.2317C9.02313 14.5446 9.03711 13.8435 9.05109 13.3241C9.04653 13.1519 9.07668 12.9805 9.13975 12.8201C9.20281 12.6597 9.29751 12.5137 9.41819 12.3907C9.53887 12.2677 9.68306 12.1702 9.8422 12.1041C10.0013 12.038 10.1721 12.0045 10.3445 12.0058H10.3634C10.5333 12.0055 10.7015 12.0392 10.858 12.1051C11.0146 12.1709 11.1564 12.2675 11.2749 12.3892C11.3935 12.5108 11.4864 12.655 11.5482 12.8132C11.6101 12.9714 11.6395 13.1404 11.6348 13.3102C11.6488 13.6188 11.6348 13.9274 11.6348 14.236V15.049C11.633 16.0688 12.0363 17.0475 12.7561 17.7699C13.4759 18.4923 14.4532 18.8992 15.473 18.9011C16.4927 18.9029 17.4715 18.4996 18.1939 17.7798C18.9163 17.06 19.3232 16.0827 19.3251 15.0629C19.3391 14.7683 19.3251 14.4737 19.3251 14.1791C19.3251 13.9124 19.3251 13.6457 19.3391 13.3661C19.3284 13.1916 19.3535 13.0168 19.4127 12.8523C19.4719 12.6879 19.5641 12.5372 19.6835 12.4096C19.8029 12.2819 19.9471 12.18 20.1073 12.11C20.2675 12.04 20.4402 12.0034 20.615 12.0025C20.7898 12.0015 20.963 12.0362 21.1239 12.1045C21.2849 12.1727 21.4302 12.2731 21.551 12.3994C21.6718 12.5257 21.7656 12.6754 21.8266 12.8392C21.8876 13.003 21.9146 13.1775 21.9058 13.3521C21.9198 13.6188 21.9198 13.8715 21.9198 14.1371" fill="#23B643"/>
</g>
</g>
</g>
</g>
<defs>
<clipPath id="clip0_361_12143">
<rect width="29.962" height="30" fill="white" transform="translate(0.519531)"/>
</clipPath>
</defs>
</svg>
