<svg width="31" height="30" viewBox="0 0 31 30" fill="none" xmlns="http://www.w3.org/2000/svg">
<g id="services-10.svg" clip-path="url(#clip0_361_12199)">
<g id="Clip path group">
<mask id="mask0_361_12199" style="mask-type:luminance" maskUnits="userSpaceOnUse" x="0" y="0" width="31" height="30">
<g id="a">
<path id="&#208;&#159;&#209;&#128;&#209;&#143;&#208;&#188;&#208;&#190;&#209;&#131;&#208;&#179;&#208;&#190;&#208;&#187;&#209;&#140;&#208;&#189;&#208;&#184;&#208;&#186; 232" d="M30.5 0.00537109H0.5V29.9944H30.5V0.00537109Z" fill="white"/>
</g>
</mask>
<g mask="url(#mask0_361_12199)">
<g id="&#208;&#161;&#208;&#179;&#209;&#128;&#209;&#131;&#208;&#191;&#208;&#191;&#208;&#184;&#209;&#128;&#208;&#190;&#208;&#178;&#208;&#176;&#209;&#130;&#209;&#140; 316">
<path id="&#208;&#154;&#208;&#190;&#208;&#189;&#209;&#130;&#209;&#131;&#209;&#128; 503" d="M8.03016 20.6852C8.17516 20.5442 8.32217 20.4002 8.48316 20.2422C8.42616 20.1522 8.38316 20.0722 8.33016 19.9982C7.29586 18.5376 6.74038 16.7919 6.74038 15.0022C6.74038 13.2124 7.29586 11.4668 8.33016 10.0062C8.45516 9.8272 8.47516 9.7232 8.30316 9.5652C7.94516 9.2332 7.60316 8.88319 7.26516 8.52719C7.22203 8.47125 7.15954 8.43346 7.08997 8.42125C7.02039 8.40904 6.94877 8.42329 6.88916 8.46119C6.20658 8.74546 5.45437 8.81823 4.72996 8.67006C4.00555 8.5219 3.34232 8.15964 2.82616 7.6302C2.35049 7.15056 2.01336 6.55122 1.85047 5.89564C1.68758 5.24006 1.705 4.55263 1.90088 3.90614C2.09676 3.25965 2.46381 2.67816 2.96316 2.22323C3.46252 1.7683 4.0756 1.45686 4.73749 1.3219C5.39939 1.18693 6.08546 1.23346 6.72307 1.45655C7.36068 1.67964 7.92611 2.071 8.35947 2.58918C8.79284 3.10736 9.07802 3.73309 9.18482 4.4001C9.29162 5.06712 9.21607 5.75061 8.96616 6.3782C8.9262 6.44221 8.91183 6.51893 8.92592 6.59306C8.94 6.6672 8.98151 6.7333 9.04216 6.77819C9.44216 7.1702 9.83216 7.5782 10.2262 7.9782C11.7427 6.84644 13.5834 6.23302 15.4757 6.22869C17.368 6.22437 19.2114 6.82938 20.7332 7.9542C20.7519 7.94959 20.7695 7.94144 20.7852 7.9302C21.2052 7.5702 21.2052 7.5702 20.9722 7.0792C20.4741 6.01137 20.3692 4.80197 20.6759 3.66433C20.9826 2.5267 21.6812 1.53392 22.6485 0.861123C23.6158 0.188326 24.7896 -0.121263 25.9629 -0.0130329C27.1361 0.095197 28.2335 0.614292 29.0614 1.45268C29.8892 2.29108 30.3944 3.3949 30.4878 4.56945C30.5812 5.74399 30.2569 6.91379 29.5719 7.87249C28.887 8.83119 27.8854 9.51721 26.744 9.80952C25.6026 10.1018 24.3946 9.98165 23.3332 9.47019C23.0212 9.31119 22.8522 9.34719 22.6682 9.59519C22.6262 9.65319 22.5752 9.70419 22.5342 9.75219C23.6591 11.2742 24.2649 13.1176 24.2622 15.0102C24.2595 16.9028 23.6484 18.7444 22.5192 20.2632C22.9402 20.6792 23.3712 21.1132 23.8192 21.5342C23.8672 21.5792 24.0092 21.5632 24.0892 21.5342C24.8898 21.2041 25.7798 21.1608 26.6087 21.4114C27.4375 21.6621 28.1544 22.1914 28.6379 22.9098C29.1214 23.6282 29.342 24.4916 29.2621 25.3538C29.1823 26.2161 28.8071 27.0243 28.2 27.6418C27.5928 28.2592 26.791 28.648 25.9302 28.7423C25.0694 28.8365 24.2024 28.6306 23.476 28.1592C22.7496 27.6878 22.2083 26.98 21.9438 26.1554C21.6792 25.3308 21.7076 24.4402 22.0242 23.6342C22.0664 23.5662 22.0816 23.4848 22.0668 23.4061C22.052 23.3275 22.0082 23.2572 21.9442 23.2092C21.5442 22.8202 21.1532 22.4092 20.7662 22.0212C19.2444 23.1521 17.3992 23.7633 15.5033 23.7646C13.6074 23.7658 11.7614 23.1571 10.2382 22.0282L9.82416 22.5012C10.4308 23.5538 10.6335 24.7912 10.3944 25.9823C10.1552 27.1734 9.49055 28.2367 8.52461 28.9735C7.55867 29.7103 6.35751 30.0702 5.14556 29.986C3.93361 29.9017 2.79378 29.3791 1.93904 28.5158C1.08429 27.6525 0.573114 26.5075 0.501008 25.2948C0.428901 24.082 0.8008 22.8845 1.54722 21.926C2.29364 20.9675 3.36351 20.3135 4.55694 20.0862C5.75038 19.859 6.98572 20.074 8.03216 20.6912M20.8992 18.0302C21.6507 16.7593 21.9158 15.259 21.6453 13.8076C21.3748 12.3561 20.5871 11.052 19.4282 10.1372C18.1663 9.11538 16.5559 8.62541 14.9388 8.77122C13.3216 8.91703 11.8249 9.68715 10.7662 10.9182C9.04517 12.8862 8.71116 16.6912 10.1532 18.0462C10.7007 17.1447 11.4618 16.3919 12.3692 15.8542C11.8536 15.0652 11.6491 14.113 11.795 13.1818C11.9409 12.2507 12.427 11.4067 13.1592 10.8132C13.859 10.258 14.7334 9.96958 15.6262 9.99956C16.519 10.0295 17.3721 10.3759 18.0331 10.9768C18.6941 11.5777 19.12 12.3941 19.2347 13.28C19.3494 14.1659 19.1454 15.0638 18.6592 15.8132C19.0592 16.1442 19.4912 16.4442 19.8592 16.8072C20.2272 17.1702 20.5482 17.6072 20.9012 18.0282M5.48716 27.4962C5.98289 27.4986 6.46812 27.3535 6.8812 27.0794C7.29429 26.8054 7.61657 26.4147 7.80709 25.9571C7.99761 25.4994 8.04778 24.9954 7.9512 24.5092C7.85463 24.023 7.61569 23.5764 7.26473 23.2263C6.91378 22.8762 6.46666 22.6383 5.9802 22.543C5.49374 22.4476 4.9899 22.4989 4.5327 22.6906C4.07551 22.8822 3.68561 23.2054 3.41255 23.6192C3.13949 24.0329 2.9956 24.5185 2.99916 25.0142C3.00571 25.6716 3.27029 26.3 3.73589 26.7641C4.20148 27.2282 4.83079 27.4908 5.48816 27.4952M27.9992 4.9932C27.9992 4.49874 27.8525 4.01539 27.5778 3.60427C27.3031 3.19315 26.9127 2.87271 26.4559 2.6835C25.9991 2.49428 25.4964 2.44477 25.0114 2.54123C24.5265 2.63769 24.081 2.8758 23.7314 3.22543C23.3818 3.57506 23.1437 4.02052 23.0472 4.50547C22.9507 4.99042 23.0002 5.49309 23.1895 5.9499C23.3787 6.40672 23.6991 6.79717 24.1102 7.07187C24.5214 7.34657 25.0047 7.4932 25.4992 7.4932C25.8275 7.4932 26.1526 7.42853 26.4559 7.30289C26.7592 7.17726 27.0348 6.99311 27.2669 6.76096C27.4991 6.52882 27.6832 6.25322 27.8089 5.9499C27.9345 5.64659 27.9992 5.3215 27.9992 4.9932ZM15.5112 21.2452C16.6948 21.2415 17.8528 20.9002 18.8492 20.2612C18.8861 20.2458 18.9192 20.2227 18.9463 20.1933C18.9734 20.164 18.9938 20.1291 19.0061 20.0911C19.0185 20.0531 19.0225 20.0129 19.0178 19.9732C19.0132 19.9335 19 19.8953 18.9792 19.8612C18.7014 19.165 18.2213 18.568 17.601 18.1473C16.9806 17.7266 16.2484 17.5014 15.4989 17.5009C14.7493 17.5003 14.0168 17.7244 13.3958 18.1443C12.7748 18.5641 12.2939 19.1604 12.0152 19.8562C11.9312 20.0702 11.9882 20.1652 12.1682 20.2782C13.1677 20.9124 14.3274 21.2486 15.5112 21.2472M15.4872 12.5052C15.2408 12.507 15.0004 12.5817 14.7964 12.72C14.5925 12.8583 14.434 13.0539 14.3412 13.2821C14.2483 13.5104 14.2251 13.761 14.2745 14.0024C14.324 14.2438 14.4439 14.4652 14.619 14.6385C14.7942 14.8118 15.0167 14.9294 15.2586 14.9763C15.5005 15.0233 15.7509 14.9975 15.9782 14.9022C16.2055 14.807 16.3994 14.6465 16.5356 14.4411C16.6717 14.2357 16.7439 13.9946 16.7432 13.7482C16.743 13.5839 16.7104 13.4213 16.647 13.2697C16.5837 13.1181 16.491 12.9805 16.3742 12.8649C16.2574 12.7494 16.1189 12.6581 15.9667 12.5963C15.8144 12.5346 15.6515 12.5036 15.4872 12.5052ZM6.74016 5.0052C6.74251 4.75879 6.67181 4.51722 6.53697 4.31097C6.40214 4.10472 6.20922 3.94304 5.98257 3.84634C5.75593 3.74964 5.50571 3.72226 5.26352 3.76765C5.02132 3.81304 4.798 3.92917 4.62175 4.10138C4.4455 4.27358 4.32422 4.49415 4.27322 4.73523C4.22222 4.9763 4.24379 5.22709 4.3352 5.45592C4.42662 5.68475 4.58378 5.88136 4.78684 6.02095C4.98991 6.16053 5.22977 6.23682 5.47616 6.2402C5.80729 6.24314 6.12611 6.11489 6.36296 5.88347C6.59981 5.65206 6.73542 5.3363 6.74016 5.0052ZM25.5102 23.7532C25.3465 23.7529 25.1844 23.7848 25.0332 23.8471C24.8819 23.9094 24.7443 24.0009 24.6284 24.1164C24.5124 24.2318 24.4204 24.369 24.3575 24.5201C24.2945 24.6711 24.262 24.8331 24.2617 24.9967C24.2613 25.1603 24.2932 25.3224 24.3556 25.4737C24.4179 25.625 24.5094 25.7625 24.6248 25.8785C24.7403 25.9944 24.8775 26.0865 25.0285 26.1494C25.1796 26.2123 25.3415 26.2449 25.5052 26.2452C25.8356 26.2459 26.1528 26.1152 26.387 25.882C26.6211 25.6488 26.753 25.3322 26.7537 25.0017C26.7543 24.6712 26.6237 24.354 26.3905 24.1199C26.1573 23.8858 25.8406 23.7539 25.5102 23.7532Z" fill="#23B643"/>
</g>
</g>
</g>
</g>
<defs>
<clipPath id="clip0_361_12199">
<rect width="30" height="29.989" fill="white" transform="translate(0.5 0.00537109)"/>
</clipPath>
</defs>
</svg>
