<svg width="31" height="30" viewBox="0 0 31 30" fill="none" xmlns="http://www.w3.org/2000/svg">
<g id="services-11.svg" clip-path="url(#clip0_361_12211)">
<g id="Clip path group">
<mask id="mask0_361_12211" style="mask-type:luminance" maskUnits="userSpaceOnUse" x="0" y="0" width="31" height="30">
<g id="a">
<path id="&#208;&#159;&#209;&#128;&#209;&#143;&#208;&#188;&#208;&#190;&#209;&#131;&#208;&#179;&#208;&#190;&#208;&#187;&#209;&#140;&#208;&#189;&#208;&#184;&#208;&#186; 229" d="M30.5 0H0.5V30H30.5V0Z" fill="white"/>
</g>
</mask>
<g mask="url(#mask0_361_12211)">
<g id="&#208;&#161;&#208;&#179;&#209;&#128;&#209;&#131;&#208;&#191;&#208;&#191;&#208;&#184;&#209;&#128;&#208;&#190;&#208;&#178;&#208;&#176;&#209;&#130;&#209;&#140; 310">
<path id="&#208;&#154;&#208;&#190;&#208;&#189;&#209;&#130;&#209;&#131;&#209;&#128; 495" d="M27.2591 6.47171e-05H3.71209C3.28264 -0.0290354 2.85193 0.0341249 2.44892 0.185301C2.0459 0.336477 1.67992 0.572166 1.37555 0.87653C1.07119 1.18089 0.8355 1.54688 0.684324 1.9499C0.533148 2.35291 0.469988 2.78361 0.499088 3.21306V9.66807C0.470263 10.0987 0.534089 10.5304 0.686262 10.9343C0.838435 11.3381 1.07542 11.7046 1.38124 12.0091C1.68705 12.3136 2.0546 12.549 2.45909 12.6994C2.86359 12.8498 3.29563 12.9118 3.72609 12.8811L15.5201 12.8941L27.2721 12.8811C27.7036 12.9113 28.1365 12.8486 28.5417 12.6972C28.9468 12.5458 29.3148 12.3092 29.6207 12.0034C29.9266 11.6976 30.1633 11.3297 30.3148 10.9246C30.4664 10.5195 30.5292 10.0865 30.4991 9.65506V3.24006C30.528 2.80711 30.464 2.37298 30.3114 1.96678C30.1588 1.56058 29.9211 1.1917 29.6143 0.884871C29.3075 0.578044 28.9386 0.340361 28.5324 0.187759C28.1262 0.0351564 27.692 -0.0288386 27.2591 6.47171e-05ZM27.8711 10.2541H3.14009V2.64106H27.8711V10.2541Z" fill="#23B643"/>
<path id="&#208;&#154;&#208;&#190;&#208;&#189;&#209;&#130;&#209;&#131;&#209;&#128; 496" d="M27.2865 17.1181H3.71246C3.2841 17.0935 2.8554 17.1598 2.45447 17.3126C2.05354 17.4654 1.68944 17.7013 1.38605 18.0046C1.08266 18.308 0.846833 18.6721 0.694039 19.0731C0.541245 19.474 0.474935 19.9027 0.499457 20.3311V26.7451C0.465256 27.1823 0.526431 27.6218 0.678754 28.0332C0.831077 28.4445 1.07091 28.8178 1.38168 29.1273C1.69245 29.4369 2.06673 29.6752 2.47866 29.8259C2.89058 29.9766 3.33031 30.036 3.76746 30.0001H27.3125C27.7376 30.0249 28.1631 29.9595 28.5611 29.8081C28.9591 29.6567 29.3206 29.4227 29.6216 29.1215C29.9227 28.8203 30.1566 28.4588 30.3079 28.0608C30.4592 27.6627 30.5245 27.2372 30.4995 26.8121V20.3121C30.5226 19.8846 30.4552 19.4572 30.3017 19.0576C30.1482 18.658 29.9121 18.2953 29.6088 17.9933C29.3056 17.6912 28.9419 17.4566 28.5417 17.3047C28.1415 17.1529 27.7138 17.0872 27.2865 17.1121M27.8585 27.3531H3.12746V19.7531H27.8585V27.3531Z" fill="#23B643"/>
<path id="&#208;&#154;&#208;&#190;&#208;&#189;&#209;&#130;&#209;&#131;&#209;&#128; 497" d="M8.24821 6.42779C8.24745 6.77566 8.10981 7.10926 7.86504 7.35645C7.62028 7.60365 7.28806 7.74459 6.94021 7.74879C6.59344 7.75237 6.25945 7.61805 6.01171 7.37538C5.76398 7.13271 5.62279 6.80156 5.61921 6.45479C5.61563 6.10802 5.74995 5.77403 5.99262 5.52629C6.23529 5.27856 6.56644 5.13737 6.91321 5.13379H6.92621C7.2718 5.13448 7.60344 5.27016 7.85041 5.5119C8.09738 5.75363 8.24013 6.0823 8.24821 6.42779Z" fill="#23B643"/>
<path id="&#208;&#154;&#208;&#190;&#208;&#189;&#209;&#130;&#209;&#131;&#209;&#128; 498" d="M8.24836 23.558C8.24389 23.9057 8.10284 24.2376 7.85568 24.4822C7.60851 24.7267 7.27506 24.8642 6.92736 24.865C6.75633 24.8652 6.58709 24.8303 6.43006 24.7625C6.27304 24.6948 6.13156 24.5955 6.01436 24.471C5.83187 24.2888 5.70769 24.0565 5.65759 23.8036C5.60749 23.5506 5.63374 23.2885 5.73301 23.0505C5.83227 22.8125 6.00006 22.6095 6.21505 22.4671C6.43004 22.3247 6.68251 22.2495 6.94036 22.251H6.95336C7.29652 22.2582 7.62341 22.3987 7.8649 22.6426C8.10638 22.8865 8.24454 23.2148 8.24836 23.558Z" fill="#23B643"/>
</g>
</g>
</g>
</g>
<defs>
<clipPath id="clip0_361_12211">
<rect width="30" height="30" fill="white" transform="translate(0.5)"/>
</clipPath>
</defs>
</svg>
