<svg width="31" height="26" viewBox="0 0 31 26" fill="none" xmlns="http://www.w3.org/2000/svg">
<g id="services-5.svg" clip-path="url(#clip0_361_12131)">
<g id="Clip path group">
<mask id="mask0_361_12131" style="mask-type:luminance" maskUnits="userSpaceOnUse" x="0" y="0" width="31" height="26">
<g id="a">
<path id="&#208;&#159;&#209;&#128;&#209;&#143;&#208;&#188;&#208;&#190;&#209;&#131;&#208;&#179;&#208;&#190;&#208;&#187;&#209;&#140;&#208;&#189;&#208;&#184;&#208;&#186; 233" d="M30.5 0.475098H0.5V25.5251H30.5V0.475098Z" fill="white"/>
</g>
</mask>
<g mask="url(#mask0_361_12131)">
<g id="&#208;&#161;&#208;&#179;&#209;&#128;&#209;&#131;&#208;&#191;&#208;&#191;&#208;&#184;&#209;&#128;&#208;&#190;&#208;&#178;&#208;&#176;&#209;&#130;&#209;&#140; 318">
<path id="&#208;&#154;&#208;&#190;&#208;&#189;&#209;&#130;&#209;&#131;&#209;&#128; 504" d="M30.3777 10.2251L29.7677 8.53713C29.1904 6.96779 28.6204 5.39879 28.0577 3.83013C27.987 3.58761 27.8492 3.36998 27.6603 3.20227C27.4714 3.03457 27.2389 2.9236 26.9897 2.88213C25.0497 2.46813 23.1137 2.05046 21.1817 1.62913L16.7817 0.681126L16.6147 0.648126C16.2199 0.545055 15.8147 0.486689 15.4067 0.474126C15.1977 0.473745 14.9892 0.495534 14.7847 0.539126C11.9627 1.18213 9.07474 1.80213 6.27474 2.40213L3.95374 2.90213C3.73585 2.94087 3.53223 3.037 3.36385 3.1806C3.19546 3.3242 3.0684 3.51009 2.99574 3.71913L2.01474 6.41213C1.53474 7.74113 1.05574 9.06013 0.587738 10.3741C0.515958 10.5506 0.487576 10.7416 0.504977 10.9313C0.522378 11.121 0.585054 11.3037 0.687738 11.4641C0.804565 11.6182 0.955897 11.7426 1.12957 11.8276C1.30325 11.9125 1.49442 11.9555 1.68774 11.9531L1.81774 11.9641H2.30874C2.48274 11.9641 2.64574 11.9641 2.80874 11.9531H2.86274C2.91674 11.9531 2.93774 11.9531 2.94974 11.9641C2.95694 12.0111 2.96062 12.0586 2.96074 12.1061C2.9494 14.8395 2.94574 17.5728 2.94974 20.3061V21.7221C2.92771 21.8826 2.93889 22.0459 2.98259 22.2018C3.0263 22.3578 3.10159 22.5031 3.2038 22.6288C3.30601 22.7544 3.43296 22.8577 3.57676 22.9323C3.72056 23.0068 3.87815 23.051 4.03974 23.0621L7.22074 23.7491C9.8694 24.3265 12.5101 24.9005 15.1427 25.4711C15.2651 25.4952 15.3891 25.5096 15.5137 25.5141C15.6163 25.5144 15.7185 25.5037 15.8187 25.4821C19.4357 24.6971 23.0647 23.9131 26.6817 23.1171L26.9757 23.0521C27.1354 23.0423 27.2912 22.9997 27.4336 22.9268C27.576 22.854 27.7017 22.7525 27.8031 22.6288C27.9044 22.505 27.979 22.3617 28.0223 22.2077C28.0656 22.0538 28.0767 21.8925 28.0547 21.7341V15.7501C28.0547 14.5181 28.0547 13.2871 28.0437 12.0661C28.0443 12.0295 28.048 11.9931 28.0547 11.9571H28.1087C28.2827 11.9681 28.4247 11.9681 28.5547 11.9681H28.8597L29.1427 11.9571C29.3642 11.9824 29.5884 11.9513 29.7947 11.8669C30.0009 11.7825 30.1825 11.6474 30.3227 11.4741C30.4349 11.2861 30.4986 11.0732 30.5081 10.8544C30.5175 10.6357 30.4724 10.4181 30.3767 10.2211M3.26774 9.67413C3.28128 9.65933 3.28909 9.64017 3.28974 9.62013L3.55074 8.91213C3.99774 7.67013 4.45074 6.41213 4.92374 5.16413C4.94574 5.11013 5.03274 5.02213 5.06574 5.02213C7.59307 4.46746 10.1207 3.91546 12.6487 3.36613L13.4877 3.19213L13.3357 3.52913L12.6167 5.05513L11.9837 6.42713C11.4947 7.47413 11.0147 8.50813 10.5237 9.55513C10.4697 9.68613 10.4467 9.68613 10.3707 9.68613H4.79274L3.26774 9.67413ZM14.3277 22.9561L5.24074 20.9911V18.8741C5.24074 16.6188 5.23707 14.3635 5.22974 12.1081C5.22974 11.9991 5.24074 11.9661 5.25174 11.9661C5.29463 11.9584 5.33816 11.9547 5.38174 11.9551H8.84674C9.56574 11.9551 10.2857 11.9551 11.0047 11.9661H11.0157C11.2971 11.9822 11.5764 11.9086 11.8132 11.7559C12.0501 11.6031 12.2323 11.3791 12.3337 11.1161C12.8677 9.92813 13.4237 8.74113 13.9687 7.56413L14.3287 6.80113L14.3277 22.9561ZM20.4727 9.51713C19.7217 7.89413 18.9727 6.28113 18.2077 4.65813L17.5207 3.18713L17.8697 3.25213L19.8307 3.67713C21.8467 4.11213 23.8727 4.55913 25.8997 4.98513C26.0417 5.01713 26.0627 5.05013 26.0997 5.12613C26.4807 6.19413 26.8627 7.25213 27.2537 8.30813L27.7407 9.67413V9.68513H25.1687L23.8287 9.67413C22.7927 9.67413 21.7697 9.68513 20.7337 9.68513C20.5707 9.68513 20.5337 9.66313 20.4717 9.52113M25.7717 18.8271V20.9951L16.6717 22.9671V6.76113L17.0317 7.54613C17.5877 8.72313 18.1317 9.88813 18.6667 11.0761C18.7684 11.3534 18.9571 11.5903 19.2046 11.7514C19.4521 11.9125 19.745 11.9893 20.0397 11.9701C20.8887 11.9591 21.7067 11.9591 22.5397 11.9591H25.6887C25.7182 11.9556 25.7481 11.9594 25.7757 11.9701C25.7811 11.9805 25.7848 11.9916 25.7867 12.0031C25.7757 14.2801 25.7757 16.5461 25.7757 18.8241M20.7337 9.89913H26.5087C24.5797 9.89913 22.6517 9.88813 20.7337 9.89913Z" fill="#23B643"/>
</g>
</g>
</g>
</g>
<defs>
<clipPath id="clip0_361_12131">
<rect width="30" height="25.05" fill="white" transform="translate(0.5 0.475098)"/>
</clipPath>
</defs>
</svg>
