<svg width="31" height="30" viewBox="0 0 31 30" fill="none" xmlns="http://www.w3.org/2000/svg">
<g id="services-12.svg" clip-path="url(#clip0_361_12226)">
<g id="Clip path group">
<mask id="mask0_361_12226" style="mask-type:luminance" maskUnits="userSpaceOnUse" x="0" y="0" width="31" height="30">
<g id="a">
<path id="&#208;&#159;&#209;&#128;&#209;&#143;&#208;&#188;&#208;&#190;&#209;&#131;&#208;&#179;&#208;&#190;&#208;&#187;&#209;&#140;&#208;&#189;&#208;&#184;&#208;&#186; 224" d="M30.5 0.015625H0.5V29.9846H30.5V0.015625Z" fill="white"/>
</g>
</mask>
<g mask="url(#mask0_361_12226)">
<g id="&#208;&#161;&#208;&#179;&#209;&#128;&#209;&#131;&#208;&#191;&#208;&#191;&#208;&#184;&#209;&#128;&#208;&#190;&#208;&#178;&#208;&#176;&#209;&#130;&#209;&#140; 299">
<path id="&#208;&#154;&#208;&#190;&#208;&#189;&#209;&#130;&#209;&#131;&#209;&#128; 476" d="M30.474 13.477C30.4451 13.2003 30.3861 12.9277 30.298 12.6639C30.1834 12.3135 30.1162 11.9492 30.098 11.5809C30.1149 11.2125 30.1822 10.8481 30.298 10.498C30.385 10.2202 30.444 9.93445 30.474 9.64495C30.501 8.01595 30.501 6.35395 30.487 4.75595V3.23895C30.5157 2.80827 30.4521 2.37641 30.3003 1.97234C30.1485 1.56827 29.912 1.20132 29.6068 0.896104C29.3016 0.590886 28.9347 0.35445 28.5306 0.20265C28.1265 0.0508501 27.6947 -0.0128058 27.264 0.0159505H3.71397C3.28611 -0.0136656 2.85687 0.0488026 2.4552 0.199143C2.05353 0.349483 1.68876 0.584201 1.38549 0.887469C1.08222 1.19074 0.847505 1.55551 0.697164 1.95718C0.546824 2.35885 0.484356 2.78809 0.513972 3.21595L0.500972 4.66095C0.500972 6.29995 0.486972 7.99195 0.527972 9.66095C0.55182 9.95912 0.606444 10.254 0.690972 10.5409C0.80556 10.9007 0.872792 11.2738 0.890972 11.651C0.874032 12.0328 0.806785 12.4107 0.690972 12.775C0.606444 13.0619 0.55182 13.3568 0.527972 13.655C0.500972 14.616 0.517972 15.603 0.517972 16.565C0.531972 17.616 0.531972 18.716 0.500972 19.801C0.472226 20.2391 0.534407 20.6786 0.68361 21.0916C0.832812 21.5046 1.06581 21.8823 1.36797 22.201C1.68388 22.5169 2.06015 22.766 2.47435 22.9335C2.88856 23.1011 3.33224 23.1835 3.77897 23.176L3.85997 23.162C5.10597 23.135 6.35197 23.135 7.58397 23.135C8.51797 23.135 9.43897 23.135 10.374 23.149H14.166V27.374H3.68697C3.34782 27.342 3.00925 27.4405 2.74008 27.6493C2.47092 27.8581 2.29138 28.1615 2.23797 28.498C2.21113 28.6831 2.224 28.8719 2.27573 29.0517C2.32745 29.2316 2.41685 29.3983 2.53797 29.541C2.67967 29.6885 2.85085 29.8046 3.04037 29.8816C3.2299 29.9586 3.43351 29.9948 3.63797 29.988H27.589C27.8531 29.9615 28.1034 29.8573 28.3083 29.6885C28.5131 29.5198 28.6634 29.2941 28.74 29.04C28.8118 28.8022 28.8101 28.5483 28.7351 28.3115C28.6602 28.0747 28.5155 27.8661 28.32 27.713C27.9909 27.5198 27.6184 27.4129 27.237 27.402C25.612 27.375 23.987 27.375 22.362 27.375H16.837V23.146H20.701L23.464 23.16C24.764 23.16 26.064 23.146 27.364 23.146C27.7832 23.1645 28.2017 23.095 28.5924 22.9417C28.983 22.7885 29.3372 22.555 29.632 22.2564C29.9268 21.9577 30.1556 21.6005 30.3038 21.2079C30.4519 20.8153 30.516 20.3959 30.492 19.977V18.677C30.506 16.971 30.519 15.21 30.478 13.477M27.837 20.505H3.14597V12.9489H27.833L27.837 20.505ZM27.878 7.74795V10.24H3.17297L3.14597 9.84695V9.68495C3.13479 9.57231 3.13012 9.45913 3.13197 9.34595V7.68095C3.13197 6.31295 3.13197 4.95895 3.11797 3.60495C3.10145 3.46955 3.11337 3.3322 3.15297 3.20168C3.19258 3.07115 3.25899 2.95033 3.34797 2.84695C3.43616 2.76723 3.53928 2.70576 3.65136 2.66612C3.76344 2.62647 3.88227 2.60942 4.00097 2.61595H4.10897C4.40897 2.62995 4.70897 2.64295 5.00297 2.64295C5.21997 2.64295 5.44997 2.62895 5.66697 2.62895H14.442C18.586 2.62895 22.716 2.62895 26.86 2.61495C27.0005 2.6009 27.1424 2.61527 27.2773 2.65718C27.4121 2.6991 27.5372 2.76772 27.645 2.85895C27.8285 3.08309 27.9161 3.37056 27.889 3.65895C27.862 5.02695 27.875 6.39495 27.875 7.74895" fill="#23B643"/>
<path id="&#208;&#154;&#208;&#190;&#208;&#189;&#209;&#130;&#209;&#131;&#209;&#128; 477" d="M25.3555 6.46177C25.3553 6.6318 25.3214 6.8001 25.2558 6.95698C25.1902 7.11386 25.0942 7.25621 24.9734 7.37584C24.8526 7.49547 24.7092 7.59001 24.5517 7.65401C24.3942 7.71801 24.2256 7.75022 24.0555 7.74877C23.2295 7.76277 22.3895 7.76277 21.5635 7.76277H19.8165L18.0695 7.74877L16.3635 7.76277H14.6435C13.7905 7.76277 12.9375 7.74877 12.0705 7.74877C11.8024 7.7564 11.5392 7.67567 11.3214 7.519C11.1037 7.36234 10.9435 7.13843 10.8655 6.88177C10.7615 6.64534 10.7396 6.38088 10.8034 6.13057C10.8672 5.88026 11.013 5.65854 11.2175 5.50077C11.4723 5.30567 11.7777 5.18799 12.0975 5.16177C14.3185 5.14777 16.5395 5.13477 18.7605 5.13477C20.5205 5.13477 22.2675 5.14877 24.0285 5.14877C24.2058 5.14515 24.3821 5.1768 24.547 5.24186C24.712 5.30692 24.8624 5.4041 24.9895 5.52777C25.1089 5.65174 25.2027 5.79805 25.2655 5.95831C25.3283 6.11858 25.3589 6.28966 25.3555 6.46177Z" fill="#23B643"/>
<path id="&#208;&#154;&#208;&#190;&#208;&#189;&#209;&#130;&#209;&#131;&#209;&#128; 478" d="M8.24844 6.47508C8.23797 6.8207 8.09159 7.14823 7.84108 7.38658C7.59057 7.62492 7.25615 7.75482 6.91044 7.74808C6.57401 7.73825 6.2545 7.59832 6.01913 7.35773C5.78377 7.11714 5.65088 6.79464 5.64844 6.45808V6.43508C5.6505 6.17864 5.72835 5.92854 5.87221 5.71625C6.01607 5.50395 6.2195 5.33895 6.45691 5.242C6.69432 5.14504 6.95511 5.12047 7.20645 5.17138C7.45779 5.22228 7.68846 5.34639 7.86944 5.52808C8.11472 5.78246 8.25075 6.12171 8.24844 6.47508Z" fill="#23B643"/>
<path id="&#208;&#154;&#208;&#190;&#208;&#189;&#209;&#130;&#209;&#131;&#209;&#128; 479" d="M25.3555 16.7139C25.3566 16.8849 25.3237 17.0544 25.2587 17.2126C25.1938 17.3708 25.0981 17.5146 24.9771 17.6355C24.8562 17.7564 24.7125 17.8522 24.5543 17.9171C24.3961 17.9821 24.2265 18.015 24.0555 18.0139H12.0705C11.803 18.0187 11.5411 17.9369 11.3239 17.7806C11.1068 17.6244 10.946 17.4021 10.8655 17.1469C10.7615 16.9105 10.7396 16.646 10.8034 16.3957C10.8672 16.1454 11.013 15.9237 11.2175 15.7659C11.4723 15.5708 11.7777 15.4531 12.0975 15.4269C14.3185 15.4129 16.5395 15.3999 18.7605 15.3999C20.5205 15.3999 22.2675 15.3999 24.0285 15.4139C24.2058 15.4103 24.3821 15.4419 24.547 15.507C24.712 15.5721 24.8624 15.6692 24.9895 15.7929C25.1088 15.9143 25.2026 16.0583 25.2654 16.2165C25.3283 16.3746 25.3589 16.5438 25.3555 16.7139Z" fill="#23B643"/>
<path id="&#208;&#154;&#208;&#190;&#208;&#189;&#209;&#130;&#209;&#131;&#209;&#128; 480" d="M8.24844 16.7269C8.2385 17.0739 8.09271 17.403 7.84246 17.6436C7.59221 17.8841 7.25751 18.0167 6.91044 18.0129C6.57228 18.003 6.25131 17.8617 6.01567 17.619C5.78003 17.3762 5.64829 17.0512 5.64844 16.7129V16.6859C5.65301 16.4306 5.73268 16.1823 5.87751 15.9719C6.02233 15.7616 6.2259 15.5986 6.4628 15.5032C6.6997 15.4079 6.95944 15.3844 7.2096 15.4357C7.45976 15.4871 7.68925 15.611 7.86944 15.7919C8.11206 16.0423 8.24795 16.3772 8.24844 16.7259" fill="#23B643"/>
</g>
</g>
</g>
</g>
<defs>
<clipPath id="clip0_361_12226">
<rect width="30" height="29.969" fill="white" transform="translate(0.5 0.015625)"/>
</clipPath>
</defs>
</svg>
