<svg width="31" height="30" viewBox="0 0 31 30" fill="none" xmlns="http://www.w3.org/2000/svg">
<g id="CardChecklist" clip-path="url(#clip0_1202_15952)">
<path id="Vector" d="M27.6875 5.625C27.9361 5.625 28.1746 5.72377 28.3504 5.89959C28.5262 6.0754 28.625 6.31386 28.625 6.5625V23.4375C28.625 23.6861 28.5262 23.9246 28.3504 24.1004C28.1746 24.2762 27.9361 24.375 27.6875 24.375H3.3125C3.06386 24.375 2.8254 24.2762 2.64959 24.1004C2.47377 23.9246 2.375 23.6861 2.375 23.4375V6.5625C2.375 6.31386 2.47377 6.0754 2.64959 5.89959C2.8254 5.72377 3.06386 5.625 3.3125 5.625H27.6875ZM3.3125 3.75C2.56658 3.75 1.85121 4.04632 1.32376 4.57376C0.796316 5.10121 0.5 5.81658 0.5 6.5625L0.5 23.4375C0.5 24.1834 0.796316 24.8988 1.32376 25.4262C1.85121 25.9537 2.56658 26.25 3.3125 26.25H27.6875C28.4334 26.25 29.1488 25.9537 29.6762 25.4262C30.2037 24.8988 30.5 24.1834 30.5 23.4375V6.5625C30.5 5.81658 30.2037 5.10121 29.6762 4.57376C29.1488 4.04632 28.4334 3.75 27.6875 3.75H3.3125Z" fill="#23B643"/>
<path id="Vector_2" d="M13.6242 10.3127C13.6242 10.0641 13.723 9.82561 13.8988 9.6498C14.0746 9.47398 14.3131 9.37521 14.5617 9.37521H23.9367C24.1854 9.37521 24.4238 9.47398 24.5996 9.6498C24.7755 9.82561 24.8742 10.0641 24.8742 10.3127C24.8742 10.5614 24.7755 10.7998 24.5996 10.9756C24.4238 11.1514 24.1854 11.2502 23.9367 11.2502H14.5617C14.3131 11.2502 14.0746 11.1514 13.8988 10.9756C13.723 10.7998 13.6242 10.5614 13.6242 10.3127ZM10.8192 8.71146C10.9065 8.79855 10.9758 8.902 11.0231 9.0159C11.0703 9.12979 11.0947 9.2519 11.0947 9.37521C11.0947 9.49852 11.0703 9.62063 11.0231 9.73452C10.9758 9.84842 10.9065 9.95188 10.8192 10.039L8.00673 12.8515C7.91965 12.9388 7.81619 13.008 7.70229 13.0553C7.5884 13.1026 7.4663 13.1269 7.34298 13.1269C7.21967 13.1269 7.09757 13.1026 6.98367 13.0553C6.86977 13.008 6.76632 12.9388 6.67923 12.8515L5.74173 11.914C5.65457 11.8268 5.58542 11.7233 5.53825 11.6094C5.49108 11.4955 5.4668 11.3735 5.4668 11.2502C5.4668 11.0013 5.56569 10.7625 5.74173 10.5865C5.91777 10.4104 6.15653 10.3115 6.40548 10.3115C6.65444 10.3115 6.89319 10.4104 7.06923 10.5865L7.34298 10.8621L9.49173 8.71146C9.57882 8.62415 9.68227 8.55489 9.79617 8.50762C9.91007 8.46036 10.0322 8.43604 10.1555 8.43604C10.2788 8.43604 10.4009 8.46036 10.5148 8.50762C10.6287 8.55489 10.7321 8.62415 10.8192 8.71146ZM13.6242 17.8127C13.6242 17.5641 13.723 17.3256 13.8988 17.1498C14.0746 16.974 14.3131 16.8752 14.5617 16.8752H23.9367C24.1854 16.8752 24.4238 16.974 24.5996 17.1498C24.7755 17.3256 24.8742 17.5641 24.8742 17.8127C24.8742 18.0614 24.7755 18.2998 24.5996 18.4756C24.4238 18.6514 24.1854 18.7502 23.9367 18.7502H14.5617C14.3131 18.7502 14.0746 18.6514 13.8988 18.4756C13.723 18.2998 13.6242 18.0614 13.6242 17.8127ZM10.8192 16.2115C10.9065 16.2985 10.9758 16.402 11.0231 16.5159C11.0703 16.6298 11.0947 16.7519 11.0947 16.8752C11.0947 16.9985 11.0703 17.1206 11.0231 17.2345C10.9758 17.3484 10.9065 17.4519 10.8192 17.539L8.00673 20.3515C7.91965 20.4388 7.81619 20.508 7.70229 20.5553C7.5884 20.6026 7.4663 20.6269 7.34298 20.6269C7.21967 20.6269 7.09757 20.6026 6.98367 20.5553C6.86977 20.508 6.76632 20.4388 6.67923 20.3515L5.74173 19.414C5.65457 19.3268 5.58542 19.2233 5.53825 19.1094C5.49108 18.9955 5.4668 18.8735 5.4668 18.7502C5.4668 18.6269 5.49108 18.5049 5.53825 18.391C5.58542 18.2771 5.65457 18.1736 5.74173 18.0865C5.8289 17.9993 5.93238 17.9302 6.04626 17.883C6.16015 17.8358 6.28221 17.8115 6.40548 17.8115C6.52875 17.8115 6.65081 17.8358 6.7647 17.883C6.87859 17.9302 6.98207 17.9993 7.06923 18.0865L7.34298 18.3621L9.49173 16.2115C9.57882 16.1242 9.68227 16.0549 9.79617 16.0076C9.91007 15.9604 10.0322 15.936 10.1555 15.936C10.2788 15.936 10.4009 15.9604 10.5148 16.0076C10.6287 16.0549 10.7321 16.1242 10.8192 16.2115Z" fill="#23B643"/>
</g>
<defs>
<clipPath id="clip0_1202_15952">
<rect width="30" height="30" fill="white" transform="translate(0.5)"/>
</clipPath>
</defs>
</svg>
