<svg width="37" height="36" viewBox="0 0 37 36" fill="none" xmlns="http://www.w3.org/2000/svg">
<g id="SVG">
<path id="ytp-id-35" d="M20.3132 14.1902V9.74023L28.1032 17.5302L20.3132 25.3202V20.7602C16.3832 20.6902 12.2132 21.8102 9.45325 24.7602C8.91325 25.1302 7.71325 27.2902 8.23325 25.6502C9.19325 21.3202 11.9132 17.1802 16.0932 15.3802C17.4232 14.7802 18.8532 14.4002 20.3032 14.1902H20.3132Z" fill="white" stroke="black" stroke-opacity="0.15" stroke-width="2"/>
<path id="ytp-id-35_2" d="M20.3132 14.1902V9.74023L28.1032 17.5302L20.3132 25.3202V20.7602C16.3832 20.6902 12.2132 21.8102 9.45325 24.7602C8.91325 25.1302 7.71325 27.2902 8.23325 25.6502C9.19325 21.3202 11.9132 17.1802 16.0932 15.3802C17.4232 14.7802 18.8532 14.4002 20.3032 14.1902H20.3132Z" fill="white"/>
</g>
</svg>
