<svg width="17" height="16" viewBox="0 0 17 16" fill="none" xmlns="http://www.w3.org/2000/svg">
<path id="Vector" d="M0.5 0.533333C0.5 0.391885 0.556191 0.256229 0.656213 0.15621C0.756234 0.0561903 0.891892 0 1.03334 0H2.63338C2.75235 3.28656e-05 2.86789 0.0398407 2.96163 0.113093C3.05537 0.186345 3.12193 0.288836 3.15072 0.404267L3.58273 2.13333H15.967C16.0459 2.13338 16.1237 2.15092 16.195 2.1847C16.2663 2.21847 16.3292 2.26763 16.3792 2.32864C16.4292 2.38965 16.465 2.46099 16.4841 2.53752C16.5032 2.61404 16.5051 2.69385 16.4897 2.7712L15.423 8.10453C15.3996 8.22083 15.3382 8.32604 15.2484 8.40351C15.1585 8.48097 15.0454 8.52628 14.927 8.53227L4.90329 9.03573L5.20943 10.6667H14.3669C14.5084 10.6667 14.6441 10.7229 14.7441 10.8229C14.8441 10.9229 14.9003 11.0586 14.9003 11.2C14.9003 11.3414 14.8441 11.4771 14.7441 11.5771C14.6441 11.6771 14.5084 11.7333 14.3669 11.7333H4.76675C4.64241 11.7332 4.52202 11.6897 4.42638 11.6102C4.33075 11.5307 4.26589 11.4204 4.24301 11.2981L2.64404 2.7808L2.21737 1.06667H1.03334C0.891892 1.06667 0.756234 1.01048 0.656213 0.910457C0.556191 0.810438 0.5 0.674782 0.5 0.533333ZM3.80887 3.2L4.70488 7.9776L14.4587 7.488L15.3163 3.2H3.80887ZM5.83344 11.7333C5.26763 11.7333 4.725 11.9581 4.32492 12.3582C3.92483 12.7583 3.70006 13.3009 3.70006 13.8667C3.70006 14.4325 3.92483 14.9751 4.32492 15.3752C4.725 15.7752 5.26763 16 5.83344 16C6.39925 16 6.94188 15.7752 7.34197 15.3752C7.74205 14.9751 7.96682 14.4325 7.96682 13.8667C7.96682 13.3009 7.74205 12.7583 7.34197 12.3582C6.94188 11.9581 6.39925 11.7333 5.83344 11.7333ZM13.3003 11.7333C12.7345 11.7333 12.1918 11.9581 11.7917 12.3582C11.3916 12.7583 11.1669 13.3009 11.1669 13.8667C11.1669 14.4325 11.3916 14.9751 11.7917 15.3752C12.1918 15.7752 12.7345 16 13.3003 16C13.8661 16 14.4087 15.7752 14.8088 15.3752C15.2089 14.9751 15.4336 14.4325 15.4336 13.8667C15.4336 13.3009 15.2089 12.7583 14.8088 12.3582C14.4087 11.9581 13.8661 11.7333 13.3003 11.7333ZM5.83344 12.8C6.11634 12.8 6.38766 12.9124 6.5877 13.1124C6.78775 13.3125 6.90013 13.5838 6.90013 13.8667C6.90013 14.1496 6.78775 14.4209 6.5877 14.6209C6.38766 14.821 6.11634 14.9333 5.83344 14.9333C5.55054 14.9333 5.27922 14.821 5.07918 14.6209C4.87914 14.4209 4.76675 14.1496 4.76675 13.8667C4.76675 13.5838 4.87914 13.3125 5.07918 13.1124C5.27922 12.9124 5.55054 12.8 5.83344 12.8ZM13.3003 12.8C13.5832 12.8 13.8545 12.9124 14.0545 13.1124C14.2546 13.3125 14.3669 13.5838 14.3669 13.8667C14.3669 14.1496 14.2546 14.4209 14.0545 14.6209C13.8545 14.821 13.5832 14.9333 13.3003 14.9333C13.0174 14.9333 12.746 14.821 12.546 14.6209C12.346 14.4209 12.2336 14.1496 12.2336 13.8667C12.2336 13.5838 12.346 13.3125 12.546 13.1124C12.746 12.9124 13.0174 12.8 13.3003 12.8Z" fill="white"/>
</svg>
