<svg width="48" height="51" viewBox="0 0 48 51" fill="none" xmlns="http://www.w3.org/2000/svg">
<g id="Icon" clip-path="url(#clip0_127_37392)">
<path id="Vector" d="M32.5105 28.0256L41.0487 19.7368L29.2738 18.0064L24.0002 7.34532L18.7266 18.0064L6.95164 19.7368L15.4899 28.0256L13.453 39.7752L24.0002 34.2214L34.5195 39.7752L32.5105 28.0256ZM47.2152 18.0622C47.2152 18.4716 46.9733 18.9181 46.4897 19.4019L36.361 29.2815L38.7607 43.2358C38.7793 43.3661 38.7886 43.5521 38.7886 43.794C38.7886 44.7243 38.4072 45.1895 37.6446 45.1895C37.2911 45.1895 36.9191 45.0778 36.5284 44.8545L24.0002 38.2681L11.4719 44.8545C11.0626 45.0778 10.6906 45.1895 10.3558 45.1895C9.96513 45.1895 9.67215 45.0546 9.47683 44.7848C9.28151 44.515 9.18385 44.1847 9.18385 43.794C9.18385 43.6824 9.20245 43.4963 9.23966 43.2358L11.6393 29.2815L1.48272 19.4019C1.01768 18.8995 0.785156 18.453 0.785156 18.0622C0.785156 17.3738 1.30601 16.9459 2.3477 16.7784L16.3548 14.7411L22.6329 2.04268C22.9864 1.27984 23.4421 0.898422 24.0002 0.898422C24.5582 0.898422 25.014 1.27984 25.3674 2.04268L31.6455 14.7411L45.6526 16.7784C46.6943 16.9459 47.2152 17.3738 47.2152 18.0622Z" fill="#FEAD38"/>
</g>
<defs>
<clipPath id="clip0_127_37392">
<rect width="46.43" height="51" fill="white" transform="matrix(1 0 0 -1 0.785156 51)"/>
</clipPath>
</defs>
</svg>
