<svg width="14" height="16" viewBox="0 0 14 16" fill="none" xmlns="http://www.w3.org/2000/svg">
<path d="M7.49989 5.1C7.49989 4.96739 7.44721 4.84021 7.35344 4.74645C7.25967 4.65268 7.13249 4.6 6.99989 4.6C6.86728 4.6 6.7401 4.65268 6.64633 4.74645C6.55256 4.84021 6.49989 4.96739 6.49989 5.1V8H3.49989C3.36728 8 3.2401 8.05268 3.14633 8.14645C3.05256 8.24021 2.99989 8.36739 2.99989 8.5C2.99989 8.63261 3.05256 8.75979 3.14633 8.85355C3.2401 8.94732 3.36728 9 3.49989 9H6.99989C7.13249 9 7.25967 8.94732 7.35344 8.85355C7.44721 8.75979 7.49989 8.63261 7.49989 8.5V5.1Z" fill="#212529"/>
<path d="M5.49989 0.5C5.49989 0.367392 5.55256 0.240215 5.64633 0.146447C5.7401 0.0526784 5.86728 0 5.99989 0H7.99989C8.13249 0 8.25967 0.0526784 8.35344 0.146447C8.44721 0.240215 8.49989 0.367392 8.49989 0.5C8.49989 0.632608 8.44721 0.759785 8.35344 0.853553C8.25967 0.947322 8.13249 1 7.99989 1V1.57C9.35989 1.766 10.5939 2.35 11.5839 3.21C11.5878 3.20562 11.5918 3.20128 11.5959 3.197L11.9499 2.843L11.5959 2.49C11.502 2.39625 11.4492 2.26904 11.4491 2.13635C11.449 2.00367 11.5016 1.87639 11.5954 1.7825C11.6891 1.68861 11.8163 1.63582 11.949 1.63572C12.0817 1.63563 12.209 1.68825 12.3029 1.782L13.7169 3.197C13.7646 3.24312 13.8027 3.2983 13.8289 3.3593C13.8551 3.4203 13.8689 3.48591 13.8695 3.5523C13.8701 3.61869 13.8574 3.68453 13.8323 3.74598C13.8072 3.80743 13.77 3.86325 13.7231 3.9102C13.6761 3.95714 13.6203 3.99427 13.5589 4.01941C13.4974 4.04455 13.4316 4.0572 13.3652 4.05663C13.2988 4.05605 13.2332 4.04226 13.1722 4.01605C13.1112 3.98985 13.056 3.95175 13.0099 3.904L12.6569 3.55L12.3029 3.904C12.2986 3.90807 12.2943 3.91208 12.2899 3.916C13.3081 5.09135 13.9059 6.57228 13.989 8.12509C14.0722 9.67791 13.6359 11.2142 12.749 12.4915C11.8621 13.7689 10.5752 14.7146 9.09124 15.1793C7.60729 15.6441 6.01082 15.6015 4.55374 15.0583C3.09667 14.5151 1.86196 13.5022 1.04444 12.1794C0.226923 10.8566 -0.126857 9.29922 0.0389274 7.75305C0.204712 6.20687 0.880621 4.75992 1.96 3.64051C3.03938 2.52109 4.46077 1.79296 5.99989 1.571V1C5.86728 1 5.7401 0.947322 5.64633 0.853553C5.55256 0.759785 5.49989 0.632608 5.49989 0.5ZM6.99989 2.5C6.21195 2.50007 5.43175 2.65533 4.70382 2.95691C3.97589 3.2585 3.3145 3.70051 2.75739 4.25771C1.63227 5.38303 1.00025 6.9092 1.00039 8.5005C1.00052 10.0918 1.63279 11.6179 2.7581 12.743C3.88341 13.8681 5.40959 14.5001 7.00089 14.5C8.59219 14.4999 10.1183 13.8676 11.2434 12.7423C12.3685 11.617 13.0005 10.0908 13.0004 8.4995C13.0003 6.9082 12.368 5.38213 11.2427 4.25701C10.1174 3.13188 8.59118 2.49987 6.99989 2.5Z" fill="#212529"/>
</svg>
