<svg width="12" height="12" viewBox="0 0 12 12" fill="none" xmlns="http://www.w3.org/2000/svg">
<g id="icon-wrapper">
<g id="Union">
<path d="M4.49963 3.37402C4.49963 3.67239 4.38111 3.95854 4.17013 4.16952C3.95915 4.3805 3.673 4.49902 3.37463 4.49902C3.07627 4.49902 2.79012 4.3805 2.57914 4.16952C2.36816 3.95854 2.24963 3.67239 2.24963 3.37402C2.24963 3.07565 2.36816 2.78951 2.57914 2.57853C2.79012 2.36755 3.07627 2.24902 3.37463 2.24902C3.673 2.24902 3.95915 2.36755 4.17013 2.57853C4.38111 2.78951 4.49963 3.07565 4.49963 3.37402ZM3.74963 3.37402C3.74963 3.27457 3.71013 3.17918 3.6398 3.10886C3.56947 3.03853 3.47409 2.99902 3.37463 2.99902C3.27518 2.99902 3.1798 3.03853 3.10947 3.10886C3.03914 3.17918 2.99963 3.27457 2.99963 3.37402C2.99963 3.47348 3.03914 3.56886 3.10947 3.63919C3.1798 3.70951 3.27518 3.74902 3.37463 3.74902C3.47409 3.74902 3.56947 3.70951 3.6398 3.63919C3.71013 3.56886 3.74963 3.47348 3.74963 3.37402Z" fill="#151515"/>
<path d="M1.49963 0.749023H4.93913C5.13803 0.749066 5.32876 0.828111 5.46938 0.968773L10.7194 6.21877C10.86 6.35942 10.939 6.55015 10.939 6.74902C10.939 6.9479 10.86 7.13863 10.7194 7.27927L7.27988 10.7188C7.13924 10.8594 6.94851 10.9384 6.74963 10.9384C6.55076 10.9384 6.36003 10.8594 6.21938 10.7188L0.969384 5.46877C0.828722 5.32815 0.749676 5.13742 0.749634 4.93852V1.49902C0.749634 1.30011 0.828651 1.10935 0.969304 0.968693C1.10996 0.828041 1.30072 0.749023 1.49963 0.749023ZM1.49963 4.93852L6.74963 10.1885L10.1891 6.74902L4.93913 1.49902H1.49963V4.93852Z" fill="#151515"/>
</g>
</g>
</svg>
