<svg width="24" height="25" viewBox="0 0 24 25" fill="none" xmlns="http://www.w3.org/2000/svg">
<g clip-path="url(#clip0_352_11965)">
<path d="M16.5 1.79297C16.8978 1.79297 17.2794 1.951 17.5607 2.23231C17.842 2.51361 18 2.89514 18 3.29297V21.293C18 21.6908 17.842 22.0723 17.5607 22.3536C17.2794 22.6349 16.8978 22.793 16.5 22.793H7.5C7.10218 22.793 6.72064 22.6349 6.43934 22.3536C6.15804 22.0723 6 21.6908 6 21.293V3.29297C6 2.89514 6.15804 2.51361 6.43934 2.23231C6.72064 1.951 7.10218 1.79297 7.5 1.79297H16.5ZM7.5 0.292969C6.70435 0.292969 5.94129 0.609039 5.37868 1.17165C4.81607 1.73426 4.5 2.49732 4.5 3.29297V21.293C4.5 22.0886 4.81607 22.8517 5.37868 23.4143C5.94129 23.9769 6.70435 24.293 7.5 24.293H16.5C17.2956 24.293 18.0587 23.9769 18.6213 23.4143C19.1839 22.8517 19.5 22.0886 19.5 21.293V3.29297C19.5 2.49732 19.1839 1.73426 18.6213 1.17165C18.0587 0.609039 17.2956 0.292969 16.5 0.292969L7.5 0.292969Z" fill="black"/>
<path d="M12 21.293C12.3978 21.293 12.7794 21.1349 13.0607 20.8536C13.342 20.5723 13.5 20.1908 13.5 19.793C13.5 19.3951 13.342 19.0136 13.0607 18.7323C12.7794 18.451 12.3978 18.293 12 18.293C11.6022 18.293 11.2206 18.451 10.9393 18.7323C10.658 19.0136 10.5 19.3951 10.5 19.793C10.5 20.1908 10.658 20.5723 10.9393 20.8536C11.2206 21.1349 11.6022 21.293 12 21.293Z" fill="black"/>
</g>
<defs>
<clipPath id="clip0_352_11965">
<rect width="24" height="24" fill="white" transform="translate(0 0.292969)"/>
</clipPath>
</defs>
</svg>
