<svg width="24" height="25" viewBox="0 0 24 25" fill="none" xmlns="http://www.w3.org/2000/svg">
<g id="Telephone" clip-path="url(#clip0_133_10744)">
<path id="Vector" d="M5.48073 2.49195C5.39218 2.37805 5.28041 2.28428 5.15283 2.21689C5.02526 2.1495 4.88481 2.11003 4.74081 2.10109C4.59681 2.09215 4.45255 2.11395 4.31762 2.16505C4.1827 2.21615 4.06019 2.29537 3.95823 2.39745L2.40723 3.94995C1.68273 4.67595 1.41573 5.70345 1.73223 6.60495C3.04733 10.3356 5.18396 13.7231 7.98423 16.517C10.7781 19.3172 14.1656 21.4539 17.8962 22.769C18.7977 23.0855 19.8252 22.8185 20.5512 22.094L22.1022 20.543C22.2043 20.441 22.2835 20.3185 22.3346 20.1836C22.3857 20.0486 22.4075 19.9044 22.3986 19.7604C22.3897 19.6164 22.3502 19.4759 22.2828 19.3484C22.2154 19.2208 22.1216 19.109 22.0077 19.0205L18.5472 16.3295C18.4254 16.2353 18.2839 16.1699 18.1332 16.1382C17.9825 16.1065 17.8267 16.1093 17.6772 16.1465L14.3922 16.967C13.9537 17.0758 13.4945 17.0696 13.0591 16.949C12.6237 16.8284 12.2267 16.5974 11.9067 16.2785L8.22273 12.593C7.9035 12.2731 7.67226 11.8762 7.55137 11.4408C7.43049 11.0054 7.42407 10.5461 7.53273 10.1075L8.35473 6.82245C8.39187 6.67303 8.3947 6.51714 8.363 6.36647C8.33131 6.2158 8.26592 6.07425 8.17173 5.95245L5.48073 2.49195ZM2.82573 1.26645C3.08822 1.00388 3.40357 0.80015 3.75084 0.668796C4.09811 0.537442 4.46934 0.481469 4.8399 0.504594C5.21046 0.527718 5.57186 0.629411 5.9001 0.802919C6.22834 0.976428 6.51592 1.21778 6.74373 1.51095L9.43473 4.96995C9.92823 5.60445 10.1022 6.43095 9.90723 7.21095L9.08673 10.496C9.04461 10.6661 9.04704 10.8443 9.09381 11.0132C9.14058 11.1821 9.2301 11.3362 9.35373 11.4605L13.0392 15.146C13.1637 15.2698 13.3179 15.3595 13.4872 15.4063C13.6564 15.4531 13.8349 15.4554 14.0052 15.413L17.2887 14.5925C17.6737 14.4968 18.0753 14.4896 18.4635 14.5714C18.8516 14.6533 19.2162 14.822 19.5297 15.065L22.9887 17.756C24.2322 18.7235 24.3462 20.561 23.2332 21.6725L21.6822 23.2235C20.5722 24.3335 18.9132 24.821 17.3667 24.2765C13.4077 22.8853 9.81354 20.6191 6.85173 17.6465C3.87929 14.6851 1.61306 11.0914 0.22173 7.13295C-0.32127 5.58795 0.16623 3.92745 1.27623 2.81745L2.82573 1.26645Z" fill="#151515"/>
</g>
<defs>
<clipPath id="clip0_133_10744">
<rect width="24" height="24" fill="white" transform="translate(0 0.5)"/>
</clipPath>
</defs>
</svg>
