<svg width="33" height="33" viewBox="0 0 33 33" fill="none" xmlns="http://www.w3.org/2000/svg">
<g id="Check2All" clip-path="url(#clip0_352_11971)">
<path id="Vector" d="M25.2073 9.50126C25.3003 9.40828 25.374 9.2979 25.4244 9.17642C25.4747 9.05494 25.5006 8.92474 25.5006 8.79326C25.5006 8.66177 25.4747 8.53157 25.4244 8.41009C25.374 8.28861 25.3003 8.17823 25.2073 8.08526C25.1143 7.99228 25.004 7.91853 24.8825 7.86821C24.761 7.81789 24.6308 7.79199 24.4993 7.79199C24.3678 7.79199 24.2376 7.81789 24.1161 7.86821C23.9947 7.91853 23.8843 7.99228 23.7913 8.08526L10.4993 21.3793L4.20731 15.0853C4.11433 14.9923 4.00396 14.9185 3.88248 14.8682C3.761 14.8179 3.6308 14.792 3.49931 14.792C3.23376 14.792 2.97908 14.8975 2.79131 15.0853C2.60354 15.273 2.49805 15.5277 2.49805 15.7933C2.49805 16.0588 2.60354 16.3135 2.79131 16.5013L9.79131 23.5013C9.8842 23.5944 9.99455 23.6683 10.116 23.7187C10.2375 23.7691 10.3678 23.795 10.4993 23.795C10.6308 23.795 10.7611 23.7691 10.8826 23.7187C11.0041 23.6683 11.1144 23.5944 11.2073 23.5013L25.2073 9.50126ZM16.7913 23.5013L14.9993 21.7073L16.4133 20.2933L17.4993 21.3793L30.7913 8.08526C30.9791 7.89748 31.2338 7.79199 31.4993 7.79199C31.7649 7.79199 32.0195 7.89748 32.2073 8.08526C32.3951 8.27303 32.5006 8.5277 32.5006 8.79326C32.5006 9.05881 32.3951 9.31348 32.2073 9.50126L18.2073 23.5013C18.1144 23.5944 18.0041 23.6683 17.8826 23.7187C17.7611 23.7691 17.6308 23.795 17.4993 23.795C17.3678 23.795 17.2375 23.7691 17.116 23.7187C16.9946 23.6683 16.8842 23.5944 16.7913 23.5013Z" fill="#23B643"/>
<path id="Vector_2" d="M11.2073 15.0853L12.9993 16.8793L11.5853 18.2933L9.79131 16.5013C9.60354 16.3135 9.49805 16.0588 9.49805 15.7933C9.49805 15.5277 9.60354 15.273 9.79131 15.0853C9.97908 14.8975 10.2338 14.792 10.4993 14.792C10.7649 14.792 11.0195 14.8975 11.2073 15.0853Z" fill="#23B643"/>
</g>
<defs>
<clipPath id="clip0_352_11971">
<rect width="32" height="32" fill="white" transform="translate(0.5 0.792969)"/>
</clipPath>
</defs>
</svg>
