<svg width="73" height="17" viewBox="0 0 73 17" fill="none" xmlns="http://www.w3.org/2000/svg">
<g id="SVG">
<path id="ytp-id-32" d="M12.7902 1.60918C10.864 1.6338 6.84559 1.7138 5.59636 2.0338C4.67943 2.27995 4.00251 3.01841 3.75636 3.87995C3.33174 5.54149 3.3379 8.9938 3.3379 8.9938C3.3379 8.9938 3.33174 12.4461 3.75636 14.1076C3.99636 15.0307 4.73482 15.7076 5.59636 15.9538C7.25174 16.3846 13.8425 16.3723 13.8425 16.3723C13.8425 16.3723 20.4271 16.3784 22.0887 15.9538C23.0117 15.7076 23.6825 14.9692 23.9287 14.1076C24.3533 12.4461 24.3471 8.9938 24.3471 8.9938C24.3471 8.9938 24.4148 5.54149 23.9287 3.87995C23.6825 2.95687 22.9502 2.27995 22.0887 2.0338C20.4394 1.60303 13.8487 1.60918 13.8487 1.60918C13.8487 1.60918 13.4364 1.60303 12.7964 1.60918H12.7902ZM57.2271 2.16303V15.2584H58.9379L59.1287 14.4153H59.1841C59.3687 14.723 59.621 14.9569 59.9287 15.1415C60.2364 15.3261 60.5933 15.3876 60.9625 15.3876C61.6394 15.3876 62.1871 15.0861 62.4948 14.4092C62.8025 13.7323 62.9933 12.7476 62.9933 11.3938V9.91687C62.9933 8.93226 62.9256 8.13226 62.8025 7.51687C62.6794 6.96918 62.4948 6.53841 62.1871 6.23072C61.8794 5.98457 61.5102 5.86764 61.0179 5.86764C60.6548 5.86764 60.2917 5.98456 59.9841 6.16918C59.6825 6.3538 59.3625 6.66149 59.2394 7.03072V2.16918H57.221L57.2271 2.16303ZM26.4641 2.64303L28.864 11.1969L28.9748 15.3261H31.0117V11.1969L33.3933 2.64303H31.3194L30.4579 6.5261C30.2117 7.68918 30.021 8.48918 29.9594 8.98149H29.9041C29.781 8.30457 29.5902 7.50456 29.4056 6.5261L28.5625 2.64303H26.4702H26.4641ZM44.6733 2.64303V4.31072H46.7656V15.3261H48.784V4.31072H50.8764C50.8764 4.31072 50.8764 2.64303 50.821 2.64303H44.6733ZM11.7564 5.7938L17.2333 8.98149L11.7564 12.1138V5.78764V5.7938ZM66.7717 5.84918C65.7256 5.84918 64.9933 6.21226 64.5625 6.82764C64.1379 7.43687 63.9533 8.42764 63.9533 9.84303V11.4369C63.9533 12.7907 64.1379 13.8369 64.5625 14.4523C64.9933 15.1292 65.6702 15.4307 66.7164 15.4307C67.5779 15.4307 68.181 15.2461 68.6733 14.8153C69.104 14.3846 69.3441 13.7753 69.3441 12.9138V12.6061L67.5594 12.4769C67.5594 13.0923 67.5102 13.4615 67.3871 13.7076C67.3256 13.9538 67.0794 14.0892 66.7717 14.0892C66.5871 14.0892 66.3964 14.0215 66.2733 13.8984C66.1502 13.7138 66.0887 13.5353 66.0271 13.2276C65.9656 12.92 65.9717 12.483 65.9717 11.8676V11.3876L69.4856 11.3323V9.71995C69.4856 8.73533 69.4241 8.00918 69.2394 7.45533C69.1164 6.90764 68.8025 6.47687 68.4333 6.23072C68.0025 5.98457 67.5225 5.86764 66.784 5.86764L66.7717 5.84918ZM35.701 5.90456C35.0302 5.90456 34.4641 6.01533 34.0333 6.32303C33.6025 6.56918 33.2948 7.01226 33.1164 7.62764C32.9317 8.24303 32.8087 9.02457 32.8087 10.0092V11.3692C32.8087 12.2923 32.8702 13.0799 33.0548 13.6953C33.1779 14.2492 33.4856 14.6923 33.9164 15C34.341 15.3076 34.9687 15.4184 35.6456 15.48C36.3779 15.48 36.9256 15.3076 37.3564 15.0615C37.781 14.8153 38.0271 14.3907 38.2733 13.7753C38.5133 13.16 38.5748 12.36 38.5748 11.3753V10.0153C38.5748 9.03072 38.4517 8.24918 38.2733 7.6338C38.0887 7.0861 37.781 6.63687 37.3564 6.32918C36.9256 6.02149 36.384 5.91072 35.7071 5.91072L35.701 5.90456ZM43.1964 5.95995V13.283C43.1348 13.4676 43.0179 13.5784 42.8333 13.7015C42.7102 13.8246 42.5194 13.8923 42.3348 13.8923C42.1502 13.8923 41.9779 13.8307 41.9164 13.6461C41.8548 13.4615 41.8056 13.2153 41.8056 12.7846V6.02149H39.7133V12.92C39.7133 13.7815 39.8241 14.3907 40.1317 14.8215C40.4333 15.2523 40.8764 15.4369 41.4917 15.4369C42.3533 15.4369 43.0179 15.0123 43.4487 14.1507H43.504L43.6948 15.2461H45.2887V6.02149C45.2887 6.02149 43.1964 6.02149 43.1964 5.9661V5.95995ZM53.8487 5.95995V13.283C53.7871 13.4676 53.6702 13.5784 53.4856 13.7015C53.3625 13.8246 53.1717 13.8923 52.9871 13.8923C52.8025 13.8923 52.6302 13.8307 52.5687 13.6461C52.5071 13.4615 52.4394 13.2153 52.4394 12.7846V6.02149H50.3471V12.92C50.3471 13.7815 50.4764 14.3907 50.784 14.8215C51.0917 15.2523 51.5102 15.4369 52.1256 15.4369C52.981 15.4369 53.6702 15.0123 54.101 14.1507H54.1564L54.3287 15.2461H55.941V6.02149C55.941 6.02149 53.8487 6.02149 53.8487 5.9661V5.95995ZM66.7102 7.2461C66.9564 7.2461 67.0671 7.3138 67.1902 7.43687C67.3133 7.62149 67.3748 7.79995 67.4364 8.10764C67.4979 8.41533 67.4917 8.85226 67.4917 9.46764V10.1384H65.9533V9.46764C65.9533 8.85226 65.9533 8.41533 66.0087 8.10764C66.0087 7.86149 66.0764 7.61533 66.1994 7.49226C66.3225 7.30764 66.5133 7.2461 66.6979 7.2461H66.7102ZM35.6394 7.31995C35.9471 7.31995 36.1317 7.43072 36.2548 7.73841C36.3717 8.0461 36.4271 8.53841 36.4271 9.21533V12.0953C36.4271 12.7723 36.3779 13.2646 36.2548 13.5723C36.1317 13.88 35.9471 13.9907 35.6394 13.9907C35.3317 13.9907 35.1533 13.88 35.0302 13.5723C34.9071 13.2646 34.8394 12.7723 34.8394 12.0953V9.21533C34.8394 8.53841 34.9071 8.0461 35.0302 7.73841C35.1533 7.43072 35.3317 7.31995 35.6394 7.31995ZM60.0579 7.37533C60.2425 7.37533 60.4333 7.43687 60.5564 7.62149C60.6794 7.8061 60.7225 8.0338 60.784 8.46457C60.8456 8.8338 60.8579 9.3938 60.8579 10.1323L60.9133 11.3015C60.9133 11.9784 60.9133 12.5261 60.8579 12.8953C60.7964 13.2646 60.741 13.5599 60.5564 13.683C60.4333 13.8676 60.2487 13.9292 60.0025 13.9292C59.8179 13.9292 59.6887 13.8799 59.504 13.8184C59.381 13.7569 59.2641 13.6399 59.141 13.4553V8.22457C59.2025 7.97841 59.3194 7.7938 59.504 7.60918C59.6887 7.42456 59.8733 7.36303 60.0579 7.36303V7.37533Z" fill="white" stroke="black" stroke-opacity="0.15" stroke-width="1.23077"/>
<path id="ytp-id-32_2" d="M12.7902 1.60918C10.864 1.6338 6.84559 1.7138 5.59636 2.0338C4.67943 2.27995 4.00251 3.01841 3.75636 3.87995C3.33174 5.54149 3.3379 8.9938 3.3379 8.9938C3.3379 8.9938 3.33174 12.4461 3.75636 14.1076C3.99636 15.0307 4.73482 15.7076 5.59636 15.9538C7.25174 16.3846 13.8425 16.3723 13.8425 16.3723C13.8425 16.3723 20.4271 16.3784 22.0887 15.9538C23.0117 15.7076 23.6825 14.9692 23.9287 14.1076C24.3533 12.4461 24.3471 8.9938 24.3471 8.9938C24.3471 8.9938 24.4148 5.54149 23.9287 3.87995C23.6825 2.95687 22.9502 2.27995 22.0887 2.0338C20.4394 1.60303 13.8487 1.60918 13.8487 1.60918C13.8487 1.60918 13.4364 1.60303 12.7964 1.60918H12.7902ZM57.2271 2.16303V15.2584H58.9379L59.1287 14.4153H59.1841C59.3687 14.723 59.621 14.9569 59.9287 15.1415C60.2364 15.3261 60.5933 15.3876 60.9625 15.3876C61.6394 15.3876 62.1871 15.0861 62.4948 14.4092C62.8025 13.7323 62.9933 12.7476 62.9933 11.3938V9.91687C62.9933 8.93226 62.9256 8.13226 62.8025 7.51687C62.6794 6.96918 62.4948 6.53841 62.1871 6.23072C61.8794 5.98457 61.5102 5.86764 61.0179 5.86764C60.6548 5.86764 60.2917 5.98456 59.9841 6.16918C59.6825 6.3538 59.3625 6.66149 59.2394 7.03072V2.16918H57.221L57.2271 2.16303ZM26.4641 2.64303L28.864 11.1969L28.9748 15.3261H31.0117V11.1969L33.3933 2.64303H31.3194L30.4579 6.5261C30.2117 7.68918 30.021 8.48918 29.9594 8.98149H29.9041C29.781 8.30457 29.5902 7.50456 29.4056 6.5261L28.5625 2.64303H26.4702H26.4641ZM44.6733 2.64303V4.31072H46.7656V15.3261H48.784V4.31072H50.8764C50.8764 4.31072 50.8764 2.64303 50.821 2.64303H44.6733ZM11.7564 5.7938L17.2333 8.98149L11.7564 12.1138V5.78764V5.7938ZM66.7717 5.84918C65.7256 5.84918 64.9933 6.21226 64.5625 6.82764C64.1379 7.43687 63.9533 8.42764 63.9533 9.84303V11.4369C63.9533 12.7907 64.1379 13.8369 64.5625 14.4523C64.9933 15.1292 65.6702 15.4307 66.7164 15.4307C67.5779 15.4307 68.181 15.2461 68.6733 14.8153C69.104 14.3846 69.3441 13.7753 69.3441 12.9138V12.6061L67.5594 12.4769C67.5594 13.0923 67.5102 13.4615 67.3871 13.7076C67.3256 13.9538 67.0794 14.0892 66.7717 14.0892C66.5871 14.0892 66.3964 14.0215 66.2733 13.8984C66.1502 13.7138 66.0887 13.5353 66.0271 13.2276C65.9656 12.92 65.9717 12.483 65.9717 11.8676V11.3876L69.4856 11.3323V9.71995C69.4856 8.73533 69.4241 8.00918 69.2394 7.45533C69.1164 6.90764 68.8025 6.47687 68.4333 6.23072C68.0025 5.98457 67.5225 5.86764 66.784 5.86764L66.7717 5.84918ZM35.701 5.90456C35.0302 5.90456 34.4641 6.01533 34.0333 6.32303C33.6025 6.56918 33.2948 7.01226 33.1164 7.62764C32.9317 8.24303 32.8087 9.02457 32.8087 10.0092V11.3692C32.8087 12.2923 32.8702 13.0799 33.0548 13.6953C33.1779 14.2492 33.4856 14.6923 33.9164 15C34.341 15.3076 34.9687 15.4184 35.6456 15.48C36.3779 15.48 36.9256 15.3076 37.3564 15.0615C37.781 14.8153 38.0271 14.3907 38.2733 13.7753C38.5133 13.16 38.5748 12.36 38.5748 11.3753V10.0153C38.5748 9.03072 38.4517 8.24918 38.2733 7.6338C38.0887 7.0861 37.781 6.63687 37.3564 6.32918C36.9256 6.02149 36.384 5.91072 35.7071 5.91072L35.701 5.90456ZM43.1964 5.95995V13.283C43.1348 13.4676 43.0179 13.5784 42.8333 13.7015C42.7102 13.8246 42.5194 13.8923 42.3348 13.8923C42.1502 13.8923 41.9779 13.8307 41.9164 13.6461C41.8548 13.4615 41.8056 13.2153 41.8056 12.7846V6.02149H39.7133V12.92C39.7133 13.7815 39.8241 14.3907 40.1317 14.8215C40.4333 15.2523 40.8764 15.4369 41.4917 15.4369C42.3533 15.4369 43.0179 15.0123 43.4487 14.1507H43.504L43.6948 15.2461H45.2887V6.02149C45.2887 6.02149 43.1964 6.02149 43.1964 5.9661V5.95995ZM53.8487 5.95995V13.283C53.7871 13.4676 53.6702 13.5784 53.4856 13.7015C53.3625 13.8246 53.1717 13.8923 52.9871 13.8923C52.8025 13.8923 52.6302 13.8307 52.5687 13.6461C52.5071 13.4615 52.4394 13.2153 52.4394 12.7846V6.02149H50.3471V12.92C50.3471 13.7815 50.4764 14.3907 50.784 14.8215C51.0917 15.2523 51.5102 15.4369 52.1256 15.4369C52.981 15.4369 53.6702 15.0123 54.101 14.1507H54.1564L54.3287 15.2461H55.941V6.02149C55.941 6.02149 53.8487 6.02149 53.8487 5.9661V5.95995ZM66.7102 7.2461C66.9564 7.2461 67.0671 7.3138 67.1902 7.43687C67.3133 7.62149 67.3748 7.79995 67.4364 8.10764C67.4979 8.41533 67.4917 8.85226 67.4917 9.46764V10.1384H65.9533V9.46764C65.9533 8.85226 65.9533 8.41533 66.0087 8.10764C66.0087 7.86149 66.0764 7.61533 66.1994 7.49226C66.3225 7.30764 66.5133 7.2461 66.6979 7.2461H66.7102ZM35.6394 7.31995C35.9471 7.31995 36.1317 7.43072 36.2548 7.73841C36.3717 8.0461 36.4271 8.53841 36.4271 9.21533V12.0953C36.4271 12.7723 36.3779 13.2646 36.2548 13.5723C36.1317 13.88 35.9471 13.9907 35.6394 13.9907C35.3317 13.9907 35.1533 13.88 35.0302 13.5723C34.9071 13.2646 34.8394 12.7723 34.8394 12.0953V9.21533C34.8394 8.53841 34.9071 8.0461 35.0302 7.73841C35.1533 7.43072 35.3317 7.31995 35.6394 7.31995ZM60.0579 7.37533C60.2425 7.37533 60.4333 7.43687 60.5564 7.62149C60.6794 7.8061 60.7225 8.0338 60.784 8.46457C60.8456 8.8338 60.8579 9.3938 60.8579 10.1323L60.9133 11.3015C60.9133 11.9784 60.9133 12.5261 60.8579 12.8953C60.7964 13.2646 60.741 13.5599 60.5564 13.683C60.4333 13.8676 60.2487 13.9292 60.0025 13.9292C59.8179 13.9292 59.6887 13.8799 59.504 13.8184C59.381 13.7569 59.2641 13.6399 59.141 13.4553V8.22457C59.2025 7.97841 59.3194 7.7938 59.504 7.60918C59.6887 7.42456 59.8733 7.36303 60.0579 7.36303V7.37533Z" fill="white"/>
</g>
</svg>
