<svg width="296" height="278" viewBox="0 0 296 278" fill="none" xmlns="http://www.w3.org/2000/svg">
<path d="M148 70.8C164.138 70.8 179.614 77.0371 191.025 88.1393C202.436 99.2414 208.847 114.299 208.847 130C208.847 145.701 202.436 160.759 191.025 171.861C179.614 182.963 164.138 189.2 148 189.2C131.862 189.2 116.386 182.963 104.975 171.861C93.5637 160.759 87.1531 145.701 87.1531 130C87.1531 114.299 93.5637 99.2414 104.975 88.1393C116.386 77.0371 131.862 70.8 148 70.8ZM148 100.4C139.931 100.4 132.193 103.519 126.487 109.07C120.782 114.621 117.577 122.15 117.577 130C117.577 137.85 120.782 145.379 126.487 150.93C132.193 156.481 139.931 159.6 148 159.6C156.069 159.6 163.807 156.481 169.513 150.93C175.218 145.379 178.423 137.85 178.423 130C178.423 122.15 175.218 114.621 169.513 109.07C163.807 103.519 156.069 100.4 148 100.4ZM117.577 278C113.774 278 110.579 275.336 109.971 271.784L104.342 232.564C94.7589 228.864 86.5446 223.832 78.6345 217.912L40.7573 232.86C37.4107 234.044 33.3035 232.86 31.4781 229.604L1.05465 178.396C-0.922872 175.14 -0.0101662 171.144 2.88006 168.924L34.9768 144.356L33.912 130L34.9768 115.2L2.88006 91.076C-0.0101662 88.856 -0.922872 84.86 1.05465 81.604L31.4781 30.396C33.3035 27.14 37.4107 25.808 40.7573 27.14L78.6345 41.94C86.5446 36.168 94.7589 31.136 104.342 27.436L109.971 -11.784C110.579 -15.336 113.774 -18 117.577 -18H178.423C182.226 -18 185.421 -15.336 186.029 -11.784L191.658 27.436C201.241 31.136 209.455 36.168 217.365 41.94L255.243 27.14C258.589 25.808 262.696 27.14 264.522 30.396L294.945 81.604C296.923 84.86 296.01 88.856 293.12 91.076L261.023 115.2L262.088 130L261.023 144.8L293.12 168.924C296.01 171.144 296.923 175.14 294.945 178.396L264.522 229.604C262.696 232.86 258.589 234.192 255.243 232.86L217.365 218.06C209.455 223.832 201.241 228.864 191.658 232.564L186.029 271.784C185.421 275.336 182.226 278 178.423 278H117.577ZM136.591 11.6L130.963 50.228C112.709 53.928 96.5843 63.4 84.8713 76.572L48.211 61.18L36.8022 80.42L68.899 103.36C62.8143 120.676 62.8143 139.472 68.899 156.64L36.6501 179.728L48.0589 198.968L85.0234 183.576C96.7365 196.6 112.709 206.072 130.811 209.624L136.439 248.4H159.561L165.189 209.772C183.291 206.072 199.264 196.6 210.977 183.576L247.941 198.968L259.35 179.728L227.101 156.788C233.186 139.472 233.186 120.676 227.101 103.36L259.198 80.42L247.789 61.18L211.129 76.572C199.416 63.4 183.291 53.928 165.037 50.376L159.409 11.6H136.591Z" fill="white" fill-opacity="0.1"/>
</svg>
