<svg width="457" height="457" viewBox="0 0 457 457" fill="none" xmlns="http://www.w3.org/2000/svg">
<path d="M402.016 392.522C390.12 404.783 379.477 411.991 371.328 417.432C291.852 470.499 201.002 455.204 172.914 449.976C127.596 441.542 89.3423 435.591 56.4752 405.897C-18.2087 338.423 -14.5763 197.667 42.4914 110.475C49.258 100.137 106.239 15.6726 197.286 3.77099C199.512 3.4799 201.174 3.31408 202.629 3.16003C216.714 1.66875 303.994 -6.20168 375.162 53.4229C385.349 61.9578 401.744 77.3528 416.947 100.832C472.536 186.685 472.712 319.652 402.016 392.522Z" fill="url(#paint0_linear_1445_16603)"/>
<path d="M33.1865 23.62C32.4506 21.3487 35.099 19.4822 37.0128 20.9097C56.4478 35.4043 104.254 79.9905 103.549 167.485C102.664 277.261 129.71 314.206 160.525 335.114C160.525 335.114 120.68 328.164 91.8648 290.831C21.117 199.171 46.2709 64.005 33.1865 23.62Z" fill="#23B643"/>
<path d="M50.3942 55.9195C53.9613 67.7236 57.2936 79.5916 60.1872 91.5646C63.1432 103.52 65.7354 115.56 67.9487 127.663C70.1154 139.774 72.0544 151.924 73.4745 164.138C74.9495 176.345 75.8985 188.601 76.8084 200.91C77.7863 213.207 78.7016 225.601 80.8885 237.938C83.0596 250.252 86.7354 262.504 92.5409 273.722C93.9911 276.517 95.4981 279.297 97.1537 281.96C98.7608 284.655 100.487 287.28 102.26 289.872C105.833 295.041 109.755 299.982 114.025 304.609C122.591 313.843 132.557 321.765 143.276 328.21C144.404 328.888 145.868 328.523 146.547 327.395C147.213 326.287 146.873 324.855 145.792 324.162L145.785 324.157C143.222 322.515 140.681 320.847 138.223 319.07C136.98 318.202 135.778 317.28 134.559 316.381C133.376 315.437 132.155 314.539 131.002 313.559C126.326 309.72 121.924 305.557 117.852 301.089C109.673 292.203 102.78 282.049 97.2147 271.343C94.4919 265.957 92.1706 260.379 90.2866 254.642C88.4067 248.903 86.965 243.011 85.8584 237.032C83.6431 225.068 82.6359 212.808 81.5697 200.519C80.4872 188.229 79.3149 175.885 77.6367 163.61C76.8142 157.47 75.8815 151.346 74.8396 145.242C74.3362 142.187 73.7738 139.143 73.217 136.097C72.6309 133.058 72.0281 130.021 71.4006 126.991C68.8684 114.872 65.9677 102.837 62.6907 90.9103C59.3568 78.9993 55.7076 67.1806 51.6095 55.5226C51.4922 55.1893 51.1274 55.0141 50.7941 55.1314C50.4708 55.2451 50.2966 55.5944 50.3942 55.9195Z" fill="white"/>
<path d="M128.798 398.854C128.035 403.186 123.095 405.331 119.377 402.98C98.8628 390.003 44.1793 348.07 34.2794 264.86C25.9195 194.593 14.7089 157.286 8.44599 140.702C7.12169 137.195 11.0439 134.036 14.192 136.071C48.9241 158.521 156.448 241.861 128.798 398.854Z" fill="#30BB54"/>
<path d="M122.938 399.914C122.858 399.989 122.771 400.057 122.676 400.118C121.875 400.627 120.814 400.39 120.305 399.59C119.728 398.682 62.4454 307.721 46.4078 210.544C46.2538 209.609 46.887 208.725 47.8231 208.57C48.7591 208.416 49.6429 209.049 49.7978 209.985C65.7183 306.454 122.631 396.846 123.204 397.747C123.652 398.452 123.522 399.36 122.938 399.914Z" fill="#BDD0FB"/>
<path d="M357.321 444.986L115.118 446.028C95.1934 446.114 78.8383 431.887 78.2476 413.955C75.6239 334.308 69.092 101.825 70.0071 25.9922C70.1643 12.9585 81.7015 2.35085 96.1692 1.91258C152.43 0.208223 287.723 -2.74865 350.577 5.76922C363.814 7.56287 373.749 17.5746 374.229 29.6207C376.887 96.3527 385.489 345.561 383.925 421.362C383.655 434.435 371.842 444.923 357.321 444.986Z" fill="url(#paint1_linear_1445_16603)"/>
<path d="M347.868 425.411L122.589 426.38C111.201 426.429 101.886 418.352 101.672 408.243L94.4275 44.5894C94.2155 34.5666 103.263 26.3112 114.554 26.2253L337.817 24.5818C345.89 24.5203 352.53 30.2023 352.757 37.3674L363.873 410.725C364.127 418.738 356.897 425.372 347.868 425.411Z" fill="#E2F0FC"/>
<path d="M225.874 16.7032C226.503 14.0364 224.852 11.364 222.185 10.7343C219.518 10.1046 216.846 11.756 216.216 14.4228C215.587 17.0896 217.238 19.7619 219.905 20.3916C222.572 21.0214 225.244 19.37 225.874 16.7032Z" fill="white"/>
<path d="M377.844 287.23C411.721 287.23 439.183 259.767 439.183 225.89C439.183 192.013 411.721 164.55 377.844 164.55C343.967 164.55 316.504 192.013 316.504 225.89C316.504 259.767 343.967 287.23 377.844 287.23Z" fill="white"/>
<path d="M437.151 305.644H134.871C126.45 305.644 119.623 298.817 119.623 290.396V100.208C119.623 91.787 126.45 84.9602 134.871 84.9602H437.15C445.572 84.9602 452.398 91.787 452.398 100.208V290.396C452.398 298.817 445.572 305.644 437.151 305.644Z" fill="#32CB4F"/>
<path opacity="0.52" d="M126.674 259.776C126.218 259.776 125.848 259.406 125.848 258.951V107.754C125.848 98.5446 133.34 91.0518 142.551 91.0518H216.446C216.901 91.0518 217.271 91.4217 217.271 91.8776C217.271 92.3335 216.901 92.7035 216.446 92.7035H142.551C134.251 92.7035 127.5 99.4553 127.5 107.754V258.951C127.499 259.406 127.129 259.776 126.674 259.776Z" fill="white"/>
<path opacity="0.52" d="M428.913 299.099H348.115C347.659 299.099 347.289 298.729 347.289 298.273C347.289 297.817 347.659 297.447 348.115 297.447H428.913C437.212 297.447 443.964 290.695 443.964 282.396V249.117C443.964 248.661 444.334 248.291 444.79 248.291C445.246 248.291 445.616 248.661 445.616 249.117V282.396C445.616 291.606 438.123 299.099 428.913 299.099Z" fill="white"/>
<path opacity="0.52" d="M444.789 233.486C444.333 233.486 443.963 233.116 443.963 232.66V221.066C443.963 220.61 444.333 220.24 444.789 220.24C445.245 220.24 445.615 220.61 445.615 221.066V232.66C445.615 233.116 445.245 233.486 444.789 233.486Z" fill="white"/>
<path opacity="0.52" d="M276.255 92.7035H238.611C238.155 92.7035 237.785 92.3335 237.785 91.8776C237.785 91.4217 238.155 91.0518 238.611 91.0518H276.255C276.711 91.0518 277.081 91.4217 277.081 91.8776C277.081 92.3335 276.711 92.7035 276.255 92.7035Z" fill="white"/>
<path opacity="0.52" d="M295.146 115.591H136.939C136.217 115.591 135.631 115.005 135.631 114.282V107.289C135.631 106.567 136.217 105.981 136.939 105.981H295.146C295.869 105.981 296.454 106.567 296.454 107.289V114.282C296.454 115.005 295.869 115.591 295.146 115.591Z" fill="white"/>
<path opacity="0.52" d="M295.547 132.007H137.34C136.617 132.007 136.031 131.421 136.031 130.698V123.705C136.031 122.983 136.617 122.397 137.34 122.397H295.547C296.269 122.397 296.855 122.983 296.855 123.705V130.698C296.855 131.421 296.269 132.007 295.547 132.007Z" fill="white"/>
<path opacity="0.52" d="M295.146 149.997H136.939C136.217 149.997 135.631 149.411 135.631 148.688V141.695C135.631 140.973 136.217 140.387 136.939 140.387H295.146C295.869 140.387 296.454 140.973 296.454 141.695V148.688C296.454 149.411 295.869 149.997 295.146 149.997Z" fill="white"/>
<path opacity="0.52" d="M295.146 167.889H136.939C136.217 167.889 135.631 167.303 135.631 166.581V159.588C135.631 158.866 136.217 158.28 136.939 158.28H295.146C295.869 158.28 296.454 158.866 296.454 159.588V166.581C296.454 167.303 295.869 167.889 295.146 167.889Z" fill="white"/>
<path opacity="0.52" d="M435.121 274.296H279.799C279.076 274.296 278.49 273.71 278.49 272.988V265.995C278.49 265.272 279.076 264.687 279.799 264.687H435.121C435.843 264.687 436.429 265.272 436.429 265.995V272.988C436.429 273.71 435.843 274.296 435.121 274.296Z" fill="white"/>
<path opacity="0.52" d="M434.726 292.286H279.404C278.681 292.286 278.096 291.7 278.096 290.977V283.985C278.096 283.262 278.681 282.676 279.404 282.676H434.726C435.449 282.676 436.035 283.262 436.035 283.985V290.977C436.035 291.7 435.449 292.286 434.726 292.286Z" fill="white"/>
<path opacity="0.52" d="M173.031 230.363C181.597 230.79 182.867 222.609 191.271 221.728C205.464 220.241 208.928 243.012 222.514 242.463C233.553 242.017 236.323 226.659 247.194 228.226C255.246 229.386 256.828 238.315 264.65 239.488C266.209 239.721 267.742 239.6 269.236 239.212V282.372C269.236 287.761 266.169 292.127 262.389 292.118L137.107 291.826L135.672 208.7C143.004 209.504 148.345 212.169 152.163 214.879C161.325 221.38 164.359 229.932 173.031 230.363Z" fill="white"/>
<path opacity="0.52" d="M369.97 258.95C405.245 258.95 433.841 230.354 433.841 195.08C433.841 159.805 405.245 131.209 369.97 131.209C334.695 131.209 306.1 159.805 306.1 195.08C306.1 230.354 334.695 258.95 369.97 258.95Z" fill="white"/>
<path opacity="0.71" d="M369.97 198.217L358.206 132.294C328.551 137.817 306.1 163.824 306.1 195.08C306.1 196.683 306.16 198.271 306.276 199.845L369.97 198.217Z" fill="white"/>
<path d="M384.077 175.202C384.077 175.202 390.332 178.245 391.482 181.74C392.405 184.545 399.322 184.906 400.005 190.422C400.358 193.27 402.465 195.55 405.302 195.985C412.366 197.068 423.253 200.736 424.995 213.001C426.324 222.363 421.552 225.913 416.543 227.142C412.864 228.044 410.419 231.623 411.164 235.337C411.877 238.899 410.813 243.017 404.642 246.274C390.812 253.571 377 228.985 377 228.985L374.17 186.057L384.077 175.202Z" fill="url(#paint2_linear_1445_16603)"/>
<path d="M308.824 165.025C308.824 165.025 336.437 208.701 369.273 217.138C369.273 217.138 362.875 235.361 357.936 237.446C357.936 237.446 317.54 203.74 307.158 171.231L308.824 165.025Z" fill="url(#paint3_linear_1445_16603)"/>
<path d="M440.925 444.379L441.82 451.736C441.99 453.132 443.089 454.235 444.486 454.395C446.844 454.664 450.629 454.94 454.332 454.549C455.957 454.377 457.013 452.731 456.518 451.174C455.615 448.334 453.963 444.07 451.582 441.561H443.421C441.912 441.561 440.743 442.881 440.925 444.379Z" fill="url(#paint4_linear_1445_16603)"/>
<path d="M377 358.195L375.622 366.298C375.622 366.298 380.235 413.024 381.056 431.714C381.185 434.644 380.426 437.54 378.888 440.038L370.867 453.064L391.253 441.034L391.659 438.546L388.322 433.958L392.693 381.613C392.95 378.538 392.315 375.454 390.865 372.731L386.648 364.809L377 358.195Z" fill="url(#paint5_linear_1445_16603)"/>
<path d="M369.527 454.95H376.033C377.25 454.95 378.399 454.392 379.141 453.426C381.169 450.791 385.371 445.65 387.381 445.516C390.085 445.335 389.739 454.95 389.739 454.95H391.255L393.176 443.002C393.659 439.996 392.164 437.017 389.464 435.609C389.464 435.609 388.846 440.181 385.493 442.204C382.141 444.227 371.851 451.469 371.851 451.469C371.851 451.469 370.591 451.29 369.207 451.54C367.154 451.911 367.441 454.95 369.527 454.95Z" fill="url(#paint6_linear_1445_16603)"/>
<path d="M404.924 362.044C404.924 362.044 431.948 413.306 436.244 425.01C440.54 436.715 442.045 446.478 442.102 447.403C442.193 448.848 443.989 450.233 448.943 450.233C451.499 450.233 452.751 449.209 453.364 448.217C453.887 447.371 453.914 446.312 453.473 445.42C451.91 442.256 446.949 432.146 445.112 427.56C442.918 422.085 438.2 397.274 435.612 388.647C433.024 380.021 430.099 370.663 418.829 362.043C418.829 362.043 411.093 354.467 404.924 362.044Z" fill="url(#paint7_linear_1445_16603)"/>
<path d="M387.851 278.047C380.88 248.507 398.54 231.8 398.54 231.8C387.397 221.104 367.094 216.237 367.094 216.237C367.094 216.237 347.721 230.401 350.02 241.487C351.367 247.984 363.637 280.405 363.637 280.405C363.637 280.405 374.983 285.775 387.851 278.047Z" fill="url(#paint8_linear_1445_16603)"/>
<path d="M403.307 292.671C400.47 284.124 387.851 278.047 387.851 278.047C374.983 285.775 363.637 280.405 363.637 280.405C363.637 280.405 361.092 290.131 362.849 299.17C364.605 308.209 375.623 366.297 375.623 366.297C392.985 369.815 419.686 362.758 419.686 362.758C408.628 343.125 406.144 301.217 403.307 292.671Z" fill="url(#paint9_linear_1445_16603)"/>
<path d="M379.76 196.717L385.428 222.175C385.97 224.417 383.926 224.05 381.659 223.623C377.946 222.923 373.161 221.481 371.562 218.592C371.399 218.298 371.317 217.966 371.271 217.633L368.837 199.98C368.643 198.58 369.4 197.22 370.693 196.647L375.392 194.564C377.201 193.761 379.295 194.794 379.76 196.717Z" fill="url(#paint10_linear_1445_16603)"/>
<path d="M398.54 231.801C398.54 231.801 438.097 260.102 403.599 289.841C403.599 289.841 402.284 291.329 399.696 292.102C398.389 292.493 394.525 295.417 392.565 296.941C391.935 297.432 391.025 297.265 390.602 296.588C390.27 296.058 390.231 295.395 390.498 294.83L395.395 284.474C396.755 283.205 398.837 283.115 400.301 284.262C401.236 284.994 402.604 284.687 403.127 283.622C405.794 278.191 410.83 262.216 390.219 244.165C389.444 243.487 389.248 242.364 389.724 241.451C391.172 238.669 394.484 233.145 398.54 231.801Z" fill="url(#paint11_linear_1445_16603)"/>
<path d="M368.902 173.509C368.902 173.509 362.868 177.594 360.276 187.995C357.683 198.397 361.896 202.128 366.215 201.899C370.534 201.67 376.797 200.335 382.223 192.873C387.649 185.411 376.809 168.518 368.902 173.509Z" fill="url(#paint12_linear_1445_16603)"/>
<path d="M376.75 188.677C376.75 188.677 378.961 173.773 366.587 176.053L364.084 178.658C364.084 178.658 358.028 171.836 364.73 166.68C371.433 161.524 380.735 162.845 385.881 172.231C391.027 181.618 392.895 188.214 388.581 194.048C384.268 199.881 381.024 194.878 381.024 194.878C381.024 194.878 383.002 189.829 381.36 187.663C379.719 185.497 377.601 188.923 377.601 188.923L376.75 188.677Z" fill="url(#paint13_linear_1445_16603)"/>
<path d="M378.443 189.954C378.443 189.954 379.535 182.286 383.451 184.478C387.367 186.67 382.04 191.641 379.904 193.332L378.443 189.954Z" fill="url(#paint14_linear_1445_16603)"/>
<path d="M309.015 174.017C308.932 174.918 312.282 175.541 313.348 171.7C313.055 170.032 312.535 162.73 311.256 161.595C304.446 155.553 292.303 148.756 292.303 148.756C290.945 150.83 292.727 152.195 292.727 152.195L298.788 156.286C298.156 158.38 297.233 160.232 297.129 162.623C297.05 164.433 297.718 166.206 298.92 167.58C300.126 168.958 301.751 170.738 303.214 172.089C305.985 174.646 309.015 174.017 309.015 174.017Z" fill="url(#paint15_linear_1445_16603)"/>
<path d="M305.723 171.04L306.649 170.659C306.526 170.359 303.617 163.291 302.21 161.82C301.676 161.262 301.417 160.785 301.441 160.4C301.453 160.191 301.556 159.985 301.752 159.776L306.657 162.399L308.823 165.791L309.668 165.251L307.361 161.638L301.616 158.566L301.357 158.777C300.776 159.252 300.475 159.762 300.441 160.338C300.399 161.024 300.74 161.735 301.485 162.514C302.545 163.621 304.904 169.044 305.723 171.04Z" fill="url(#paint16_linear_1445_16603)"/>
<path d="M189.508 438.224C189.508 438.224 188.471 444.094 187.963 449.905C187.764 452.175 189.515 454.147 191.792 454.242C199.53 454.564 216.082 455.191 222.021 454.926C222.914 454.886 223.497 453.972 223.167 453.142C222.89 452.446 222.356 451.883 221.676 451.571L194.336 439.005L189.508 438.224Z" fill="url(#paint17_linear_1445_16603)"/>
<path d="M188.66 434.776L189.493 441.797C189.493 441.797 194.282 444.026 197.553 441.516L195.57 433.692L188.66 434.776Z" fill="url(#paint18_linear_1445_16603)"/>
<path d="M189.288 302.777C188.928 304.611 187.356 394.274 196.941 434.455C197.097 435.111 196.765 435.787 196.141 436.041C194.671 436.642 191.789 437.512 188.335 437.628C187.265 437.664 186.306 436.969 186.005 435.942C183.265 426.619 170.137 379.91 168.425 335.291C166.511 285.433 168.425 333.593 168.425 333.593L169.547 302.774L189.288 302.777Z" fill="url(#paint19_linear_1445_16603)"/>
<path d="M158.058 441.287C158.058 441.287 156.408 444.25 154.81 452.124C154.521 453.546 155.515 454.907 156.959 455.049C159.514 455.3 163.447 455.623 166.598 455.602C168.051 455.592 169.184 454.327 169.009 452.885C168.66 450.011 167.573 445.296 164.214 441.62L158.058 441.287Z" fill="url(#paint20_linear_1445_16603)"/>
<path d="M156.609 432.256L158.556 442.874C158.556 442.874 160.48 444.306 164.288 443.268L163.359 431.844L156.609 432.256Z" fill="url(#paint21_linear_1445_16603)"/>
<path d="M151.352 305.529C143.513 352.836 153.052 422.452 156.269 436.077C156.466 436.912 157.139 437.551 157.985 437.691C159.421 437.929 161.785 438.123 164.116 437.446C164.919 437.213 165.483 436.489 165.516 435.653C165.948 424.637 165.171 357.011 172.475 330.284C172.845 328.93 173.672 327.748 174.816 326.935L188.993 316.857L190.08 300.566L151.352 305.529Z" fill="url(#paint22_linear_1445_16603)"/>
<path d="M201.299 215.891C177.808 215.503 151.888 222.059 151.888 222.059C144.886 262.917 150.664 310.043 150.664 310.043C168.85 314.812 189.365 307.127 189.365 307.127C191.858 293.042 208.812 243.745 208.675 225.595C208.646 221.739 202.569 215.912 201.299 215.891Z" fill="url(#paint23_linear_1445_16603)"/>
<path d="M160.9 244.805L151.89 222.059C151.89 222.059 129.948 236.968 126.34 255.87C130.486 256.176 138.03 257.254 145.414 260.983C147.037 252.057 160.9 244.805 160.9 244.805Z" fill="url(#paint24_linear_1445_16603)"/>
<path d="M180.073 266.209C180.073 266.209 155.438 280.132 147.126 268.243C145.4 265.775 144.987 263.321 145.413 260.983C138.028 257.254 130.484 256.176 126.338 255.87C125.25 261.569 125.825 267.629 129.174 273.755C143.734 300.39 183.334 272.283 183.334 272.283L180.073 266.209Z" fill="url(#paint25_linear_1445_16603)"/>
<path d="M177.114 283.823L189.772 239.619C190.404 237.414 192.304 235.811 194.583 235.559C197.994 235.182 203.384 234.618 209.362 234.112C217.901 233.39 227.637 232.787 234.511 233.019C236.847 233.098 238.309 235.58 237.266 237.672C232.366 247.504 220.059 271.759 212.467 282.894C211.193 284.762 209.066 285.86 206.805 285.839L178.423 285.575C177.515 285.566 176.865 284.695 177.114 283.823Z" fill="url(#paint26_linear_1445_16603)"/>
<path d="M180.363 272.479C180.363 272.479 178.49 264.778 179.246 262.045C180.002 259.313 181.465 255.8 186.344 256.581C191.223 257.362 196.979 259.417 196.979 259.417C196.979 259.417 196.688 262.976 192.98 261.828L195.279 263.607C195.279 263.607 194.951 266.457 191.819 264.934L193.957 267.294C193.957 267.294 192.612 269.634 190.308 268.133C188.003 266.632 186.899 273.406 180.363 272.479Z" fill="url(#paint27_linear_1445_16603)"/>
<path d="M177.506 196.82L170.032 218.436C169.908 218.794 170.055 219.19 170.387 219.374C172.424 220.5 179.765 223.757 188.611 218.148C189.532 217.564 190.159 216.611 190.3 215.529L192.72 196.82L177.506 196.82Z" fill="url(#paint28_linear_1445_16603)"/>
<path d="M193.768 176.803C193.768 176.803 201.976 192.253 200.923 198.494C199.871 204.736 189.699 204.288 180.816 199.219L174.609 182.536L193.768 176.803Z" fill="url(#paint29_linear_1445_16603)"/>
<path d="M181.209 191.026C181.569 190.866 181.703 190.424 181.487 190.094C180.829 189.09 179.596 187.04 179.203 185.246C179.203 185.246 177.727 184.301 182.958 183.049C188.189 181.797 195.99 179.853 197.63 175.401C199.228 171.06 190.654 165.425 183.953 174.123C183.698 174.454 187.572 169.179 187.318 168.848C186.219 167.418 183.331 164.451 179.322 166.25C175.569 167.933 175.146 170.683 175.198 172.069C175.213 172.477 174.849 172.794 174.448 172.717C172.551 172.355 167.998 172.045 165.873 176.715C164.123 180.561 165.261 182.739 166.297 183.804C166.632 184.149 166.485 184.717 166.025 184.858C164.778 185.24 165.198 184.631 165.359 187.552C165.581 191.591 168.067 192.901 169.353 192.717C169.563 192.687 169.775 192.759 169.918 192.917C171.02 194.136 175.987 199.316 181.362 199.94C181.827 199.994 182.188 199.535 182.035 199.092L179.709 192.33C179.601 192.016 179.751 191.671 180.055 191.537L181.209 191.026Z" fill="url(#paint30_linear_1445_16603)"/>
<path d="M182.143 191.986C182.143 191.986 176.299 187.976 175.872 191.352C175.445 194.729 181.135 196.243 183.953 194.985L182.143 191.986Z" fill="url(#paint31_linear_1445_16603)"/>
<defs>
<linearGradient id="paint0_linear_1445_16603" x1="-5.8156e-05" y1="229.04" x2="457" y2="229.04" gradientUnits="userSpaceOnUse">
<stop stop-color="#DAE3FE"/>
<stop offset="1" stop-color="#E9EFFD"/>
</linearGradient>
<linearGradient id="paint1_linear_1445_16603" x1="129.946" y1="370.567" x2="380.725" y2="-53.1144" gradientUnits="userSpaceOnUse">
<stop stop-color="#09005D"/>
<stop offset="1" stop-color="#1A0F91"/>
</linearGradient>
<linearGradient id="paint2_linear_1445_16603" x1="373.074" y1="150.165" x2="391.63" y2="196.71" gradientUnits="userSpaceOnUse">
<stop stop-color="#09005D"/>
<stop offset="1" stop-color="#1A0F91"/>
</linearGradient>
<linearGradient id="paint3_linear_1445_16603" x1="329.444" y1="185.637" x2="379.381" y2="254.664" gradientUnits="userSpaceOnUse">
<stop stop-color="#FF928E"/>
<stop offset="1" stop-color="#FEB3B1"/>
</linearGradient>
<linearGradient id="paint4_linear_1445_16603" x1="440.906" y1="448.152" x2="456.64" y2="448.152" gradientUnits="userSpaceOnUse">
<stop stop-color="#4042E2"/>
<stop offset="1" stop-color="#4F52FF"/>
</linearGradient>
<linearGradient id="paint5_linear_1445_16603" x1="374.419" y1="510.199" x2="397.062" y2="245.565" gradientUnits="userSpaceOnUse">
<stop stop-color="#FF928E"/>
<stop offset="1" stop-color="#FEB3B1"/>
</linearGradient>
<linearGradient id="paint6_linear_1445_16603" x1="367.807" y1="445.28" x2="393.266" y2="445.28" gradientUnits="userSpaceOnUse">
<stop stop-color="#4042E2"/>
<stop offset="1" stop-color="#4F52FF"/>
</linearGradient>
<linearGradient id="paint7_linear_1445_16603" x1="419.968" y1="514.137" x2="442.616" y2="249.433" gradientUnits="userSpaceOnUse">
<stop stop-color="#FF928E"/>
<stop offset="1" stop-color="#FEB3B1"/>
</linearGradient>
<linearGradient id="paint8_linear_1445_16603" x1="374.979" y1="243.332" x2="386.301" y2="348.373" gradientUnits="userSpaceOnUse">
<stop stop-color="#4042E2"/>
<stop offset="1" stop-color="#4F52FF"/>
</linearGradient>
<linearGradient id="paint9_linear_1445_16603" x1="398.183" y1="308.369" x2="461.502" y2="180.079" gradientUnits="userSpaceOnUse">
<stop stop-color="#4042E2"/>
<stop offset="1" stop-color="#4F52FF"/>
</linearGradient>
<linearGradient id="paint10_linear_1445_16603" x1="371.938" y1="249.349" x2="376.191" y2="218.233" gradientUnits="userSpaceOnUse">
<stop stop-color="#FF928E"/>
<stop offset="1" stop-color="#FEB3B1"/>
</linearGradient>
<linearGradient id="paint11_linear_1445_16603" x1="389.467" y1="264.512" x2="417.722" y2="264.512" gradientUnits="userSpaceOnUse">
<stop stop-color="#FF928E"/>
<stop offset="1" stop-color="#FEB3B1"/>
</linearGradient>
<linearGradient id="paint12_linear_1445_16603" x1="364.362" y1="211.876" x2="387.932" y2="139.88" gradientUnits="userSpaceOnUse">
<stop stop-color="#FF928E"/>
<stop offset="1" stop-color="#FEB3B1"/>
</linearGradient>
<linearGradient id="paint13_linear_1445_16603" x1="361.015" y1="153.907" x2="388.26" y2="195.96" gradientUnits="userSpaceOnUse">
<stop stop-color="#09005D"/>
<stop offset="1" stop-color="#1A0F91"/>
</linearGradient>
<linearGradient id="paint14_linear_1445_16603" x1="372.975" y1="214.695" x2="396.545" y2="142.699" gradientUnits="userSpaceOnUse">
<stop stop-color="#FF928E"/>
<stop offset="1" stop-color="#FEB3B1"/>
</linearGradient>
<linearGradient id="paint15_linear_1445_16603" x1="323.45" y1="189.975" x2="373.387" y2="259.002" gradientUnits="userSpaceOnUse">
<stop stop-color="#FF928E"/>
<stop offset="1" stop-color="#FEB3B1"/>
</linearGradient>
<linearGradient id="paint16_linear_1445_16603" x1="309.668" y1="164.803" x2="300.437" y2="164.803" gradientUnits="userSpaceOnUse">
<stop stop-color="#FF928E"/>
<stop offset="1" stop-color="#FEB3B1"/>
</linearGradient>
<linearGradient id="paint17_linear_1445_16603" x1="204.982" y1="467.767" x2="206.049" y2="440.576" gradientUnits="userSpaceOnUse">
<stop stop-color="#4042E2"/>
<stop offset="1" stop-color="#4F52FF"/>
</linearGradient>
<linearGradient id="paint18_linear_1445_16603" x1="188.66" y1="438.201" x2="197.553" y2="438.201" gradientUnits="userSpaceOnUse">
<stop stop-color="#FF928E"/>
<stop offset="1" stop-color="#FEB3B1"/>
</linearGradient>
<linearGradient id="paint19_linear_1445_16603" x1="206.559" y1="288.482" x2="164.44" y2="433.834" gradientUnits="userSpaceOnUse">
<stop stop-color="#09005D"/>
<stop offset="1" stop-color="#1A0F91"/>
</linearGradient>
<linearGradient id="paint20_linear_1445_16603" x1="161.377" y1="466.058" x2="162.444" y2="438.866" gradientUnits="userSpaceOnUse">
<stop stop-color="#4042E2"/>
<stop offset="1" stop-color="#4F52FF"/>
</linearGradient>
<linearGradient id="paint21_linear_1445_16603" x1="156.609" y1="437.744" x2="164.288" y2="437.744" gradientUnits="userSpaceOnUse">
<stop stop-color="#FF928E"/>
<stop offset="1" stop-color="#FEB3B1"/>
</linearGradient>
<linearGradient id="paint22_linear_1445_16603" x1="184.139" y1="281.985" x2="142.02" y2="427.337" gradientUnits="userSpaceOnUse">
<stop stop-color="#09005D"/>
<stop offset="1" stop-color="#1A0F91"/>
</linearGradient>
<linearGradient id="paint23_linear_1445_16603" x1="151.8" y1="284.857" x2="235.557" y2="194.706" gradientUnits="userSpaceOnUse">
<stop stop-color="#4042E2"/>
<stop offset="1" stop-color="#4F52FF"/>
</linearGradient>
<linearGradient id="paint24_linear_1445_16603" x1="127.998" y1="262.742" x2="211.755" y2="172.591" gradientUnits="userSpaceOnUse">
<stop stop-color="#4042E2"/>
<stop offset="1" stop-color="#4F52FF"/>
</linearGradient>
<linearGradient id="paint25_linear_1445_16603" x1="172.451" y1="229.862" x2="139.204" y2="294.438" gradientUnits="userSpaceOnUse">
<stop stop-color="#FF928E"/>
<stop offset="1" stop-color="#FEB3B1"/>
</linearGradient>
<linearGradient id="paint26_linear_1445_16603" x1="233.522" y1="231.192" x2="172.611" y2="286.87" gradientUnits="userSpaceOnUse">
<stop stop-color="#09005D"/>
<stop offset="1" stop-color="#1A0F91"/>
</linearGradient>
<linearGradient id="paint27_linear_1445_16603" x1="179.066" y1="264.518" x2="196.979" y2="264.518" gradientUnits="userSpaceOnUse">
<stop stop-color="#FF928E"/>
<stop offset="1" stop-color="#FEB3B1"/>
</linearGradient>
<linearGradient id="paint28_linear_1445_16603" x1="169.988" y1="209.08" x2="192.72" y2="209.08" gradientUnits="userSpaceOnUse">
<stop stop-color="#FF928E"/>
<stop offset="1" stop-color="#FEB3B1"/>
</linearGradient>
<linearGradient id="paint29_linear_1445_16603" x1="198.125" y1="194.618" x2="173.131" y2="179.374" gradientUnits="userSpaceOnUse">
<stop stop-color="#FF928E"/>
<stop offset="1" stop-color="#FEB3B1"/>
</linearGradient>
<linearGradient id="paint30_linear_1445_16603" x1="159.408" y1="163.928" x2="191.697" y2="189.431" gradientUnits="userSpaceOnUse">
<stop stop-color="#09005D"/>
<stop offset="1" stop-color="#1A0F91"/>
</linearGradient>
<linearGradient id="paint31_linear_1445_16603" x1="191.559" y1="200.303" x2="169.072" y2="186.587" gradientUnits="userSpaceOnUse">
<stop stop-color="#FF928E"/>
<stop offset="1" stop-color="#FEB3B1"/>
</linearGradient>
</defs>
</svg>
