<svg width="60" height="59" viewBox="0 0 60 59" fill="none" xmlns="http://www.w3.org/2000/svg">
<g id="Vector">
<path d="M21.9141 0.73291H22.4121L22.8516 0.820801L23.3203 1.02588L23.7305 1.31885L24.5508 2.02197L26.4551 3.6333L26.8652 3.98486L27.1875 4.24854L27.627 4.62939L28.0078 4.95166L28.418 5.30322L28.7402 5.56689L29.1797 5.94775L29.502 6.21143L29.9414 6.59229L30.3223 6.91455L30.6445 7.17822L31.084 7.55908L31.8457 8.20361L32.2559 8.55518L32.5781 8.81885L33.0176 9.19971L33.3984 9.52197L33.8086 9.87354L34.1309 10.1372L34.5703 10.5181L34.8926 10.7817L35.332 11.1626L35.6543 11.4263L36.0938 11.8071L37.6172 13.0962L38.0273 13.4478L38.3496 13.7114L38.7891 14.0923L39.1992 14.4438L39.5215 14.7075L39.9316 15.0591L40.3125 15.3813L40.7227 15.7329L41.0449 15.9966L41.4844 16.3774L41.8066 16.6411L42.2461 17.022L43.0078 17.6665L43.418 18.0181L43.7402 18.2817L44.1797 18.6626L44.5898 19.0142L44.9121 19.2778L45.3223 19.6294L45.7031 19.9517L46.1133 20.3032L46.4355 20.5669L46.875 20.9478L47.1973 21.2114L47.6367 21.5923L48.3984 22.2368L48.8086 22.5884L49.1309 22.8521L49.5703 23.2329L50.332 23.8774L50.6543 24.1411L51.0938 24.522L51.5039 24.8735L51.8262 25.1372L52.2656 25.5181L53.0273 26.1626L53.4375 26.5142L53.7598 26.7778L54.1992 27.1587L54.5215 27.4224L54.9609 27.8032L55.3711 28.1548L55.6934 28.4185L56.1035 28.77L56.4844 29.0923L56.8945 29.4438L57.2168 29.7075L57.6562 30.0884L57.9785 30.3521L58.418 30.7329L58.7988 31.0552L59.1211 31.3188L59.502 31.6997L59.707 32.022L59.8828 32.3735L60 32.6665V33.7505H59.9414L59.8828 34.0142L59.6777 34.4243L59.3848 34.8345L59.0918 35.1567L58.8281 35.479L58.4766 35.8892L58.2129 36.2114L57.9492 36.5044L57.6855 36.8267L57.627 36.9146H57.5684L57.5098 37.0317L56.8652 37.7935L56.5137 38.2036L56.25 38.5259L55.8691 38.9653L55.5176 39.3755L55.2539 39.6978L54.873 40.1372L54.6094 40.4595L54.375 40.7231L54.4336 40.8403L54.9609 41.3677L55.2246 41.6899L55.5469 42.1294L55.8398 42.5981L56.1914 43.272L56.4551 43.9751L56.6309 44.5903L56.748 45.2056L56.8066 45.6157L56.8359 46.1138V46.436L56.8066 46.9927L56.6895 47.7544L56.5137 48.4575L56.2207 49.2485L55.9863 49.7173L55.7227 50.186L55.4297 50.6255L55.0195 51.1528L54.5801 51.6216L54.2578 51.9146L53.7598 52.2954L53.4668 52.5005L52.9688 52.7935L52.2949 53.1157L51.6504 53.3501L50.9473 53.5259L50.2441 53.6431L49.9805 53.6724H48.8965L48.0176 53.5552L47.3145 53.3794L46.7285 53.1743L46.2598 52.9692L45.6445 52.647L45.1172 52.2954L44.8535 52.0903H44.707L44.6484 52.2075L44.3262 52.5884L44.0625 52.9106L43.8281 53.2036H43.7695L43.7109 53.3208L43.3594 53.731L43.0371 54.1118L42.7734 54.4341L41.7188 55.6646L41.4551 55.9868L41.0742 56.4263L40.8105 56.7485L40.4297 57.188L40.0781 57.5981L39.8145 57.9204L39.4922 58.272L39.1992 58.5063L38.7598 58.7407L38.3789 58.8579L37.9688 58.9165L37.4707 58.8872L37.0312 58.77L36.5625 58.5356L36.1816 58.2427L35.8887 57.979L35.5957 57.7446L35.1562 57.3638L34.834 57.1001L34.541 56.8364L34.2188 56.5728L33.3984 55.8696L33.0762 55.606L32.2559 54.9028L31.9336 54.6392L31.4941 54.2583L30.7324 53.6138L30.4102 53.3501L29.9707 52.9692L29.5605 52.6177L29.2383 52.354L28.8281 52.0024L28.5059 51.7388L28.2129 51.4751L27.8906 51.2114L27.4805 50.8599L27.0996 50.5376L26.6895 50.186L26.3086 49.8638L25.9863 49.6001L25.5469 49.2192L25.1367 48.8677L24.8145 48.604L24.375 48.2231L23.9941 47.9009L23.6719 47.6372L22.8516 46.9341L22.4707 46.6118L22.1484 46.3481L21.709 45.9673L21.3281 45.645L20.918 45.2935L20.5957 45.0298L20.1562 44.6489L19.3945 44.0044L18.9844 43.6528L18.6035 43.3306L18.2812 43.0669L17.4609 42.3638L17.0801 42.0415L16.7578 41.7778L16.3184 41.397L15.9375 41.0747L15.5273 40.7231L15.2051 40.4595L14.7656 40.0786L14.0039 39.4341L13.5938 39.0825L13.2129 38.7603L12.8906 38.4966L12.0703 37.7935L11.6895 37.4712L11.3672 37.2075L11.0742 36.9438L10.752 36.6802L10.3125 36.2993L9.99023 36.0356L9.55078 35.6548L9.22852 35.3911L8.93555 35.1274L8.64258 34.8931L8.20312 34.5122L7.88086 34.2485L7.44141 33.8677L7.11914 33.604L6.67969 33.2231L6.29883 32.9009L5.97656 32.6372L5.56641 32.2856L5.12695 31.9048L4.74609 31.5825L4.42383 31.3188L3.98438 30.938L3.22266 30.2935L2.8125 29.9419L2.43164 29.6196L2.10938 29.356L1.28906 28.6528L0.908203 28.3306L0.673828 28.1255L0.380859 27.7739L0.117188 27.2759L0 26.9243V25.8989L0.146484 25.5474L0.351562 25.1372L0.556641 24.8735L0.908203 24.4634L1.17188 24.1411L1.23047 24.0532H1.28906L1.34766 23.936L1.58203 23.6724L1.8457 23.3501L2.10938 23.0571L2.22656 22.8813H2.28516L2.34375 22.7642L2.69531 22.354L3.01758 21.9731L3.22266 21.7095H3.28125L3.33984 21.5923L3.66211 21.2114L3.92578 20.8892L4.18945 20.5962L4.45312 20.2739L4.51172 20.186H4.57031L4.62891 20.0688L5.00977 19.6294L5.27344 19.3071L5.97656 18.4868L6.29883 18.106L6.50391 17.8423H6.5625L6.62109 17.7251L6.94336 17.3442L7.20703 17.022L7.4707 16.729L7.73438 16.4067L7.79297 16.3188H7.85156L7.91016 16.2017L8.26172 15.7915L8.52539 15.4692L8.75977 15.2056L9.02344 14.8833L9.31641 14.561L9.55078 14.2681L9.90234 13.8579L10.2246 13.4771L10.4883 13.1548L10.752 12.8618L11.0156 12.5396L11.0742 12.4517H11.1328L11.1914 12.3345L11.543 11.9243L11.8066 11.6021L12.041 11.3384L12.3047 11.0161L12.3633 10.9282H12.4219L12.4805 10.811L12.7148 10.5474L12.9785 10.2251L13.2422 9.93213L13.3594 9.75635H13.418L13.4766 9.63916L13.8281 9.229L14.1504 8.84814L14.3555 8.58447H14.4141L14.4727 8.46729L14.7949 8.08643L15.0586 7.76416L15.3223 7.47119L15.5859 7.14893L15.6445 7.06104H15.7031L15.7617 6.94385L15.9961 6.68018L16.2598 6.35791L16.6113 5.94775L16.875 5.62549L17.168 5.30322L17.4902 4.89307L17.6367 4.71729H17.6953L17.7539 4.6001L18.0762 4.21924L18.3398 3.89697L18.6035 3.604L18.8672 3.28174L18.9258 3.19385H18.9844L19.043 3.07666L19.3945 2.6665L19.6582 2.34424L19.8926 2.08057L20.1562 1.7583L20.2148 1.67041H20.2734L20.332 1.55322L20.625 1.26025L21.0352 0.996582L21.4453 0.820801L21.9141 0.73291ZM21.9434 2.16846L21.6504 2.28564L21.3574 2.54932L21.0352 2.95947L20.7422 3.28174L20.4785 3.604L20.127 4.01416L19.8047 4.39502L19.541 4.71729L19.248 5.03955L19.0137 5.33252L18.6621 5.74268L18.3984 6.06494L18.0176 6.50439L17.666 6.91455L17.4023 7.23682L17.0215 7.67627L16.7578 7.99854L16.377 8.43799L16.0254 8.84814L15.7617 9.17041L15.3809 9.60986L15.1172 9.93213L14.7363 10.3716L14.4141 10.7524L14.1504 11.0747L13.8867 11.3677L13.623 11.6899L13.2715 12.1001L13.0078 12.4224L12.627 12.8618L12.3047 13.2427L12.041 13.5649L11.6602 14.0044L11.3379 14.3853L10.9863 14.7954L10.6641 15.1763L10.4004 15.4985L10.0195 15.938L9.375 16.6997V16.7583H9.31641L9.05273 17.0806L8.70117 17.4907L8.4375 17.813L8.05664 18.2524L7.73438 18.6333L7.4707 18.9556L7.08984 19.395L6.73828 19.8052L6.47461 20.1274L6.09375 20.5669L5.83008 20.8892L5.44922 21.3286L4.80469 22.0903L4.54102 22.4126L4.24805 22.7349L3.98438 23.0571L3.63281 23.4673L3.36914 23.7896L2.66602 24.6099L2.40234 24.9321L2.02148 25.3716L1.66992 25.7817L1.52344 26.0161L1.43555 26.2798V26.5728L1.52344 26.8657L1.69922 27.1001L2.05078 27.4224L2.37305 27.686L2.7832 28.0376L4.30664 29.3267L4.7168 29.6782L5.03906 29.9419L5.47852 30.3228L5.85938 30.645L6.26953 30.9966L6.5918 31.2603L7.03125 31.6411L8.55469 32.9302L8.96484 33.2817L9.28711 33.5454L9.72656 33.9263L10.1367 34.2778L10.459 34.5415L10.8691 34.8931L11.25 35.2153L11.6602 35.5669L11.9824 35.8306L12.3926 36.1821L12.7734 36.5044L13.1836 36.856L13.5059 37.1196L13.9453 37.5005L15.0879 38.4673L15.498 38.8188L15.8203 39.0825L16.2598 39.4634L16.6406 39.7856L17.0508 40.1372L17.373 40.4009L17.8125 40.7817L18.1348 41.0454L18.5742 41.4263L20.0977 42.7153L20.5078 43.0669L20.8301 43.3306L21.2695 43.7114L21.5918 43.9751L22.0312 44.356L22.4414 44.7075L22.7637 44.9712L23.2031 45.3521L23.5254 45.6157L23.9648 45.9966L24.2871 46.2603L24.7266 46.6411L25.4883 47.2856L25.8984 47.6372L26.2793 47.9595L26.6016 48.2231L27.041 48.604L27.4219 48.9263L27.832 49.2778L28.1543 49.5415L28.5645 49.8931L28.9453 50.2153L29.3555 50.5669L30.1172 51.2114L30.4395 51.4751L30.8789 51.856L31.2891 52.2075L31.6113 52.4712L32.0508 52.8521L32.373 53.1157L32.8125 53.4966L33.2227 53.8481L33.5449 54.1118L33.9551 54.4634L34.3359 54.7856L34.7461 55.1372L35.0684 55.4009L35.5078 55.7817L35.8301 56.0454L36.2695 56.4263L36.6504 56.7485L37.0605 57.1001L37.3828 57.3345L37.6758 57.4517H38.0566L38.4082 57.3052L38.6719 57.0708L38.9062 56.7778L39.082 56.5728V56.5142H39.1406L39.4043 56.1919L39.7559 55.7817L40.0781 55.4009L40.3418 55.0786L40.6348 54.7563L40.8691 54.4634L41.2207 54.0532L41.3672 53.8774V53.8188H41.4258L41.6602 53.5259L41.9238 53.2329L42.1582 52.9399L42.3633 52.7056V52.647H42.4219L42.9492 52.0024L43.2422 51.6802L43.4766 51.3872L43.7988 51.0063L44.0625 50.6841L44.2383 50.479L44.502 50.3325L44.6191 50.3032H44.8535L45.1172 50.4204L45.3516 50.6255L45.4688 50.6841V50.7427L45.9668 51.1235L46.4062 51.4165L46.9629 51.7095L47.5488 51.9438L48.1934 52.1196L48.7793 52.2075L49.0723 52.2368H49.8633L50.6836 52.1196L51.3281 51.9438L51.7969 51.7681L52.2949 51.5337L52.7637 51.2407L53.1738 50.9478L53.4961 50.6548L53.7012 50.479V50.4204L53.7891 50.3911L53.9941 50.1567L54.1992 49.8931V49.8345H54.2578L54.6094 49.2778L54.873 48.7798L55.0781 48.2524L55.2539 47.6372L55.3418 47.1978L55.4004 46.6118V45.9673L55.3125 45.2056L55.166 44.5903L54.9609 44.0044L54.6387 43.3306L54.3164 42.8325L54.0234 42.4517L53.6719 42.0708L53.4668 41.8657L53.1445 41.6021L52.8516 41.3677L52.7051 41.1919L52.6465 41.0747L52.6172 40.8403L52.6758 40.606L52.8223 40.3716L53.1738 39.9614L53.4375 39.6392L53.7012 39.3462L54.0234 38.936L54.375 38.5552L54.6973 38.145L54.7852 38.0571V37.9985H54.8438L55.3711 37.354L55.6641 37.0317L55.9863 36.6216L56.0742 36.5337V36.4751H56.1328L56.6602 35.8306L56.9531 35.5083L57.1875 35.2153L57.3633 35.0103V34.9517H57.4219L57.6855 34.6294L58.0371 34.2192L58.3008 33.897L58.4766 33.6626L58.5645 33.4282L58.5938 33.1646L58.5352 32.8423L58.3887 32.6079L58.0371 32.2563L57.7148 31.9927L57.3047 31.6411L56.9238 31.3188L56.5137 30.9673L56.1914 30.7036L55.752 30.3228L55.3418 29.9712L55.0195 29.7075L54.6094 29.356L54.2871 29.0923L53.9941 28.8286L53.6719 28.5649L53.2617 28.2134L52.9395 27.9497L52.6465 27.686L52.3242 27.4224L51.9434 27.1001L51.5332 26.7485L51.2109 26.4849L50.918 26.2212L50.5957 25.9575L50.1855 25.606L49.8047 25.2837L49.3945 24.9321L49.0723 24.6685L48.6328 24.2876L48.252 23.9653L47.9297 23.7017L47.4902 23.3208L47.0801 22.9692L46.6992 22.647L46.377 22.3833L45.9375 22.0024L45.1758 21.3579L44.7656 21.0063L44.4434 20.7427L44.0039 20.3618L43.6816 20.0981L43.2422 19.7173L42.8613 19.395L42.5391 19.1313L42.0996 18.7505L41.6895 18.3989L41.3086 18.0767L40.9863 17.813L40.5469 17.4321L39.7852 16.7876L39.4629 16.5239L39.1699 16.2603L38.8477 15.9966L38.4375 15.645L38.1152 15.3813L37.8223 15.1177L37.5 14.854L37.0898 14.5024L36.709 14.1802L36.2988 13.8286L35.918 13.5063L35.5957 13.2427L35.1562 12.8618L34.834 12.5981L34.3945 12.2173L34.0723 11.9536L33.7793 11.6899L33.457 11.4263L33.0469 11.0747L32.7246 10.811L32.4316 10.5474L32.1094 10.2837L31.6992 9.93213L30.5566 8.96533L30.2344 8.70166L29.9414 8.43799L29.6191 8.17432L29.1797 7.79346L28.8574 7.52979L28.418 7.14893L27.6562 6.50439L27.334 6.24072L27.041 5.97705L26.7188 5.71338L26.3086 5.36182L25.9863 5.09814L25.5469 4.71729L25.166 4.39502L24.8438 4.13135L24.5508 3.86768L24.2285 3.604L23.7891 3.22314L23.4668 2.95947L23.0273 2.57861L22.6465 2.28564L22.3242 2.16846H21.9434Z" fill="#23B643"/>
<path d="M26.543 18.5454L26.8652 18.5747L27.1582 18.7505L27.5391 19.1021L27.8613 19.3657L28.1543 19.6294L28.4766 19.8931L29.2969 20.5962L29.6191 20.8599L30.0586 21.2407L30.4395 21.563L30.7617 21.8267L31.084 22.1196L31.377 22.5005L31.6113 22.9692L31.7285 23.3794L31.7578 23.6138V24.0239L31.6992 24.3755L31.582 24.7271L31.377 25.1372L31.0547 25.5474L30.7031 25.9575L30.3809 26.3091L30.1758 26.4849L29.7656 26.7485L29.3848 26.895L29.0332 26.9829L28.5938 27.0122L28.125 26.9536L27.6855 26.8071L27.3047 26.6021L27.2168 26.5435L27.041 27.1587L25.8398 31.5239L25.4297 32.9888L25.2832 33.2524L25.0781 33.4282L24.873 33.5161H24.5508L24.2871 33.3989L24.082 33.1646L23.9941 32.9302L24.0234 32.5786L24.6387 30.3228L25.3418 27.7739L25.6055 26.8364L25.8105 26.0747L25.957 25.5767L25.9277 25.4595L25.6055 25.1665L25.2832 24.9028L24.4629 24.1997L24.1406 23.936L23.877 23.731L23.7012 23.8774L23.4668 24.1704L23.0859 24.6099L22.8223 24.9321L22.4414 25.3716L22.1777 25.6938L21.7969 26.1333L21.4453 26.5435L21.123 26.9243L20.8594 27.2466L20.625 27.5396H20.5664L20.5078 27.6567L19.8047 28.4771L19.541 28.77L19.248 28.9165L19.043 28.9458L18.8086 28.8872L18.6035 28.77L18.457 28.5942L18.3691 28.4185L18.3398 28.1548L18.4277 27.8618L18.6328 27.5981L18.9844 27.188L19.043 27.1001H19.1016L19.1602 26.9829L19.4824 26.6021L19.7461 26.2798L20.0098 25.9868L20.2734 25.6646L20.5664 25.3423L20.8008 25.0493L21.1523 24.6392L21.4746 24.2583L21.7383 23.936L22.002 23.6431L22.2656 23.3208L22.3242 23.2329H22.3828L22.4414 23.1157L22.8223 22.6763L23.1445 22.2661L23.4668 21.8853L23.4961 21.8267H23.5547L23.6133 21.7095L23.7012 21.5923H23.7598L23.8184 21.4751L24.2285 20.9771L24.4922 20.6841L24.7852 20.3032H24.8438L24.9023 20.186L25.166 19.8931L25.4004 19.6001L25.752 19.1899L26.0156 18.8677L26.25 18.6626L26.4258 18.5747L26.543 18.5454ZM26.7188 20.3325L26.4551 20.6255L26.1914 20.9478L25.8691 21.3286L25.5176 21.7388L25.1953 22.1196L24.9316 22.4419L24.8145 22.5591L24.873 22.6763L25.6934 23.3794L26.0742 23.7017L26.3965 23.9653L26.8359 24.3462L27.2461 24.6685L27.5977 24.9907L27.9199 25.2544L28.2129 25.4595L28.5059 25.5474H28.8281L29.1504 25.4302L29.4141 25.2251L29.4727 25.1079H29.5312L29.7949 24.7856L30.1172 24.4048L30.2637 24.1118L30.293 23.9653V23.6138L30.1758 23.2915L29.9121 22.9985L29.5898 22.7056L29.2676 22.4419L28.8574 22.0903L28.4766 21.7681L28.0664 21.4165L27.7441 21.1528L27.3047 20.772L26.9824 20.5083L26.7773 20.3325H26.7188Z" fill="#23B643"/>
<path d="M42.3926 31.9927L42.6855 32.022L42.9199 32.1392L43.3008 32.4614L43.623 32.7251L43.916 32.9888L44.2383 33.2524L44.6777 33.6333L45.0586 33.9556L45.3809 34.2192L45.8203 34.6001L46.2305 34.9517L46.5527 35.2153L46.9922 35.5962L47.3145 35.8599L47.7539 36.2407L48.0762 36.5044L48.3398 36.7681L48.457 37.0024L48.4863 37.1782L48.4277 37.4419L48.252 37.7056L48.1055 37.8228L47.8418 37.9106H47.6367L47.4023 37.8228L47.0801 37.5884L46.7871 37.3247L46.4648 37.061L46.0254 36.6802L45.6152 36.3286L44.8535 35.6841L44.4434 35.3325L44.1211 35.0688L43.6816 34.688L43.2715 34.3364L42.9492 34.0728L42.5977 33.7798L42.4805 33.8091L42.4219 33.9263L42.0996 34.3071L41.8359 34.6294L41.1328 35.4497L40.8105 35.8306L40.5469 36.1528L40.2832 36.4458L39.7559 37.0903L39.9023 37.2368L40.2539 37.5591L40.5762 37.8228L40.9863 38.1743L41.748 38.8188L42.1582 39.1704L42.4805 39.4341L42.9199 39.8149L43.3301 40.1665L43.7109 40.4888L44.0332 40.7524L44.3262 41.0161L44.4727 41.1333L44.6484 41.4263L44.6777 41.5435V41.7485L44.5605 42.0415L44.4434 42.188L44.1797 42.3345L44.0332 42.3638H43.8281L43.5352 42.2466L42.7148 41.5435L42.3926 41.2798L42.0996 41.0161L41.7773 40.7524L41.3672 40.4009L41.0449 40.1372L40.7227 39.8442L40.3125 39.522L39.9902 39.229L39.668 38.9653L39.2285 38.5845L38.8477 38.2622L38.7305 38.2915L38.4961 38.5552L38.2324 38.8774L37.8516 39.3169L37.5879 39.6392L37.207 40.0786L36.9434 40.4009L36.5625 40.8403L36.2402 41.2212L35.9766 41.5435L36.0059 41.6313L36.3281 41.895L36.7676 42.2759L37.0898 42.5396L37.5293 42.9204L37.9102 43.2427L38.2324 43.5063L38.5254 43.77L38.8477 44.0337L39.668 44.7368L39.9902 45.0005L40.4004 45.3521L40.6934 45.6157L40.8105 45.7622L40.8984 45.9673V46.2603L40.752 46.5532L40.5176 46.7583L40.3125 46.8169H40.0195L39.7852 46.729L39.375 46.3774L39.0527 46.1138L38.7598 45.8501L38.4375 45.5864L37.6172 44.8833L37.2949 44.6196L36.8555 44.2388L36.4453 43.8872L36.123 43.6235L35.6836 43.2427L35.3613 42.979L34.9219 42.5981L34.5117 42.2466L34.2773 42.0122L34.1895 41.7485V41.5435L34.2773 41.2798L34.541 40.9575L34.7461 40.6938H34.8047L34.8633 40.5767L35.2441 40.1372L35.5078 39.8149L36.5625 38.5845L36.8262 38.2622L37.1777 37.8521L37.4414 37.5298L37.7051 37.2368L38.0273 36.8267L38.291 36.5337L38.3203 36.4751H38.3789L38.4375 36.3579L38.7012 36.0649L38.9648 35.7427L39.3164 35.3325L39.5801 35.0396L39.8145 34.7466L40.0195 34.4829H40.0781L40.1367 34.3657L40.4883 33.9556L41.1328 33.1938L41.4844 32.7837L41.748 32.4614L42.0117 32.1685L42.1875 32.0513L42.3926 31.9927Z" fill="#23B643"/>
<path d="M34.4531 25.3716H34.8047L35.1562 25.5474L35.4492 25.811L35.7715 26.0747L36.2109 26.4556L36.5332 26.7192L36.9727 27.1001L37.3535 27.4224L37.7637 27.7739L38.1445 28.0962L38.4668 28.3599L38.9062 28.7407L39.3164 29.0923L39.6387 29.356L40.0781 29.7368L40.3711 30.0005L40.5176 30.147L40.6348 30.4106V30.645L40.5176 30.938L40.3711 31.1138L40.1367 31.231L40.0195 31.2603H39.7559L39.4629 31.1138L39.1406 30.8501L38.7012 30.4692L38.3789 30.2056L38.0859 29.9419L37.7637 29.6782L37.3535 29.3267L36.9727 29.0044L36.5625 28.6528L36.1816 28.3306L35.8594 28.0669L35.4199 27.686L35.0391 27.3638L34.7461 27.1294L34.5996 27.2759L34.3652 27.5396L34.1016 27.8618L33.7207 28.3013L33.3691 28.7114L33.1055 29.0337L32.7539 29.4438L32.4316 29.8247L32.168 30.1177L31.9629 30.3813L31.9043 30.4692L32.3438 30.8501L32.7539 31.2017L33.0762 31.4653L33.5156 31.8462L33.8379 32.1099L34.2773 32.4907L34.6582 32.813L35.0684 33.1646L35.3906 33.4282L35.6836 33.6919L36.0059 33.9556L36.416 34.3071L36.6797 34.5415L36.8262 34.8052L36.8555 35.0396L36.7969 35.2739L36.6211 35.5376L36.3867 35.6841L36.0938 35.7427L35.8594 35.6841L35.5664 35.5083L35.2441 35.2153L34.9219 34.9517L34.6289 34.688L34.3066 34.4243L33.8672 34.0435L33.4863 33.7212L33.1641 33.4575L32.7246 33.0767L32.3145 32.7251L31.8164 32.3149L31.5527 32.0806L31.2305 31.8169L30.9961 31.6118H30.9082L30.6445 31.9341L30.293 32.3442L30.0293 32.6665L29.6484 33.106L29.3262 33.4868L28.9746 33.897L28.6523 34.2778L28.3887 34.6001L28.125 34.8931L28.0957 34.9517L28.2129 35.0103L28.5059 35.2739L28.8281 35.5376L30.0586 36.5923L30.3809 36.856L30.8203 37.2368L31.1426 37.5005L31.582 37.8813L32.3438 38.5259L32.7539 38.8774L32.9883 39.1411L33.0469 39.2876V39.6392L32.9004 39.9321L32.666 40.1079L32.5195 40.1665L32.2852 40.1958L32.0215 40.1079L31.7578 39.9321L31.3184 39.5513L30.9082 39.1997L30.5859 38.936L30.293 38.6724L29.9707 38.4087L29.1504 37.7056L28.8281 37.4419L28.0078 36.7388L27.627 36.4165L27.3926 36.2114L27.0703 35.9478L26.6602 35.5962L26.4258 35.3325L26.3672 35.186V34.8345L26.4844 34.5708L26.8359 34.1606L27.0996 33.8384L27.3926 33.5161L27.627 33.2231L27.832 32.9595H27.8906L27.9492 32.8423L28.3301 32.4028L28.5938 32.0806L29.2969 31.2603L29.3262 31.2017H29.3848L29.4434 31.0845L30.0879 30.3228L30.3516 29.9712H30.4102V29.9126H30.4688L30.5273 29.7954L30.791 29.5024L31.0547 29.1802L31.1133 29.0923H31.1719L31.2305 28.9751L31.3184 28.8579H31.377L31.4355 28.7407L31.7578 28.3599L32.1094 27.9497L32.373 27.6274L32.666 27.3052L32.9004 27.0122L33.1055 26.7485H33.1641L33.2227 26.6313L33.5449 26.2505L33.8086 25.9282L34.2188 25.4888L34.4531 25.3716Z" fill="#23B643"/>
<path d="M18.3398 11.6899H18.6914L18.9844 11.8364L19.4238 12.2173L19.8047 12.5396L20.2148 12.8911L20.5371 13.1548L20.9766 13.5356L21.2988 13.7993L21.5918 14.063L21.9141 14.3267L22.3242 14.6782L22.7051 15.0005L23.1152 15.3521L23.4375 15.6157L23.877 15.9966L24.2578 16.3188L24.4336 16.5239L24.4922 16.6704V17.0513L24.3457 17.3149L24.1992 17.4614L23.9648 17.5786L23.7305 17.6079L23.4668 17.52L23.291 17.4028L22.9688 17.1392L22.6758 16.8755L22.3535 16.6118L21.9141 16.231L21.5332 15.9087L21.2109 15.645L20.7715 15.2642L20.3613 14.9126L19.9805 14.5903L19.6582 14.3267L19.3652 14.063L19.043 13.7993L18.6621 13.4771L18.5449 13.5063L18.1934 13.9165L17.9297 14.2388L17.2266 15.0591L16.9043 15.4399L16.6406 15.7622L16.377 16.0552L16.1133 16.3774L15.791 16.729L15.8496 16.8462L16.1719 17.1392L16.4941 17.4028L17.3145 18.106L17.6953 18.4282L18.1055 18.7798L18.4277 19.0435L18.8672 19.4243L19.1895 19.688L19.6289 20.0688L20.3906 20.7134L20.5957 20.9185L20.7129 21.1528V21.5044L20.5957 21.7388L20.4492 21.8853L20.2734 22.0024L20.0977 22.061H19.8633L19.5117 21.8853L19.248 21.6509L18.9258 21.3872L18.6328 21.1235L18.3105 20.8599L17.8711 20.479L17.4609 20.1274L17.1387 19.8638L16.6992 19.4829L16.377 19.2192L16.084 18.9556L15.791 18.7212L15.3516 18.3403L15.0293 18.0767L14.8535 17.9302L14.7363 17.9888L14.3848 18.3989L14.1211 18.7212L13.7695 19.1313L13.4473 19.5122L13.0957 19.9224L12.832 20.2446L12.4512 20.6841L12.1875 21.0063L11.8066 21.4458L11.5723 21.7388H11.5137V21.7974H11.4551V21.856L11.2793 21.9731L11.0156 22.061L10.6934 22.0024L10.4883 21.8853L10.3125 21.6802L10.2246 21.4458V21.1821L10.3711 20.8892L10.6348 20.5669L10.8398 20.3032H10.8984L10.957 20.186L11.3379 19.7466L11.6016 19.4243L12.3047 18.604L12.627 18.2231L12.8906 17.9009L13.1543 17.6079L13.3887 17.3149L13.6816 16.9927L14.1504 16.4067L14.4727 16.0552L14.7363 15.7329L15 15.4399L15.3223 15.0298L15.6738 14.6489L15.9082 14.356L16.1133 14.0923H16.1719L16.2305 13.9751L16.6113 13.5356L16.875 13.2134L17.5781 12.3931L17.8418 12.0708L18.0176 11.8657L18.252 11.7192L18.3398 11.6899Z" fill="#23B643"/>
<path d="M49.1309 42.5688H50.0391L50.5371 42.6567L51.0645 42.8325L51.5332 43.0669L51.8848 43.3013L52.207 43.5649L52.5586 43.9165L52.8516 44.3267L53.0859 44.7368L53.2617 45.1763L53.4082 45.7329L53.4668 46.3188L53.4375 46.9341L53.3496 47.3735L53.2031 47.8423L52.9688 48.3403L52.7344 48.6919L52.5293 48.9556L52.3535 49.1606L52.1191 49.3657L51.8262 49.6001L51.3867 49.8638L50.918 50.0688L50.5371 50.186L49.8633 50.3032H49.3359L48.7207 50.2153L48.252 50.0688L47.7832 49.8638L47.3438 49.6001L46.9336 49.2485L46.6699 48.9849L46.3477 48.5747L46.0547 48.0474L45.8789 47.5786L45.7617 47.1392L45.7031 46.6704V46.1431L45.791 45.5864L45.9668 45.0005L46.2012 44.5317L46.4648 44.1216L46.7285 43.7993L47.0508 43.4771L47.4316 43.1841L47.9004 42.9204L48.3398 42.7446L48.75 42.6274L49.1309 42.5688ZM49.248 44.0044L48.75 44.1216L48.2812 44.356L48.0176 44.561L47.8418 44.7075L47.5488 45.0884L47.3145 45.5571L47.1973 45.938L47.168 46.1138V46.7876L47.2852 47.2563L47.5195 47.7251L47.8125 48.106L48.1055 48.3696L48.5449 48.6333L48.9551 48.7798L49.248 48.8384H49.9512L50.3906 48.7212L50.8594 48.4868L51.123 48.311L51.416 48.0474L51.6797 47.6958L51.8848 47.2563L52.002 46.729V46.0845L51.8848 45.6157L51.7383 45.2642L51.5039 44.9126L51.2109 44.5903L50.8301 44.3267L50.4785 44.1509L50.0684 44.0337L49.8926 44.0044H49.248Z" fill="#23B643"/>
</g>
</svg>
