<svg width="60" height="59" viewBox="0 0 60 59" fill="none" xmlns="http://www.w3.org/2000/svg">
<g id="Vector">
<path d="M21.9141 0.23291H22.4121L22.8516 0.320801L23.3203 0.525879L23.7305 0.818848L24.5508 1.52197L26.4551 3.1333L26.8652 3.48486L27.1875 3.74854L27.627 4.12939L28.0078 4.45166L28.418 4.80322L28.7402 5.06689L29.1797 5.44775L29.502 5.71143L29.9414 6.09229L30.3223 6.41455L30.6445 6.67822L31.084 7.05908L31.8457 7.70361L32.2559 8.05518L32.5781 8.31885L33.0176 8.69971L33.3984 9.02197L33.8086 9.37354L34.1309 9.63721L34.5703 10.0181L34.8926 10.2817L35.332 10.6626L35.6543 10.9263L36.0938 11.3071L37.6172 12.5962L38.0273 12.9478L38.3496 13.2114L38.7891 13.5923L39.1992 13.9438L39.5215 14.2075L39.9316 14.5591L40.3125 14.8813L40.7227 15.2329L41.0449 15.4966L41.4844 15.8774L41.8066 16.1411L42.2461 16.522L43.0078 17.1665L43.418 17.5181L43.7402 17.7817L44.1797 18.1626L44.5898 18.5142L44.9121 18.7778L45.3223 19.1294L45.7031 19.4517L46.1133 19.8032L46.4355 20.0669L46.875 20.4478L47.1973 20.7114L47.6367 21.0923L48.3984 21.7368L48.8086 22.0884L49.1309 22.3521L49.5703 22.7329L50.332 23.3774L50.6543 23.6411L51.0938 24.022L51.5039 24.3735L51.8262 24.6372L52.2656 25.0181L53.0273 25.6626L53.4375 26.0142L53.7598 26.2778L54.1992 26.6587L54.5215 26.9224L54.9609 27.3032L55.3711 27.6548L55.6934 27.9185L56.1035 28.27L56.4844 28.5923L56.8945 28.9438L57.2168 29.2075L57.6562 29.5884L57.9785 29.8521L58.418 30.2329L58.7988 30.5552L59.1211 30.8188L59.502 31.1997L59.707 31.522L59.8828 31.8735L60 32.1665V33.2505H59.9414L59.8828 33.5142L59.6777 33.9243L59.3848 34.3345L59.0918 34.6567L58.8281 34.979L58.4766 35.3892L58.2129 35.7114L57.9492 36.0044L57.6855 36.3267L57.627 36.4146H57.5684L57.5098 36.5317L56.8652 37.2935L56.5137 37.7036L56.25 38.0259L55.8691 38.4653L55.5176 38.8755L55.2539 39.1978L54.873 39.6372L54.6094 39.9595L54.375 40.2231L54.4336 40.3403L54.9609 40.8677L55.2246 41.1899L55.5469 41.6294L55.8398 42.0981L56.1914 42.772L56.4551 43.4751L56.6309 44.0903L56.748 44.7056L56.8066 45.1157L56.8359 45.6138V45.936L56.8066 46.4927L56.6895 47.2544L56.5137 47.9575L56.2207 48.7485L55.9863 49.2173L55.7227 49.686L55.4297 50.1255L55.0195 50.6528L54.5801 51.1216L54.2578 51.4146L53.7598 51.7954L53.4668 52.0005L52.9688 52.2935L52.2949 52.6157L51.6504 52.8501L50.9473 53.0259L50.2441 53.1431L49.9805 53.1724H48.8965L48.0176 53.0552L47.3145 52.8794L46.7285 52.6743L46.2598 52.4692L45.6445 52.147L45.1172 51.7954L44.8535 51.5903H44.707L44.6484 51.7075L44.3262 52.0884L44.0625 52.4106L43.8281 52.7036H43.7695L43.7109 52.8208L43.3594 53.231L43.0371 53.6118L42.7734 53.9341L41.7188 55.1646L41.4551 55.4868L41.0742 55.9263L40.8105 56.2485L40.4297 56.688L40.0781 57.0981L39.8145 57.4204L39.4922 57.772L39.1992 58.0063L38.7598 58.2407L38.3789 58.3579L37.9688 58.4165L37.4707 58.3872L37.0312 58.27L36.5625 58.0356L36.1816 57.7427L35.8887 57.479L35.5957 57.2446L35.1562 56.8638L34.834 56.6001L34.541 56.3364L34.2188 56.0728L33.3984 55.3696L33.0762 55.106L32.2559 54.4028L31.9336 54.1392L31.4941 53.7583L30.7324 53.1138L30.4102 52.8501L29.9707 52.4692L29.5605 52.1177L29.2383 51.854L28.8281 51.5024L28.5059 51.2388L28.2129 50.9751L27.8906 50.7114L27.4805 50.3599L27.0996 50.0376L26.6895 49.686L26.3086 49.3638L25.9863 49.1001L25.5469 48.7192L25.1367 48.3677L24.8145 48.104L24.375 47.7231L23.9941 47.4009L23.6719 47.1372L22.8516 46.4341L22.4707 46.1118L22.1484 45.8481L21.709 45.4673L21.3281 45.145L20.918 44.7935L20.5957 44.5298L20.1562 44.1489L19.3945 43.5044L18.9844 43.1528L18.6035 42.8306L18.2812 42.5669L17.4609 41.8638L17.0801 41.5415L16.7578 41.2778L16.3184 40.897L15.9375 40.5747L15.5273 40.2231L15.2051 39.9595L14.7656 39.5786L14.0039 38.9341L13.5938 38.5825L13.2129 38.2603L12.8906 37.9966L12.0703 37.2935L11.6895 36.9712L11.3672 36.7075L11.0742 36.4438L10.752 36.1802L10.3125 35.7993L9.99023 35.5356L9.55078 35.1548L9.22852 34.8911L8.93555 34.6274L8.64258 34.3931L8.20312 34.0122L7.88086 33.7485L7.44141 33.3677L7.11914 33.104L6.67969 32.7231L6.29883 32.4009L5.97656 32.1372L5.56641 31.7856L5.12695 31.4048L4.74609 31.0825L4.42383 30.8188L3.98438 30.438L3.22266 29.7935L2.8125 29.4419L2.43164 29.1196L2.10938 28.856L1.28906 28.1528L0.908203 27.8306L0.673828 27.6255L0.380859 27.2739L0.117188 26.7759L0 26.4243V25.3989L0.146484 25.0474L0.351562 24.6372L0.556641 24.3735L0.908203 23.9634L1.17188 23.6411L1.23047 23.5532H1.28906L1.34766 23.436L1.58203 23.1724L1.8457 22.8501L2.10938 22.5571L2.22656 22.3813H2.28516L2.34375 22.2642L2.69531 21.854L3.01758 21.4731L3.22266 21.2095H3.28125L3.33984 21.0923L3.66211 20.7114L3.92578 20.3892L4.18945 20.0962L4.45312 19.7739L4.51172 19.686H4.57031L4.62891 19.5688L5.00977 19.1294L5.27344 18.8071L5.97656 17.9868L6.29883 17.606L6.50391 17.3423H6.5625L6.62109 17.2251L6.94336 16.8442L7.20703 16.522L7.4707 16.229L7.73438 15.9067L7.79297 15.8188H7.85156L7.91016 15.7017L8.26172 15.2915L8.52539 14.9692L8.75977 14.7056L9.02344 14.3833L9.31641 14.061L9.55078 13.7681L9.90234 13.3579L10.2246 12.9771L10.4883 12.6548L10.752 12.3618L11.0156 12.0396L11.0742 11.9517H11.1328L11.1914 11.8345L11.543 11.4243L11.8066 11.1021L12.041 10.8384L12.3047 10.5161L12.3633 10.4282H12.4219L12.4805 10.311L12.7148 10.0474L12.9785 9.7251L13.2422 9.43213L13.3594 9.25635H13.418L13.4766 9.13916L13.8281 8.729L14.1504 8.34814L14.3555 8.08447H14.4141L14.4727 7.96729L14.7949 7.58643L15.0586 7.26416L15.3223 6.97119L15.5859 6.64893L15.6445 6.56104H15.7031L15.7617 6.44385L15.9961 6.18018L16.2598 5.85791L16.6113 5.44775L16.875 5.12549L17.168 4.80322L17.4902 4.39307L17.6367 4.21729H17.6953L17.7539 4.1001L18.0762 3.71924L18.3398 3.39697L18.6035 3.104L18.8672 2.78174L18.9258 2.69385H18.9844L19.043 2.57666L19.3945 2.1665L19.6582 1.84424L19.8926 1.58057L20.1562 1.2583L20.2148 1.17041H20.2734L20.332 1.05322L20.625 0.760254L21.0352 0.496582L21.4453 0.320801L21.9141 0.23291ZM21.9434 1.66846L21.6504 1.78564L21.3574 2.04932L21.0352 2.45947L20.7422 2.78174L20.4785 3.104L20.127 3.51416L19.8047 3.89502L19.541 4.21729L19.248 4.53955L19.0137 4.83252L18.6621 5.24268L18.3984 5.56494L18.0176 6.00439L17.666 6.41455L17.4023 6.73682L17.0215 7.17627L16.7578 7.49854L16.377 7.93799L16.0254 8.34814L15.7617 8.67041L15.3809 9.10986L15.1172 9.43213L14.7363 9.87158L14.4141 10.2524L14.1504 10.5747L13.8867 10.8677L13.623 11.1899L13.2715 11.6001L13.0078 11.9224L12.627 12.3618L12.3047 12.7427L12.041 13.0649L11.6602 13.5044L11.3379 13.8853L10.9863 14.2954L10.6641 14.6763L10.4004 14.9985L10.0195 15.438L9.375 16.1997V16.2583H9.31641L9.05273 16.5806L8.70117 16.9907L8.4375 17.313L8.05664 17.7524L7.73438 18.1333L7.4707 18.4556L7.08984 18.895L6.73828 19.3052L6.47461 19.6274L6.09375 20.0669L5.83008 20.3892L5.44922 20.8286L4.80469 21.5903L4.54102 21.9126L4.24805 22.2349L3.98438 22.5571L3.63281 22.9673L3.36914 23.2896L2.66602 24.1099L2.40234 24.4321L2.02148 24.8716L1.66992 25.2817L1.52344 25.5161L1.43555 25.7798V26.0728L1.52344 26.3657L1.69922 26.6001L2.05078 26.9224L2.37305 27.186L2.7832 27.5376L4.30664 28.8267L4.7168 29.1782L5.03906 29.4419L5.47852 29.8228L5.85938 30.145L6.26953 30.4966L6.5918 30.7603L7.03125 31.1411L8.55469 32.4302L8.96484 32.7817L9.28711 33.0454L9.72656 33.4263L10.1367 33.7778L10.459 34.0415L10.8691 34.3931L11.25 34.7153L11.6602 35.0669L11.9824 35.3306L12.3926 35.6821L12.7734 36.0044L13.1836 36.356L13.5059 36.6196L13.9453 37.0005L15.0879 37.9673L15.498 38.3188L15.8203 38.5825L16.2598 38.9634L16.6406 39.2856L17.0508 39.6372L17.373 39.9009L17.8125 40.2817L18.1348 40.5454L18.5742 40.9263L20.0977 42.2153L20.5078 42.5669L20.8301 42.8306L21.2695 43.2114L21.5918 43.4751L22.0312 43.856L22.4414 44.2075L22.7637 44.4712L23.2031 44.8521L23.5254 45.1157L23.9648 45.4966L24.2871 45.7603L24.7266 46.1411L25.4883 46.7856L25.8984 47.1372L26.2793 47.4595L26.6016 47.7231L27.041 48.104L27.4219 48.4263L27.832 48.7778L28.1543 49.0415L28.5645 49.3931L28.9453 49.7153L29.3555 50.0669L30.1172 50.7114L30.4395 50.9751L30.8789 51.356L31.2891 51.7075L31.6113 51.9712L32.0508 52.3521L32.373 52.6157L32.8125 52.9966L33.2227 53.3481L33.5449 53.6118L33.9551 53.9634L34.3359 54.2856L34.7461 54.6372L35.0684 54.9009L35.5078 55.2817L35.8301 55.5454L36.2695 55.9263L36.6504 56.2485L37.0605 56.6001L37.3828 56.8345L37.6758 56.9517H38.0566L38.4082 56.8052L38.6719 56.5708L38.9062 56.2778L39.082 56.0728V56.0142H39.1406L39.4043 55.6919L39.7559 55.2817L40.0781 54.9009L40.3418 54.5786L40.6348 54.2563L40.8691 53.9634L41.2207 53.5532L41.3672 53.3774V53.3188H41.4258L41.6602 53.0259L41.9238 52.7329L42.1582 52.4399L42.3633 52.2056V52.147H42.4219L42.9492 51.5024L43.2422 51.1802L43.4766 50.8872L43.7988 50.5063L44.0625 50.1841L44.2383 49.979L44.502 49.8325L44.6191 49.8032H44.8535L45.1172 49.9204L45.3516 50.1255L45.4688 50.1841V50.2427L45.9668 50.6235L46.4062 50.9165L46.9629 51.2095L47.5488 51.4438L48.1934 51.6196L48.7793 51.7075L49.0723 51.7368H49.8633L50.6836 51.6196L51.3281 51.4438L51.7969 51.2681L52.2949 51.0337L52.7637 50.7407L53.1738 50.4478L53.4961 50.1548L53.7012 49.979V49.9204L53.7891 49.8911L53.9941 49.6567L54.1992 49.3931V49.3345H54.2578L54.6094 48.7778L54.873 48.2798L55.0781 47.7524L55.2539 47.1372L55.3418 46.6978L55.4004 46.1118V45.4673L55.3125 44.7056L55.166 44.0903L54.9609 43.5044L54.6387 42.8306L54.3164 42.3325L54.0234 41.9517L53.6719 41.5708L53.4668 41.3657L53.1445 41.1021L52.8516 40.8677L52.7051 40.6919L52.6465 40.5747L52.6172 40.3403L52.6758 40.106L52.8223 39.8716L53.1738 39.4614L53.4375 39.1392L53.7012 38.8462L54.0234 38.436L54.375 38.0552L54.6973 37.645L54.7852 37.5571V37.4985H54.8438L55.3711 36.854L55.6641 36.5317L55.9863 36.1216L56.0742 36.0337V35.9751H56.1328L56.6602 35.3306L56.9531 35.0083L57.1875 34.7153L57.3633 34.5103V34.4517H57.4219L57.6855 34.1294L58.0371 33.7192L58.3008 33.397L58.4766 33.1626L58.5645 32.9282L58.5938 32.6646L58.5352 32.3423L58.3887 32.1079L58.0371 31.7563L57.7148 31.4927L57.3047 31.1411L56.9238 30.8188L56.5137 30.4673L56.1914 30.2036L55.752 29.8228L55.3418 29.4712L55.0195 29.2075L54.6094 28.856L54.2871 28.5923L53.9941 28.3286L53.6719 28.0649L53.2617 27.7134L52.9395 27.4497L52.6465 27.186L52.3242 26.9224L51.9434 26.6001L51.5332 26.2485L51.2109 25.9849L50.918 25.7212L50.5957 25.4575L50.1855 25.106L49.8047 24.7837L49.3945 24.4321L49.0723 24.1685L48.6328 23.7876L48.252 23.4653L47.9297 23.2017L47.4902 22.8208L47.0801 22.4692L46.6992 22.147L46.377 21.8833L45.9375 21.5024L45.1758 20.8579L44.7656 20.5063L44.4434 20.2427L44.0039 19.8618L43.6816 19.5981L43.2422 19.2173L42.8613 18.895L42.5391 18.6313L42.0996 18.2505L41.6895 17.8989L41.3086 17.5767L40.9863 17.313L40.5469 16.9321L39.7852 16.2876L39.4629 16.0239L39.1699 15.7603L38.8477 15.4966L38.4375 15.145L38.1152 14.8813L37.8223 14.6177L37.5 14.354L37.0898 14.0024L36.709 13.6802L36.2988 13.3286L35.918 13.0063L35.5957 12.7427L35.1562 12.3618L34.834 12.0981L34.3945 11.7173L34.0723 11.4536L33.7793 11.1899L33.457 10.9263L33.0469 10.5747L32.7246 10.311L32.4316 10.0474L32.1094 9.78369L31.6992 9.43213L30.5566 8.46533L30.2344 8.20166L29.9414 7.93799L29.6191 7.67432L29.1797 7.29346L28.8574 7.02979L28.418 6.64893L27.6562 6.00439L27.334 5.74072L27.041 5.47705L26.7188 5.21338L26.3086 4.86182L25.9863 4.59814L25.5469 4.21729L25.166 3.89502L24.8438 3.63135L24.5508 3.36768L24.2285 3.104L23.7891 2.72314L23.4668 2.45947L23.0273 2.07861L22.6465 1.78564L22.3242 1.66846H21.9434Z" fill="white"/>
<path d="M26.543 18.0454L26.8652 18.0747L27.1582 18.2505L27.5391 18.6021L27.8613 18.8657L28.1543 19.1294L28.4766 19.3931L29.2969 20.0962L29.6191 20.3599L30.0586 20.7407L30.4395 21.063L30.7617 21.3267L31.084 21.6196L31.377 22.0005L31.6113 22.4692L31.7285 22.8794L31.7578 23.1138V23.5239L31.6992 23.8755L31.582 24.2271L31.377 24.6372L31.0547 25.0474L30.7031 25.4575L30.3809 25.8091L30.1758 25.9849L29.7656 26.2485L29.3848 26.395L29.0332 26.4829L28.5938 26.5122L28.125 26.4536L27.6855 26.3071L27.3047 26.1021L27.2168 26.0435L27.041 26.6587L25.8398 31.0239L25.4297 32.4888L25.2832 32.7524L25.0781 32.9282L24.873 33.0161H24.5508L24.2871 32.8989L24.082 32.6646L23.9941 32.4302L24.0234 32.0786L24.6387 29.8228L25.3418 27.2739L25.6055 26.3364L25.8105 25.5747L25.957 25.0767L25.9277 24.9595L25.6055 24.6665L25.2832 24.4028L24.4629 23.6997L24.1406 23.436L23.877 23.231L23.7012 23.3774L23.4668 23.6704L23.0859 24.1099L22.8223 24.4321L22.4414 24.8716L22.1777 25.1938L21.7969 25.6333L21.4453 26.0435L21.123 26.4243L20.8594 26.7466L20.625 27.0396H20.5664L20.5078 27.1567L19.8047 27.9771L19.541 28.27L19.248 28.4165L19.043 28.4458L18.8086 28.3872L18.6035 28.27L18.457 28.0942L18.3691 27.9185L18.3398 27.6548L18.4277 27.3618L18.6328 27.0981L18.9844 26.688L19.043 26.6001H19.1016L19.1602 26.4829L19.4824 26.1021L19.7461 25.7798L20.0098 25.4868L20.2734 25.1646L20.5664 24.8423L20.8008 24.5493L21.1523 24.1392L21.4746 23.7583L21.7383 23.436L22.002 23.1431L22.2656 22.8208L22.3242 22.7329H22.3828L22.4414 22.6157L22.8223 22.1763L23.1445 21.7661L23.4668 21.3853L23.4961 21.3267H23.5547L23.6133 21.2095L23.7012 21.0923H23.7598L23.8184 20.9751L24.2285 20.4771L24.4922 20.1841L24.7852 19.8032H24.8438L24.9023 19.686L25.166 19.3931L25.4004 19.1001L25.752 18.6899L26.0156 18.3677L26.25 18.1626L26.4258 18.0747L26.543 18.0454ZM26.7188 19.8325L26.4551 20.1255L26.1914 20.4478L25.8691 20.8286L25.5176 21.2388L25.1953 21.6196L24.9316 21.9419L24.8145 22.0591L24.873 22.1763L25.6934 22.8794L26.0742 23.2017L26.3965 23.4653L26.8359 23.8462L27.2461 24.1685L27.5977 24.4907L27.9199 24.7544L28.2129 24.9595L28.5059 25.0474H28.8281L29.1504 24.9302L29.4141 24.7251L29.4727 24.6079H29.5312L29.7949 24.2856L30.1172 23.9048L30.2637 23.6118L30.293 23.4653V23.1138L30.1758 22.7915L29.9121 22.4985L29.5898 22.2056L29.2676 21.9419L28.8574 21.5903L28.4766 21.2681L28.0664 20.9165L27.7441 20.6528L27.3047 20.272L26.9824 20.0083L26.7773 19.8325H26.7188Z" fill="white"/>
<path d="M42.3926 31.4927L42.6855 31.522L42.9199 31.6392L43.3008 31.9614L43.623 32.2251L43.916 32.4888L44.2383 32.7524L44.6777 33.1333L45.0586 33.4556L45.3809 33.7192L45.8203 34.1001L46.2305 34.4517L46.5527 34.7153L46.9922 35.0962L47.3145 35.3599L47.7539 35.7407L48.0762 36.0044L48.3398 36.2681L48.457 36.5024L48.4863 36.6782L48.4277 36.9419L48.252 37.2056L48.1055 37.3228L47.8418 37.4106H47.6367L47.4023 37.3228L47.0801 37.0884L46.7871 36.8247L46.4648 36.561L46.0254 36.1802L45.6152 35.8286L44.8535 35.1841L44.4434 34.8325L44.1211 34.5688L43.6816 34.188L43.2715 33.8364L42.9492 33.5728L42.5977 33.2798L42.4805 33.3091L42.4219 33.4263L42.0996 33.8071L41.8359 34.1294L41.1328 34.9497L40.8105 35.3306L40.5469 35.6528L40.2832 35.9458L39.7559 36.5903L39.9023 36.7368L40.2539 37.0591L40.5762 37.3228L40.9863 37.6743L41.748 38.3188L42.1582 38.6704L42.4805 38.9341L42.9199 39.3149L43.3301 39.6665L43.7109 39.9888L44.0332 40.2524L44.3262 40.5161L44.4727 40.6333L44.6484 40.9263L44.6777 41.0435V41.2485L44.5605 41.5415L44.4434 41.688L44.1797 41.8345L44.0332 41.8638H43.8281L43.5352 41.7466L42.7148 41.0435L42.3926 40.7798L42.0996 40.5161L41.7773 40.2524L41.3672 39.9009L41.0449 39.6372L40.7227 39.3442L40.3125 39.022L39.9902 38.729L39.668 38.4653L39.2285 38.0845L38.8477 37.7622L38.7305 37.7915L38.4961 38.0552L38.2324 38.3774L37.8516 38.8169L37.5879 39.1392L37.207 39.5786L36.9434 39.9009L36.5625 40.3403L36.2402 40.7212L35.9766 41.0435L36.0059 41.1313L36.3281 41.395L36.7676 41.7759L37.0898 42.0396L37.5293 42.4204L37.9102 42.7427L38.2324 43.0063L38.5254 43.27L38.8477 43.5337L39.668 44.2368L39.9902 44.5005L40.4004 44.8521L40.6934 45.1157L40.8105 45.2622L40.8984 45.4673V45.7603L40.752 46.0532L40.5176 46.2583L40.3125 46.3169H40.0195L39.7852 46.229L39.375 45.8774L39.0527 45.6138L38.7598 45.3501L38.4375 45.0864L37.6172 44.3833L37.2949 44.1196L36.8555 43.7388L36.4453 43.3872L36.123 43.1235L35.6836 42.7427L35.3613 42.479L34.9219 42.0981L34.5117 41.7466L34.2773 41.5122L34.1895 41.2485V41.0435L34.2773 40.7798L34.541 40.4575L34.7461 40.1938H34.8047L34.8633 40.0767L35.2441 39.6372L35.5078 39.3149L36.5625 38.0845L36.8262 37.7622L37.1777 37.3521L37.4414 37.0298L37.7051 36.7368L38.0273 36.3267L38.291 36.0337L38.3203 35.9751H38.3789L38.4375 35.8579L38.7012 35.5649L38.9648 35.2427L39.3164 34.8325L39.5801 34.5396L39.8145 34.2466L40.0195 33.9829H40.0781L40.1367 33.8657L40.4883 33.4556L41.1328 32.6938L41.4844 32.2837L41.748 31.9614L42.0117 31.6685L42.1875 31.5513L42.3926 31.4927Z" fill="white"/>
<path d="M34.4531 24.8716H34.8047L35.1562 25.0474L35.4492 25.311L35.7715 25.5747L36.2109 25.9556L36.5332 26.2192L36.9727 26.6001L37.3535 26.9224L37.7637 27.2739L38.1445 27.5962L38.4668 27.8599L38.9062 28.2407L39.3164 28.5923L39.6387 28.856L40.0781 29.2368L40.3711 29.5005L40.5176 29.647L40.6348 29.9106V30.145L40.5176 30.438L40.3711 30.6138L40.1367 30.731L40.0195 30.7603H39.7559L39.4629 30.6138L39.1406 30.3501L38.7012 29.9692L38.3789 29.7056L38.0859 29.4419L37.7637 29.1782L37.3535 28.8267L36.9727 28.5044L36.5625 28.1528L36.1816 27.8306L35.8594 27.5669L35.4199 27.186L35.0391 26.8638L34.7461 26.6294L34.5996 26.7759L34.3652 27.0396L34.1016 27.3618L33.7207 27.8013L33.3691 28.2114L33.1055 28.5337L32.7539 28.9438L32.4316 29.3247L32.168 29.6177L31.9629 29.8813L31.9043 29.9692L32.3438 30.3501L32.7539 30.7017L33.0762 30.9653L33.5156 31.3462L33.8379 31.6099L34.2773 31.9907L34.6582 32.313L35.0684 32.6646L35.3906 32.9282L35.6836 33.1919L36.0059 33.4556L36.416 33.8071L36.6797 34.0415L36.8262 34.3052L36.8555 34.5396L36.7969 34.7739L36.6211 35.0376L36.3867 35.1841L36.0938 35.2427L35.8594 35.1841L35.5664 35.0083L35.2441 34.7153L34.9219 34.4517L34.6289 34.188L34.3066 33.9243L33.8672 33.5435L33.4863 33.2212L33.1641 32.9575L32.7246 32.5767L32.3145 32.2251L31.8164 31.8149L31.5527 31.5806L31.2305 31.3169L30.9961 31.1118H30.9082L30.6445 31.4341L30.293 31.8442L30.0293 32.1665L29.6484 32.606L29.3262 32.9868L28.9746 33.397L28.6523 33.7778L28.3887 34.1001L28.125 34.3931L28.0957 34.4517L28.2129 34.5103L28.5059 34.7739L28.8281 35.0376L30.0586 36.0923L30.3809 36.356L30.8203 36.7368L31.1426 37.0005L31.582 37.3813L32.3438 38.0259L32.7539 38.3774L32.9883 38.6411L33.0469 38.7876V39.1392L32.9004 39.4321L32.666 39.6079L32.5195 39.6665L32.2852 39.6958L32.0215 39.6079L31.7578 39.4321L31.3184 39.0513L30.9082 38.6997L30.5859 38.436L30.293 38.1724L29.9707 37.9087L29.1504 37.2056L28.8281 36.9419L28.0078 36.2388L27.627 35.9165L27.3926 35.7114L27.0703 35.4478L26.6602 35.0962L26.4258 34.8325L26.3672 34.686V34.3345L26.4844 34.0708L26.8359 33.6606L27.0996 33.3384L27.3926 33.0161L27.627 32.7231L27.832 32.4595H27.8906L27.9492 32.3423L28.3301 31.9028L28.5938 31.5806L29.2969 30.7603L29.3262 30.7017H29.3848L29.4434 30.5845L30.0879 29.8228L30.3516 29.4712H30.4102V29.4126H30.4688L30.5273 29.2954L30.791 29.0024L31.0547 28.6802L31.1133 28.5923H31.1719L31.2305 28.4751L31.3184 28.3579H31.377L31.4355 28.2407L31.7578 27.8599L32.1094 27.4497L32.373 27.1274L32.666 26.8052L32.9004 26.5122L33.1055 26.2485H33.1641L33.2227 26.1313L33.5449 25.7505L33.8086 25.4282L34.2188 24.9888L34.4531 24.8716Z" fill="white"/>
<path d="M18.3398 11.1899H18.6914L18.9844 11.3364L19.4238 11.7173L19.8047 12.0396L20.2148 12.3911L20.5371 12.6548L20.9766 13.0356L21.2988 13.2993L21.5918 13.563L21.9141 13.8267L22.3242 14.1782L22.7051 14.5005L23.1152 14.8521L23.4375 15.1157L23.877 15.4966L24.2578 15.8188L24.4336 16.0239L24.4922 16.1704V16.5513L24.3457 16.8149L24.1992 16.9614L23.9648 17.0786L23.7305 17.1079L23.4668 17.02L23.291 16.9028L22.9688 16.6392L22.6758 16.3755L22.3535 16.1118L21.9141 15.731L21.5332 15.4087L21.2109 15.145L20.7715 14.7642L20.3613 14.4126L19.9805 14.0903L19.6582 13.8267L19.3652 13.563L19.043 13.2993L18.6621 12.9771L18.5449 13.0063L18.1934 13.4165L17.9297 13.7388L17.2266 14.5591L16.9043 14.9399L16.6406 15.2622L16.377 15.5552L16.1133 15.8774L15.791 16.229L15.8496 16.3462L16.1719 16.6392L16.4941 16.9028L17.3145 17.606L17.6953 17.9282L18.1055 18.2798L18.4277 18.5435L18.8672 18.9243L19.1895 19.188L19.6289 19.5688L20.3906 20.2134L20.5957 20.4185L20.7129 20.6528V21.0044L20.5957 21.2388L20.4492 21.3853L20.2734 21.5024L20.0977 21.561H19.8633L19.5117 21.3853L19.248 21.1509L18.9258 20.8872L18.6328 20.6235L18.3105 20.3599L17.8711 19.979L17.4609 19.6274L17.1387 19.3638L16.6992 18.9829L16.377 18.7192L16.084 18.4556L15.791 18.2212L15.3516 17.8403L15.0293 17.5767L14.8535 17.4302L14.7363 17.4888L14.3848 17.8989L14.1211 18.2212L13.7695 18.6313L13.4473 19.0122L13.0957 19.4224L12.832 19.7446L12.4512 20.1841L12.1875 20.5063L11.8066 20.9458L11.5723 21.2388H11.5137V21.2974H11.4551V21.356L11.2793 21.4731L11.0156 21.561L10.6934 21.5024L10.4883 21.3853L10.3125 21.1802L10.2246 20.9458V20.6821L10.3711 20.3892L10.6348 20.0669L10.8398 19.8032H10.8984L10.957 19.686L11.3379 19.2466L11.6016 18.9243L12.3047 18.104L12.627 17.7231L12.8906 17.4009L13.1543 17.1079L13.3887 16.8149L13.6816 16.4927L14.1504 15.9067L14.4727 15.5552L14.7363 15.2329L15 14.9399L15.3223 14.5298L15.6738 14.1489L15.9082 13.856L16.1133 13.5923H16.1719L16.2305 13.4751L16.6113 13.0356L16.875 12.7134L17.5781 11.8931L17.8418 11.5708L18.0176 11.3657L18.252 11.2192L18.3398 11.1899Z" fill="white"/>
<path d="M49.1309 42.0688H50.0391L50.5371 42.1567L51.0645 42.3325L51.5332 42.5669L51.8848 42.8013L52.207 43.0649L52.5586 43.4165L52.8516 43.8267L53.0859 44.2368L53.2617 44.6763L53.4082 45.2329L53.4668 45.8188L53.4375 46.4341L53.3496 46.8735L53.2031 47.3423L52.9688 47.8403L52.7344 48.1919L52.5293 48.4556L52.3535 48.6606L52.1191 48.8657L51.8262 49.1001L51.3867 49.3638L50.918 49.5688L50.5371 49.686L49.8633 49.8032H49.3359L48.7207 49.7153L48.252 49.5688L47.7832 49.3638L47.3438 49.1001L46.9336 48.7485L46.6699 48.4849L46.3477 48.0747L46.0547 47.5474L45.8789 47.0786L45.7617 46.6392L45.7031 46.1704V45.6431L45.791 45.0864L45.9668 44.5005L46.2012 44.0317L46.4648 43.6216L46.7285 43.2993L47.0508 42.9771L47.4316 42.6841L47.9004 42.4204L48.3398 42.2446L48.75 42.1274L49.1309 42.0688ZM49.248 43.5044L48.75 43.6216L48.2812 43.856L48.0176 44.061L47.8418 44.2075L47.5488 44.5884L47.3145 45.0571L47.1973 45.438L47.168 45.6138V46.2876L47.2852 46.7563L47.5195 47.2251L47.8125 47.606L48.1055 47.8696L48.5449 48.1333L48.9551 48.2798L49.248 48.3384H49.9512L50.3906 48.2212L50.8594 47.9868L51.123 47.811L51.416 47.5474L51.6797 47.1958L51.8848 46.7563L52.002 46.229V45.5845L51.8848 45.1157L51.7383 44.7642L51.5039 44.4126L51.2109 44.0903L50.8301 43.8267L50.4785 43.6509L50.0684 43.5337L49.8926 43.5044H49.248Z" fill="white"/>
</g>
</svg>
