<svg width="60" height="55" viewBox="0 0 60 55" fill="none" xmlns="http://www.w3.org/2000/svg">
<g id="Vector">
<path d="M55.752 5.94922L56.1328 6.00781L56.3086 6.0957L56.543 6.30078L56.9238 6.79883L57.3047 7.32617L57.6855 7.91211L58.125 8.67383L58.5352 9.46484L58.916 10.3438L59.209 11.1641L59.4727 12.0137L59.6484 12.7168L59.8535 13.8301L59.9414 14.4453L60 14.5039V17.6973L59.9414 17.7852L59.8242 18.6055L59.6484 19.5723L59.4727 20.2754L59.1797 21.2422L58.8867 22.0039L58.5938 22.707L58.3594 23.1758L58.0078 23.8496L57.7734 24.2305L57.4805 24.6992L57.1582 25.168L56.8359 25.6074L56.5137 26.0176L56.25 26.3398L55.8398 26.7793L55.6348 27.0137L52.1484 30.5L52.3242 30.7051L53.7891 32.1699L54.0527 32.4922L54.2871 32.8145L54.5508 33.2832L54.7559 33.752L54.9316 34.3672L55.0195 34.9824V35.6855L54.9023 36.418L54.668 37.1211L54.3457 37.7363L54.082 38.1172L53.7305 38.5273L53.5254 38.7324L53.0273 39.1133L52.5879 39.377L52.0605 39.6113L51.4746 39.7871L50.7422 39.9043H50.5078L50.6543 40.3438L50.7422 40.7539L50.8008 41.2812V41.7793L50.7129 42.4531L50.5664 42.9805L50.3613 43.4785L50.0977 43.9766L49.8047 44.3867L49.4531 44.7676L49.2188 45.002L48.8379 45.2949L48.2812 45.6172L47.8125 45.8223L47.1973 45.998L46.6699 46.0859L46.084 46.1152L45.5273 46.0566L44.9414 45.9395L44.5898 45.8223V46.1445L44.502 46.7305L44.3555 47.2578L44.1211 47.8145L43.8281 48.3125L43.5352 48.6934L43.125 49.1328L42.8027 49.3965L42.5098 49.6016L42.041 49.8652L41.7188 50.0117L41.2793 50.1582L40.752 50.2754L40.3418 50.334H39.6387L39.082 50.2461L38.3789 50.0703V50.4805L38.2617 51.125L38.0566 51.7402L37.8223 52.209L37.5879 52.5898L37.2949 52.9707L37.0898 53.2051H37.0312L36.9727 53.3223L36.6504 53.5859L36.2402 53.8789L35.6836 54.1719L34.8926 54.4355L34.2188 54.5527H33.3398L32.6953 54.4355L31.9922 54.2012L31.377 53.8789L30.9375 53.5566L30.6445 53.293L30.498 53.3223L30.1172 53.6445L29.707 53.9082L29.4141 54.084L28.8281 54.3184L28.3008 54.4648L27.7441 54.5527H26.8945L26.2207 54.4355L25.6055 54.2305L25.1074 53.9961L24.7852 53.791L24.4336 53.5273L24.082 53.2051L23.9062 53.0293V52.9707H23.8477L23.4668 52.4434L23.2031 51.9746L22.998 51.4766L22.8516 50.9492L22.7637 50.3926V50.0996L22.5293 50.1289L21.8848 50.2754L21.4453 50.334H20.8008L20.0684 50.2168L19.5703 50.0703L18.9258 49.7773L18.5156 49.5137L18.1055 49.1914L17.6367 48.7227L17.2852 48.2539L16.9922 47.7266L16.7871 47.2285L16.6406 46.6719L16.5527 46.0566L16.582 45.8223L15.9375 45.998L15.3809 46.0859H14.4727L13.916 45.998L13.3301 45.8223L12.7441 45.5586L12.2754 45.2656L11.8945 44.9434L11.6895 44.7676L11.4844 44.5332L11.1914 44.1816L10.957 43.8008L10.7227 43.3613L10.4883 42.6582L10.3711 42.043L10.3418 41.6914V41.3398L10.4297 40.6367L10.6055 39.9629L10.6348 39.9043L10.1367 39.875L9.4043 39.7285L8.78906 39.4941L8.34961 39.2598L7.96875 38.9961L7.64648 38.7324L7.20703 38.293L6.85547 37.8242L6.5625 37.2969L6.35742 36.7988L6.21094 36.2715L6.12305 35.7148V34.9531L6.21094 34.3672L6.38672 33.752L6.65039 33.166L6.91406 32.7266L7.20703 32.3457L7.38281 32.1406H7.44141V32.082H7.5L7.55859 31.9648L8.4082 31.1152L8.34961 30.998L6.82617 29.4746L6.62109 29.1816L6.5625 29.0059V28.6836L6.67969 28.3906L6.85547 28.1562L7.14844 27.9805L7.23633 27.9512H7.67578L8.02734 28.127L9.66797 29.7676L9.78516 29.7383L11.8945 27.6289L12.1289 27.4238L12.5391 27.1016L13.0078 26.8086L13.5352 26.5742L14.1211 26.3984L14.7363 26.3105H15.5566L16.1426 26.3984L16.7285 26.5742L17.2559 26.8086L17.6953 27.0723L18.0469 27.3359L18.4277 27.6875L18.75 28.0391L19.0137 28.4199L19.2773 28.8887L19.5117 29.4746L19.6289 29.9141L19.7168 30.5293V31.291L19.6875 31.5547L19.9512 31.5254H20.6836L21.1816 31.584L21.8555 31.7598L22.3535 31.9648L22.8223 32.2285L23.1738 32.4922L23.5547 32.8145L23.7891 33.0488L24.1699 33.5469L24.5215 34.1621L24.7266 34.6895L24.873 35.3047L24.9316 35.6855V36.4766L24.9023 36.7402H25.8691L26.543 36.8281L27.1582 37.0039L27.5684 37.1797L28.125 37.502L28.5059 37.7949L28.9453 38.2051L29.2383 38.5566L29.5312 38.9961L29.7656 39.4648L29.9414 39.9043L30.0879 40.4902L30.1465 41.0176V41.6914L30.1172 41.9844L30.4102 41.9551H31.1133L31.7578 42.043L32.373 42.2188L32.8125 42.4238L33.252 42.6582L33.6035 42.9219L33.9844 43.2441L34.2188 43.4785L34.5996 43.9766L34.8633 44.416L35.0391 44.7383L35.5078 45.1777L38.2031 47.873L38.584 48.1367L38.9941 48.3418L39.375 48.459L39.7852 48.5176H40.2832L40.8398 48.4004L41.3086 48.1953L41.6602 47.9902L42.0117 47.668H42.0703L42.1289 47.5508L42.3926 47.1992L42.5977 46.7598L42.7148 46.3789L42.7734 45.9688V45.4707L42.6562 44.9141L42.4512 44.416L42.2461 44.0938L41.9531 43.7715V43.7129H41.8945L41.7188 43.5078L41.543 43.3613L41.3672 43.1562L41.25 43.0684V43.0098L41.1328 42.9512V42.8926L41.0156 42.834V42.7754L40.8984 42.7168V42.6582L40.7812 42.5996V42.541L40.6641 42.4824V42.4238L40.5469 42.3652V42.3066L40.4297 42.248V42.1895L40.3125 42.1309V42.0723L40.1953 42.0137V41.9551L40.0781 41.8965V41.8379L39.9609 41.7793V41.7207L39.8438 41.6621V41.6035L39.7266 41.5449V41.4863L39.6094 41.4277V41.3691L39.4922 41.3105V41.252L39.375 41.1934V41.1348L39.2578 41.0762V41.0176L39.1406 40.959V40.9004L39.0234 40.8418V40.7832L38.9062 40.7246V40.666L38.7891 40.6074V40.5488L38.6719 40.4902V40.4316L38.5547 40.373V40.3145L38.4375 40.2559V40.1973L38.3203 40.1387V40.0801L38.2031 40.0215V39.9629L38.0859 39.9043V39.8457L37.9688 39.7871V39.7285L37.8516 39.6699V39.6113L37.7344 39.5527V39.4941L37.6172 39.4355V39.377L37.5 39.3184V39.2598L37.3828 39.2012V39.1426L37.2656 39.084V39.0254L37.1484 38.9668V38.9082L37.0312 38.8496V38.791L36.9141 38.7324V38.6738L36.7969 38.6152V38.5566L36.6797 38.498V38.4395L36.5625 38.3809V38.3223L36.4453 38.2637V38.2051L36.3281 38.1465V38.0879L36.2109 38.0293V37.9707L36.0938 37.9121V37.8535L35.9766 37.7949V37.7363L35.8594 37.6777V37.6191L35.7422 37.5605V37.502L35.625 37.4434V37.3848L35.5078 37.3262V37.2676L35.3906 37.209V37.1504L35.2734 37.0918V37.0332L35.1562 36.9746L34.8047 36.623L34.6289 36.3887L34.4824 36.0957V35.7441L34.5996 35.4512L34.8047 35.2168L35.0391 35.0703L35.2148 35.0117H35.5078L35.8301 35.1289L36.123 35.3633L44.4141 43.6543L44.8535 43.9473L45.2344 44.123L45.6445 44.2402L45.8496 44.2695H46.5527L46.9922 44.1816L47.4316 44.0059L47.7539 43.8301L48.1641 43.5078L48.3691 43.2734L48.6035 42.9512L48.8086 42.5117L48.9551 41.9258V41.1348L48.8379 40.6367L48.6914 40.2852L48.5156 39.9629L48.2812 39.6699L47.9297 39.2891L47.4609 38.8203L47.2852 38.6738L47.1094 38.4688L46.9336 38.3223L46.8164 38.2051V38.1465H46.7578V38.0879H46.6992V38.0293H46.6406V37.9707H46.582V37.9121H46.5234V37.8535H46.4648L46.2891 37.6484L46.1133 37.502V37.4434H46.0547V37.3848H45.9961V37.3262H45.9375V37.2676H45.8789V37.209H45.8203V37.1504H45.7617V37.0918H45.7031V37.0332H45.6445V36.9746H45.5859V36.916H45.5273V36.8574H45.4688V36.7988H45.4102V36.7402H45.3516V36.6816H45.293V36.623H45.2344V36.5645H45.1758V36.5059H45.1172V36.4473H45.0586V36.3887H45V36.3301H44.9414V36.2715H44.8828V36.2129H44.8242V36.1543H44.7656V36.0957H44.707V36.0371H44.6484V35.9785H44.5898L44.4141 35.7734L44.2383 35.627V35.5684H44.1797V35.5098H44.1211V35.4512H44.0625V35.3926H44.0039V35.334H43.9453V35.2754H43.8867V35.2168H43.8281V35.1582H43.7695V35.0996H43.7109V35.041H43.6523V34.9824H43.5938V34.9238H43.5352L43.3594 34.7188L43.1836 34.5723V34.5137H43.125V34.4551H43.0664V34.3965H43.0078V34.3379H42.9492V34.2793H42.8906V34.2207H42.832V34.1621H42.7734V34.1035H42.7148V34.0449H42.6562V33.9863H42.5977L42.4219 33.7812L42.2461 33.6348L42.0703 33.4297L41.8945 33.2832L41.6895 33.0488L41.543 32.9316L41.3672 32.7266L41.1914 32.5801L41.0156 32.375L40.8398 32.2285L40.6348 31.9941L40.4297 31.7891L40.2539 31.6426L40.1367 31.5254V31.4668H40.0781V31.4082L39.9609 31.3496L39.6973 31.0566L39.5508 30.8223L39.4922 30.6465V30.3828L39.5801 30.0898L39.7852 29.8262L40.0488 29.6504L40.2832 29.5918H40.5176L40.8398 29.709L41.1328 29.9434L48.6328 37.4434L48.9258 37.6484L49.4238 37.9121L49.834 38.0293L50.3027 38.0879H50.625L51.1523 38L51.6211 37.8242L52.002 37.6191L52.2949 37.3848L52.6172 37.0625L52.8809 36.6523L53.0566 36.2422L53.1738 35.7734L53.2031 35.5391V35.041L53.0859 34.4844L52.8809 33.9863L52.6758 33.6641L52.3242 33.2539L50.2734 31.2031L50.0391 30.998L49.3066 30.2656L49.0723 30.0605L48.2812 29.2695L48.2227 29.2402V29.1816L48.1055 29.123L47.373 28.3906L47.1387 28.1855L46.7578 27.8047L46.5234 27.5996L46.2891 27.3359L46.1426 27.0723L46.1133 26.9551V26.6914L46.2012 26.3984L46.4062 26.1348L46.6992 25.959L46.7871 25.9297H47.2266L47.4902 26.0469L47.9004 26.3984L48.5742 27.0723L48.8086 27.2773L49.4824 27.9512L49.7168 28.1562L50.332 28.7715L50.3906 28.8008V28.8594L50.5078 28.918L50.8008 29.2109L50.918 29.1523L51.0352 29.0352H51.0938L51.1523 28.918L51.3867 28.6836H51.4453L51.5039 28.5664H51.5625L51.6211 28.4492H51.6797L51.7383 28.332H51.7969L51.8555 28.2148H51.9141L51.9727 28.0977H52.0312L52.0898 27.9805H52.1484L52.207 27.8633H52.2656V27.8047H52.3242V27.7461H52.3828V27.6875H52.4414V27.6289L52.5586 27.5117H52.6172V27.4531H52.6758V27.3945H52.7344V27.3359H52.793V27.2773L52.9102 27.1602H52.9688L53.0273 27.043H53.0859L53.1445 26.9258H53.2031L53.2617 26.8086H53.3203L53.3789 26.6914H53.4375L53.4961 26.5742H53.5547L53.6133 26.457H53.6719V26.3984H53.7305V26.3398H53.7891V26.2812H53.8477V26.2227H53.9062V26.1641H53.9648V26.1055H54.0234V26.0469H54.082V25.9883H54.1406L54.1992 25.8711H54.2578L54.3164 25.7539L54.6973 25.373L54.9609 25.0508L55.2832 24.6699L55.6934 24.1133L56.1328 23.4395L56.5723 22.6777L56.9238 21.9746L57.1875 21.3594L57.4512 20.6562L57.7148 19.8066L57.9199 18.9277L58.0664 18.1074L58.1543 17.2871L58.1836 16.877V15.4121L58.0957 14.416L57.9785 13.6543L57.8027 12.834L57.5977 12.0723L57.3047 11.2227L56.9531 10.373L56.4844 9.43555L56.1035 8.79102L55.6934 8.17578L55.3418 7.70703L55.0488 7.29688L54.9316 7.0332V6.68164L55.0488 6.38867L55.2832 6.125L55.4883 6.00781L55.752 5.94922ZM14.8535 28.0977L14.3848 28.1855L13.9746 28.332L13.5645 28.5664L13.2715 28.8008L8.55469 33.5176L8.32031 33.8398L8.08594 34.3379L7.96875 34.6895L7.91016 35.1289V35.5391L7.96875 35.9492L8.11523 36.3887L8.32031 36.7988L8.58398 37.1504L8.93555 37.502L9.3457 37.7656L9.69727 37.9414L10.0781 38.0586L10.4883 38.1172H10.957L11.543 38L12.0117 37.7949L12.4219 37.5312L12.7148 37.2676L16.6992 33.2832L16.875 33.1367L17.0801 32.9023L17.3438 32.6387L17.6367 32.1699L17.7832 31.8477L17.9004 31.3789L17.9297 31.1738V30.6465L17.8418 30.1484L17.6953 29.7383L17.4609 29.2988L17.1973 28.9766L16.9922 28.7715L16.6699 28.5371L16.1719 28.2734L15.6445 28.127L15.4395 28.0977H14.8535ZM20.0684 33.3125L19.4824 33.4297L19.0137 33.6348L18.6621 33.8691L18.3105 34.1914L12.8027 39.6992L12.5391 40.0801L12.334 40.4902L12.1875 40.959L12.1582 41.1641V41.8965L12.2754 42.3945L12.4512 42.834L12.7441 43.2734L13.0078 43.5664L13.3008 43.8008L13.7109 44.0352L14.0625 44.1816L14.5605 44.2988H15.293L15.8203 44.1816L16.2891 43.9766L16.7578 43.6543L17.168 43.2441L17.3438 43.0977L17.5195 42.8926L17.6953 42.7461L17.8711 42.541L18.0469 42.3945L18.2227 42.1895L18.3984 42.043L18.5742 41.8379L18.75 41.6914L18.9258 41.4863L19.1016 41.3398L19.3066 41.1055L21.6211 38.791L21.7969 38.6445L21.9727 38.4395L22.1484 38.293L22.3535 38.0586L22.6172 37.7656L22.8516 37.3848L22.998 37.0332L23.1152 36.5938L23.1445 36.3594V35.8906L23.0859 35.4805L22.9102 34.9531L22.6758 34.5137L22.4121 34.1914L22.207 33.9863L21.8848 33.752L21.4453 33.5176L21.0059 33.3711L20.5957 33.3125H20.0684ZM25.2832 38.5273L24.8145 38.6152L24.4043 38.7617L23.9941 38.9961L23.6719 39.2598L19.0137 43.918L18.75 44.2988L18.5156 44.7676L18.3984 45.1484L18.3398 45.5879V45.9395L18.3984 46.3496L18.5449 46.8184L18.75 47.2285L19.0137 47.5801L19.3652 47.9316L19.7754 48.1953L20.127 48.3711L20.5078 48.4883L20.918 48.5469H21.416L21.9727 48.4297L22.4414 48.2246L22.793 48.0195L23.1738 47.668L23.3203 47.5508L23.4961 47.3457L23.6719 47.1992L23.8477 46.9941L24.0234 46.8477L24.1992 46.6426L24.375 46.4961L24.5508 46.291L24.7266 46.1445L24.9023 45.9395L25.0781 45.793L25.2539 45.5879L25.4297 45.4414L25.6055 45.2363L25.7812 45.0898L25.957 44.8848L26.1328 44.7383L26.3086 44.5332L26.4844 44.3867L26.6602 44.1816L26.8359 44.0352L27.0117 43.8301L27.1875 43.6836L27.3633 43.4785L27.5391 43.332L27.7441 43.0977L27.9492 42.8047L28.1836 42.3359L28.3301 41.8086L28.3594 41.6035V41.0762L28.2715 40.5781L28.125 40.168L27.8906 39.7285L27.627 39.4062L27.4219 39.2012L27.0117 38.9082L26.5137 38.6738L26.0742 38.5566L25.8691 38.5273H25.2832ZM30.5273 43.7422L30.0293 43.8301L29.5605 44.0059L29.1797 44.2402L28.8574 44.5039L25.2246 48.1367L24.9609 48.4883L24.7266 48.957L24.5801 49.4844L24.5508 49.7188V50.2754L24.6387 50.7441L24.8145 51.2129L25.0781 51.6523L25.4297 52.0332L25.752 52.2969L26.1621 52.5312L26.6602 52.707L27.0117 52.7656H27.6855L28.2129 52.6484L28.623 52.4727L29.0332 52.209L29.3262 51.9453L29.4727 51.8281V51.7695L29.5898 51.7109V51.6523L29.707 51.5938V51.5352L29.8242 51.4766V51.418L29.9414 51.3594V51.3008L30.0586 51.2422V51.1836L30.1758 51.125V51.0664L30.293 51.0078V50.9492H30.3516V50.8906H30.4102V50.832L30.5273 50.7734V50.7148L30.6445 50.6562V50.5977L30.7617 50.5391V50.4805L30.8789 50.4219V50.3633L30.9961 50.3047V50.2461L31.1133 50.1875V50.1289L31.2305 50.0703V50.0117L31.3477 49.9531L31.6992 49.6016V49.543L31.8164 49.4844V49.4258L31.9336 49.3672V49.3086L32.0508 49.25V49.1914L32.168 49.1328V49.0742L32.2852 49.0156V48.957L32.4023 48.8984V48.8398L32.5195 48.7812V48.7227L32.6367 48.6641V48.6055L32.7246 48.5762L32.9297 48.3418L33.1641 48.0195L33.3984 47.5508L33.5156 47.1699L33.5742 46.8184V46.291L33.4863 45.793L33.3105 45.3242L33.0762 44.9141L32.8418 44.6211L32.6367 44.416L32.3145 44.1816L31.875 43.9473L31.4062 43.8008L30.9961 43.7422H30.5273ZM35.2734 47.5215L35.1855 47.7559L35.0098 48.2832L34.7754 48.752L34.541 49.1621L34.248 49.5137V49.5723H34.1895L33.9844 49.8066L31.9043 51.8867L31.8457 51.916L31.9043 52.0332L32.1387 52.2383L32.5781 52.502L33.0469 52.6777L33.4863 52.7656H34.1602L34.6582 52.6484L35.0977 52.4727L35.5078 52.209L35.8594 51.8867L36.0938 51.623L36.3281 51.2129L36.4746 50.832L36.5625 50.5098L36.5918 50.3047V49.6602L36.5039 49.2207L36.3281 48.752L36.123 48.4004L35.8887 48.1074L35.3027 47.5215H35.2734Z" fill="white"/>
<path d="M43.9746 0.5H44.7656L45.7324 0.558594L46.7285 0.675781L47.5488 0.822266L48.4277 1.02734L49.3066 1.29102L50.0391 1.55469L50.7422 1.84766L51.5918 2.25781L52.2363 2.60938L52.7637 2.93164L53.291 3.2832L53.6426 3.54688L53.8477 3.81055L53.9355 4.04492V4.36719L53.8477 4.63086L53.6426 4.89453L53.4082 5.04102L53.1152 5.12891L52.8223 5.09961L52.4707 4.92383L52.002 4.60156L51.4453 4.25L50.918 3.95703L50.4199 3.69336L49.834 3.42969L49.1602 3.16602L48.2812 2.87305L47.4902 2.66797L46.582 2.49219L45.6445 2.375L44.5898 2.31641H44.0039L43.0664 2.375L42.1289 2.49219L41.25 2.66797L40.3711 2.90234L39.4336 3.22461L38.6719 3.54688L37.9395 3.89844L37.4121 4.19141L36.7969 4.57227L36.2109 4.98242L35.8301 5.27539L35.5078 5.53906L35.0684 5.91992L34.834 6.1543H34.7754V6.21289L34.541 6.41797L30.6152 10.3438L30.3809 10.5488L22.5879 18.3418L22.4707 18.6055L22.4414 18.7227V19.0156L22.5586 19.3086L22.8223 19.6016L23.1738 19.8945L23.584 20.1582L24.1406 20.4512L24.8438 20.6855L25.3418 20.7734L25.5762 20.8027H26.4844L27.0117 20.7148L27.5391 20.5684L28.1543 20.3047L28.5645 20.0703L29.0332 19.7188L29.3262 19.4551L34.2773 14.5039L34.541 14.3281L34.8047 14.2402H35.0391L35.332 14.3281L35.5664 14.5039L36.0059 14.9141L36.5039 15.4121L36.5625 15.4414V15.5L36.6797 15.5586L37.3242 16.2031L37.5586 16.4082L38.2031 17.0527L38.2617 17.082V17.1406L38.3789 17.1992L39.1699 17.9902L39.4043 18.1953L40.0195 18.8105L40.0781 18.8398V18.8984L40.1953 18.957L40.8398 19.6016L41.0742 19.8066L41.6602 20.3926L41.7188 20.4219V20.4805L41.8359 20.5391L42.5977 21.3008L42.832 21.5059L43.418 22.0918L43.6523 22.2969L44.2383 22.8828L44.4727 23.0879L44.9414 23.5566L45.1172 23.8496L45.1465 23.9668V24.3184L45.0293 24.6113L44.8242 24.8457L44.6484 24.9629L44.3555 25.0508H44.1211L43.8281 24.9336L43.5938 24.7578L43.3594 24.5234L43.125 24.3184L42.3926 23.5859L42.1582 23.3809L41.4258 22.6484L41.3086 22.5605V22.502L41.1914 22.4434L40.459 21.7109L40.2246 21.5059L39.8438 21.125L39.6094 20.9199L38.9941 20.3047L38.7598 20.0996L37.9102 19.25L37.6758 19.0449L37.0605 18.4297L36.8262 18.2246L36.4453 17.8438L36.3867 17.8145V17.7559L36.2695 17.6973L35.4785 16.9062L35.2441 16.7012L34.9805 16.4375L34.8633 16.4961L30.5273 20.832L30.293 21.0371L29.8242 21.418L29.209 21.7988L28.7695 22.0332L28.3301 22.209L27.8027 22.3848L27.1582 22.5312L26.4844 22.6191H25.4883L24.7852 22.5312L24.082 22.3555L23.5254 22.1504L22.9395 21.8867L22.3535 21.5352L21.9727 21.2422L21.5625 20.8906L21.2109 20.5391L21.0059 20.2461L20.7715 19.7773L20.6543 19.3672L20.625 19.1914V18.5176L20.7422 18.0195L20.8887 17.668L21.123 17.2871L21.3281 17.0234H21.3867V16.9648H21.4453L21.5039 16.8477H21.5625L21.6211 16.7305L28.5645 9.78711H28.623L28.6816 9.64062L25.166 6.125L24.9316 5.91992L24.5801 5.59766L24.1699 5.27539L23.584 4.83594L23.1445 4.54297L22.7637 4.30859L22.1484 3.95703L21.6797 3.72266L21.0645 3.42969L20.3027 3.13672L19.5117 2.87305L18.5742 2.63867L17.7832 2.49219L16.8164 2.375L16.4355 2.3457H14.7656L13.5938 2.46289L12.627 2.63867L11.8066 2.84375L10.752 3.19531L9.90234 3.54688L9.11133 3.92773L8.4082 4.33789L7.85156 4.68945L7.32422 5.07031L7.00195 5.33398L6.70898 5.56836L6.32812 5.89062L6.00586 6.21289L5.77148 6.41797L5.41992 6.79883L5.12695 7.12109L4.86328 7.44336L4.54102 7.85352L4.18945 8.35156L3.75 9.02539L3.39844 9.66992L3.13477 10.168L2.75391 11.0469L2.46094 11.8672L2.22656 12.6875L2.02148 13.5957L1.875 14.5918L1.81641 15.2656L1.78711 15.8516V16.4961L1.8457 17.4043L1.96289 18.3711L2.13867 19.2793L2.37305 20.1582L2.69531 21.0957L3.01758 21.8574L3.36914 22.5898L3.66211 23.1172L4.04297 23.7324L4.39453 24.2305L4.6582 24.582L4.89258 24.875L5.15625 25.1973L5.41992 25.4902L5.5957 25.7832L5.6543 25.959V26.2812L5.53711 26.5742L5.30273 26.8379L5.09766 26.9551L4.86328 27.0137H4.62891L4.30664 26.8965L4.01367 26.6328L3.7207 26.3105L3.39844 25.9004L3.04688 25.4609L2.66602 24.9043L2.46094 24.6113L2.08008 23.9961L1.72852 23.3516L1.49414 22.8828L1.17188 22.1797L0.849609 21.3301L0.527344 20.3047L0.351562 19.6016L0.175781 18.6641L0.0292969 17.6387L0 17.5508V14.7676L0.0585938 14.4746L0.205078 13.4199L0.410156 12.4531L0.615234 11.6914L0.966797 10.6367L1.28906 9.8457L1.69922 8.99609L1.99219 8.43945L2.34375 7.85352L2.63672 7.41406L2.98828 6.91602L3.45703 6.30078L3.80859 5.89062L4.07227 5.59766L4.10156 5.53906H4.16016V5.48047H4.21875L4.27734 5.36328L4.98047 4.66016H5.03906V4.60156L5.27344 4.39648H5.33203V4.33789L5.74219 4.01562L6.09375 3.72266L6.65039 3.3125L7.32422 2.87305L7.91016 2.52148L8.55469 2.16992L9.22852 1.84766L10.0195 1.52539L11.0742 1.17383L11.9238 0.939453L12.9199 0.734375L14.0039 0.587891L14.7363 0.529297H16.4648L17.4609 0.617188L18.3105 0.734375L19.1895 0.910156L20.0684 1.14453L21.123 1.49609L21.8262 1.78906L22.5293 2.11133L23.2617 2.49219L23.7598 2.78516L24.3457 3.16602L24.8438 3.51758L25.3418 3.89844L25.6641 4.16211L25.957 4.42578L26.1914 4.63086L26.3672 4.77734V4.83594L26.4844 4.89453L29.9707 8.38086L30.0879 8.32227L33.8086 4.60156L34.1309 4.33789L34.4531 4.04492L34.8633 3.72266L35.4199 3.3125L36.1816 2.81445L36.8848 2.4043L37.6172 2.02344L38.4082 1.67188L39.2578 1.34961L40.1074 1.08594L41.0449 0.851562L42.041 0.675781L42.6855 0.587891L43.3887 0.529297L43.9746 0.5Z" fill="white"/>
</g>
</svg>
