<svg width="60" height="55" viewBox="0 0 60 55" fill="none" xmlns="http://www.w3.org/2000/svg">
<g id="Vector">
<path d="M55.752 5.44922L56.1328 5.50781L56.3086 5.5957L56.543 5.80078L56.9238 6.29883L57.3047 6.82617L57.6855 7.41211L58.125 8.17383L58.5352 8.96484L58.916 9.84375L59.209 10.6641L59.4727 11.5137L59.6484 12.2168L59.8535 13.3301L59.9414 13.9453L60 14.0039V17.1973L59.9414 17.2852L59.8242 18.1055L59.6484 19.0723L59.4727 19.7754L59.1797 20.7422L58.8867 21.5039L58.5938 22.207L58.3594 22.6758L58.0078 23.3496L57.7734 23.7305L57.4805 24.1992L57.1582 24.668L56.8359 25.1074L56.5137 25.5176L56.25 25.8398L55.8398 26.2793L55.6348 26.5137L52.1484 30L52.3242 30.2051L53.7891 31.6699L54.0527 31.9922L54.2871 32.3145L54.5508 32.7832L54.7559 33.252L54.9316 33.8672L55.0195 34.4824V35.1855L54.9023 35.918L54.668 36.6211L54.3457 37.2363L54.082 37.6172L53.7305 38.0273L53.5254 38.2324L53.0273 38.6133L52.5879 38.877L52.0605 39.1113L51.4746 39.2871L50.7422 39.4043H50.5078L50.6543 39.8438L50.7422 40.2539L50.8008 40.7812V41.2793L50.7129 41.9531L50.5664 42.4805L50.3613 42.9785L50.0977 43.4766L49.8047 43.8867L49.4531 44.2676L49.2188 44.502L48.8379 44.7949L48.2812 45.1172L47.8125 45.3223L47.1973 45.498L46.6699 45.5859L46.084 45.6152L45.5273 45.5566L44.9414 45.4395L44.5898 45.3223V45.6445L44.502 46.2305L44.3555 46.7578L44.1211 47.3145L43.8281 47.8125L43.5352 48.1934L43.125 48.6328L42.8027 48.8965L42.5098 49.1016L42.041 49.3652L41.7188 49.5117L41.2793 49.6582L40.752 49.7754L40.3418 49.834H39.6387L39.082 49.7461L38.3789 49.5703V49.9805L38.2617 50.625L38.0566 51.2402L37.8223 51.709L37.5879 52.0898L37.2949 52.4707L37.0898 52.7051H37.0312L36.9727 52.8223L36.6504 53.0859L36.2402 53.3789L35.6836 53.6719L34.8926 53.9355L34.2188 54.0527H33.3398L32.6953 53.9355L31.9922 53.7012L31.377 53.3789L30.9375 53.0566L30.6445 52.793L30.498 52.8223L30.1172 53.1445L29.707 53.4082L29.4141 53.584L28.8281 53.8184L28.3008 53.9648L27.7441 54.0527H26.8945L26.2207 53.9355L25.6055 53.7305L25.1074 53.4961L24.7852 53.291L24.4336 53.0273L24.082 52.7051L23.9062 52.5293V52.4707H23.8477L23.4668 51.9434L23.2031 51.4746L22.998 50.9766L22.8516 50.4492L22.7637 49.8926V49.5996L22.5293 49.6289L21.8848 49.7754L21.4453 49.834H20.8008L20.0684 49.7168L19.5703 49.5703L18.9258 49.2773L18.5156 49.0137L18.1055 48.6914L17.6367 48.2227L17.2852 47.7539L16.9922 47.2266L16.7871 46.7285L16.6406 46.1719L16.5527 45.5566L16.582 45.3223L15.9375 45.498L15.3809 45.5859H14.4727L13.916 45.498L13.3301 45.3223L12.7441 45.0586L12.2754 44.7656L11.8945 44.4434L11.6895 44.2676L11.4844 44.0332L11.1914 43.6816L10.957 43.3008L10.7227 42.8613L10.4883 42.1582L10.3711 41.543L10.3418 41.1914V40.8398L10.4297 40.1367L10.6055 39.4629L10.6348 39.4043L10.1367 39.375L9.4043 39.2285L8.78906 38.9941L8.34961 38.7598L7.96875 38.4961L7.64648 38.2324L7.20703 37.793L6.85547 37.3242L6.5625 36.7969L6.35742 36.2988L6.21094 35.7715L6.12305 35.2148V34.4531L6.21094 33.8672L6.38672 33.252L6.65039 32.666L6.91406 32.2266L7.20703 31.8457L7.38281 31.6406H7.44141V31.582H7.5L7.55859 31.4648L8.4082 30.6152L8.34961 30.498L6.82617 28.9746L6.62109 28.6816L6.5625 28.5059V28.1836L6.67969 27.8906L6.85547 27.6562L7.14844 27.4805L7.23633 27.4512H7.67578L8.02734 27.627L9.66797 29.2676L9.78516 29.2383L11.8945 27.1289L12.1289 26.9238L12.5391 26.6016L13.0078 26.3086L13.5352 26.0742L14.1211 25.8984L14.7363 25.8105H15.5566L16.1426 25.8984L16.7285 26.0742L17.2559 26.3086L17.6953 26.5723L18.0469 26.8359L18.4277 27.1875L18.75 27.5391L19.0137 27.9199L19.2773 28.3887L19.5117 28.9746L19.6289 29.4141L19.7168 30.0293V30.791L19.6875 31.0547L19.9512 31.0254H20.6836L21.1816 31.084L21.8555 31.2598L22.3535 31.4648L22.8223 31.7285L23.1738 31.9922L23.5547 32.3145L23.7891 32.5488L24.1699 33.0469L24.5215 33.6621L24.7266 34.1895L24.873 34.8047L24.9316 35.1855V35.9766L24.9023 36.2402H25.8691L26.543 36.3281L27.1582 36.5039L27.5684 36.6797L28.125 37.002L28.5059 37.2949L28.9453 37.7051L29.2383 38.0566L29.5312 38.4961L29.7656 38.9648L29.9414 39.4043L30.0879 39.9902L30.1465 40.5176V41.1914L30.1172 41.4844L30.4102 41.4551H31.1133L31.7578 41.543L32.373 41.7188L32.8125 41.9238L33.252 42.1582L33.6035 42.4219L33.9844 42.7441L34.2188 42.9785L34.5996 43.4766L34.8633 43.916L35.0391 44.2383L35.5078 44.6777L38.2031 47.373L38.584 47.6367L38.9941 47.8418L39.375 47.959L39.7852 48.0176H40.2832L40.8398 47.9004L41.3086 47.6953L41.6602 47.4902L42.0117 47.168H42.0703L42.1289 47.0508L42.3926 46.6992L42.5977 46.2598L42.7148 45.8789L42.7734 45.4688V44.9707L42.6562 44.4141L42.4512 43.916L42.2461 43.5938L41.9531 43.2715V43.2129H41.8945L41.7188 43.0078L41.543 42.8613L41.3672 42.6562L41.25 42.5684V42.5098L41.1328 42.4512V42.3926L41.0156 42.334V42.2754L40.8984 42.2168V42.1582L40.7812 42.0996V42.041L40.6641 41.9824V41.9238L40.5469 41.8652V41.8066L40.4297 41.748V41.6895L40.3125 41.6309V41.5723L40.1953 41.5137V41.4551L40.0781 41.3965V41.3379L39.9609 41.2793V41.2207L39.8438 41.1621V41.1035L39.7266 41.0449V40.9863L39.6094 40.9277V40.8691L39.4922 40.8105V40.752L39.375 40.6934V40.6348L39.2578 40.5762V40.5176L39.1406 40.459V40.4004L39.0234 40.3418V40.2832L38.9062 40.2246V40.166L38.7891 40.1074V40.0488L38.6719 39.9902V39.9316L38.5547 39.873V39.8145L38.4375 39.7559V39.6973L38.3203 39.6387V39.5801L38.2031 39.5215V39.4629L38.0859 39.4043V39.3457L37.9688 39.2871V39.2285L37.8516 39.1699V39.1113L37.7344 39.0527V38.9941L37.6172 38.9355V38.877L37.5 38.8184V38.7598L37.3828 38.7012V38.6426L37.2656 38.584V38.5254L37.1484 38.4668V38.4082L37.0312 38.3496V38.291L36.9141 38.2324V38.1738L36.7969 38.1152V38.0566L36.6797 37.998V37.9395L36.5625 37.8809V37.8223L36.4453 37.7637V37.7051L36.3281 37.6465V37.5879L36.2109 37.5293V37.4707L36.0938 37.4121V37.3535L35.9766 37.2949V37.2363L35.8594 37.1777V37.1191L35.7422 37.0605V37.002L35.625 36.9434V36.8848L35.5078 36.8262V36.7676L35.3906 36.709V36.6504L35.2734 36.5918V36.5332L35.1562 36.4746L34.8047 36.123L34.6289 35.8887L34.4824 35.5957V35.2441L34.5996 34.9512L34.8047 34.7168L35.0391 34.5703L35.2148 34.5117H35.5078L35.8301 34.6289L36.123 34.8633L44.4141 43.1543L44.8535 43.4473L45.2344 43.623L45.6445 43.7402L45.8496 43.7695H46.5527L46.9922 43.6816L47.4316 43.5059L47.7539 43.3301L48.1641 43.0078L48.3691 42.7734L48.6035 42.4512L48.8086 42.0117L48.9551 41.4258V40.6348L48.8379 40.1367L48.6914 39.7852L48.5156 39.4629L48.2812 39.1699L47.9297 38.7891L47.4609 38.3203L47.2852 38.1738L47.1094 37.9688L46.9336 37.8223L46.8164 37.7051V37.6465H46.7578V37.5879H46.6992V37.5293H46.6406V37.4707H46.582V37.4121H46.5234V37.3535H46.4648L46.2891 37.1484L46.1133 37.002V36.9434H46.0547V36.8848H45.9961V36.8262H45.9375V36.7676H45.8789V36.709H45.8203V36.6504H45.7617V36.5918H45.7031V36.5332H45.6445V36.4746H45.5859V36.416H45.5273V36.3574H45.4688V36.2988H45.4102V36.2402H45.3516V36.1816H45.293V36.123H45.2344V36.0645H45.1758V36.0059H45.1172V35.9473H45.0586V35.8887H45V35.8301H44.9414V35.7715H44.8828V35.7129H44.8242V35.6543H44.7656V35.5957H44.707V35.5371H44.6484V35.4785H44.5898L44.4141 35.2734L44.2383 35.127V35.0684H44.1797V35.0098H44.1211V34.9512H44.0625V34.8926H44.0039V34.834H43.9453V34.7754H43.8867V34.7168H43.8281V34.6582H43.7695V34.5996H43.7109V34.541H43.6523V34.4824H43.5938V34.4238H43.5352L43.3594 34.2188L43.1836 34.0723V34.0137H43.125V33.9551H43.0664V33.8965H43.0078V33.8379H42.9492V33.7793H42.8906V33.7207H42.832V33.6621H42.7734V33.6035H42.7148V33.5449H42.6562V33.4863H42.5977L42.4219 33.2812L42.2461 33.1348L42.0703 32.9297L41.8945 32.7832L41.6895 32.5488L41.543 32.4316L41.3672 32.2266L41.1914 32.0801L41.0156 31.875L40.8398 31.7285L40.6348 31.4941L40.4297 31.2891L40.2539 31.1426L40.1367 31.0254V30.9668H40.0781V30.9082L39.9609 30.8496L39.6973 30.5566L39.5508 30.3223L39.4922 30.1465V29.8828L39.5801 29.5898L39.7852 29.3262L40.0488 29.1504L40.2832 29.0918H40.5176L40.8398 29.209L41.1328 29.4434L48.6328 36.9434L48.9258 37.1484L49.4238 37.4121L49.834 37.5293L50.3027 37.5879H50.625L51.1523 37.5L51.6211 37.3242L52.002 37.1191L52.2949 36.8848L52.6172 36.5625L52.8809 36.1523L53.0566 35.7422L53.1738 35.2734L53.2031 35.0391V34.541L53.0859 33.9844L52.8809 33.4863L52.6758 33.1641L52.3242 32.7539L50.2734 30.7031L50.0391 30.498L49.3066 29.7656L49.0723 29.5605L48.2812 28.7695L48.2227 28.7402V28.6816L48.1055 28.623L47.373 27.8906L47.1387 27.6855L46.7578 27.3047L46.5234 27.0996L46.2891 26.8359L46.1426 26.5723L46.1133 26.4551V26.1914L46.2012 25.8984L46.4062 25.6348L46.6992 25.459L46.7871 25.4297H47.2266L47.4902 25.5469L47.9004 25.8984L48.5742 26.5723L48.8086 26.7773L49.4824 27.4512L49.7168 27.6562L50.332 28.2715L50.3906 28.3008V28.3594L50.5078 28.418L50.8008 28.7109L50.918 28.6523L51.0352 28.5352H51.0938L51.1523 28.418L51.3867 28.1836H51.4453L51.5039 28.0664H51.5625L51.6211 27.9492H51.6797L51.7383 27.832H51.7969L51.8555 27.7148H51.9141L51.9727 27.5977H52.0312L52.0898 27.4805H52.1484L52.207 27.3633H52.2656V27.3047H52.3242V27.2461H52.3828V27.1875H52.4414V27.1289L52.5586 27.0117H52.6172V26.9531H52.6758V26.8945H52.7344V26.8359H52.793V26.7773L52.9102 26.6602H52.9688L53.0273 26.543H53.0859L53.1445 26.4258H53.2031L53.2617 26.3086H53.3203L53.3789 26.1914H53.4375L53.4961 26.0742H53.5547L53.6133 25.957H53.6719V25.8984H53.7305V25.8398H53.7891V25.7812H53.8477V25.7227H53.9062V25.6641H53.9648V25.6055H54.0234V25.5469H54.082V25.4883H54.1406L54.1992 25.3711H54.2578L54.3164 25.2539L54.6973 24.873L54.9609 24.5508L55.2832 24.1699L55.6934 23.6133L56.1328 22.9395L56.5723 22.1777L56.9238 21.4746L57.1875 20.8594L57.4512 20.1562L57.7148 19.3066L57.9199 18.4277L58.0664 17.6074L58.1543 16.7871L58.1836 16.377V14.9121L58.0957 13.916L57.9785 13.1543L57.8027 12.334L57.5977 11.5723L57.3047 10.7227L56.9531 9.87305L56.4844 8.93555L56.1035 8.29102L55.6934 7.67578L55.3418 7.20703L55.0488 6.79688L54.9316 6.5332V6.18164L55.0488 5.88867L55.2832 5.625L55.4883 5.50781L55.752 5.44922ZM14.8535 27.5977L14.3848 27.6855L13.9746 27.832L13.5645 28.0664L13.2715 28.3008L8.55469 33.0176L8.32031 33.3398L8.08594 33.8379L7.96875 34.1895L7.91016 34.6289V35.0391L7.96875 35.4492L8.11523 35.8887L8.32031 36.2988L8.58398 36.6504L8.93555 37.002L9.3457 37.2656L9.69727 37.4414L10.0781 37.5586L10.4883 37.6172H10.957L11.543 37.5L12.0117 37.2949L12.4219 37.0312L12.7148 36.7676L16.6992 32.7832L16.875 32.6367L17.0801 32.4023L17.3438 32.1387L17.6367 31.6699L17.7832 31.3477L17.9004 30.8789L17.9297 30.6738V30.1465L17.8418 29.6484L17.6953 29.2383L17.4609 28.7988L17.1973 28.4766L16.9922 28.2715L16.6699 28.0371L16.1719 27.7734L15.6445 27.627L15.4395 27.5977H14.8535ZM20.0684 32.8125L19.4824 32.9297L19.0137 33.1348L18.6621 33.3691L18.3105 33.6914L12.8027 39.1992L12.5391 39.5801L12.334 39.9902L12.1875 40.459L12.1582 40.6641V41.3965L12.2754 41.8945L12.4512 42.334L12.7441 42.7734L13.0078 43.0664L13.3008 43.3008L13.7109 43.5352L14.0625 43.6816L14.5605 43.7988H15.293L15.8203 43.6816L16.2891 43.4766L16.7578 43.1543L17.168 42.7441L17.3438 42.5977L17.5195 42.3926L17.6953 42.2461L17.8711 42.041L18.0469 41.8945L18.2227 41.6895L18.3984 41.543L18.5742 41.3379L18.75 41.1914L18.9258 40.9863L19.1016 40.8398L19.3066 40.6055L21.6211 38.291L21.7969 38.1445L21.9727 37.9395L22.1484 37.793L22.3535 37.5586L22.6172 37.2656L22.8516 36.8848L22.998 36.5332L23.1152 36.0938L23.1445 35.8594V35.3906L23.0859 34.9805L22.9102 34.4531L22.6758 34.0137L22.4121 33.6914L22.207 33.4863L21.8848 33.252L21.4453 33.0176L21.0059 32.8711L20.5957 32.8125H20.0684ZM25.2832 38.0273L24.8145 38.1152L24.4043 38.2617L23.9941 38.4961L23.6719 38.7598L19.0137 43.418L18.75 43.7988L18.5156 44.2676L18.3984 44.6484L18.3398 45.0879V45.4395L18.3984 45.8496L18.5449 46.3184L18.75 46.7285L19.0137 47.0801L19.3652 47.4316L19.7754 47.6953L20.127 47.8711L20.5078 47.9883L20.918 48.0469H21.416L21.9727 47.9297L22.4414 47.7246L22.793 47.5195L23.1738 47.168L23.3203 47.0508L23.4961 46.8457L23.6719 46.6992L23.8477 46.4941L24.0234 46.3477L24.1992 46.1426L24.375 45.9961L24.5508 45.791L24.7266 45.6445L24.9023 45.4395L25.0781 45.293L25.2539 45.0879L25.4297 44.9414L25.6055 44.7363L25.7812 44.5898L25.957 44.3848L26.1328 44.2383L26.3086 44.0332L26.4844 43.8867L26.6602 43.6816L26.8359 43.5352L27.0117 43.3301L27.1875 43.1836L27.3633 42.9785L27.5391 42.832L27.7441 42.5977L27.9492 42.3047L28.1836 41.8359L28.3301 41.3086L28.3594 41.1035V40.5762L28.2715 40.0781L28.125 39.668L27.8906 39.2285L27.627 38.9062L27.4219 38.7012L27.0117 38.4082L26.5137 38.1738L26.0742 38.0566L25.8691 38.0273H25.2832ZM30.5273 43.2422L30.0293 43.3301L29.5605 43.5059L29.1797 43.7402L28.8574 44.0039L25.2246 47.6367L24.9609 47.9883L24.7266 48.457L24.5801 48.9844L24.5508 49.2188V49.7754L24.6387 50.2441L24.8145 50.7129L25.0781 51.1523L25.4297 51.5332L25.752 51.7969L26.1621 52.0312L26.6602 52.207L27.0117 52.2656H27.6855L28.2129 52.1484L28.623 51.9727L29.0332 51.709L29.3262 51.4453L29.4727 51.3281V51.2695L29.5898 51.2109V51.1523L29.707 51.0938V51.0352L29.8242 50.9766V50.918L29.9414 50.8594V50.8008L30.0586 50.7422V50.6836L30.1758 50.625V50.5664L30.293 50.5078V50.4492H30.3516V50.3906H30.4102V50.332L30.5273 50.2734V50.2148L30.6445 50.1562V50.0977L30.7617 50.0391V49.9805L30.8789 49.9219V49.8633L30.9961 49.8047V49.7461L31.1133 49.6875V49.6289L31.2305 49.5703V49.5117L31.3477 49.4531L31.6992 49.1016V49.043L31.8164 48.9844V48.9258L31.9336 48.8672V48.8086L32.0508 48.75V48.6914L32.168 48.6328V48.5742L32.2852 48.5156V48.457L32.4023 48.3984V48.3398L32.5195 48.2812V48.2227L32.6367 48.1641V48.1055L32.7246 48.0762L32.9297 47.8418L33.1641 47.5195L33.3984 47.0508L33.5156 46.6699L33.5742 46.3184V45.791L33.4863 45.293L33.3105 44.8242L33.0762 44.4141L32.8418 44.1211L32.6367 43.916L32.3145 43.6816L31.875 43.4473L31.4062 43.3008L30.9961 43.2422H30.5273ZM35.2734 47.0215L35.1855 47.2559L35.0098 47.7832L34.7754 48.252L34.541 48.6621L34.248 49.0137V49.0723H34.1895L33.9844 49.3066L31.9043 51.3867L31.8457 51.416L31.9043 51.5332L32.1387 51.7383L32.5781 52.002L33.0469 52.1777L33.4863 52.2656H34.1602L34.6582 52.1484L35.0977 51.9727L35.5078 51.709L35.8594 51.3867L36.0938 51.123L36.3281 50.7129L36.4746 50.332L36.5625 50.0098L36.5918 49.8047V49.1602L36.5039 48.7207L36.3281 48.252L36.123 47.9004L35.8887 47.6074L35.3027 47.0215H35.2734Z" fill="#23B643"/>
<path d="M43.9746 0H44.7656L45.7324 0.0585938L46.7285 0.175781L47.5488 0.322266L48.4277 0.527344L49.3066 0.791016L50.0391 1.05469L50.7422 1.34766L51.5918 1.75781L52.2363 2.10938L52.7637 2.43164L53.291 2.7832L53.6426 3.04688L53.8477 3.31055L53.9355 3.54492V3.86719L53.8477 4.13086L53.6426 4.39453L53.4082 4.54102L53.1152 4.62891L52.8223 4.59961L52.4707 4.42383L52.002 4.10156L51.4453 3.75L50.918 3.45703L50.4199 3.19336L49.834 2.92969L49.1602 2.66602L48.2812 2.37305L47.4902 2.16797L46.582 1.99219L45.6445 1.875L44.5898 1.81641H44.0039L43.0664 1.875L42.1289 1.99219L41.25 2.16797L40.3711 2.40234L39.4336 2.72461L38.6719 3.04688L37.9395 3.39844L37.4121 3.69141L36.7969 4.07227L36.2109 4.48242L35.8301 4.77539L35.5078 5.03906L35.0684 5.41992L34.834 5.6543H34.7754V5.71289L34.541 5.91797L30.6152 9.84375L30.3809 10.0488L22.5879 17.8418L22.4707 18.1055L22.4414 18.2227V18.5156L22.5586 18.8086L22.8223 19.1016L23.1738 19.3945L23.584 19.6582L24.1406 19.9512L24.8438 20.1855L25.3418 20.2734L25.5762 20.3027H26.4844L27.0117 20.2148L27.5391 20.0684L28.1543 19.8047L28.5645 19.5703L29.0332 19.2188L29.3262 18.9551L34.2773 14.0039L34.541 13.8281L34.8047 13.7402H35.0391L35.332 13.8281L35.5664 14.0039L36.0059 14.4141L36.5039 14.9121L36.5625 14.9414V15L36.6797 15.0586L37.3242 15.7031L37.5586 15.9082L38.2031 16.5527L38.2617 16.582V16.6406L38.3789 16.6992L39.1699 17.4902L39.4043 17.6953L40.0195 18.3105L40.0781 18.3398V18.3984L40.1953 18.457L40.8398 19.1016L41.0742 19.3066L41.6602 19.8926L41.7188 19.9219V19.9805L41.8359 20.0391L42.5977 20.8008L42.832 21.0059L43.418 21.5918L43.6523 21.7969L44.2383 22.3828L44.4727 22.5879L44.9414 23.0566L45.1172 23.3496L45.1465 23.4668V23.8184L45.0293 24.1113L44.8242 24.3457L44.6484 24.4629L44.3555 24.5508H44.1211L43.8281 24.4336L43.5938 24.2578L43.3594 24.0234L43.125 23.8184L42.3926 23.0859L42.1582 22.8809L41.4258 22.1484L41.3086 22.0605V22.002L41.1914 21.9434L40.459 21.2109L40.2246 21.0059L39.8438 20.625L39.6094 20.4199L38.9941 19.8047L38.7598 19.5996L37.9102 18.75L37.6758 18.5449L37.0605 17.9297L36.8262 17.7246L36.4453 17.3438L36.3867 17.3145V17.2559L36.2695 17.1973L35.4785 16.4062L35.2441 16.2012L34.9805 15.9375L34.8633 15.9961L30.5273 20.332L30.293 20.5371L29.8242 20.918L29.209 21.2988L28.7695 21.5332L28.3301 21.709L27.8027 21.8848L27.1582 22.0312L26.4844 22.1191H25.4883L24.7852 22.0312L24.082 21.8555L23.5254 21.6504L22.9395 21.3867L22.3535 21.0352L21.9727 20.7422L21.5625 20.3906L21.2109 20.0391L21.0059 19.7461L20.7715 19.2773L20.6543 18.8672L20.625 18.6914V18.0176L20.7422 17.5195L20.8887 17.168L21.123 16.7871L21.3281 16.5234H21.3867V16.4648H21.4453L21.5039 16.3477H21.5625L21.6211 16.2305L28.5645 9.28711H28.623L28.6816 9.14062L25.166 5.625L24.9316 5.41992L24.5801 5.09766L24.1699 4.77539L23.584 4.33594L23.1445 4.04297L22.7637 3.80859L22.1484 3.45703L21.6797 3.22266L21.0645 2.92969L20.3027 2.63672L19.5117 2.37305L18.5742 2.13867L17.7832 1.99219L16.8164 1.875L16.4355 1.8457H14.7656L13.5938 1.96289L12.627 2.13867L11.8066 2.34375L10.752 2.69531L9.90234 3.04688L9.11133 3.42773L8.4082 3.83789L7.85156 4.18945L7.32422 4.57031L7.00195 4.83398L6.70898 5.06836L6.32812 5.39062L6.00586 5.71289L5.77148 5.91797L5.41992 6.29883L5.12695 6.62109L4.86328 6.94336L4.54102 7.35352L4.18945 7.85156L3.75 8.52539L3.39844 9.16992L3.13477 9.66797L2.75391 10.5469L2.46094 11.3672L2.22656 12.1875L2.02148 13.0957L1.875 14.0918L1.81641 14.7656L1.78711 15.3516V15.9961L1.8457 16.9043L1.96289 17.8711L2.13867 18.7793L2.37305 19.6582L2.69531 20.5957L3.01758 21.3574L3.36914 22.0898L3.66211 22.6172L4.04297 23.2324L4.39453 23.7305L4.6582 24.082L4.89258 24.375L5.15625 24.6973L5.41992 24.9902L5.5957 25.2832L5.6543 25.459V25.7812L5.53711 26.0742L5.30273 26.3379L5.09766 26.4551L4.86328 26.5137H4.62891L4.30664 26.3965L4.01367 26.1328L3.7207 25.8105L3.39844 25.4004L3.04688 24.9609L2.66602 24.4043L2.46094 24.1113L2.08008 23.4961L1.72852 22.8516L1.49414 22.3828L1.17188 21.6797L0.849609 20.8301L0.527344 19.8047L0.351562 19.1016L0.175781 18.1641L0.0292969 17.1387L0 17.0508V14.2676L0.0585938 13.9746L0.205078 12.9199L0.410156 11.9531L0.615234 11.1914L0.966797 10.1367L1.28906 9.3457L1.69922 8.49609L1.99219 7.93945L2.34375 7.35352L2.63672 6.91406L2.98828 6.41602L3.45703 5.80078L3.80859 5.39062L4.07227 5.09766L4.10156 5.03906H4.16016V4.98047H4.21875L4.27734 4.86328L4.98047 4.16016H5.03906V4.10156L5.27344 3.89648H5.33203V3.83789L5.74219 3.51562L6.09375 3.22266L6.65039 2.8125L7.32422 2.37305L7.91016 2.02148L8.55469 1.66992L9.22852 1.34766L10.0195 1.02539L11.0742 0.673828L11.9238 0.439453L12.9199 0.234375L14.0039 0.0878906L14.7363 0.0292969H16.4648L17.4609 0.117188L18.3105 0.234375L19.1895 0.410156L20.0684 0.644531L21.123 0.996094L21.8262 1.28906L22.5293 1.61133L23.2617 1.99219L23.7598 2.28516L24.3457 2.66602L24.8438 3.01758L25.3418 3.39844L25.6641 3.66211L25.957 3.92578L26.1914 4.13086L26.3672 4.27734V4.33594L26.4844 4.39453L29.9707 7.88086L30.0879 7.82227L33.8086 4.10156L34.1309 3.83789L34.4531 3.54492L34.8633 3.22266L35.4199 2.8125L36.1816 2.31445L36.8848 1.9043L37.6172 1.52344L38.4082 1.17188L39.2578 0.849609L40.1074 0.585938L41.0449 0.351562L42.041 0.175781L42.6855 0.0878906L43.3887 0.0292969L43.9746 0Z" fill="#23B643"/>
</g>
</svg>
