<svg width="60" height="65" viewBox="0 0 60 65" fill="none" xmlns="http://www.w3.org/2000/svg">
<g id="Vector">
<path d="M29.6633 31.1302H30.7744L32.2222 31.1975L33.4007 31.2985L34.9158 31.5005L36.3636 31.7699L37.6094 32.0729L38.6869 32.376L39.9327 32.78L41.0101 33.184L42.1212 33.6554L43.266 34.1941L44.2424 34.6992L44.5791 34.9012L45.1178 35.1706L45.6229 35.5073L46.3636 35.9787L46.8687 36.3154L47.4411 36.7194L48.0808 37.1908L48.6195 37.6285L49.0909 37.9989L49.596 38.4366L49.9663 38.7733L50.2357 39.009L50.7407 39.4803L51.8182 40.5578L52.0539 40.8271L52.1549 40.9282V40.9955H52.2222L52.4579 41.2649L52.8619 41.7362L53.165 42.1066L53.6027 42.6453L54.0741 43.2851L54.4444 43.7901L54.9832 44.5645L55.4882 45.3726L55.7912 45.8103L55.9933 46.046L56.2626 46.6857L56.7677 47.6622L57.037 48.2009L57.4747 49.1436L57.9125 50.1874L58.1481 50.7935L58.5522 52.0056L58.8215 52.881L59.0909 53.8911L59.3603 55.0359L59.596 56.3154L59.7643 57.4601L59.899 58.8069L59.9663 59.8844L60 60.8271L59.9663 61.1975L59.798 61.5342L59.5623 61.7699L59.2256 61.9046L58.9899 61.9383H47.2391L46.936 61.8709L46.633 61.6689L46.3973 61.3659L46.33 61.1638L46.2963 60.7935L46.229 59.4803L46.0943 58.4029L45.8923 57.3255L45.6229 56.3154L45.2862 55.3053L44.9832 54.5645L44.6128 53.7564L44.2088 52.982L43.8047 52.3086L43.468 51.8036L43.0303 51.1975L42.6599 50.7261L42.3569 50.3894L42.0539 50.0191L41.0438 49.009L40.6734 48.7059L40.3367 48.4029L39.9327 48.0999L39.3266 47.6622L38.6532 47.2245L38.0808 46.8878L37.3064 46.4837L36.532 46.1133L35.6566 45.7766L34.7475 45.4736L33.5354 45.1706L32.7946 45.0359L32.0875 44.9349L31.2458 44.8675L30.5724 44.8339H29.6633L28.5859 44.9012L27.7441 45.0022L26.6667 45.2043L25.5219 45.5073L24.3434 45.9113L23.6364 46.2144L22.7946 46.6184L22.1549 46.9551L21.5488 47.3255L20.8081 47.8305L20.404 48.1335L19.8653 48.5713L19.4949 48.8743L19.2593 49.11L18.9899 49.3457L18.3502 49.9854L18.0471 50.3558L17.7104 50.7261L17.1044 51.5342L16.734 52.0729L16.4983 52.4433L16.1616 53.0157L15.8923 53.4871L15.5219 54.2615L15.1515 55.1369L14.7475 56.3154L14.4781 57.3591L14.3098 58.2009L14.1414 59.4467L14.1077 59.9181L14.0741 60.8608L14.0067 61.2649L13.8721 61.5342L13.6364 61.7699L13.2997 61.9046L13.0303 61.9383H1.31313L1.0101 61.8709L0.707071 61.6689L0.50505 61.4332L0.40404 61.1975L0.37037 60.9955V60.5241L0.40404 59.4467L0.50505 58.0662L0.673401 56.6857L0.909091 55.2716L1.21212 53.8911L1.44781 52.982L1.78451 51.8372L2.15488 50.7598L2.62626 49.5477L3.16498 48.3356L3.50168 47.6285L3.83838 46.9888L4.14141 46.4164L4.61279 45.6083L5.01683 44.9686L5.38721 44.3962L5.82492 43.7564L6.26263 43.1504L6.633 42.679L7.03704 42.174L7.27273 41.8709L7.60943 41.5005L7.87879 41.1638L8.24916 40.7598L8.45118 40.5241H8.51852V40.4568H8.58586L8.6532 40.3221L9.86532 39.11L10.1347 38.8743L10.5387 38.5039L10.9091 38.2009L11.4141 37.7632L11.8519 37.4265L12.4242 36.9888L13.0303 36.5511L13.569 36.1807L14.4444 35.6083L15.2862 35.1032L16.1279 34.6319L17.2391 34.0595L18.3502 33.5544L19.596 33.0494L20.7407 32.6453L21.5825 32.376L22.5253 32.1066L24.1414 31.7362L25.4209 31.5005L26.6667 31.3322L28.1481 31.1975L29.6633 31.1302ZM28.6195 33.1504L27.3401 33.2514L25.9933 33.4197L24.8148 33.6218L23.6027 33.8911L22.4579 34.1941L21.1785 34.5982L20.3367 34.9012L19.2593 35.3389L18.1481 35.844L17.2054 36.3154L17.2391 36.4837L17.6768 37.2581L20.202 41.6352L20.6734 42.4433L21.2121 43.3861L21.6835 44.1941L21.9865 44.7329L22.1549 44.6992L23.0976 44.2615L23.9731 43.9248L25.0842 43.5544L26.2626 43.2514L27.3737 43.0494L28.4848 42.9147L29.1919 42.8473L29.2256 42.78V33.1504H28.6195ZM31.2121 33.1504V42.8473L32.4916 42.982L33.569 43.1504L34.7811 43.4197L35.9259 43.7564L36.7677 44.0595L37.7104 44.4635L38.2828 44.7329L38.4175 44.7665L38.9226 43.9248L39.3939 43.083L39.8316 42.3423L40.3704 41.3995L40.8418 40.5915L41.2458 39.8844L41.7508 39.009L42.2222 38.2009L43.0303 36.7867L43.1987 36.4837L43.165 36.3827L42.0539 35.8103L40.9428 35.3053L39.6633 34.8002L38.2828 34.3288L37.3401 34.0595L35.9933 33.7228L34.5455 33.4534L33.266 33.2851L32.2559 33.184L31.6498 33.1504H31.2121ZM15.3535 37.3928L14.4444 37.9989L13.8721 38.4029L13.5017 38.6723L13.064 39.009L12.5253 39.4467L12.1549 39.7497L11.8182 40.0527L11.5488 40.2884L11.1111 40.6925L10.8754 40.8945V40.9618H10.8081V41.0292L10.6734 41.0965L10.3367 41.4332V41.5005H10.2694V41.5679H10.202L9.96633 41.8372L9.69697 42.1066L9.46128 42.376L9.15825 42.7127L8.85522 43.083L8.45118 43.5544L8.11448 43.9921L7.6431 44.6319L7.23906 45.2043L6.90236 45.7093L6.66667 46.0797L6.633 46.1807L7.44108 46.6521L8.3165 47.1571L9.12458 47.6285L9.83165 48.0325L10.7071 48.5376L11.5152 49.009L12.3906 49.514L13.0976 49.9181L13.9057 50.3894L14.6128 50.7935L14.9495 50.9955H15.0505L15.4209 50.4568L15.8249 49.9181L16.1953 49.4467L16.5993 48.9753L16.9697 48.5713L17.0034 48.4702H17.0707V48.4029H17.138L17.3737 48.1335L17.6768 47.8305L17.7441 47.7968V47.7295L17.8788 47.6622L18.1481 47.3928L18.5185 47.0898L18.9562 46.7194L19.3603 46.4164L19.9663 45.9787L20.2694 45.7766L20.2357 45.6083L19.7306 44.7329L19.1919 43.7901L18.7205 42.982L18.1818 42.0393L17.8451 41.4669L17.3064 40.5241L16.835 39.716L15.8249 37.9652L15.4882 37.3928H15.3535ZM44.9158 37.4601L44.4444 38.2682L43.771 39.4467L43.2997 40.2548L42.7946 41.1302L42.3906 41.8372L41.9529 42.578L41.4141 43.5207L40.9091 44.3962L40.5724 44.9686L40.1347 45.743V45.8103L40.6734 46.1807L41.3131 46.6521L41.6835 46.9551L42.1549 47.3591L42.4916 47.6622L42.9293 48.0662L43.2997 48.4366L43.5354 48.7059L43.9057 49.11L44.2088 49.4803L44.6128 49.9854L45.0505 50.5915L45.2862 50.9282L45.3535 51.0292L45.5556 50.9618L46.2963 50.5241L53.2997 46.4837L53.67 46.248L53.6027 46.0797L53.266 45.5746L52.8956 45.0359L52.5589 44.5645L52.0202 43.8574L51.6498 43.3861L51.2121 42.881L50.8418 42.4433L49.8653 41.3995L49.2593 40.7935L48.9899 40.5578L48.7542 40.3221L48.4848 40.0864L48.0135 39.6824L47.5758 39.312L47.0034 38.8743L46.5657 38.5376L45.9596 38.0999L45.0168 37.4601H44.9158ZM5.58923 47.8979L5.31987 48.4366L4.94949 49.211L4.54545 50.1201L4.20875 50.9618L3.83838 51.9719L3.50168 53.0157L3.16498 54.2952L2.92929 55.3053L2.76094 56.2144L2.62626 57.0561L2.49158 58.2009L2.39057 59.514V59.9517H12.0539L12.0875 59.9181L12.2896 58.1672L12.5253 56.9214L12.7946 55.8777L13.1987 54.6655L13.569 53.7228L13.8721 53.0494L14.0067 52.78V52.7127L11.6162 51.3322L10.9091 50.9282L10.101 50.4568L6.59933 48.4366L5.89226 48.0325L5.69024 47.8979H5.58923ZM54.6128 47.9989L53.9394 48.3692L53.1313 48.8406L52.1885 49.3793L51.3805 49.8507L50.4377 50.3894L49.6296 50.8608L48.6869 51.3995L47.8788 51.8709L47.1717 52.275L46.431 52.7127L46.3973 52.881L46.8013 53.7228L47.2391 54.8339L47.5758 55.8777L47.8788 57.0898L48.0471 57.9989L48.1818 59.009L48.2828 59.9517H57.9798L57.8788 58.5039L57.7441 57.3255L57.5084 55.8777L57.2054 54.5308L56.8687 53.2514L56.4646 52.0056L56.0606 50.9282L55.7576 50.1874L55.3199 49.211L54.7811 48.0999L54.7138 47.9989H54.6128Z" fill="#23B643"/>
<path d="M46.532 0.0527344H47.3401L48.6195 0.120074L49.798 0.254755L50.8418 0.456775L51.7845 0.726135L52.4916 0.995495L53.1987 1.3322L53.7374 1.6689L54.1751 2.0056L54.5791 2.37597L54.9158 2.74634L55.2525 3.25139L55.5556 3.89112L55.6902 4.32883L55.7912 4.96856V5.74297L55.6902 6.41637L55.4882 7.12344L55.2862 7.62849L54.9495 8.33556L54.7475 8.67226L54.3434 9.27832L54.0741 9.64869L53.7037 10.1201L53.3333 10.5241L53.0976 10.7935L52.3232 11.5679L52.0539 11.8036L51.5825 12.2076L51.1785 12.5443L50.8418 12.8137L50.4377 13.1167L49.8653 13.5207L49.3266 13.8911L48.8215 14.2278L48.3838 14.4972L47.4411 15.0696L46.7003 15.4736L46.0606 15.8103L45.2189 16.248L44.2761 16.6857L43.0303 17.2245L41.6498 17.7632L40.404 18.2009L39.3603 18.5376L38.2155 18.8743L36.5993 19.2783L34.6801 19.6824L34.5791 20.1537L34.1414 22.6453L33.771 24.7329L33.6364 25.1369L33.4343 25.4063L33.2323 25.541L32.2559 25.9113L29.4276 26.9214L28.4175 27.2918L27.4411 27.6285L26.1616 28.0999L25.8249 28.2009H25.4882L25.1852 28.0999L24.8485 27.7968L24.6801 27.4265V26.9214L25.1515 24.2615L25.6229 21.6352L25.8249 20.4568L25.8923 20.2884L24.7138 20.6925L24.3098 20.7935H23.8047L23.4007 20.6925L22.9966 20.4904L22.6599 20.2211L22.3569 19.817L22.1549 19.3793L20.8754 15.8103L20.202 13.9248L19.8653 13.0157L19.7306 12.5443L19.697 12.0056L19.798 11.5342L20.0337 11.0628L20.3367 10.7261L20.5724 10.5241L21.1111 10.2548L22.1549 9.88439L22.2896 9.81704L22.0539 9.58135L21.6835 9.27832L21.3805 9.00896L21.0101 8.70593L20.6061 8.33556L20.2694 8.0662L19.7643 7.62849L18.8215 6.82041L18.3838 6.45004L18.1145 6.21435L17.6431 5.81031L17.2727 5.50728L16.936 5.17058L16.8013 4.86755L16.7677 4.53085L16.8687 4.19415L17.0707 3.89112L17.3737 3.6891L18.6532 3.21772L19.899 2.78001L21.3805 2.24129L23.266 1.56789L24.2761 1.19752L24.7811 1.06284L25.0842 1.09651L25.3535 1.19752L25.7912 1.53422L26.1616 1.87092L26.532 2.17395L27.037 2.61166L27.5084 3.0157L27.9461 3.38607L28.4512 3.82378L28.8215 4.12681L29.1582 4.42984L29.596 4.76654V4.83388L29.7643 4.86755L30.3704 4.53085L31.3468 4.0258L32.3906 3.52075L34.0404 2.81368L35.6566 2.20762L36.835 1.80358L37.9461 1.46688L39.2929 1.09651L40.9091 0.726135L42.3569 0.456775L43.7374 0.254755L45.1178 0.120074L46.532 0.0527344ZM47.1044 2.03927L45.8249 2.07294L44.4781 2.17395L43.367 2.30863L41.9192 2.54432L40.5051 2.84735L38.9226 3.25139L37.5758 3.65543L36.1953 4.12681L34.7811 4.66553L33.5354 5.20425L32.7273 5.57462L31.6835 6.07967L30.202 6.88775L29.6296 7.22445L28.9899 7.62849L28.4848 7.96519L27.9461 8.33556L27.5421 8.63859L26.835 9.17731L26.3636 9.58135L26.0269 9.88439L25.7576 10.1201L25.4545 10.4231L25.5556 10.7935L26.1616 12.477L26.6667 13.8911L27.9461 17.4601L28.1481 17.9989L28.2492 18.0662L28.6869 18.0999H30.8081L32.2222 17.9989L33.569 17.8305L34.7811 17.6285L36.3636 17.2918L37.9125 16.8878L39.0572 16.5511L40.4377 16.0797L41.4478 15.7093L42.9293 15.1032L44.1077 14.5645L44.6801 14.2952L45.3199 13.9585L46.2626 13.4534L47.1717 12.9147L47.9798 12.4096L48.6195 11.9719L49.0909 11.6352L49.798 11.0965L50.202 10.7598L50.5051 10.5241L50.5387 10.4231L50.1347 9.88439L49.697 9.27832L49.2256 8.47024L48.8552 7.76317L48.4848 6.88775L48.1818 6.046L47.9461 5.20425L47.7441 4.26149L47.6094 3.25139L47.5421 2.07294L47.1044 2.03927ZM49.5286 2.24129V2.64533L49.6296 3.62176L49.8316 4.66553L50.101 5.57462L50.3704 6.31536L50.6734 6.98876L51.0101 7.66216L51.4478 8.36923L51.7508 8.77327L51.9529 9.00896L52.0875 8.97529L52.3569 8.63859L52.6936 8.20088L53.064 7.66216L53.4007 7.0561L53.67 6.3827L53.8047 5.77664V5.10324L53.7037 4.63186L53.4343 4.09314L53.1987 3.79011L52.8619 3.45341L52.3569 3.11671L51.5825 2.74634L50.8754 2.51065L50.202 2.3423L49.6633 2.24129H49.5286ZM24.5791 3.21772L22.7609 3.85745L19.9663 4.86755L19.7306 4.96856L19.899 5.13691L20.9091 6.01233L21.2795 6.31536L21.6162 6.61839L21.9865 6.92142L22.3232 7.22445L22.6936 7.52748L23.1987 7.96519L23.67 8.36923L23.8721 8.53758H23.9394V8.60492L24.2088 8.80694L24.3434 8.77327L24.6801 8.43657L24.9495 8.20088L25.3872 7.83051L25.7576 7.52748L26.4646 6.98876L26.936 6.65206L27.7778 6.07967L27.8788 6.01233L27.8114 5.87765L27.3064 5.43994L25.8923 4.22782L25.5219 3.92479L25.1515 3.58809L24.7811 3.28506L24.6801 3.21772H24.5791ZM23.6364 11.4669L21.7508 12.1403L21.7172 12.275L22.3569 14.0595L22.6936 14.9686L22.9966 15.844L23.6364 17.6285L24.0067 18.6386L24.0404 18.7733L24.3098 18.7396L25.7912 18.2009L26.0606 18.0999L26.0269 17.8979L25.2525 15.7093L24.5791 13.8574L23.8384 11.7699L23.7374 11.4669H23.6364ZM32.3569 19.9517L31.0101 20.0527H28.6532L27.9461 20.0191L27.7778 20.8945L27.3064 23.5207L27.0034 25.2716L26.936 25.6756L27.3064 25.5746L28.5185 25.1369L30.303 24.4972L31.8182 23.9585L31.8855 23.8911L32.3906 21.0965L32.5589 20.1201V19.9517H32.3569Z" fill="#23B643"/>
<path d="M35.7576 49.9854H36.1616L36.4983 50.1201L36.7677 50.3558L36.936 50.6588L36.9697 50.7935V51.1638L36.8013 51.5679L36.431 52.2076L34.9158 54.8339L34.4444 55.642L33.9057 56.5847L33.4343 57.3928L33.0303 58.0662L32.963 58.2682L33.266 58.6386L33.569 59.11L33.8047 59.615L33.9394 60.0864L34.0067 60.3894L34.0404 60.9955L34.0067 61.4669L33.8721 62.0393L33.67 62.578L33.4007 63.0494L33.064 63.4871L32.6936 63.8575L32.3569 64.0931L31.8855 64.3625L31.3805 64.5645L30.8417 64.6992L30.5724 64.7329H29.798L29.1246 64.5982L28.5859 64.3962L28.1145 64.1268L27.7441 63.8238L27.4747 63.5881L27.1717 63.2177L26.936 62.881L26.6667 62.3423L26.4983 61.8036L26.3973 61.1638V60.7261L26.4983 60.0864L26.734 59.3793L26.9697 58.9416L27.3064 58.4702L27.8114 57.9652L28.3165 57.6285L28.7879 57.3928L29.3266 57.2245L29.697 57.1571L30.2694 57.1234L30.7744 57.1571L31.2121 57.2581L31.2795 57.0898L31.7508 56.2817L32.1886 55.5073L33.1313 53.8911L33.67 52.9484L34.1751 52.0729L34.6465 51.2649L35.0505 50.5578L35.2862 50.2548L35.5556 50.0527L35.7576 49.9854ZM29.899 59.1436L29.4613 59.2783L29.0909 59.514L28.8889 59.6824L28.6532 60.0191L28.5185 60.2884L28.4175 60.6925V61.1975L28.5185 61.6016L28.7542 62.0393L29.0909 62.376L29.4949 62.6117L30.0337 62.7463H30.5051L30.9428 62.6117L31.3468 62.376L31.6498 62.0729L31.8519 61.7362L31.9865 61.3659L32.0202 61.1638V60.6925L31.9192 60.2884L31.6835 59.8507L31.4478 59.5814L31.1111 59.3457L30.7407 59.1773L30.5724 59.1436H29.899Z" fill="#23B643"/>
<path d="M39.8653 4.56452H40.7071L41.3468 4.66553L41.9192 4.83388L42.5253 5.10324L43.0303 5.40627L43.5017 5.77664L43.9731 6.24802L44.3434 6.75307L44.6465 7.29179L44.9158 7.96519L45.0505 8.50391L45.1178 9.00896V9.78337L45.0168 10.4904L44.8485 11.0292L44.6128 11.6016L44.3434 12.0729L44.0067 12.5106L43.7037 12.8473L43.2997 13.2177L42.8956 13.4871L42.3569 13.7901L41.8519 13.9921L41.2121 14.1605L40.7744 14.2278H39.7643L39.1582 14.1268L38.6195 13.9585L38.0808 13.7228L37.6094 13.4534L37.1717 13.1167L36.7677 12.7463L36.3973 12.3086L36.0606 11.8036L35.7576 11.1638L35.5556 10.5241L35.4545 9.98539L35.4209 9.31199L35.4882 8.63859L35.6566 7.93152L35.8586 7.42647L36.0943 6.95509L36.3636 6.55105L36.734 6.07967L37.0034 5.81031L37.5758 5.3726L38.1481 5.0359L38.6532 4.83388L39.2256 4.66553L39.8653 4.56452ZM40.0337 6.55105L39.4949 6.65206L39.0572 6.82041L38.6869 7.02243L38.2492 7.3928L37.9798 7.69583L37.7104 8.16721L37.5084 8.70593L37.4411 9.10997V9.7497L37.5421 10.2548L37.7778 10.7935L38.0808 11.2312L38.2828 11.4669L38.7205 11.8036L39.2593 12.0729L39.697 12.2076L39.899 12.2413H40.6734L41.3131 12.0729L41.8855 11.7699L42.1886 11.5342L42.5253 11.1975L42.8283 10.7261L43.0303 10.2211L43.1313 9.68236V9.17731L43.064 8.7396L42.8956 8.23455L42.5926 7.69583L42.2222 7.29179L41.8855 7.02243L41.3805 6.75307L40.9764 6.61839L40.5387 6.55105H40.0337Z" fill="#23B643"/>
<path d="M16.734 13.1504L17.0707 13.184L17.3401 13.3187L17.5421 13.4871L17.7441 13.8238L17.7778 13.9585V14.3625L17.6431 14.6992L17.4411 14.9349L16.9024 15.2043L15.9596 15.642L15.2525 16.0123L14.6128 16.4164L13.9731 16.8541L13.5017 17.2581L13.1313 17.5612L12.3906 18.3019L12.0875 18.6723L11.6162 19.2783L11.4141 19.615L12.3569 19.8507L13.064 19.9854L14.0404 20.0864H15.1852L16.229 19.9854L17.037 19.8507L18.0471 19.615L18.8215 19.413H19.2593L19.5286 19.514L19.8316 19.7834L20 20.1201L20.0337 20.2548V20.5578L19.899 20.8945L19.7643 21.0965L19.4613 21.2985L18.7205 21.5342L17.7441 21.7699L16.633 21.9719L15.3535 22.1066H13.8384L12.6599 21.9719L11.7845 21.8036L10.8081 21.5342L9.89899 21.1975L9.36027 20.9282L9.09091 20.6251L8.9899 20.3894L8.95623 20.1537L9.02357 19.7834L9.29293 19.2447L9.59596 18.7059L10 18.0999L10.404 17.5612L10.8418 17.0224L11.3131 16.5174L11.7508 16.0797L12.0202 15.844L12.4242 15.5073L12.9966 15.0696L13.7037 14.5982L14.3771 14.1941L15.1852 13.7564L16.229 13.2851L16.532 13.184L16.734 13.1504Z" fill="#23B643"/>
<path d="M21.8519 27.5612L22.1886 27.6285L22.4916 27.7968L22.6936 28.0325L22.8283 28.3356V28.8069L22.6263 29.211L22.3906 29.413L22.0202 29.5814L21.0101 29.9517L19.4276 30.5241L18.5522 30.8271L17.5421 31.1975L16.6667 31.5005L13.67 32.578L13.367 32.679L13.165 32.7127H12.8956L12.4916 32.5443L12.2222 32.2413L12.0875 31.9046V31.5342L12.2559 31.1302L12.4916 30.8945L13.0976 30.6251L14.0741 30.2884L15.3535 29.817L16.1279 29.5477L17.138 29.1773L18.3502 28.7396L19.2256 28.4366L21.0774 27.7632L21.5825 27.5948L21.8519 27.5612Z" fill="#23B643"/>
<path d="M13.569 5.06957H14.0067L14.4108 5.27159L14.6465 5.57462L14.7475 5.81031L14.7811 6.046L14.7138 6.3827L14.5791 6.65206L14.2761 6.92142L13.771 7.12344L12.2559 7.66216L10.6734 8.23455L7.47475 9.37933L5.6229 10.0527L5.15152 10.1874H4.81481L4.51178 10.0864L4.20875 9.81704L4.0404 9.48034L4.00673 9.37933V9.00896L4.17508 8.60492L4.47811 8.33556L5.15152 8.0662L9.83165 6.3827L11.3468 5.84398L13.1987 5.17058L13.569 5.06957Z" fill="#23B643"/>
<path d="M9.59596 31.9046H10.0673L10.3704 32.0393L10.6061 32.2413L10.7744 32.5443L10.8418 32.7463V32.982L10.7407 33.3187L10.5387 33.5881L10.3704 33.7228L10 33.8911L9.3266 34.1268L9.02357 34.1605L8.61953 34.0595L8.28283 33.7564L8.08081 33.3524V32.982L8.21549 32.6453L8.45118 32.376L8.6532 32.2413L9.36027 31.9719L9.59596 31.9046Z" fill="#23B643"/>
<path d="M1.54882 9.37933H1.95286L2.28956 9.51401L2.52525 9.71603L2.6936 10.0191L2.76094 10.2548L2.72727 10.6251L2.55892 10.9618L2.25589 11.2312L1.75084 11.4332L1.24579 11.6016L1.11111 11.6352H0.841751L0.47138 11.5005L0.16835 11.1975L0 10.8271V10.4904L0.10101 10.1537L0.40404 9.81704L0.909091 9.58135L1.54882 9.37933Z" fill="#23B643"/>
</g>
</svg>
