<svg width="60" height="66" viewBox="0 0 60 66" fill="none" xmlns="http://www.w3.org/2000/svg">
<g id="Vector">
<path d="M29.6633 31.6302H30.7744L32.2222 31.6975L33.4007 31.7985L34.9158 32.0005L36.3636 32.2699L37.6094 32.5729L38.6869 32.876L39.9327 33.28L41.0101 33.684L42.1212 34.1554L43.266 34.6941L44.2424 35.1992L44.5791 35.4012L45.1178 35.6706L45.6229 36.0073L46.3636 36.4787L46.8687 36.8154L47.4411 37.2194L48.0808 37.6908L48.6195 38.1285L49.0909 38.4989L49.596 38.9366L49.9663 39.2733L50.2357 39.509L50.7407 39.9803L51.8182 41.0578L52.0539 41.3271L52.1549 41.4282V41.4955H52.2222L52.4579 41.7649L52.8619 42.2362L53.165 42.6066L53.6027 43.1453L54.0741 43.7851L54.4444 44.2901L54.9832 45.0645L55.4882 45.8726L55.7912 46.3103L55.9933 46.546L56.2626 47.1857L56.7677 48.1622L57.037 48.7009L57.4747 49.6436L57.9125 50.6874L58.1481 51.2935L58.5522 52.5056L58.8215 53.381L59.0909 54.3911L59.3603 55.5359L59.596 56.8154L59.7643 57.9601L59.899 59.3069L59.9663 60.3844L60 61.3271L59.9663 61.6975L59.798 62.0342L59.5623 62.2699L59.2256 62.4046L58.9899 62.4383H47.2391L46.936 62.3709L46.633 62.1689L46.3973 61.8659L46.33 61.6638L46.2963 61.2935L46.229 59.9803L46.0943 58.9029L45.8923 57.8255L45.6229 56.8154L45.2862 55.8053L44.9832 55.0645L44.6128 54.2564L44.2088 53.482L43.8047 52.8086L43.468 52.3036L43.0303 51.6975L42.6599 51.2261L42.3569 50.8894L42.0539 50.5191L41.0438 49.509L40.6734 49.2059L40.3367 48.9029L39.9327 48.5999L39.3266 48.1622L38.6532 47.7245L38.0808 47.3878L37.3064 46.9837L36.532 46.6133L35.6566 46.2766L34.7475 45.9736L33.5354 45.6706L32.7946 45.5359L32.0875 45.4349L31.2458 45.3675L30.5724 45.3339H29.6633L28.5859 45.4012L27.7441 45.5022L26.6667 45.7043L25.5219 46.0073L24.3434 46.4113L23.6364 46.7144L22.7946 47.1184L22.1549 47.4551L21.5488 47.8255L20.8081 48.3305L20.404 48.6335L19.8653 49.0713L19.4949 49.3743L19.2593 49.61L18.9899 49.8457L18.3502 50.4854L18.0471 50.8558L17.7104 51.2261L17.1044 52.0342L16.734 52.5729L16.4983 52.9433L16.1616 53.5157L15.8923 53.9871L15.5219 54.7615L15.1515 55.6369L14.7475 56.8154L14.4781 57.8591L14.3098 58.7009L14.1414 59.9467L14.1077 60.4181L14.0741 61.3608L14.0067 61.7649L13.8721 62.0342L13.6364 62.2699L13.2997 62.4046L13.0303 62.4383H1.31313L1.0101 62.3709L0.707071 62.1689L0.50505 61.9332L0.40404 61.6975L0.37037 61.4955V61.0241L0.40404 59.9467L0.50505 58.5662L0.673401 57.1857L0.909091 55.7716L1.21212 54.3911L1.44781 53.482L1.78451 52.3372L2.15488 51.2598L2.62626 50.0477L3.16498 48.8356L3.50168 48.1285L3.83838 47.4888L4.14141 46.9164L4.61279 46.1083L5.01683 45.4686L5.38721 44.8962L5.82492 44.2564L6.26263 43.6504L6.633 43.179L7.03704 42.674L7.27273 42.3709L7.60943 42.0005L7.87879 41.6638L8.24916 41.2598L8.45118 41.0241H8.51852V40.9568H8.58586L8.6532 40.8221L9.86532 39.61L10.1347 39.3743L10.5387 39.0039L10.9091 38.7009L11.4141 38.2632L11.8519 37.9265L12.4242 37.4888L13.0303 37.0511L13.569 36.6807L14.4444 36.1083L15.2862 35.6032L16.1279 35.1319L17.2391 34.5595L18.3502 34.0544L19.596 33.5494L20.7407 33.1453L21.5825 32.876L22.5253 32.6066L24.1414 32.2362L25.4209 32.0005L26.6667 31.8322L28.1481 31.6975L29.6633 31.6302ZM28.6195 33.6504L27.3401 33.7514L25.9933 33.9197L24.8148 34.1218L23.6027 34.3911L22.4579 34.6941L21.1785 35.0982L20.3367 35.4012L19.2593 35.8389L18.1481 36.344L17.2054 36.8154L17.2391 36.9837L17.6768 37.7581L20.202 42.1352L20.6734 42.9433L21.2121 43.8861L21.6835 44.6941L21.9865 45.2329L22.1549 45.1992L23.0976 44.7615L23.9731 44.4248L25.0842 44.0544L26.2626 43.7514L27.3737 43.5494L28.4848 43.4147L29.1919 43.3473L29.2256 43.28V33.6504H28.6195ZM31.2121 33.6504V43.3473L32.4916 43.482L33.569 43.6504L34.7811 43.9197L35.9259 44.2564L36.7677 44.5595L37.7104 44.9635L38.2828 45.2329L38.4175 45.2665L38.9226 44.4248L39.3939 43.583L39.8316 42.8423L40.3704 41.8995L40.8418 41.0915L41.2458 40.3844L41.7508 39.509L42.2222 38.7009L43.0303 37.2867L43.1987 36.9837L43.165 36.8827L42.0539 36.3103L40.9428 35.8053L39.6633 35.3002L38.2828 34.8288L37.3401 34.5595L35.9933 34.2228L34.5455 33.9534L33.266 33.7851L32.2559 33.684L31.6498 33.6504H31.2121ZM15.3535 37.8928L14.4444 38.4989L13.8721 38.9029L13.5017 39.1723L13.064 39.509L12.5253 39.9467L12.1549 40.2497L11.8182 40.5527L11.5488 40.7884L11.1111 41.1925L10.8754 41.3945V41.4618H10.8081V41.5292L10.6734 41.5965L10.3367 41.9332V42.0005H10.2694V42.0679H10.202L9.96633 42.3372L9.69697 42.6066L9.46128 42.876L9.15825 43.2127L8.85522 43.583L8.45118 44.0544L8.11448 44.4921L7.6431 45.1319L7.23906 45.7043L6.90236 46.2093L6.66667 46.5797L6.633 46.6807L7.44108 47.1521L8.3165 47.6571L9.12458 48.1285L9.83165 48.5325L10.7071 49.0376L11.5152 49.509L12.3906 50.014L13.0976 50.4181L13.9057 50.8894L14.6128 51.2935L14.9495 51.4955H15.0505L15.4209 50.9568L15.8249 50.4181L16.1953 49.9467L16.5993 49.4753L16.9697 49.0713L17.0034 48.9702H17.0707V48.9029H17.138L17.3737 48.6335L17.6768 48.3305L17.7441 48.2968V48.2295L17.8788 48.1622L18.1481 47.8928L18.5185 47.5898L18.9562 47.2194L19.3603 46.9164L19.9663 46.4787L20.2694 46.2766L20.2357 46.1083L19.7306 45.2329L19.1919 44.2901L18.7205 43.482L18.1818 42.5393L17.8451 41.9669L17.3064 41.0241L16.835 40.216L15.8249 38.4652L15.4882 37.8928H15.3535ZM44.9158 37.9601L44.4444 38.7682L43.771 39.9467L43.2997 40.7548L42.7946 41.6302L42.3906 42.3372L41.9529 43.078L41.4141 44.0207L40.9091 44.8962L40.5724 45.4686L40.1347 46.243V46.3103L40.6734 46.6807L41.3131 47.1521L41.6835 47.4551L42.1549 47.8591L42.4916 48.1622L42.9293 48.5662L43.2997 48.9366L43.5354 49.2059L43.9057 49.61L44.2088 49.9803L44.6128 50.4854L45.0505 51.0915L45.2862 51.4282L45.3535 51.5292L45.5556 51.4618L46.2963 51.0241L53.2997 46.9837L53.67 46.748L53.6027 46.5797L53.266 46.0746L52.8956 45.5359L52.5589 45.0645L52.0202 44.3574L51.6498 43.8861L51.2121 43.381L50.8418 42.9433L49.8653 41.8995L49.2593 41.2935L48.9899 41.0578L48.7542 40.8221L48.4848 40.5864L48.0135 40.1824L47.5758 39.812L47.0034 39.3743L46.5657 39.0376L45.9596 38.5999L45.0168 37.9601H44.9158ZM5.58923 48.3979L5.31987 48.9366L4.94949 49.711L4.54545 50.6201L4.20875 51.4618L3.83838 52.4719L3.50168 53.5157L3.16498 54.7952L2.92929 55.8053L2.76094 56.7144L2.62626 57.5561L2.49158 58.7009L2.39057 60.014V60.4517H12.0539L12.0875 60.4181L12.2896 58.6672L12.5253 57.4214L12.7946 56.3777L13.1987 55.1655L13.569 54.2228L13.8721 53.5494L14.0067 53.28V53.2127L11.6162 51.8322L10.9091 51.4282L10.101 50.9568L6.59933 48.9366L5.89226 48.5325L5.69024 48.3979H5.58923ZM54.6128 48.4989L53.9394 48.8692L53.1313 49.3406L52.1885 49.8793L51.3805 50.3507L50.4377 50.8894L49.6296 51.3608L48.6869 51.8995L47.8788 52.3709L47.1717 52.775L46.431 53.2127L46.3973 53.381L46.8013 54.2228L47.2391 55.3339L47.5758 56.3777L47.8788 57.5898L48.0471 58.4989L48.1818 59.509L48.2828 60.4517H57.9798L57.8788 59.0039L57.7441 57.8255L57.5084 56.3777L57.2054 55.0308L56.8687 53.7514L56.4646 52.5056L56.0606 51.4282L55.7576 50.6874L55.3199 49.711L54.7811 48.5999L54.7138 48.4989H54.6128Z" fill="white"/>
<path d="M46.532 0.552734H47.3401L48.6195 0.620074L49.798 0.754755L50.8418 0.956775L51.7845 1.22614L52.4916 1.4955L53.1987 1.8322L53.7374 2.1689L54.1751 2.5056L54.5791 2.87597L54.9158 3.24634L55.2525 3.75139L55.5556 4.39112L55.6902 4.82883L55.7912 5.46856V6.24297L55.6902 6.91637L55.4882 7.62344L55.2862 8.12849L54.9495 8.83556L54.7475 9.17226L54.3434 9.77832L54.0741 10.1487L53.7037 10.6201L53.3333 11.0241L53.0976 11.2935L52.3232 12.0679L52.0539 12.3036L51.5825 12.7076L51.1785 13.0443L50.8418 13.3137L50.4377 13.6167L49.8653 14.0207L49.3266 14.3911L48.8215 14.7278L48.3838 14.9972L47.4411 15.5696L46.7003 15.9736L46.0606 16.3103L45.2189 16.748L44.2761 17.1857L43.0303 17.7245L41.6498 18.2632L40.404 18.7009L39.3603 19.0376L38.2155 19.3743L36.5993 19.7783L34.6801 20.1824L34.5791 20.6537L34.1414 23.1453L33.771 25.2329L33.6364 25.6369L33.4343 25.9063L33.2323 26.041L32.2559 26.4113L29.4276 27.4214L28.4175 27.7918L27.4411 28.1285L26.1616 28.5999L25.8249 28.7009H25.4882L25.1852 28.5999L24.8485 28.2968L24.6801 27.9265V27.4214L25.1515 24.7615L25.6229 22.1352L25.8249 20.9568L25.8923 20.7884L24.7138 21.1925L24.3098 21.2935H23.8047L23.4007 21.1925L22.9966 20.9904L22.6599 20.7211L22.3569 20.317L22.1549 19.8793L20.8754 16.3103L20.202 14.4248L19.8653 13.5157L19.7306 13.0443L19.697 12.5056L19.798 12.0342L20.0337 11.5628L20.3367 11.2261L20.5724 11.0241L21.1111 10.7548L22.1549 10.3844L22.2896 10.317L22.0539 10.0814L21.6835 9.77832L21.3805 9.50896L21.0101 9.20593L20.6061 8.83556L20.2694 8.5662L19.7643 8.12849L18.8215 7.32041L18.3838 6.95004L18.1145 6.71435L17.6431 6.31031L17.2727 6.00728L16.936 5.67058L16.8013 5.36755L16.7677 5.03085L16.8687 4.69415L17.0707 4.39112L17.3737 4.1891L18.6532 3.71772L19.899 3.28001L21.3805 2.74129L23.266 2.06789L24.2761 1.69752L24.7811 1.56284L25.0842 1.59651L25.3535 1.69752L25.7912 2.03422L26.1616 2.37092L26.532 2.67395L27.037 3.11166L27.5084 3.5157L27.9461 3.88607L28.4512 4.32378L28.8215 4.62681L29.1582 4.92984L29.596 5.26654V5.33388L29.7643 5.36755L30.3704 5.03085L31.3468 4.5258L32.3906 4.02075L34.0404 3.31368L35.6566 2.70762L36.835 2.30358L37.9461 1.96688L39.2929 1.59651L40.9091 1.22614L42.3569 0.956775L43.7374 0.754755L45.1178 0.620074L46.532 0.552734ZM47.1044 2.53927L45.8249 2.57294L44.4781 2.67395L43.367 2.80863L41.9192 3.04432L40.5051 3.34735L38.9226 3.75139L37.5758 4.15543L36.1953 4.62681L34.7811 5.16553L33.5354 5.70425L32.7273 6.07462L31.6835 6.57967L30.202 7.38775L29.6296 7.72445L28.9899 8.12849L28.4848 8.46519L27.9461 8.83556L27.5421 9.13859L26.835 9.67731L26.3636 10.0814L26.0269 10.3844L25.7576 10.6201L25.4545 10.9231L25.5556 11.2935L26.1616 12.977L26.6667 14.3911L27.9461 17.9601L28.1481 18.4989L28.2492 18.5662L28.6869 18.5999H30.8081L32.2222 18.4989L33.569 18.3305L34.7811 18.1285L36.3636 17.7918L37.9125 17.3878L39.0572 17.0511L40.4377 16.5797L41.4478 16.2093L42.9293 15.6032L44.1077 15.0645L44.6801 14.7952L45.3199 14.4585L46.2626 13.9534L47.1717 13.4147L47.9798 12.9096L48.6195 12.4719L49.0909 12.1352L49.798 11.5965L50.202 11.2598L50.5051 11.0241L50.5387 10.9231L50.1347 10.3844L49.697 9.77832L49.2256 8.97024L48.8552 8.26317L48.4848 7.38775L48.1818 6.546L47.9461 5.70425L47.7441 4.76149L47.6094 3.75139L47.5421 2.57294L47.1044 2.53927ZM49.5286 2.74129V3.14533L49.6296 4.12176L49.8316 5.16553L50.101 6.07462L50.3704 6.81536L50.6734 7.48876L51.0101 8.16216L51.4478 8.86923L51.7508 9.27327L51.9529 9.50896L52.0875 9.47529L52.3569 9.13859L52.6936 8.70088L53.064 8.16216L53.4007 7.5561L53.67 6.8827L53.8047 6.27664V5.60324L53.7037 5.13186L53.4343 4.59314L53.1987 4.29011L52.8619 3.95341L52.3569 3.61671L51.5825 3.24634L50.8754 3.01065L50.202 2.8423L49.6633 2.74129H49.5286ZM24.5791 3.71772L22.7609 4.35745L19.9663 5.36755L19.7306 5.46856L19.899 5.63691L20.9091 6.51233L21.2795 6.81536L21.6162 7.11839L21.9865 7.42142L22.3232 7.72445L22.6936 8.02748L23.1987 8.46519L23.67 8.86923L23.8721 9.03758H23.9394V9.10492L24.2088 9.30694L24.3434 9.27327L24.6801 8.93657L24.9495 8.70088L25.3872 8.33051L25.7576 8.02748L26.4646 7.48876L26.936 7.15206L27.7778 6.57967L27.8788 6.51233L27.8114 6.37765L27.3064 5.93994L25.8923 4.72782L25.5219 4.42479L25.1515 4.08809L24.7811 3.78506L24.6801 3.71772H24.5791ZM23.6364 11.9669L21.7508 12.6403L21.7172 12.775L22.3569 14.5595L22.6936 15.4686L22.9966 16.344L23.6364 18.1285L24.0067 19.1386L24.0404 19.2733L24.3098 19.2396L25.7912 18.7009L26.0606 18.5999L26.0269 18.3979L25.2525 16.2093L24.5791 14.3574L23.8384 12.2699L23.7374 11.9669H23.6364ZM32.3569 20.4517L31.0101 20.5527H28.6532L27.9461 20.5191L27.7778 21.3945L27.3064 24.0207L27.0034 25.7716L26.936 26.1756L27.3064 26.0746L28.5185 25.6369L30.303 24.9972L31.8182 24.4585L31.8855 24.3911L32.3906 21.5965L32.5589 20.6201V20.4517H32.3569Z" fill="white"/>
<path d="M35.7576 50.4854H36.1616L36.4983 50.6201L36.7677 50.8558L36.936 51.1588L36.9697 51.2935V51.6638L36.8013 52.0679L36.431 52.7076L34.9158 55.3339L34.4444 56.142L33.9057 57.0847L33.4343 57.8928L33.0303 58.5662L32.963 58.7682L33.266 59.1386L33.569 59.61L33.8047 60.115L33.9394 60.5864L34.0067 60.8894L34.0404 61.4955L34.0067 61.9669L33.8721 62.5393L33.67 63.078L33.4007 63.5494L33.064 63.9871L32.6936 64.3575L32.3569 64.5931L31.8855 64.8625L31.3805 65.0645L30.8417 65.1992L30.5724 65.2329H29.798L29.1246 65.0982L28.5859 64.8962L28.1145 64.6268L27.7441 64.3238L27.4747 64.0881L27.1717 63.7177L26.936 63.381L26.6667 62.8423L26.4983 62.3036L26.3973 61.6638V61.2261L26.4983 60.5864L26.734 59.8793L26.9697 59.4416L27.3064 58.9702L27.8114 58.4652L28.3165 58.1285L28.7879 57.8928L29.3266 57.7245L29.697 57.6571L30.2694 57.6234L30.7744 57.6571L31.2121 57.7581L31.2795 57.5898L31.7508 56.7817L32.1886 56.0073L33.1313 54.3911L33.67 53.4484L34.1751 52.5729L34.6465 51.7649L35.0505 51.0578L35.2862 50.7548L35.5556 50.5527L35.7576 50.4854ZM29.899 59.6436L29.4613 59.7783L29.0909 60.014L28.8889 60.1824L28.6532 60.5191L28.5185 60.7884L28.4175 61.1925V61.6975L28.5185 62.1016L28.7542 62.5393L29.0909 62.876L29.4949 63.1117L30.0337 63.2463H30.5051L30.9428 63.1117L31.3468 62.876L31.6498 62.5729L31.8519 62.2362L31.9865 61.8659L32.0202 61.6638V61.1925L31.9192 60.7884L31.6835 60.3507L31.4478 60.0814L31.1111 59.8457L30.7407 59.6773L30.5724 59.6436H29.899Z" fill="white"/>
<path d="M39.8653 5.06452H40.7071L41.3468 5.16553L41.9192 5.33388L42.5253 5.60324L43.0303 5.90627L43.5017 6.27664L43.9731 6.74802L44.3434 7.25307L44.6465 7.79179L44.9158 8.46519L45.0505 9.00391L45.1178 9.50896V10.2834L45.0168 10.9904L44.8485 11.5292L44.6128 12.1016L44.3434 12.5729L44.0067 13.0106L43.7037 13.3473L43.2997 13.7177L42.8956 13.9871L42.3569 14.2901L41.8519 14.4921L41.2121 14.6605L40.7744 14.7278H39.7643L39.1582 14.6268L38.6195 14.4585L38.0808 14.2228L37.6094 13.9534L37.1717 13.6167L36.7677 13.2463L36.3973 12.8086L36.0606 12.3036L35.7576 11.6638L35.5556 11.0241L35.4545 10.4854L35.4209 9.81199L35.4882 9.13859L35.6566 8.43152L35.8586 7.92647L36.0943 7.45509L36.3636 7.05105L36.734 6.57967L37.0034 6.31031L37.5758 5.8726L38.1481 5.5359L38.6532 5.33388L39.2256 5.16553L39.8653 5.06452ZM40.0337 7.05105L39.4949 7.15206L39.0572 7.32041L38.6869 7.52243L38.2492 7.8928L37.9798 8.19583L37.7104 8.66721L37.5084 9.20593L37.4411 9.60997V10.2497L37.5421 10.7548L37.7778 11.2935L38.0808 11.7312L38.2828 11.9669L38.7205 12.3036L39.2593 12.5729L39.697 12.7076L39.899 12.7413H40.6734L41.3131 12.5729L41.8855 12.2699L42.1886 12.0342L42.5253 11.6975L42.8283 11.2261L43.0303 10.7211L43.1313 10.1824V9.67731L43.064 9.2396L42.8956 8.73455L42.5926 8.19583L42.2222 7.79179L41.8855 7.52243L41.3805 7.25307L40.9764 7.11839L40.5387 7.05105H40.0337Z" fill="white"/>
<path d="M16.734 13.6504L17.0707 13.684L17.3401 13.8187L17.5421 13.9871L17.7441 14.3238L17.7778 14.4585V14.8625L17.6431 15.1992L17.4411 15.4349L16.9024 15.7043L15.9596 16.142L15.2525 16.5123L14.6128 16.9164L13.9731 17.3541L13.5017 17.7581L13.1313 18.0612L12.3906 18.8019L12.0875 19.1723L11.6162 19.7783L11.4141 20.115L12.3569 20.3507L13.064 20.4854L14.0404 20.5864H15.1852L16.229 20.4854L17.037 20.3507L18.0471 20.115L18.8215 19.913H19.2593L19.5286 20.014L19.8316 20.2834L20 20.6201L20.0337 20.7548V21.0578L19.899 21.3945L19.7643 21.5965L19.4613 21.7985L18.7205 22.0342L17.7441 22.2699L16.633 22.4719L15.3535 22.6066H13.8384L12.6599 22.4719L11.7845 22.3036L10.8081 22.0342L9.89899 21.6975L9.36027 21.4282L9.09091 21.1251L8.9899 20.8894L8.95623 20.6537L9.02357 20.2834L9.29293 19.7447L9.59596 19.2059L10 18.5999L10.404 18.0612L10.8418 17.5224L11.3131 17.0174L11.7508 16.5797L12.0202 16.344L12.4242 16.0073L12.9966 15.5696L13.7037 15.0982L14.3771 14.6941L15.1852 14.2564L16.229 13.7851L16.532 13.684L16.734 13.6504Z" fill="white"/>
<path d="M21.8519 28.0612L22.1886 28.1285L22.4916 28.2968L22.6936 28.5325L22.8283 28.8356V29.3069L22.6263 29.711L22.3906 29.913L22.0202 30.0814L21.0101 30.4517L19.4276 31.0241L18.5522 31.3271L17.5421 31.6975L16.6667 32.0005L13.67 33.078L13.367 33.179L13.165 33.2127H12.8956L12.4916 33.0443L12.2222 32.7413L12.0875 32.4046V32.0342L12.2559 31.6302L12.4916 31.3945L13.0976 31.1251L14.0741 30.7884L15.3535 30.317L16.1279 30.0477L17.138 29.6773L18.3502 29.2396L19.2256 28.9366L21.0774 28.2632L21.5825 28.0948L21.8519 28.0612Z" fill="white"/>
<path d="M13.569 5.56957H14.0067L14.4108 5.77159L14.6465 6.07462L14.7475 6.31031L14.7811 6.546L14.7138 6.8827L14.5791 7.15206L14.2761 7.42142L13.771 7.62344L12.2559 8.16216L10.6734 8.73455L7.47475 9.87933L5.6229 10.5527L5.15152 10.6874H4.81481L4.51178 10.5864L4.20875 10.317L4.0404 9.98034L4.00673 9.87933V9.50896L4.17508 9.10492L4.47811 8.83556L5.15152 8.5662L9.83165 6.8827L11.3468 6.34398L13.1987 5.67058L13.569 5.56957Z" fill="white"/>
<path d="M9.59596 32.4046H10.0673L10.3704 32.5393L10.6061 32.7413L10.7744 33.0443L10.8418 33.2463V33.482L10.7407 33.8187L10.5387 34.0881L10.3704 34.2228L10 34.3911L9.3266 34.6268L9.02357 34.6605L8.61953 34.5595L8.28283 34.2564L8.08081 33.8524V33.482L8.21549 33.1453L8.45118 32.876L8.6532 32.7413L9.36027 32.4719L9.59596 32.4046Z" fill="white"/>
<path d="M1.54882 9.87933H1.95286L2.28956 10.014L2.52525 10.216L2.6936 10.5191L2.76094 10.7548L2.72727 11.1251L2.55892 11.4618L2.25589 11.7312L1.75084 11.9332L1.24579 12.1016L1.11111 12.1352H0.841751L0.47138 12.0005L0.16835 11.6975L0 11.3271V10.9904L0.10101 10.6537L0.40404 10.317L0.909091 10.0814L1.54882 9.87933Z" fill="white"/>
</g>
</svg>
